<svg width="500" height="500" viewBox="0 0 500 500" fill="none" xmlns="http://www.w3.org/2000/svg">
<g clip-path="url(#clip0_417_801)">
<path d="M65.1481 119.77L65.3081 139.09L157.408 138.34C167.831 138.252 177.977 141.7 186.188 148.12L218.548 173.42C222.122 176.223 225.01 179.803 226.994 183.889C228.978 187.975 230.005 192.458 229.998 197V208.49L188.668 199L175.268 174.49C171.528 167.65 163.528 165.49 157.398 169.64L153.688 172.16L165.458 193.69L76.5781 177.6C69.5781 175.99 62.6681 181.04 61.2181 188.88L60.3481 193.61L85.0681 199.26L54.2281 210.49L38.5981 179.4C35.0581 172.4 27.1181 170 20.8681 173.95L17.0981 176.34L37.4081 216.62L8.32812 227.21L13.7181 245.57L113.718 209.17C120.788 206.6 132.568 205.86 139.898 207.54L215.828 224.91C219.863 225.847 223.461 228.124 226.035 231.37C228.609 234.615 230.006 238.638 229.998 242.78V250H269.998V242.78C269.994 238.628 271.401 234.598 273.989 231.351C276.576 228.104 280.19 225.833 284.238 224.91L360.168 207.54C367.498 205.86 379.278 206.6 386.348 209.17L486.298 245.57L491.688 227.21L462.608 216.62L482.918 176.34L479.128 174C472.878 170.05 464.938 172.49 461.398 179.45L445.768 210.54L414.928 199.31L439.648 193.66L438.778 188.93C437.328 181.09 430.458 176.04 423.418 177.65L334.538 193.73L346.308 172.2L342.598 169.68C336.468 165.52 328.468 167.68 324.728 174.53L311.328 199L269.998 208.45V197C270.002 192.462 271.038 187.984 273.029 183.905C275.02 179.827 277.913 176.255 281.488 173.46L313.848 148.16C322.06 141.74 332.205 138.292 342.628 138.38L434.728 139.13L434.888 119.81L418.418 119.68L442.668 90.6802C438.521 85.6735 434.188 80.8335 429.668 76.1602L401.958 109.28C399.29 112.466 395.95 115.023 392.178 116.768C388.405 118.512 384.294 119.401 380.138 119.37L350.998 119.09L380.198 96.2602L377.198 92.4602C376.025 90.9583 374.567 89.7029 372.908 88.766C371.249 87.829 369.421 87.2291 367.529 87.0005C365.637 86.7719 363.719 86.9193 361.884 87.434C360.05 87.9488 358.335 88.8208 356.838 90.0002L270.058 157.8L269.958 131.27C269.958 122.4 274.468 114.12 282.318 108.56L304.938 92.5602L327.148 76.8302C334.07 72.0258 342.302 69.4668 350.728 69.5002H395.608V50.1602H350.728C347.995 50.1661 345.266 50.3532 342.558 50.7202C343.573 46.7771 344.087 42.7218 344.088 38.6502V18.3302C337.768 15.7635 331.328 13.4468 324.768 11.3802V38.6502C324.768 48.9302 319.568 58.5102 310.498 64.9302L308.908 66.0602L277.998 88.0002L271.158 92.8401C270.068 93.6101 268.658 94.6002 267.078 95.7302L273.538 78.7902C279.869 62.2499 280.893 44.1489 276.468 27.0002L270.998 5.66016L252.298 10.4402L257.758 31.7902C259.517 38.6424 260.165 45.7325 259.678 52.7902L229.858 43.6102C226.247 42.3779 222.969 40.328 220.28 37.6202C217.592 34.9125 215.565 31.6202 214.358 28.0002L210.128 15.3002L191.808 21.4102L195.998 34.1102C198.17 40.5803 201.811 46.4593 206.636 51.286C211.461 56.1128 217.339 59.7561 223.808 61.9302L255.508 71.6902C255.489 71.7518 255.466 71.8119 255.438 71.8702L243.378 103.55C237.938 99.2102 232.028 95.0802 228.798 92.7902L221.998 88.0002L191.088 66.0602L189.498 64.9302C180.428 58.5102 175.228 48.9302 175.228 38.6502V12.7602C168.701 15.0002 162.261 17.5102 155.908 20.2902V38.6502C155.909 42.7218 156.423 46.7771 157.438 50.7202C154.73 50.3532 152.001 50.1661 149.268 50.1602H104.568L104.388 50.3002V69.4802H149.268C157.694 69.4468 165.926 72.0058 172.848 76.8102L195.058 92.5402L217.678 108.54C225.528 114.1 230.038 122.38 230.038 131.25L229.938 157.78L143.158 90.0002C141.66 88.8271 139.946 87.961 138.113 87.4512C136.28 86.9414 134.365 86.7981 132.477 87.0294C130.588 87.2606 128.764 87.862 127.109 88.799C125.453 89.7361 123.998 90.9904 122.828 92.4902L119.828 96.2902L149.028 119.12L119.908 119.36C115.752 119.391 111.641 118.502 107.869 116.758C104.096 115.013 100.756 112.456 98.0881 109.27L72.2981 78.3802C67.7581 83.0468 63.3915 87.8635 59.1981 92.8302L81.6181 119.64L65.1481 119.77Z" fill="#46DC78"/>
<path d="M379.998 320.17V250H359.998V270H339.998V250H319.998V270H299.998V250H269.998V410H229.998V250H199.998V390H179.998V280L79.9978 326V270H0.757812C4.47024 317.62 21.8298 363.161 50.7578 401.17C62.2405 416.302 75.4049 430.08 89.9978 442.24V430H109.998V457.27C130.688 471.246 153.361 482.033 177.258 489.27C178.168 489.55 179.078 489.82 179.998 490.08C189.486 492.831 199.13 495.015 208.878 496.62C215.638 497.74 222.488 498.583 229.428 499.15L229.998 499.21V440H249.998V500C256.731 500 263.398 499.733 269.998 499.2V440H289.998V496.8L291.118 496.61C386.258 480.87 463.248 411.42 489.918 320.45L379.998 320.17ZM109.998 410H89.9978V380H109.998V410ZM149.998 460H129.998V430H149.998V460ZM149.998 410H129.998V380H149.998V410ZM149.998 360H129.998V330H149.998V360ZM359.998 370H339.998V340H359.998V370ZM319.998 370H299.998V340H319.998V370ZM299.998 320V290H319.998V320H299.998ZM359.998 290V320H339.998V290H359.998ZM309.998 390H319.998V410H299.998V390H309.998ZM359.998 410H339.998V390H359.998V410ZM399.998 410H379.998V340H399.998V410ZM420.288 410V340H440.288V410H420.288Z" fill="#374236"/>
</g>
<defs>
<clipPath id="clip0_417_801">
<rect width="500" height="500" fill="white"/>
</clipPath>
</defs>
</svg>
