<svg width="500" height="500" viewBox="0 0 500 500" fill="none" xmlns="http://www.w3.org/2000/svg">
<path d="M260.047 110.36C267.378 110.879 274.657 111.973 281.817 113.63C284.977 114.37 288.097 115.214 291.177 116.16L330.997 13.4302C308.126 5.61117 284.239 1.16123 260.087 0.220215L260.047 110.36Z" fill="#374236"/>
<path d="M370.58 178.84L469.23 129.77C457.58 108.587 442.929 89.1997 425.73 72.21L351.5 153.58C358.793 161.253 365.194 169.727 370.58 178.84Z" fill="#374236"/>
<path d="M208.919 116.13C211.779 115.25 214.679 114.47 217.609 113.77C224.984 112.025 232.489 110.884 240.049 110.36V0.209961C215.89 1.13252 191.993 5.56563 169.109 13.37L208.919 116.13Z" fill="#374236"/>
<path d="M314.999 374C305.623 378.926 295.716 382.764 285.469 385.44L305.679 493.74C315.965 491.42 326.093 488.444 335.999 484.83C339.832 483.43 343.615 481.937 347.349 480.35C351.082 478.763 354.775 477.097 358.429 475.35C360.249 474.47 362.055 473.57 363.849 472.65C366.929 471.07 369.972 469.427 372.979 467.72L314.999 374Z" fill="#374236"/>
<path d="M249.998 390C244.692 389.999 239.39 389.698 234.118 389.1L213.828 497.39C237.753 500.857 262.053 500.857 285.978 497.39L265.778 389.09C260.539 389.687 255.271 389.99 249.998 390Z" fill="#374236"/>
<path d="M163.35 140C171.662 133.441 180.694 127.849 190.27 123.33L150.5 20.6001C147.5 21.9001 144.5 23.2401 141.61 24.6001C139.79 25.4801 137.983 26.3801 136.19 27.3001C130.803 30.0601 125.53 33.0068 120.37 36.1401C118.65 37.1901 116.94 38.2501 115.25 39.3401C106.151 45.1912 97.4425 51.6281 89.1797 58.6101L163.35 140Z" fill="#374236"/>
<path d="M379.5 196.74C383.537 206.533 386.436 216.756 388.14 227.21L497.84 217.08C494.692 193.106 488.062 169.719 478.16 147.66L379.5 196.74Z" fill="#374236"/>
<path d="M129.999 177.86C135.283 169.091 141.51 160.926 148.569 153.51L74.3894 72.0801C57.1848 89.0606 42.5234 108.437 30.8594 129.61L129.469 178.76L129.999 177.86Z" fill="#374236"/>
<path d="M381.587 297.89C377.962 307.84 373.215 317.345 367.438 326.22L455.318 392.64C455.978 391.64 456.648 390.74 457.318 389.78C469.796 371.327 479.738 351.281 486.878 330.18C487.118 329.49 487.338 328.78 487.568 328.08L381.587 297.89Z" fill="#374236"/>
<path d="M443.26 408.59L355.37 342.17C348.41 350.136 340.57 357.288 332 363.49L390 457.19C410.017 443.636 427.975 427.268 443.32 408.59H443.26Z" fill="#374236"/>
<path d="M167.937 363.43C159.365 357.22 151.522 350.061 144.557 342.09L56.6172 408.45C71.9531 427.138 89.9007 443.519 109.907 457.09L167.937 363.43Z" fill="#374236"/>
<path d="M390.003 247.12C390.003 248.12 390.003 249.04 390.003 250C390.004 259.625 389.019 269.226 387.062 278.65L493.062 308.84C494.702 302.02 496.063 295.1 497.163 288.07C498.113 281.87 498.832 275.58 499.312 269.24C499.793 262.9 500.003 256.47 500.003 250C500.003 245.64 499.893 241.307 499.673 237L390.003 247.12Z" fill="#374236"/>
<path d="M184.93 374L126.93 467.65C129.99 469.383 133.086 471.05 136.22 472.65C138.013 473.57 139.82 474.47 141.64 475.35C145.286 477.103 148.98 478.77 152.72 480.35C156.46 481.93 160.22 483.423 164 484.83C173.844 488.435 183.908 491.411 194.13 493.74L214.42 385.44C204.186 382.761 194.292 378.923 184.93 374Z" fill="#374236"/>
<path d="M309.82 123.4C312.074 124.46 314.294 125.58 316.48 126.76C323.602 130.615 330.377 135.078 336.73 140.1L411 58.7199C402.689 51.7184 393.934 45.2616 384.79 39.3899C383.1 38.2999 381.39 37.2399 379.67 36.1899C374.524 33.0632 369.25 30.1166 363.85 27.3499C362.057 26.4299 360.25 25.5299 358.43 24.6499C355.55 23.2699 352.64 21.9366 349.7 20.6499L309.82 123.4Z" fill="#374236"/>
<path d="M110 250C110 249 110 248 110 247L0.35 236.82C0.116667 241.18 0 245.573 0 250C0 256.473 0.243333 262.886 0.73 269.24C1.21 275.58 1.93 281.87 2.88 288.07C3.41333 291.563 4.02 295.02 4.7 298.44C5.38 301.88 6.13 305.28 6.94 308.67L112.94 278.55C110.988 269.158 110.003 259.592 110 250Z" fill="#46DC78"/>
<path d="M120.53 196.65L21.9197 147.5C20.6997 150.207 19.5264 152.94 18.3997 155.7C14.4429 165.423 11.1029 175.386 8.39969 185.53C7.62969 188.45 6.89969 191.39 6.22969 194.35C5.55969 197.31 4.93969 200.29 4.36969 203.29C3.79969 206.29 3.28969 209.29 2.82969 212.34C2.59969 213.85 2.38969 215.34 2.17969 216.9L111.87 227.11C113.592 216.661 116.497 206.442 120.53 196.65Z" fill="#46DC78"/>
<path d="M12.3984 327.91C12.6384 328.66 12.8784 329.43 13.1384 330.18C20.2776 351.281 30.2199 371.327 42.6984 389.78C43.3084 390.69 43.9484 391.58 44.5684 392.49L132.498 326.14C126.731 317.255 121.991 307.744 118.368 297.79L12.3984 327.91Z" fill="#46DC78"/>
<path d="M262.93 240H227.07C225.196 239.997 223.399 239.252 222.074 237.926C220.748 236.601 220.003 234.804 220 232.93V227.07C219.997 225.196 219.252 223.399 217.926 222.074C216.601 220.748 214.804 220.003 212.93 220H182.93C182.001 220.001 181.082 219.819 180.223 219.464C179.365 219.109 178.586 218.587 177.93 217.93L162.07 202.07C161.413 201.414 160.891 200.635 160.536 199.777C160.181 198.918 159.999 197.999 160 197.07V187.07C160.003 185.196 160.748 183.399 162.074 182.074C163.399 180.748 165.196 180.003 167.07 180H192.93C194.804 179.997 196.601 179.252 197.926 177.926C199.252 176.601 199.997 174.804 200 172.93V167.07C200 165.671 200.414 164.304 201.191 163.141C201.968 161.978 203.072 161.072 204.364 160.537C205.656 160.002 207.078 159.862 208.45 160.134C209.821 160.407 211.081 161.081 212.07 162.07L215.13 165.13C216.433 166.434 218.193 167.178 220.037 167.204C221.88 167.23 223.66 166.536 225 165.27L226.19 164.13C227.28 163.099 228.015 161.748 228.286 160.272C228.558 158.796 228.352 157.272 227.7 155.92L220.7 141.46C220.232 140.501 219.989 139.447 219.99 138.38V119.06C219.993 118.059 219.781 117.068 219.369 116.156C218.957 115.243 218.354 114.43 217.6 113.77C214.67 114.47 211.77 115.25 208.91 116.13C202.526 118.085 196.293 120.501 190.26 123.36C165.246 135.198 144.283 154.157 130 177.86V187.07C129.999 187.999 130.181 188.918 130.536 189.777C130.891 190.635 131.413 191.414 132.07 192.07L140 200L142.09 202.09L148.85 208.85L160 220L167.93 227.93C168.587 228.586 169.109 229.365 169.464 230.224C169.819 231.082 170.001 232.001 170 232.93V247.07C169.999 247.999 170.181 248.918 170.536 249.777C170.891 250.635 171.413 251.414 172.07 252.07L180 260L200 280L207.93 287.93C208.587 288.586 209.109 289.365 209.464 290.224C209.819 291.082 210.001 292.001 210 292.93V308.33C209.999 309.427 209.742 310.509 209.25 311.49L200.75 328.49C200.258 329.471 200.001 330.553 200 331.65V342.91C200.003 344.784 200.748 346.581 202.074 347.906C203.399 349.232 205.196 349.977 207.07 349.98H212.93C214.804 349.977 216.601 349.232 217.926 347.906C219.252 346.581 219.997 344.784 220 342.91V332.91C219.999 331.981 220.181 331.062 220.536 330.204C220.891 329.345 221.413 328.566 222.07 327.91L230 320L240 310L247.78 302C249.013 300.732 249.726 299.048 249.78 297.28L250 290V287.07C250.003 285.196 250.748 283.399 252.074 282.074C253.399 280.748 255.196 280.003 257.07 280H262.93C264.804 279.997 266.601 279.252 267.926 277.926C269.252 276.601 269.997 274.804 270 272.93V247.07C269.997 245.196 269.252 243.399 267.926 242.074C266.601 240.748 264.804 240.003 262.93 240Z" fill="#46DC78"/>
<path d="M250 110V118.25C249.998 118.807 250.107 119.359 250.32 119.874C250.533 120.389 250.846 120.857 251.24 121.25L257.41 127.42C258.13 128.137 259.084 128.571 260.097 128.643C261.111 128.714 262.116 128.419 262.93 127.81L281.82 113.64C274.66 111.982 267.381 110.889 260.05 110.37C256.73 110.13 253.38 110 250 110Z" fill="#46DC78"/>
<path d="M318.574 160H327.074C328.002 160.001 328.922 159.819 329.78 159.464C330.638 159.109 331.418 158.587 332.074 157.93L340.004 150L343.874 146.13C341.564 144.04 339.174 142.03 336.734 140.13C330.381 135.108 323.606 130.645 316.484 126.79L311.004 129.49C310.323 129.827 309.701 130.273 309.164 130.81L305.504 134.47L300.004 140L297.914 142.09L292.074 147.93C291.693 148.299 291.358 148.712 291.074 149.16C290.395 150.23 290.017 151.464 289.98 152.73C289.942 153.997 290.246 155.25 290.86 156.359C291.473 157.468 292.374 158.391 293.468 159.032C294.561 159.672 295.807 160.007 297.074 160H318.574Z" fill="#46DC78"/>
<path d="M390 247.12C389.662 229.824 386.115 212.741 379.54 196.74C378.61 194.46 377.61 192.22 376.54 190H315C313.674 190 312.402 190.527 311.464 191.464C310.527 192.402 310 193.674 310 195V215C310 216.326 310.527 217.598 311.464 218.536C312.402 219.473 313.674 220 315 220C316.326 220 317.598 220.527 318.536 221.464C319.473 222.402 320 223.674 320 225V235C320 236.326 320.527 237.598 321.464 238.536C322.402 239.473 323.674 240 325 240H337.93C339.254 240 340.523 240.525 341.46 241.46L348.54 248.54C349.475 249.477 350 250.746 350 252.07V255C350 256.326 350.527 257.598 351.464 258.536C352.402 259.473 353.674 260 355 260H365C365.887 260.006 366.757 260.247 367.52 260.7C368.272 261.139 368.896 261.766 369.331 262.521C369.766 263.275 369.997 264.129 370 265V267.93C370 269.254 369.475 270.523 368.54 271.46L367.05 273L365.45 274.6L352.53 287.52L351.46 288.59C350.525 289.527 350 290.796 350 292.12V327.98C350 329.304 350.525 330.573 351.46 331.51L357.1 337.15C357.57 337.615 358.127 337.982 358.74 338.23C361.847 334.384 364.751 330.379 367.44 326.23C373.218 317.355 377.965 307.85 381.59 297.9C383.877 291.628 385.705 285.197 387.06 278.66C389.017 269.232 390.002 259.629 390 250C390 249 390 248.08 390 247.12Z" fill="#46DC78"/>
</svg>
