<svg width="500" height="500" viewBox="0 0 500 500" fill="none" xmlns="http://www.w3.org/2000/svg">
<path d="M187.798 186.66L133.938 100H110.398L175.988 205.55L187.798 186.66Z" fill="#F0F0F0"/>
<path d="M154.464 240L164.874 223.34L88.2438 100H85.5438L75.0938 116.73L151.684 240H154.464Z" fill="#F0F0F0"/>
<path d="M63.9819 134.5L52.1719 153.4L105.952 240H129.502L63.9819 134.5Z" fill="#F0F0F0"/>
<path d="M435.689 366.03L447.499 347.14L393.339 260H369.789L435.689 366.03Z" fill="#F0F0F0"/>
<path d="M345.543 260L335.133 276.66L411.763 400H414.463L424.913 383.27L348.333 260H345.543Z" fill="#F0F0F0"/>
<path d="M312.562 312.77L366.733 400H390.272L324.372 293.88L312.562 312.77Z" fill="#F0F0F0"/>
<path d="M171.789 250L215.539 320H284.459L328.209 250L284.459 180H215.539L171.789 250Z" fill="#F0F0F0"/>
<path d="M500 180V160H475.54L425.54 80H345.54L295.54 0H204.46L154.46 80H74.46L24.46 160H0V180H24.46L68.21 250L24.46 320H0V340H24.46L74.46 420H154.46L204.46 500H295.54L345.54 420H425.54L475.54 340H500V320H475.54L431.79 250L475.54 180H500ZM215.54 20H284.46L328.21 90L284.46 160H215.54L171.79 90L215.54 20ZM414.46 400H345.54L301.79 330L312.56 312.77L324.37 293.88L335.13 276.66L345.54 260H414.46L458.21 330L447.5 347.14L435.69 366L424.91 383.24L414.46 400ZM284.46 320H215.54L171.79 250L215.54 180H284.46L328.21 250L284.46 320ZM88.24 100H154.46L198.21 170L187.8 186.65L176 205.55L164.88 223.34L154.46 240H85.54L41.79 170L52.17 153.4L64 134.5L75.11 116.73L85.54 100H88.24ZM85.54 400L41.79 330L85.54 260H154.46L198.21 330L154.46 400H85.54ZM284.46 480H215.54L171.79 410L215.54 340H284.46L328.21 410L284.46 480ZM414.46 240H345.54L301.79 170L345.54 100H414.46L458.21 170L414.46 240Z" fill="#46DC78"/>
</svg>
