<svg width="500" height="500" viewBox="0 0 500 500" fill="none" xmlns="http://www.w3.org/2000/svg">
<g clip-path="url(#clip0_417_198)">
<path d="M33.7625 374.31L126.403 467C142.857 476.445 160.337 483.977 178.503 489.45L11.3125 322.21C16.7855 340.376 24.3177 357.856 33.7625 374.31Z" fill="#46DC78"/>
<path d="M250.69 127.58V98.0001L167 14.3701C159.84 16.9235 152.84 19.8001 146 23.0001L250.69 127.69V127.58Z" fill="#46DC78"/>
<path d="M250.687 185.52V156L127.277 32.5596C121.03 36.1196 114.954 39.9329 109.047 43.9996L250.687 185.63V185.52Z" fill="#46DC78"/>
<path d="M250.692 243.46V213.92L92.8919 56.1201C87.4585 60.5535 82.2185 65.2001 77.1719 70.0601L250.692 243.58V243.46Z" fill="#46DC78"/>
<path d="M214.82 497.42C183.686 492.974 153.68 482.65 126.4 467C70.9502 435.21 29.7701 383.403 11.31 322.21C7.73859 310.32 5.06441 298.18 3.31 285.89C1.76977 275.226 0.918009 264.474 0.76 253.7C0.76 252.47 0.71 251.24 0.71 250C0.71 242.07 1.1 234.23 1.82 226.48C2.6283 217.793 3.89002 209.155 5.6 200.6C7.14 192.933 9.02667 185.4 11.26 178C13.4933 170.6 16.0733 163.283 19 156.05C21.6667 149.43 24.6167 142.953 27.85 136.62C31.1833 130.14 34.76 123.83 38.58 117.69C42.18 111.93 46 106.31 50 100.88C54.2133 95.2333 58.6467 89.7767 63.3 84.51C67.7667 79.5033 72.39 74.6867 77.17 70.06C82.21 65.2 87.45 60.5533 92.89 56.12C98.11 51.8733 103.497 47.8333 109.05 44C114.95 39.94 121.027 36.1267 127.28 32.56C133.347 29.1067 139.573 25.9067 145.96 22.96C152.82 19.7867 159.833 16.9233 167 14.37C174.08 11.85 181.303 9.64667 188.67 7.76C205.2 3.54666 222.118 1.0402 239.16 0.28C242.87 0.11 246.6 0 250.36 0H250C111.93 0 0 111.93 0 250C0 388.07 111.93 500 250 500H250.36H247C236.229 499.832 225.48 498.97 214.82 497.42Z" fill="#46DC78"/>
<path d="M214.818 497.42C225.478 498.97 236.227 499.832 246.998 500L0.757812 253.7C0.909196 264.473 1.75428 275.226 3.28781 285.89L214.818 497.42Z" fill="#46DC78"/>
<path d="M250.686 11.8V0H250.356C246.596 0 242.866 0.11 239.156 0.28L250.686 11.8Z" fill="#46DC78"/>
<path d="M250.693 69.6303V40.0903L213.383 2.78027C205.077 4.02853 196.84 5.69734 188.703 7.78027L250.703 69.7803L250.693 69.6303Z" fill="#46DC78"/>
<path d="M250.69 445.69L5.60031 200.6C3.89033 209.155 2.62861 217.793 1.82031 226.48L250.69 475.35V445.69Z" fill="#46DC78"/>
<path d="M250.694 359.35V329.81L38.5737 117.69C34.7471 123.83 31.1704 130.14 27.8438 136.62L250.694 359.46V359.35Z" fill="#46DC78"/>
<path d="M250.688 417.29V387.75L18.9978 156.05C16.0778 163.196 13.4978 170.513 11.2578 178L250.688 417.41V417.29Z" fill="#46DC78"/>
<path d="M250.689 301.41V271.86L63.3391 84.5098C58.6724 89.7764 54.2391 95.2331 50.0391 100.88L250.689 301.52V301.41Z" fill="#46DC78"/>
<path d="M250.693 40.0003V11.8003L239.163 0.280273C230.532 0.664644 221.927 1.49911 213.383 2.78027L250.693 40.0903V40.0003Z" fill="#F0F0F0"/>
<path d="M250.693 97.92V69.75L188.693 7.75C181.36 9.63 174.137 11.8333 167.023 14.36L250.693 98V97.92Z" fill="#F0F0F0"/>
<path d="M250.69 155.86V127.69L146 23C139.62 25.94 133.394 29.14 127.32 32.6L250.69 156V155.86Z" fill="#F0F0F0"/>
<path d="M250.691 213.8V185.63L109.051 44C103.497 47.82 98.1106 51.86 92.8906 56.12L250.691 213.92V213.8Z" fill="#F0F0F0"/>
<path d="M250.694 271.75V243.58L77.1737 70.0596C72.3937 74.6862 67.7838 79.5029 63.3438 84.5096L250.694 271.86V271.75Z" fill="#F0F0F0"/>
<path d="M250.691 329.69V301.52L50.0013 100.88C46.0013 106.31 42.1412 111.93 38.5312 117.69L250.691 329.81V329.69Z" fill="#F0F0F0"/>
<path d="M250.69 387.64V359.46L27.84 136.62C24.6133 142.94 21.6667 149.417 19 156.05L250.7 387.75L250.69 387.64Z" fill="#F0F0F0"/>
<path d="M250.692 445.58V417.41L11.2616 178C9.04156 185.387 7.1549 192.92 5.60156 200.6L250.692 445.69V445.58Z" fill="#F0F0F0"/>
<path d="M250.691 475.35L1.82094 226.48C1.10094 234.23 0.710938 242.07 0.710938 250C0.710938 251.24 0.710938 252.47 0.760938 253.7L247.001 500L250.351 500.05H250.681L250.691 475.35Z" fill="#F0F0F0"/>
<path d="M11.3091 322.21L178.499 489.4C190.389 492.972 202.529 495.646 214.819 497.4L3.28906 285.89C5.05003 298.18 7.73089 310.321 11.3091 322.21Z" fill="#F0F0F0"/>
<path d="M126.398 467L33.7578 374.31C55.8919 412.86 87.86 444.845 126.398 467Z" fill="#F0F0F0"/>
<path d="M250.688 213.92L250.708 213.94V213.82L250.688 213.8V213.92Z" fill="#F0F0F0"/>
<path d="M250.688 271.86L250.708 271.88V271.77L250.688 271.75V271.86Z" fill="#F0F0F0"/>
<path d="M250.688 329.81L250.708 329.83V329.71L250.688 329.69V329.81Z" fill="#F0F0F0"/>
<path d="M250.688 445.69L250.708 445.71V445.6L250.688 445.58V445.69Z" fill="#F0F0F0"/>
<path d="M250.688 98.0299L250.708 98.0499V97.9399L250.688 97.9199V98.0299Z" fill="#F0F0F0"/>
<path d="M250.688 387.75L250.708 387.77V387.66L250.688 387.63V387.75Z" fill="#F0F0F0"/>
<path d="M250.688 155.97L250.708 156V155.88L250.688 155.86V155.97Z" fill="#F0F0F0"/>
<path d="M250.688 40.0897L250.708 40.1097V39.9897L250.688 39.9697V40.0897Z" fill="#F0F0F0"/>
<path d="M345 18.4404L345.48 18.9104C406.852 44.3594 455.623 93.1154 481.09 154.48L482.25 155.65C469.634 124.809 450.999 96.791 427.434 73.2324C403.869 49.6738 375.845 31.0471 345 18.4404Z" fill="#46DC78"/>
<path d="M345.523 18.9102L481.093 154.48C455.636 93.1228 406.881 44.3679 345.523 18.9102Z" fill="#46DC78"/>
<path d="M277.273 1.41016C278.643 1.55016 280.013 1.71016 281.383 1.88016C280.003 1.71016 278.643 1.55016 277.273 1.41016Z" fill="#46DC78"/>
<path d="M297.25 4.34961L299.02 4.67961L297.25 4.34961Z" fill="#46DC78"/>
<path d="M496 201.67C496.12 202.26 496.23 202.85 496.34 203.44C496.23 202.85 496.12 202.26 496 201.67Z" fill="#46DC78"/>
<path d="M284.5 2.28027L287 2.63027L284.5 2.28027Z" fill="#46DC78"/>
<path d="M289.922 3.07031L292.072 3.43031L289.922 3.07031Z" fill="#46DC78"/>
<path d="M271.578 0.879883C272.638 0.959883 273.708 1.05988 274.778 1.15988C273.708 1.05988 272.638 0.999883 271.578 0.879883Z" fill="#46DC78"/>
<path d="M498.062 213.7C498.182 214.53 498.292 215.36 498.402 216.19C498.292 215.36 498.182 214.53 498.062 213.7Z" fill="#46DC78"/>
<path d="M497.258 208.62L497.618 210.77L497.258 208.62Z" fill="#46DC78"/>
<path d="M498.812 219.32C498.983 220.68 499.143 222.05 499.283 223.42C499.143 222.05 499.002 220.68 498.812 219.32Z" fill="#46DC78"/>
<path d="M499.531 225.91C499.631 226.98 499.731 228.04 499.811 229.11C499.721 228 499.631 227 499.531 225.91Z" fill="#46DC78"/>
<path d="M269.412 0.74043C280.53 1.60005 291.578 3.20364 302.482 5.54043L302.292 5.34043L299.002 4.68043L297.232 4.35043C295.512 4.02043 293.782 3.72043 292.052 3.43043L289.902 3.07043L287.002 2.63043L284.502 2.28043C283.502 2.14043 282.422 2.00043 281.382 1.88043C280.012 1.71043 278.642 1.55043 277.272 1.41043L274.782 1.16043C273.712 1.06043 272.642 0.96043 271.582 0.88043L269.352 0.69043L269.412 0.74043Z" fill="#46DC78"/>
<path d="M494.461 197.52C496.798 208.423 498.401 219.471 499.261 230.59L500.001 231.34C499.941 230.59 499.871 229.85 499.811 229.11C499.731 228.04 499.631 226.98 499.531 225.91C499.451 225.08 499.371 224.25 499.281 223.42C499.141 222.05 498.981 220.68 498.811 219.32C498.681 218.32 498.551 217.23 498.401 216.19C498.291 215.36 498.181 214.53 498.061 213.7C497.941 212.87 497.771 211.7 497.621 210.77L497.261 208.62C496.971 206.89 496.671 205.16 496.341 203.44C496.231 202.85 496.121 202.26 496.001 201.67C495.791 200.58 495.571 199.49 495.351 198.4L494.461 197.52Z" fill="#46DC78"/>
<path d="M269.406 0.740234L499.256 230.59C498.397 219.472 496.793 208.424 494.456 197.52L302.456 5.52023C291.559 3.19105 280.517 1.59415 269.406 0.740234Z" fill="#46DC78"/>
<path d="M498.809 280.73C498.809 280.73 498.809 280.82 498.809 280.86C498.809 280.9 498.799 280.77 498.809 280.73Z" fill="#46DC78"/>
<path d="M500.42 261.42L499.75 260.75C499.389 269.406 498.578 278.038 497.32 286.61L497.93 287.21C498.237 285.103 498.524 282.987 498.79 280.86C498.79 280.86 498.79 280.77 498.79 280.73C499.04 278.63 499.28 276.53 499.48 274.42C499.914 270.14 500.227 265.807 500.42 261.42Z" fill="#46DC78"/>
<path d="M250.708 11.7104L250.688 11.6904V11.8004L250.708 11.8204V11.7104Z" fill="#46DC78"/>
<path d="M250.711 11.82V40L497.321 286.61C498.578 278.038 499.389 269.406 499.751 260.75L250.751 11.75L250.711 11.82Z" fill="#46DC78"/>
<path d="M250.708 39.9898V11.8198L250.688 11.7998V39.9698L250.708 39.9898Z" fill="#46DC78"/>
<path d="M491.713 316.58C491.623 316.9 491.543 317.21 491.453 317.52C491.543 317.21 491.623 316.9 491.713 316.58Z" fill="#46DC78"/>
<path d="M490.004 322.43C490.004 322.6 489.904 322.78 489.844 322.95C489.924 322.78 490.004 322.6 490.004 322.43Z" fill="#46DC78"/>
<path d="M492.412 311.35C490.538 318.73 488.352 325.97 485.852 333.07L486.362 333.58C486.982 331.82 487.588 330.05 488.182 328.27V328.18C488.762 326.44 489.315 324.697 489.842 322.95C489.902 322.78 489.952 322.6 490.002 322.43C490.495 320.803 490.972 319.167 491.432 317.52C491.522 317.21 491.602 316.9 491.692 316.58C492.122 315.03 492.542 313.47 492.942 311.9L492.412 311.35Z" fill="#46DC78"/>
<path d="M250.688 69.7499L250.708 69.7699V69.6499L250.688 69.6299V69.7499Z" fill="#46DC78"/>
<path d="M250.711 69.7704V97.9404L485.851 333.07C488.351 325.97 490.538 318.73 492.411 311.35L250.711 69.6504V69.7704Z" fill="#46DC78"/>
<path d="M250.688 97.92L250.708 97.94V69.77L250.688 69.75V97.92Z" fill="#46DC78"/>
<path d="M477.312 354.19C474.372 360.577 471.182 366.817 467.742 372.91L468.182 373.35C471.636 367.27 474.832 361.043 477.772 354.67L477.312 354.19Z" fill="#46DC78"/>
<path d="M250.688 127.69L250.708 127.71V127.6L250.688 127.58V127.69Z" fill="#46DC78"/>
<path d="M250.711 127.71V155.88L467.711 372.88C471.151 366.786 474.341 360.546 477.281 354.16L250.711 127.6V127.71Z" fill="#46DC78"/>
<path d="M250.688 155.86L250.708 155.88V127.71L250.688 127.69V155.86Z" fill="#46DC78"/>
<path d="M456.34 391.17C452.52 396.73 448.49 402.127 444.25 407.36L444.63 407.74C448.883 402.527 452.92 397.14 456.74 391.58L456.34 391.17Z" fill="#46DC78"/>
<path d="M250.688 185.63L250.708 185.65V185.54L250.688 185.52V185.63Z" fill="#46DC78"/>
<path d="M250.711 185.65V213.82L444.251 407.36C448.491 402.127 452.521 396.73 456.341 391.17L250.711 185.54V185.65Z" fill="#46DC78"/>
<path d="M250.688 213.8L250.708 213.82V185.65L250.688 185.63V213.8Z" fill="#46DC78"/>
<path d="M415.922 437L416.252 437.32C421.245 432.9 426.062 428.29 430.702 423.49L430.352 423.14C425.732 427.94 420.922 432.56 415.922 437Z" fill="#46DC78"/>
<path d="M250.711 243.6V271.77L415.921 437C420.914 432.573 425.724 427.953 430.351 423.14L250.711 243.48V243.6Z" fill="#46DC78"/>
<path d="M250.688 243.58L250.708 243.6V243.48L250.688 243.46V243.58Z" fill="#46DC78"/>
<path d="M250.688 271.75L250.708 271.77V243.6L250.688 243.58V271.75Z" fill="#46DC78"/>
<path d="M391.998 456.26L391.578 456.55L391.998 456.26Z" fill="#46DC78"/>
<path d="M387.517 459.24C387.447 459.293 387.374 459.339 387.297 459.38C387.374 459.339 387.447 459.293 387.517 459.24Z" fill="#46DC78"/>
<path d="M399.89 450.61L399.6 450.32C394.18 454.38 388.6 458.2 382.82 461.82L383.08 462.08C384.5 461.2 385.907 460.3 387.3 459.38C387.377 459.339 387.451 459.292 387.52 459.24C388.87 458.36 390.22 457.46 391.52 456.55L391.94 456.26C394.647 454.433 397.297 452.55 399.89 450.61Z" fill="#46DC78"/>
<path d="M250.711 301.54V329.71L382.821 461.82C388.571 458.2 394.181 454.38 399.601 450.32L250.711 301.43V301.54Z" fill="#46DC78"/>
<path d="M250.688 301.52L250.708 301.54V301.43L250.688 301.41V301.52Z" fill="#46DC78"/>
<path d="M250.688 329.69L250.708 329.71V301.54L250.688 301.52V329.69Z" fill="#46DC78"/>
<path d="M363.929 472.59C357.622 475.83 351.159 478.797 344.539 481.49L344.739 481.69C351.352 479.023 357.819 476.07 364.139 472.83L363.929 472.59Z" fill="#46DC78"/>
<path d="M250.711 359.49V387.66L344.541 481.49C351.148 478.823 357.611 475.857 363.931 472.59L250.711 359.37V359.49Z" fill="#46DC78"/>
<path d="M250.688 359.46L250.708 359.49V359.37L250.688 359.35V359.46Z" fill="#46DC78"/>
<path d="M250.688 387.63L250.708 387.66V359.49L250.688 359.46V387.63Z" fill="#46DC78"/>
<path d="M311.668 492.5L311.398 492.56L311.668 492.5Z" fill="#46DC78"/>
<path d="M305.999 493.85L305.539 493.95L305.999 493.85Z" fill="#46DC78"/>
<path d="M322.824 489.42L322.664 489.26C315.27 491.5 307.747 493.406 300.094 494.98L300.204 495.09C301.997 494.73 303.78 494.35 305.554 493.95L306.014 493.85C307.814 493.436 309.61 493.006 311.404 492.56L311.674 492.5C313.534 492.026 315.39 491.536 317.244 491.03C319.114 490.51 321.004 490 322.824 489.42Z" fill="#46DC78"/>
<path d="M250.688 417.41L250.708 417.43V417.31L250.688 417.29V417.41Z" fill="#46DC78"/>
<path d="M250.706 417.43V445.6L300.086 495C307.746 493.44 315.27 491.533 322.656 489.28L250.656 417.33L250.706 417.43Z" fill="#46DC78"/>
<path d="M250.688 445.58L250.708 445.6V417.43L250.688 417.41V445.58Z" fill="#46DC78"/>
<path d="M250.711 500C252.711 500 254.738 499.973 256.791 499.92C254.791 499.967 252.764 499.993 250.711 500Z" fill="#46DC78"/>
<path d="M274.281 498.82C266.521 499.573 258.664 499.963 250.711 499.99C252.711 499.99 254.738 499.963 256.791 499.91C258.361 499.91 259.931 499.81 261.501 499.74H262.681C266.581 499.546 270.464 499.27 274.331 498.91L274.281 498.82Z" fill="#46DC78"/>
<path d="M250.708 475.26L250.688 475.24V475.35L250.708 475.37V475.26Z" fill="#46DC78"/>
<path d="M250.711 475.37V500C258.664 500 266.521 499.61 274.281 498.83L250.711 475.27V475.37Z" fill="#46DC78"/>
</g>
<defs>
<clipPath id="clip0_417_198">
<rect width="500" height="500" fill="white"/>
</clipPath>
</defs>
</svg>
