<svg width="500" height="500" viewBox="0 0 500 500" fill="none" xmlns="http://www.w3.org/2000/svg">
<path d="M160.707 395.84C160.707 393.878 161.166 391.943 162.047 390.19L164.977 384.33C135.739 365.797 113.341 338.236 101.18 305.825C89.019 273.414 87.7576 237.922 97.5871 204.73L89.2871 196.43L69.8371 177C51.448 222.472 50.9154 273.212 68.346 319.06C85.7766 364.908 119.884 402.48 163.837 424.25C161.821 421.955 160.708 419.005 160.707 415.95V395.84Z" fill="#374236"/>
<path d="M161.347 196.43C171.005 180.467 184.798 167.41 201.266 158.64C217.734 149.871 236.266 145.714 254.902 146.609C273.538 147.504 291.586 153.418 307.138 163.727C322.689 174.035 335.167 188.353 343.251 205.169C351.334 221.984 354.724 240.672 353.062 259.255C351.399 277.838 344.747 295.627 333.806 310.741C322.866 325.855 308.046 337.732 290.911 345.116C273.777 352.5 254.966 355.117 236.467 352.69L232.137 357.14L214.287 375L207.087 382.2C227.947 388.97 250.112 390.709 271.772 387.273C293.432 383.837 313.972 375.325 331.713 362.432C349.454 349.54 363.892 332.632 373.848 313.091C383.804 293.55 388.995 271.931 388.997 250C388.997 244.029 388.616 238.063 387.857 232.14H383.967C381.598 232.14 379.327 231.199 377.652 229.525C375.978 227.85 375.037 225.579 375.037 223.21V205.36C375.037 202.992 374.096 200.72 372.421 199.046C370.747 197.371 368.475 196.43 366.107 196.43C363.738 196.43 361.467 195.489 359.792 193.815C358.118 192.14 357.177 189.868 357.177 187.5V161.5C342.073 143.215 322.543 129.098 300.443 120.493C278.342 111.888 254.408 109.08 230.917 112.338C207.425 115.595 185.158 124.809 166.233 139.103C147.308 153.397 132.355 172.295 122.797 194C124.952 195.582 127.554 196.436 130.227 196.44L161.347 196.43Z" fill="#374236"/>
<path d="M431.188 395.47C430.357 394.643 429.697 393.66 429.248 392.577C428.798 391.494 428.567 390.333 428.568 389.16V368.61C398.996 413.026 353.923 444.819 302.159 457.774C250.396 470.73 195.661 463.917 148.653 438.667C101.644 413.417 65.7409 371.546 47.9594 321.235C30.1779 270.924 31.7962 215.791 52.4981 166.61C53.1881 165 53.8881 163.39 54.6081 161.8L53.6081 160.8L39.4081 146.56C38.2348 145.388 37.3041 143.996 36.6692 142.463C36.0343 140.931 35.7077 139.289 35.7081 137.63V121.68C12.4478 160.436 0.19188 204.8 0.258079 250C0.258079 387.93 112.068 499.74 249.998 499.74C287.161 499.774 323.862 491.496 357.413 475.514C390.964 459.532 420.517 436.249 443.908 407.37C442.918 406.926 442.017 406.306 441.248 405.54L431.188 395.47Z" fill="#374236"/>
<path d="M92.9991 164.41L107.709 179.12C118.508 157.509 134.073 138.631 153.229 123.91C151.617 124.625 149.873 124.996 148.109 125H101.909C101.659 125 101.409 125 101.159 125C96.9412 130.013 92.9795 135.237 89.2891 140.65V155.44C89.287 157.106 89.6136 158.756 90.2502 160.295C90.8868 161.834 91.821 163.233 92.9991 164.41Z" fill="#374236"/>
<path d="M396.559 85.59C395.072 87.0763 393.236 88.1661 391.219 88.76C394.759 91.86 398.209 95.0833 401.569 98.43C414.836 111.684 426.307 126.622 435.689 142.86H475.639C461.54 113.252 441.766 86.7004 417.439 64.71L410.709 71.43L396.559 85.59Z" fill="#374236"/>
<path d="M178.572 354.16V326.66C178.567 326.034 178.517 325.409 178.422 324.79C177.872 324.27 177.312 323.79 176.782 323.22C171.371 317.804 166.576 311.808 162.482 305.34L160.712 303.57L125.002 267.86L111.102 254C111.735 276.411 117.787 298.336 128.741 317.898C139.695 337.46 155.225 354.078 174.002 366.33L177.262 359.81C178.132 358.054 178.581 356.12 178.572 354.16Z" fill="#374236"/>
<path d="M196.428 16.1698V42.3998C241.973 30.7224 290.088 34.2696 333.428 52.4998C335.038 53.1898 336.648 53.8898 338.238 54.6098L339.238 53.6098L355.638 37.1998C356.616 36.2175 357.752 35.4062 358.998 34.7998L368.438 30.0698C348.945 19.5473 328.13 11.684 306.548 6.68977L273.088 31.7898C271.635 32.878 269.839 33.4062 268.028 33.2777C266.217 33.1491 264.513 32.3724 263.228 31.0898L252.228 20.0898C251.521 19.3877 250.96 18.5526 250.578 17.6327C250.195 16.7127 249.998 15.7261 249.998 14.7298V0.259766C230.602 0.266255 211.272 2.52811 192.398 6.99977C193.666 8.16778 194.679 9.58537 195.372 11.1635C196.066 12.7415 196.425 14.446 196.428 16.1698Z" fill="#374236"/>
<path d="M193.001 101.6C191.03 100.991 189.238 99.91 187.781 98.4498L182.271 92.9998C180.502 91.2387 178.252 90.0403 175.804 89.5559C173.356 89.0714 170.819 89.3225 168.514 90.2775C166.208 91.2325 164.237 92.8487 162.848 94.9223C161.459 96.9959 160.716 99.4342 160.711 101.93V112.39C160.714 115.417 159.623 118.343 157.641 120.63C167.142 113.836 177.364 108.111 188.121 103.56C189.731 102.86 191.341 102.22 193.001 101.6Z" fill="#374236"/>
<path d="M428.572 258.93V253.7C428.567 251.332 427.629 249.061 425.962 247.38L413.332 234.76C411.9 233.322 410.019 232.419 408.002 232.2C408.662 238.111 408.996 244.053 409.002 250C409 275.487 402.871 300.6 391.131 323.222C379.392 345.845 362.386 365.313 341.548 379.988C320.709 394.662 296.648 404.112 271.393 407.541C246.138 410.97 220.429 408.277 196.432 399.69V415.94C196.433 417.599 196.107 419.242 195.473 420.775C194.839 422.308 193.909 423.701 192.736 424.874C191.562 426.047 190.17 426.977 188.637 427.611C187.104 428.246 185.461 428.572 183.802 428.57H173.172C220.536 448.915 274.04 449.626 321.928 430.548C369.816 411.469 408.173 374.161 428.572 326.82V325.14C428.572 323.966 428.803 322.804 429.253 321.719C429.702 320.635 430.361 319.65 431.192 318.82L432.192 317.82C438.178 301.731 441.995 284.917 443.542 267.82H437.542C436.369 267.825 435.207 267.6 434.121 267.156C433.036 266.712 432.049 266.059 431.216 265.233C430.383 264.407 429.721 263.426 429.267 262.345C428.813 261.263 428.577 260.103 428.572 258.93Z" fill="#374236"/>
<path d="M333.567 250C333.565 232.817 328.267 216.052 318.394 201.988C308.521 187.925 294.552 177.247 278.392 171.408C262.231 165.57 244.663 164.855 228.081 169.361C211.499 173.867 196.71 183.375 185.727 196.59C188.705 197.049 191.422 198.558 193.384 200.845C195.347 203.132 196.426 206.046 196.427 209.06V219.52C196.426 222.237 197.301 224.881 198.923 227.061C200.544 229.24 202.825 230.839 205.427 231.62C208.101 225.122 212.166 219.288 217.334 214.527C222.503 209.766 228.65 206.194 235.345 204.06C242.041 201.927 249.122 201.284 256.092 202.177C263.062 203.07 269.752 205.477 275.693 209.23C281.635 212.982 286.683 217.989 290.484 223.899C294.285 229.81 296.747 236.48 297.698 243.442C298.648 250.405 298.063 257.491 295.985 264.203C293.907 270.916 290.385 277.093 285.667 282.3V290.94C285.668 292.598 285.342 294.24 284.709 295.773C284.075 297.305 283.146 298.697 281.974 299.87C280.802 301.043 279.41 301.974 277.878 302.609C276.347 303.243 274.705 303.57 273.047 303.57H262.627C260.968 303.569 259.325 303.895 257.792 304.529C256.259 305.163 254.866 306.093 253.693 307.266C252.52 308.439 251.59 309.832 250.955 311.365C250.321 312.898 249.995 314.541 249.997 316.2V321.43L249.627 333.56H249.997C260.971 333.561 271.838 331.401 281.977 327.202C292.116 323.004 301.329 316.849 309.089 309.09C316.849 301.33 323.005 292.118 327.205 281.979C331.405 271.841 333.567 260.974 333.567 250Z" fill="#374236"/>
<path d="M461.668 288.33C463.343 286.657 464.285 284.388 464.288 282.02V276.79C464.287 275.286 463.905 273.807 463.178 272.49C462.598 278.117 461.791 283.7 460.758 289.24L461.668 288.33Z" fill="#374236"/>
<path d="M334.058 89.2902C331.807 89.2896 329.598 88.6872 327.658 87.5453C325.719 86.4035 324.12 84.7638 323.028 82.7961C321.935 80.8285 321.389 78.6045 321.445 76.3546C321.501 74.1047 322.158 71.9108 323.348 70.0002C284.337 54.1478 241.245 51.3414 200.508 62.0002L210.168 82.0002C211.337 84.4115 211.707 87.1325 211.225 89.7685C210.743 92.4045 209.434 94.8184 207.488 96.6602L207.298 96.8402C234.441 89.2591 263.113 89.0398 290.369 96.2048C317.625 103.37 342.482 117.661 362.388 137.61C364.108 139.317 365.775 141.067 367.388 142.86H412.138C398.161 121.746 380.211 103.551 359.288 89.2902H334.058Z" fill="#374236"/>
<path d="M250.003 221.82C245.831 221.815 241.711 222.739 237.94 224.524C234.17 226.309 230.844 228.91 228.203 232.14H271.803C269.162 228.91 265.836 226.309 262.066 224.524C258.295 222.739 254.175 221.815 250.003 221.82Z" fill="#374236"/>
<path d="M124.996 125H148.086C149.85 124.996 151.594 124.625 153.206 123.91C154.666 122.783 156.143 121.683 157.636 120.61C159.619 118.323 160.709 115.397 160.706 112.37V101.91C160.715 99.4161 161.462 96.9805 162.852 94.91C164.242 92.8394 166.214 91.2263 168.519 90.2738C170.823 89.3213 173.359 89.0719 175.805 89.557C178.251 90.0421 180.499 91.24 182.266 93L187.736 98.47C189.207 99.9285 191.013 101.003 192.996 101.6C197.703 99.78 202.483 98.1933 207.336 96.84L207.526 96.66C209.466 94.8134 210.768 92.3972 211.242 89.7615C211.717 87.1257 211.34 84.4073 210.166 82L200.506 62C161.675 72.2292 126.967 94.2382 101.156 125C101.406 125 101.656 125 101.906 125H124.996Z" fill="#46DC78"/>
<path d="M111.1 254L125 267.9L160.71 303.61L162.48 305.38C152.176 289.13 146.611 270.327 146.411 251.086C146.212 231.845 151.385 212.93 161.35 196.47H130.23C127.554 196.457 124.951 195.592 122.8 194C115.009 211.641 110.989 230.715 111 250C111 251.333 111.033 252.667 111.1 254Z" fill="#46DC78"/>
<path d="M183.797 428.57C185.456 428.571 187.098 428.246 188.631 427.611C190.164 426.977 191.557 426.047 192.73 424.874C193.903 423.701 194.834 422.308 195.468 420.775C196.102 419.242 196.428 417.599 196.427 415.94V399.69C193.637 398.69 190.857 397.62 188.117 396.46C180.09 393.057 172.358 389 164.997 384.33L162.067 390.19C161.186 391.943 160.727 393.878 160.727 395.84V415.94C160.727 418.995 161.84 421.945 163.857 424.24C166.917 425.76 170.037 427.24 173.187 428.56H183.797V428.57Z" fill="#46DC78"/>
<path d="M97.5938 204.73C99.2825 199.086 101.286 193.54 103.594 188.12C104.88 185.067 106.264 182.067 107.744 179.12L93.0038 164.41C90.6415 162.038 89.3148 158.827 89.3138 155.48V140.69C81.5533 152.068 75.0265 164.24 69.8438 177L89.2938 196.44L97.5938 204.73Z" fill="#46DC78"/>
<path d="M249.999 316.2C249.997 314.541 250.323 312.898 250.957 311.365C251.592 309.832 252.522 308.439 253.695 307.266C254.868 306.093 256.261 305.163 257.794 304.529C259.327 303.894 260.97 303.569 262.629 303.57H273.089C274.747 303.57 276.389 303.243 277.92 302.608C279.452 301.973 280.844 301.043 282.016 299.87C283.188 298.697 284.117 297.305 284.751 295.772C285.384 294.24 285.71 292.598 285.709 290.94V282.3C278.1 290.717 267.764 296.178 256.522 297.719C245.281 299.26 233.856 296.783 224.263 290.724C214.67 284.665 207.524 275.413 204.085 264.6C200.647 253.787 201.137 242.107 205.469 231.62C202.867 230.839 200.586 229.24 198.964 227.06C197.343 224.881 196.468 222.236 196.469 219.52V209.06C196.468 206.046 195.389 203.132 193.426 200.845C191.463 198.558 188.747 197.048 185.769 196.59C175.633 208.773 169.171 223.586 167.137 239.303C165.102 255.019 167.579 270.99 174.278 285.352C180.976 299.714 191.621 311.875 204.97 320.416C218.319 328.957 233.821 333.526 249.669 333.59L250.039 321.46L249.999 316.2Z" fill="#46DC78"/>
<path d="M228.2 232.14C224.819 236.268 222.679 241.271 222.03 246.567C221.38 251.863 222.248 257.235 224.531 262.057C226.815 266.88 230.421 270.955 234.93 273.809C239.438 276.662 244.664 278.177 250 278.177C255.336 278.177 260.562 276.662 265.071 273.809C269.58 270.955 273.186 266.88 275.469 262.057C277.753 257.235 278.62 251.863 277.971 246.567C277.321 241.271 275.182 236.268 271.8 232.14H228.2Z" fill="#46DC78"/>
<path d="M39.4109 146.56L53.5709 160.71L54.5709 161.71C67.781 132.475 87.3851 106.578 111.937 85.928C136.49 65.2786 165.364 50.4037 196.431 42.4002V16.1702C196.439 14.4402 196.087 12.7275 195.398 11.1405C194.71 9.55342 193.699 8.12656 192.431 6.9502C159.979 14.6592 129.396 28.7807 102.481 48.4838C75.567 68.187 52.865 93.0738 35.7109 121.68V137.63C35.7106 139.289 36.0372 140.931 36.6721 142.463C37.307 143.996 38.2376 145.388 39.4109 146.56Z" fill="#46DC78"/>
<path d="M232.14 357.14L236.47 352.69C214.633 349.842 194.286 340.063 178.42 324.79C178.515 325.409 178.565 326.034 178.57 326.66V354.16C178.573 356.121 178.118 358.056 177.24 359.81L174 366.33C184.282 373.069 195.417 378.406 207.11 382.2L214.31 375L232.14 357.14Z" fill="#46DC78"/>
<path d="M252.21 20.0699L263.21 31.0699C264.495 32.3525 266.199 33.1292 268.01 33.2578C269.82 33.3864 271.617 32.8581 273.07 31.7699L306.53 6.66989C287.992 2.39153 269.026 0.240968 250 0.259889V14.7299C250 15.7215 250.195 16.7035 250.574 17.6197C250.953 18.536 251.509 19.3685 252.21 20.0699Z" fill="#46DC78"/>
<path d="M321.43 76.66C321.43 80.0097 322.76 83.2222 325.129 85.5907C327.498 87.9593 330.71 89.29 334.06 89.29H359.31C348.023 81.6032 335.956 75.1306 323.31 69.98C322.072 71.9876 321.421 74.3015 321.43 76.66Z" fill="#46DC78"/>
<path d="M355.689 37.1598L339.289 53.5698L338.289 54.5698C357.55 63.264 375.412 74.7731 391.289 88.7198C393.306 88.126 395.142 87.0361 396.629 85.5498L410.779 71.3898L417.509 64.6698C402.621 51.2032 386.17 39.5732 368.509 30.0298L358.999 34.7998C357.773 35.3988 356.655 36.1962 355.689 37.1598Z" fill="#46DC78"/>
<path d="M367.406 142.86C390.061 167.586 404.275 198.871 407.996 232.2C410.024 232.412 411.917 233.316 413.356 234.76L425.996 247.38C427.664 249.061 428.602 251.332 428.606 253.7V258.93C428.606 261.298 429.547 263.57 431.222 265.244C432.896 266.919 435.168 267.86 437.536 267.86H443.536C444.066 261.98 444.356 256.02 444.356 250C444.415 211.895 433.217 174.622 412.166 142.86H367.406Z" fill="#46DC78"/>
<path d="M366.071 196.43C368.439 196.43 370.71 197.371 372.385 199.045C374.06 200.72 375.001 202.991 375.001 205.36V223.21C375.001 225.578 375.941 227.85 377.616 229.524C379.291 231.199 381.562 232.14 383.931 232.14H387.821C384.485 206.167 373.846 181.675 357.141 161.51V187.51C357.143 189.876 358.085 192.145 359.76 193.818C361.434 195.49 363.704 196.43 366.071 196.43Z" fill="#46DC78"/>
<path d="M475.64 142.86H435.69C454.525 175.421 464.413 212.384 464.35 250C464.348 257.512 463.957 265.018 463.18 272.49C463.908 273.806 464.29 275.286 464.29 276.79V282C464.288 284.367 463.346 286.637 461.67 288.31L460.76 289.22C455.512 317.582 444.561 344.584 428.57 368.59V389.14C428.569 390.312 428.8 391.474 429.25 392.557C429.7 393.64 430.359 394.623 431.19 395.45L441.25 405.52C442.019 406.285 442.921 406.905 443.91 407.35C473.609 370.742 492.347 326.48 497.961 279.676C503.576 232.871 495.838 185.434 475.64 142.84V142.86Z" fill="#46DC78"/>
<path d="M428.57 325.13V326.81C429.85 323.85 431.054 320.85 432.18 317.81L431.18 318.81C430.351 319.64 429.694 320.626 429.246 321.71C428.799 322.795 428.569 323.957 428.57 325.13Z" fill="#46DC78"/>
</svg>
