<svg width="500" height="500" viewBox="0 0 500 500" fill="none" xmlns="http://www.w3.org/2000/svg">
<path d="M348.192 92.8201L362.332 106.82L60.1016 412.51C64.6016 417.84 69.3716 423 74.4216 428C78.9616 432.48 83.6282 436.75 88.4216 440.81L390.742 135.01L404.892 149.01L425.092 71.8501L348.192 92.8201Z" fill="#46DC78"/>
<path d="M255.493 71.71L275.003 75.77L250.003 0.07V0V0.07L196.863 59.48L216.273 63.53C201.965 117.036 180.789 168.463 153.273 216.53C123.371 268.598 86.813 316.548 44.5225 359.17L31.8125 372C38.471 383.887 46.0967 395.205 54.6125 405.84L73.0025 387.28C117.727 342.17 156.386 291.426 188.003 236.33C217.589 184.638 240.279 129.294 255.493 71.71Z" fill="#F0F0F0"/>
<path d="M103.363 138.47L123.183 135.41L73.2625 73.2798V73.4098L44.4425 147.61L63.7925 144.61C66.1145 179.154 61.5913 213.818 50.4825 246.61C41.3382 273.373 27.7589 298.409 10.3125 320.67V320.72C14.5675 335.233 20.1372 349.328 26.9525 362.83C54.3465 333.016 75.221 297.817 88.2425 259.48C101.425 220.583 106.569 179.414 103.363 138.47Z" fill="#F0F0F0"/>
<path d="M499.932 250L424.003 225.81L428.263 245.23C371.053 260.694 316.076 283.472 264.693 313C209.85 344.709 159.551 383.693 115.163 428.89L96.8125 447.51C107.562 455.88 118.984 463.349 130.963 469.84L143.652 457C185.506 414.384 232.937 377.63 284.652 347.74C332.477 320.24 383.613 298.948 436.823 284.38L441.073 303.76L499.932 250H500.003H499.932Z" fill="#F0F0F0"/>
<path d="M365.842 375.31L362.293 395.08C321.368 392.604 280.366 398.449 241.762 412.26C204.025 425.864 169.504 447.114 140.363 474.68H140.312C153.9 481.312 168.066 486.688 182.633 490.74H182.682C204.464 473.191 229.012 459.386 255.323 449.89C287.313 438.449 321.218 433.314 355.163 434.77L351.742 453.83L426.612 426.83H426.742L365.842 375.31Z" fill="#F0F0F0"/>
</svg>
