<svg width="500" height="500" viewBox="0 0 500 500" fill="none" xmlns="http://www.w3.org/2000/svg">
<g clip-path="url(#clip0_417_526)">
<path d="M157.137 133.389C178.548 125.273 189.294 101.253 181.139 79.7386C172.983 58.2243 149.015 47.3629 127.604 55.4791C106.193 63.5953 95.4472 87.6156 103.603 109.13C111.758 130.644 135.726 141.506 157.137 133.389Z" fill="#46DC78"/>
<path d="M76.5091 151.489C90.6437 146.131 97.7364 130.27 92.351 116.063C86.9657 101.856 71.1416 94.6828 57.007 100.041C42.8724 105.399 35.7797 121.259 41.1651 135.466C46.5504 149.673 62.3745 156.846 76.5091 151.489Z" fill="#46DC78"/>
<path d="M38.9336 194.648C49.0555 190.811 54.1347 179.453 50.2782 169.279C46.4218 159.106 35.09 153.969 24.9681 157.806C14.8461 161.643 9.76691 173 13.6234 183.174C17.4798 193.347 28.8116 198.484 38.9336 194.648Z" fill="#46DC78"/>
<path d="M208.16 276.69C216.209 262.341 219.721 245.889 218.232 229.504C216.743 213.119 210.324 197.57 199.82 184.907C189.316 172.244 175.221 163.062 159.394 158.571C143.566 154.08 126.749 154.491 111.16 159.75L107.16 161.1C32.7197 186.03 -7.8403 266.75 17.1597 341.19C52.2197 430.56 133.97 489.27 224.66 498.49C227.027 498.768 229.407 498.922 231.79 498.95C237.79 499.12 243.93 497.53 249.94 495.51C260.289 492.032 269.29 485.402 275.681 476.55C282.071 467.698 285.53 457.067 285.573 446.149C285.616 435.231 282.241 424.574 275.92 415.672C269.6 406.769 260.651 400.069 250.33 396.51C238.658 392.266 228.098 385.437 219.439 376.534C210.78 367.631 204.247 356.885 200.33 345.1C192.29 321.28 196.18 296.64 208.16 276.69Z" fill="#46DC78"/>
<path d="M371.598 443.473C393.009 435.357 403.755 411.337 395.6 389.823C387.444 368.308 363.476 357.447 342.065 365.563C320.654 373.679 309.908 397.7 318.063 419.214C326.219 440.728 350.187 451.59 371.598 443.473Z" fill="#F0F0F0"/>
<path d="M442.197 398.893C456.331 393.535 463.424 377.674 458.039 363.468C452.653 349.261 436.829 342.087 422.695 347.445C408.56 352.803 401.467 368.663 406.853 382.87C412.238 397.077 428.062 404.251 442.197 398.893Z" fill="#F0F0F0"/>
<path d="M474.246 341.144C484.368 337.307 489.447 325.949 485.591 315.775C481.734 305.602 470.403 300.465 460.281 304.302C450.159 308.139 445.079 319.496 448.936 329.67C452.792 339.844 464.124 344.981 474.246 341.144Z" fill="#F0F0F0"/>
<path d="M482.11 157.79C475.585 141.146 467.291 125.251 457.37 110.38L388.52 41.5298C370.943 29.7781 351.953 20.2931 332 13.2998L484.53 165.81C483.8 163.13 483 160.46 482.11 157.79Z" fill="#F0F0F0"/>
<path d="M489.441 200.38L291.921 2.87015C286.194 1.87682 280.421 1.08349 274.601 0.490152C272.235 0.201453 269.855 0.0378919 267.471 0.000151742C265.376 -0.0466772 263.282 0.0905164 261.211 0.410152L487.411 226.61C488.9 217.949 489.579 209.168 489.441 200.38Z" fill="#F0F0F0"/>
<path d="M224.273 21.4504L472.603 269.77C475.977 263.456 478.872 256.898 481.263 250.15L239.263 8.15039C233.453 11.5713 228.362 16.0883 224.273 21.4504Z" fill="#F0F0F0"/>
<path d="M216.351 69.65C216.681 70.65 217.031 71.58 217.411 72.53L246.411 101.53C247.231 101.86 248.061 102.18 248.901 102.47C260.572 106.716 271.131 113.546 279.789 122.449C288.448 131.351 294.981 142.096 298.901 153.88L298.961 154.09L447.961 303.09C452.672 298.332 457.043 293.25 461.042 287.88L214.881 41.71C212.813 50.983 213.322 60.6452 216.351 69.65Z" fill="#F0F0F0"/>
<path d="M297.078 210.14L414.888 328C420.895 324.759 426.657 321.082 432.128 317L302.698 187.48C301.898 195.26 300.006 202.888 297.078 210.14Z" fill="#F0F0F0"/>
<path d="M281.258 252.27L371.878 342.88C377.361 342.212 382.762 340.989 387.998 339.23L391.998 337.88L394.298 337.08L287.278 230C284.244 237.107 282.218 244.603 281.258 252.27Z" fill="#F0F0F0"/>
<path d="M284.782 287.8C288.976 300.342 296.16 311.675 305.715 320.819C315.27 329.962 326.908 336.642 339.622 340.28L283.742 284.4C284.062 285.54 284.412 286.67 284.782 287.8Z" fill="#F0F0F0"/>
</g>
<defs>
<clipPath id="clip0_417_526">
<rect width="500" height="500" fill="white"/>
</clipPath>
</defs>
</svg>
