<svg width="500" height="500" viewBox="0 0 500 500" fill="none" xmlns="http://www.w3.org/2000/svg">
<path d="M456.541 273.83C457.445 265.919 457.899 257.963 457.901 250C457.926 217.203 450.18 184.867 435.297 155.641C420.415 126.415 398.82 101.13 372.281 81.8599L360.531 97.9999C368.461 103.782 375.93 110.172 382.871 117.11C400.349 134.541 414.208 155.255 423.652 178.061C433.097 200.867 437.939 225.316 437.901 250C437.898 257.197 437.49 264.388 436.681 271.54L456.541 273.83Z" fill="#374236"/>
<path d="M20 250C20.0056 200.809 35.7726 152.914 64.9885 113.339C94.2045 73.7643 135.332 44.5918 182.34 30.1L176.46 11C74.28 42.4 0 137.52 0 250C0 256.21 0.24 262.37 0.68 268.47L20.62 267C20.2067 261.367 20 255.7 20 250Z" fill="#374236"/>
<path d="M260.003 0.22C256.683 0.09 253.353 0 250.003 0H240.003V42.35C211.037 43.7155 182.679 51.1381 156.758 64.139C130.837 77.1399 107.929 95.4302 89.5131 117.83L104.943 130.54C108.776 125.873 112.84 121.403 117.133 117.13C140.623 93.6746 169.899 76.8488 201.99 68.3592C234.082 59.8696 267.848 60.0182 299.863 68.79L292.863 89.79C278.882 86.0633 264.473 84.1807 250.003 84.19V104.19C269.154 104.167 288.122 107.928 305.815 115.258C323.508 122.587 339.579 133.341 353.103 146.9C356.393 150.19 359.483 153.64 362.423 157.19L344.423 170.08C329.308 152.247 309.455 139.054 287.158 132.027C264.862 125 241.032 124.426 218.423 130.37L204.233 90.29L194.803 93.61C191.65 94.73 188.543 95.9367 185.483 97.23C146.57 113.675 115.399 144.351 98.3337 182.996C81.2681 221.641 79.5941 265.343 93.6534 305.18C107.713 345.018 136.445 377.988 173.986 397.362C211.528 416.735 255.048 421.052 295.663 409.43C298.883 408.497 302.063 407.497 305.203 406.43L314.623 403.1L300.483 363C316.457 355.853 330.734 345.401 342.373 332.332C354.011 319.263 362.746 303.875 368.001 287.182C373.256 270.49 374.912 252.873 372.859 235.494C370.807 218.115 365.092 201.369 356.093 186.36L390.633 161.62L384.813 153.49C382.873 150.777 380.846 148.11 378.733 145.49C360.977 123.628 337.956 106.636 311.833 96.11L325.253 55.86L315.763 52.7C312.603 51.6533 309.413 50.68 306.193 49.78C291.126 45.5663 275.631 43.0704 260.003 42.34V20.23C319.232 22.7532 375.194 48.0701 416.192 90.8897C457.191 133.709 480.054 190.718 480.003 250C480.062 310.817 456.008 369.177 413.112 412.29C370.217 455.402 311.98 479.751 251.163 480L252.013 457.9C291.017 457.526 329.128 446.189 361.994 425.183C394.86 404.177 421.154 374.35 437.873 339.11C439.293 336.11 440.67 333.073 442.003 330L445.853 320.77L406.703 304.46C415.953 277.722 418.245 249.069 413.363 221.2L393.673 224.68C395.116 233.042 395.831 241.514 395.813 250C395.836 269.151 392.075 288.118 384.745 305.812C377.416 323.505 366.663 339.575 353.103 353.1C351.723 354.48 350.32 355.813 348.893 357.1L362.463 371.8C377.558 357.892 389.947 341.309 399.003 322.89L419.453 331.42C399.016 373.814 363.422 407 319.703 424.423C275.984 441.846 227.321 442.238 183.327 425.521C139.333 408.805 103.209 376.196 82.0922 334.137C60.9751 292.078 56.4008 243.628 69.2731 198.36L50.0531 192.87C38.3787 233.972 39.5863 277.665 53.5131 318.06L14.2031 333.83L17.9231 343.11C19.1765 346.21 20.4898 349.277 21.8631 352.31C35.9689 383.68 56.3786 411.812 81.8227 434.956C107.267 458.1 137.201 475.761 169.763 486.84L176.183 467.9C170.89 466.113 165.656 464.113 160.483 461.9C107.213 439.302 64.3647 397.535 40.4131 344.86L61.0031 336.62C76.322 370.02 100.216 398.765 130.252 419.931C160.289 441.098 195.397 453.929 232.003 457.12L230.373 499.41L240.373 499.8C243.563 499.92 246.763 500 249.983 500H250.373C388.283 499.78 500.003 387.94 500.003 250C500.003 115.28 393.433 5.47 260.003 0.22ZM345.563 290.37C339.287 305.254 329.619 318.465 317.331 328.95C305.043 339.435 290.476 346.903 274.79 350.759C259.104 354.616 242.734 354.754 226.985 351.161C211.237 347.569 196.545 340.347 184.083 330.07L199.813 314.33C215.505 326.591 235.141 332.687 255.018 331.467C274.894 330.248 293.638 321.797 307.713 307.71L300.003 300L293.563 293.56L277.943 277.94C272.972 282.924 266.757 286.484 259.943 288.25L277.043 305.35C276.043 305.85 275.043 306.35 273.953 306.77C261.751 311.922 248.214 313.007 235.347 309.865C222.48 306.723 210.967 299.52 202.514 289.323C194.06 279.127 189.115 266.479 188.41 253.253C187.706 240.026 191.28 226.925 198.604 215.888C205.927 204.852 216.61 196.467 229.07 191.977C241.531 187.486 255.107 187.127 267.787 190.955C280.467 194.782 291.577 202.591 299.473 213.226C307.368 223.86 311.629 236.755 311.623 250H331.623C331.62 237.004 328.514 224.197 322.563 212.644C316.611 201.091 307.988 191.126 297.409 183.578C286.83 176.03 274.601 171.117 261.74 169.248C248.88 167.379 235.759 168.609 223.469 172.833C211.179 177.058 200.076 184.157 191.083 193.538C182.089 202.92 175.466 214.313 171.765 226.77C168.063 239.228 167.389 252.389 169.799 265.159C172.21 277.929 177.635 289.939 185.623 300.19L155.403 330.41L162.473 337.48C164.833 339.84 167.286 342.1 169.833 344.26C185.041 357.17 203.141 366.218 222.595 370.634C242.049 375.051 262.281 374.707 281.573 369.63L288.943 390.53C253.345 400.394 215.33 396.382 182.574 379.304C149.819 362.227 124.765 333.355 112.472 298.521C100.178 263.687 101.562 225.486 116.342 191.632C131.122 157.778 158.199 130.794 192.103 116.13L199.473 137.03C170.567 149.976 147.72 173.506 135.63 202.781C123.54 232.055 123.126 264.85 134.473 294.42L153.143 287.24C147.062 271.399 144.96 254.307 147.022 237.464C149.085 220.622 155.248 204.542 164.973 190.636C174.697 176.731 187.685 165.423 202.797 157.706C217.909 149.989 234.684 146.098 251.65 146.374C268.617 146.65 285.256 151.085 300.109 159.289C314.963 167.494 327.576 179.218 336.842 193.433C346.109 207.647 351.746 223.919 353.26 240.82C354.773 257.721 352.117 274.735 345.523 290.37H345.563Z" fill="#374236"/>
<path d="M270 270L277.94 277.94L270 270Z" fill="#374236"/>
<path d="M263.8 263.8C261.07 266.531 257.592 268.391 253.805 269.144C250.019 269.898 246.093 269.512 242.526 268.035C238.959 266.558 235.91 264.056 233.765 260.846C231.619 257.635 230.474 253.861 230.474 250C230.474 246.139 231.619 242.365 233.765 239.154C235.91 235.944 238.959 233.442 242.526 231.965C246.093 230.488 250.019 230.102 253.805 230.856C257.592 231.609 261.07 233.469 263.8 236.2L277.94 222.06C272.412 216.525 265.367 212.754 257.696 211.224C250.024 209.694 242.071 210.474 234.843 213.465C227.615 216.456 221.436 221.524 217.089 228.027C212.742 234.531 210.422 242.177 210.422 250C210.422 257.823 212.742 265.469 217.089 271.973C221.436 278.476 227.615 283.544 234.843 286.535C242.071 289.526 250.024 290.306 257.696 288.776C265.367 287.246 272.412 283.475 277.94 277.94L270 270L263.8 263.8Z" fill="#46DC78"/>
</svg>
