<svg width="500" height="500" viewBox="0 0 500 500" fill="none" xmlns="http://www.w3.org/2000/svg">
<path d="M229.998 77.78C226.244 76.5158 222.833 74.4 220.033 71.5983C217.233 68.7965 215.12 65.3847 213.858 61.63L209.478 48.49L190.478 54.81L194.888 68C197.141 74.6971 200.913 80.782 205.909 85.7784C210.906 90.7747 216.991 94.547 223.688 96.8L230.008 98.9V129.56L228.868 128.75L221.788 123.75L189.788 101.08L188.138 99.92C178.748 93.27 173.368 83.35 173.368 72.7V31.7H153.368V72.7C153.369 76.9164 153.9 81.1159 154.948 85.2C152.144 84.8217 149.317 84.628 146.488 84.62H99.9978V104.62H146.468C155.195 104.589 163.72 107.242 170.888 112.22L193.888 128.5L217.298 145C225.438 150.75 230.098 159.33 230.098 168.51L229.998 196L140.138 125.76C137.007 123.327 133.041 122.233 129.105 122.717C125.17 123.2 121.587 125.222 119.138 128.34L115.998 132.31L146.228 155.94L116.078 156.19C111.776 156.224 107.52 155.304 103.616 153.497C99.7118 151.69 96.2564 149.041 93.4978 145.74L63.8178 110.27L48.4778 123.1L76.4778 156.51L59.4178 156.65L59.5778 176.65L154.948 175.87C165.721 175.791 176.203 179.362 184.688 186L218.208 212.19C221.909 215.088 224.903 218.79 226.963 223.015C229.023 227.241 230.095 231.879 230.098 236.58V248.47L187.258 238.67L173.388 213.29C169.518 206.21 161.238 203.97 154.878 208.29L151.048 210.89L163.238 233.18L71.2378 216.54C63.9478 214.87 56.8278 220.1 55.3278 228.21L54.4278 233.11L79.9978 239L48.0678 250.59L31.8778 218.39C28.2078 211.18 19.9878 208.66 13.5178 212.75L9.61781 215.22L30.6178 256.93L0.507812 267.93L6.08781 286.93L109.578 249.25C116.898 246.58 129.098 245.82 136.688 247.56L215.308 265.56C219.49 266.515 223.226 268.857 225.907 272.205C228.589 275.553 230.059 279.71 230.078 284V300.79L193.288 305.39C187.766 306.087 182.157 305.514 176.89 303.713C171.623 301.912 166.837 298.932 162.898 295L144.818 276.9C143.425 275.506 141.771 274.4 139.95 273.646C138.13 272.892 136.178 272.503 134.208 272.503C132.237 272.503 130.286 272.892 128.465 273.646C126.645 274.4 124.991 275.506 123.598 276.9L120.068 280.44L150.398 310.77L103.208 316.67C90.0897 318.339 76.8383 314.819 66.2778 306.86L57.9978 300.65C56.422 299.468 54.6287 298.608 52.7205 298.119C50.8123 297.63 48.8265 297.522 46.8765 297.801C44.9265 298.079 43.0504 298.739 41.3554 299.743C39.6604 300.746 38.1797 302.074 36.9978 303.65L33.9978 307.65L54.2778 322.86C66.5254 332.086 81.4439 337.074 96.7778 337.07C99.7596 337.071 102.739 336.887 105.698 336.52H105.918L91.5578 354.44C89.0734 357.546 87.9243 361.511 88.3631 365.465C88.8019 369.418 90.7927 373.034 93.8978 375.52L97.8078 378.65L119.368 351.7C129 339.681 142.942 331.895 158.228 330L211.488 323.34C213.812 323.049 216.172 323.256 218.411 323.948C220.649 324.639 222.714 325.799 224.47 327.35C226.226 328.901 227.631 330.809 228.593 332.945C229.554 335.081 230.05 337.397 230.048 339.74V409.19C209.414 413.774 190.957 425.251 177.718 441.729C164.479 458.207 157.249 478.703 157.218 499.84H177.218C177.236 480.538 184.908 462.03 198.551 448.376C212.195 434.722 230.696 427.034 249.998 427V21.65V0H229.998V77.78Z" fill="#46DC78"/>
<path d="M404.956 125.79L388.396 99.2803H362.976L346.406 125.79L362.976 152.29H388.396L404.956 125.79Z" fill="#46DC78"/>
<path d="M417.709 298.32H392.289L375.719 324.82L392.289 351.33H417.709L434.279 324.82L417.709 298.32Z" fill="#46DC78"/>
<path d="M422.267 268.34H469.857L498.927 221.83L469.857 175.33H422.267L393.207 221.83L393.568 222.41L269.758 247.84V221.31L345.538 162.08L351.918 172.3H399.508L428.577 125.79L399.478 79.2799H351.888L322.827 125.79L334.827 145.02L269.688 196L269.587 124.72H282.348L311.408 78.2199L282.348 31.6699H269.457H249.458V51.6699H271.277L287.848 78.1799L271.277 104.68H249.438V124.68H249.587L249.997 420V427C269.303 427.024 287.811 434.703 301.463 448.355C315.114 462.006 322.794 480.514 322.818 499.82H342.818C342.794 478.679 335.568 458.177 322.331 441.693C309.093 425.209 290.635 413.727 269.997 409.14L269.867 320.75L355.177 329.67L381.177 371.33H428.777L457.837 324.82L428.777 278.32H381.198L361.277 310.2L269.837 300.64V268.25L404.878 240.5L422.267 268.34ZM346.408 125.79L362.997 99.2799H388.397L404.997 125.79L388.397 152.3H362.997L361.367 149.69L350.707 132.64L346.408 125.79ZM392.288 298.32H417.707L434.277 324.82L417.707 351.33H392.288L380.397 332.33L375.717 324.85L383.418 312.54L392.288 298.32ZM433.357 195.32H458.777L475.337 221.82L458.777 248.33H433.357L425.777 236.2L416.777 221.82L419.777 217.01L433.357 195.32Z" fill="#F0F0F0"/>
</svg>
