<svg width="500" height="572" viewBox="0 0 500 572" fill="none" xmlns="http://www.w3.org/2000/svg">
<rect y="532" width="208" height="40" rx="20" fill="white"/>
<path d="M118.734 559.052C117.874 560.021 116.772 560.744 115.54 561.145C114.069 561.659 112.52 561.912 110.962 561.894C109.352 561.925 107.764 561.528 106.358 560.743C105.019 559.963 103.948 558.796 103.286 557.395C102.524 555.788 102.136 554.029 102.152 552.251V550.87C102.108 549.06 102.457 547.262 103.178 545.601C103.796 544.197 104.826 543.013 106.132 542.207C107.502 541.397 109.07 540.987 110.661 541.023C113.071 541.023 114.956 541.596 116.315 542.743C117.673 543.889 118.478 545.563 118.729 547.765H114.653C114.557 546.79 114.111 545.883 113.398 545.212C112.645 544.637 111.711 544.351 110.765 544.404C110.131 544.371 109.5 544.501 108.931 544.783C108.362 545.064 107.876 545.487 107.518 546.011C106.773 547.083 106.396 548.674 106.388 550.786V552.084C106.388 554.215 106.794 555.824 107.605 556.909C108.417 557.995 109.603 558.539 111.163 558.541C112.736 558.541 113.852 558.207 114.511 557.537V554.034H110.702V550.95H118.7L118.734 559.052Z" fill="#029DDA"/>
<path d="M153.321 557.416H145.976L144.583 561.601H140.117L147.671 541.278H151.551L159.168 561.593H154.732L153.321 557.416ZM147.111 554.03H152.187L149.63 546.426L147.111 554.03Z" fill="#029DDA"/>
<path d="M164.639 558.236L173.528 558.232V561.597L160.454 561.601L160.445 541.283L164.63 541.278L164.639 558.236Z" fill="#029DDA"/>
<path d="M185.834 556.256C185.852 555.908 185.785 555.56 185.639 555.243C185.494 554.926 185.273 554.649 184.997 554.436C184.06 553.837 183.039 553.382 181.967 553.088C180.779 552.726 179.625 552.261 178.518 551.699C176.213 550.457 175.06 548.783 175.057 546.677C175.044 545.626 175.369 544.6 175.982 543.747C176.662 542.837 177.587 542.137 178.648 541.73C179.886 541.229 181.212 540.981 182.548 541.002C183.884 540.976 185.208 541.245 186.428 541.788C187.504 542.262 188.421 543.033 189.073 544.011C189.704 544.983 190.034 546.12 190.019 547.279H185.834C185.856 546.875 185.789 546.472 185.637 546.097C185.485 545.722 185.252 545.385 184.955 545.111C184.256 544.556 183.376 544.28 182.485 544.337C181.639 544.287 180.8 544.514 180.096 544.986C179.828 545.182 179.613 545.441 179.467 545.739C179.321 546.037 179.25 546.366 179.259 546.698C179.264 547.04 179.36 547.375 179.535 547.668C179.711 547.962 179.96 548.205 180.259 548.372C181.171 548.928 182.157 549.351 183.189 549.627C185.571 550.341 187.307 551.229 188.395 552.289C188.927 552.8 189.347 553.417 189.629 554.099C189.911 554.781 190.048 555.514 190.031 556.252C190.063 557.053 189.897 557.849 189.549 558.571C189.201 559.292 188.681 559.918 188.035 560.391C186.707 561.382 184.917 561.877 182.665 561.877C181.199 561.901 179.745 561.616 178.397 561.04C177.217 560.549 176.201 559.733 175.467 558.688C174.784 557.665 174.431 556.457 174.454 555.227H178.639C178.639 557.459 179.979 558.575 182.657 558.575C183.478 558.622 184.294 558.409 184.988 557.968C185.258 557.777 185.476 557.522 185.623 557.225C185.769 556.928 185.838 556.6 185.825 556.269" fill="#029DDA"/>
<path d="M125.569 548.706C125.827 548.273 126.138 547.874 126.494 547.518L123.464 544.195C122.697 544.928 122.048 545.775 121.539 546.706L125.569 548.706Z" fill="#61B234"/>
<path d="M133.008 546.359C133.459 546.569 133.881 546.838 134.263 547.158L137.302 543.839C136.497 543.143 135.587 542.578 134.607 542.165L133.008 546.359Z" fill="#DDA939"/>
<path d="M139.968 547.359L135.938 549.368C136.139 549.821 136.28 550.3 136.356 550.791L140.838 550.372C140.715 549.332 140.432 548.317 140.001 547.363" fill="#C51B2E"/>
<path d="M135.646 548.786L139.672 546.777C139.177 545.849 138.543 545.002 137.793 544.266L134.75 547.585C135.098 547.941 135.399 548.34 135.646 548.773" fill="#4C9F37"/>
<path d="M124.765 551.649C124.765 551.556 124.765 551.469 124.765 551.377L120.283 550.958C120.283 551.18 120.258 551.406 120.258 551.632C120.257 552.478 120.36 553.321 120.563 554.143L124.895 552.887C124.802 552.475 124.755 552.054 124.757 551.632" fill="#3F7E45"/>
<path d="M135.1 555.332C134.782 555.721 134.415 556.067 134.008 556.361L136.356 560.203C137.235 559.608 138.017 558.881 138.674 558.048L135.1 555.332Z" fill="#FBC30A"/>
<path d="M136.4 551.648C136.4 552.064 136.355 552.478 136.266 552.883L140.597 554.139C140.798 553.327 140.899 552.493 140.899 551.657C140.899 551.443 140.899 551.238 140.878 551.025L136.395 551.443C136.395 551.515 136.395 551.582 136.395 551.653" fill="#E8412E"/>
<path d="M126.161 555.419L122.578 558.144C123.245 558.965 124.034 559.679 124.918 560.262L127.282 556.432C126.865 556.146 126.488 555.805 126.161 555.419" fill="#F59B2C"/>
<path d="M124.843 550.732C124.921 550.235 125.061 549.75 125.261 549.288L121.235 547.279C120.78 548.242 120.479 549.27 120.344 550.326L124.843 550.732Z" fill="#1796D4"/>
<path d="M135.801 560.542L133.42 556.712C132.986 556.957 132.521 557.146 132.039 557.273L132.876 561.701C133.906 561.466 134.894 561.075 135.806 560.542" fill="#A21A43"/>
<path d="M136.097 553.507C135.942 553.964 135.731 554.399 135.469 554.804L139.064 557.516C139.651 556.666 140.11 555.734 140.424 554.75L136.097 553.507Z" fill="#2CBBE1"/>
<path d="M131.422 557.403C131.145 557.443 130.865 557.464 130.585 557.466C130.359 557.465 130.132 557.451 129.907 557.424L129.07 561.852C129.571 561.924 130.076 561.961 130.581 561.961C131.142 561.961 131.702 561.916 132.255 561.827L131.422 557.403Z" fill="#ED692E"/>
<path d="M130.953 545.844C131.443 545.874 131.927 545.969 132.393 546.124L134.012 541.918C133.028 541.572 131.996 541.377 130.953 541.341V545.844Z" fill="#E5263C"/>
<path d="M129.265 557.311C128.766 557.197 128.286 557.015 127.838 556.771L125.469 560.621C126.392 561.148 127.392 561.529 128.432 561.751L129.265 557.311Z" fill="#DD1568"/>
<path d="M128.816 546.103C129.291 545.951 129.785 545.863 130.284 545.84V541.336C129.229 541.364 128.185 541.555 127.188 541.901L128.816 546.103Z" fill="#19486A"/>
<path d="M125.767 554.901C125.481 554.475 125.252 554.013 125.085 553.528L120.758 554.783C121.081 555.805 121.562 556.77 122.185 557.642L125.767 554.901Z" fill="#BF8B2F"/>
<path d="M126.987 547.087C127.371 546.783 127.793 546.53 128.242 546.334L126.614 542.148C125.653 542.552 124.758 543.1 123.961 543.772L126.987 547.087Z" fill="#00699F"/>
<path d="M22.7181 547.945C22.7242 547.808 22.6982 547.673 22.6422 547.548C22.5862 547.424 22.5018 547.315 22.3958 547.229C22.0454 546.994 21.6597 546.816 21.2533 546.702C20.7987 546.553 20.3541 546.376 19.9224 546.17C18.8064 545.612 18.2484 544.855 18.2484 543.898C18.2443 543.444 18.3916 543.002 18.6669 542.642C18.9792 542.262 19.3884 541.973 19.8513 541.805C20.4025 541.593 20.9893 541.49 21.5797 541.5C22.1549 541.489 22.7257 541.602 23.2538 541.83C23.7206 542.03 24.1202 542.36 24.4047 542.78C24.6825 543.196 24.8283 543.686 24.8232 544.186H22.7306C22.7421 544.031 22.7187 543.876 22.6623 543.731C22.6058 543.586 22.5176 543.456 22.4042 543.349C22.1593 543.143 21.8449 543.039 21.5253 543.056C21.2119 543.04 20.9017 543.127 20.6423 543.303C20.5403 543.372 20.4574 543.466 20.4011 543.575C20.3449 543.685 20.3172 543.807 20.3205 543.93C20.3238 544.053 20.3581 544.173 20.4202 544.279C20.4823 544.386 20.5702 544.475 20.6757 544.538C21.0637 544.786 21.487 544.974 21.9313 545.095C22.444 545.251 22.9391 545.46 23.4086 545.718C23.8282 545.921 24.1821 546.238 24.4301 546.632C24.678 547.027 24.8099 547.483 24.8106 547.949C24.8258 548.294 24.7554 548.637 24.6057 548.948C24.456 549.259 24.2317 549.528 23.9527 549.732C23.2635 550.202 22.4377 550.43 21.6048 550.38C20.9493 550.39 20.2992 550.262 19.6964 550.004C19.1769 549.791 18.7305 549.432 18.4116 548.97C18.1249 548.518 17.9792 547.99 17.9931 547.455H20.0856C20.0657 547.641 20.0856 547.829 20.1441 548.006C20.2025 548.184 20.2982 548.347 20.4246 548.485C20.7588 548.737 21.1754 548.855 21.5923 548.815C21.881 548.83 22.167 548.752 22.4084 548.593C22.5062 548.521 22.5849 548.427 22.6374 548.317C22.69 548.208 22.7148 548.087 22.7097 547.966" fill="#029DDA"/>
<path d="M32.7982 541.583V547.254C32.81 547.839 32.6655 548.417 32.3797 548.928C32.1035 549.396 31.6921 549.77 31.1995 549.999C30.6311 550.257 30.0115 550.383 29.3874 550.368C28.4741 550.42 27.5756 550.12 26.8763 549.531C26.5695 549.244 26.3278 548.896 26.1675 548.508C26.0072 548.12 25.9321 547.702 25.9472 547.283V541.583H28.0398V547.338C28.0649 548.283 28.5057 548.756 29.3623 548.756C29.5414 548.771 29.7216 548.746 29.8906 548.685C30.0595 548.623 30.2133 548.526 30.3416 548.401C30.5934 548.069 30.7128 547.656 30.6764 547.241V541.583H32.7982Z" fill="#029DDA"/>
<path d="M38.6946 547.945C38.7009 547.808 38.6746 547.672 38.6178 547.547C38.561 547.423 38.4755 547.314 38.3682 547.229C38.0198 546.993 37.6354 546.815 37.2299 546.702C36.775 546.554 36.3303 546.377 35.899 546.17C34.783 545.612 34.2249 544.855 34.2249 543.898C34.2212 543.444 34.3685 543.003 34.6435 542.642C34.9551 542.261 35.3645 541.972 35.8278 541.805C36.3778 541.594 36.9631 541.49 37.5521 541.5C38.1272 541.49 38.6979 541.603 39.2262 541.83C39.6924 542.031 40.0917 542.36 40.3771 542.78C40.6549 543.196 40.8007 543.686 40.7956 544.186H38.703C38.7141 544.032 38.691 543.877 38.6353 543.732C38.5796 543.587 38.4927 543.457 38.3808 543.349C38.1346 543.146 37.8211 543.041 37.5019 543.056C37.1885 543.04 36.8783 543.127 36.6188 543.303C36.5182 543.374 36.4363 543.468 36.3801 543.577C36.324 543.687 36.2953 543.808 36.2966 543.931C36.3034 544.053 36.3392 544.172 36.4011 544.278C36.463 544.383 36.5491 544.472 36.6523 544.538C37.0402 544.786 37.4636 544.974 37.9078 545.095C38.4192 545.251 38.9129 545.46 39.381 545.718C39.8016 545.92 40.1567 546.236 40.4055 546.631C40.6543 547.026 40.7866 547.482 40.7872 547.949C40.8024 548.294 40.7319 548.637 40.5823 548.948C40.4326 549.259 40.2082 549.528 39.9292 549.732C39.2401 550.202 38.4143 550.43 37.5814 550.38C36.9259 550.39 36.2757 550.262 35.673 550.004C35.1535 549.791 34.707 549.432 34.3882 548.97C34.1015 548.518 33.9558 547.99 33.9697 547.455H36.0622C36.0464 547.642 36.0703 547.83 36.1324 548.006C36.1944 548.183 36.2932 548.345 36.4221 548.48C36.7587 548.731 37.176 548.849 37.594 548.811C37.8827 548.826 38.1686 548.748 38.4101 548.589C38.5079 548.517 38.5865 548.422 38.6391 548.313C38.6916 548.203 38.7165 548.083 38.7114 547.961" fill="#029DDA"/>
<path d="M48.7715 543.194H46.1725V550.246H44.0842V543.194H41.5312V541.583H48.7715V543.194Z" fill="#029DDA"/>
<path d="M53.9783 548.627H51.1157L50.6135 550.246H48.3828L51.5593 541.583H53.5263L56.7237 550.246H54.4847L53.9783 548.627ZM51.6137 547.015H53.4845L52.5512 544.01L51.6137 547.015Z" fill="#029DDA"/>
<path d="M59.7092 541.583H57.625V550.246H59.7092V541.583Z" fill="#029DDA"/>
<path d="M68.5173 550.246H66.4373L63.3696 544.856V550.246H61.2812V541.583H63.3696L66.4331 546.973V541.583H68.5173V550.246Z" fill="#029DDA"/>
<path d="M74.9861 548.627H72.1235L71.6255 550.246H69.3906L72.5713 541.583H74.5341L77.7357 550.246H75.4925L74.9861 548.627ZM72.6215 547.015H74.4839L73.5506 544.01L72.6215 547.015Z" fill="#029DDA"/>
<path d="M78.4844 550.246V541.583H81.5981C82.4884 541.526 83.3752 541.739 84.1426 542.194C84.4267 542.393 84.6556 542.66 84.8079 542.971C84.9602 543.282 85.0308 543.627 85.0131 543.973C85.0236 544.378 84.9161 544.778 84.7034 545.124C84.4854 545.451 84.1665 545.698 83.7953 545.827C84.2091 545.919 84.5769 546.155 84.8332 546.492C85.0824 546.838 85.2104 547.255 85.1973 547.681C85.2232 548.041 85.1636 548.402 85.0232 548.734C84.8828 549.067 84.6657 549.361 84.3896 549.594C83.6888 550.07 82.8496 550.299 82.0041 550.246H78.4844ZM80.5769 545.195H81.6692C82.0132 545.222 82.3564 545.134 82.6444 544.944C82.7437 544.853 82.8212 544.74 82.8712 544.615C82.9212 544.489 82.9424 544.354 82.9331 544.22C82.9466 544.073 82.9252 543.924 82.8707 543.787C82.8161 543.649 82.73 543.527 82.6193 543.429C82.3137 543.245 81.9579 543.161 81.6023 543.19H80.5769V545.195ZM80.5769 546.564V548.656H81.9455C82.2573 548.676 82.566 548.584 82.816 548.397C82.9179 548.306 82.998 548.193 83.0502 548.067C83.1023 547.941 83.1253 547.805 83.1173 547.668C83.1387 547.522 83.1257 547.372 83.0794 547.231C83.0331 547.09 82.9548 546.962 82.8505 546.856C82.7463 546.751 82.619 546.671 82.4786 546.623C82.3383 546.575 82.1887 546.561 82.0417 546.58L80.5769 546.564Z" fill="#029DDA"/>
<path d="M88.5571 548.639H92.1898V550.246H86.4688V541.583H88.5571V548.639Z" fill="#029DDA"/>
<path d="M98.569 546.567H95.2837V548.639H99.1633V550.246H93.1953V541.583H99.1758V543.194H95.2837V545.023H98.569V546.567Z" fill="#029DDA"/>
<path d="M18.2422 561.965V553.473H20.9793C21.6862 553.463 22.3833 553.639 23.0007 553.984C23.5952 554.321 24.0815 554.82 24.4027 555.423C24.745 556.067 24.9205 556.787 24.9133 557.516V557.909C24.9264 558.637 24.7566 559.357 24.4194 560.002C24.1026 560.605 23.6225 561.107 23.0341 561.45C22.4272 561.8 21.7383 561.981 21.0378 561.977L18.2422 561.965ZM20.2887 555.055V560.387H21.0002C21.2576 560.404 21.5153 560.358 21.7509 560.253C21.9865 560.148 22.1929 559.987 22.352 559.784C22.7058 559.23 22.8716 558.577 22.8249 557.922V557.554C22.8722 556.901 22.7063 556.25 22.352 555.7C22.1911 555.492 21.982 555.326 21.7428 555.218C21.5036 555.109 21.2415 555.06 20.9793 555.076L20.2887 555.055Z" fill="#029DDA"/>
<path d="M30.778 558.361H27.7731V560.391H31.3639V561.965H25.7266V553.473H31.3723V555.055H27.7731V556.846H30.778V558.361Z" fill="#029DDA"/>
<path d="M35.8456 559.655L37.5363 553.473H39.8214L36.963 561.961H34.7239L31.8906 553.473H34.159L35.8456 559.655Z" fill="#029DDA"/>
<path d="M45.4596 558.361H42.484V560.391H46.0455V561.965H40.4375V553.473H46.0539V555.055H42.484V556.846H45.4596V558.361Z" fill="#029DDA"/>
<path d="M48.7887 560.387H52.0238V561.961H46.7422V553.473H48.7887V560.387Z" fill="#029DDA"/>
<path d="M59.6515 557.893C59.6667 558.651 59.5078 559.403 59.187 560.09C58.9079 560.7 58.4533 561.213 57.8812 561.563C57.2924 561.895 56.6278 562.069 55.9519 562.069C55.276 562.069 54.6114 561.895 54.0226 561.563C53.4586 561.225 53.0049 560.731 52.7168 560.14C52.3997 559.481 52.2352 558.758 52.2355 558.027V557.549C52.2193 556.791 52.3752 556.038 52.6917 555.348C52.9739 554.739 53.4315 554.227 54.0058 553.879C54.5944 553.542 55.261 553.364 55.9394 553.364C56.6177 553.364 57.2843 553.542 57.8729 553.879C58.443 554.229 58.8994 554.736 59.187 555.34C59.5112 556.017 59.6745 556.761 59.6641 557.512L59.6515 557.893ZM57.559 557.537C57.6029 556.87 57.4579 556.204 57.1405 555.616C57.0157 555.409 56.8376 555.239 56.6249 555.124C56.4122 555.009 56.1725 554.954 55.931 554.963C54.9056 554.963 54.3658 555.729 54.3072 557.269V557.893C54.2698 558.559 54.4145 559.223 54.7257 559.814C54.8507 560.026 55.0313 560.201 55.248 560.319C55.4648 560.437 55.7096 560.494 55.9561 560.483C56.1966 560.491 56.4347 560.433 56.6453 560.317C56.8559 560.201 57.0313 560.03 57.153 559.822C57.4628 559.242 57.6076 558.587 57.5715 557.93L57.559 557.537Z" fill="#029DDA"/>
<path d="M62.5075 559.081V561.961H60.4609V553.473H63.8467C64.4412 553.463 65.0304 553.586 65.571 553.833C66.0485 554.054 66.4514 554.408 66.7302 554.854C67.0087 555.304 67.1538 555.824 67.1487 556.353C67.1626 556.73 67.0898 557.105 66.936 557.45C66.7822 557.794 66.5515 558.099 66.2615 558.341C65.5617 558.869 64.697 559.131 63.8216 559.081H62.5075ZM62.5075 557.504H63.8467C64.1767 557.528 64.5031 557.421 64.7549 557.206C64.8612 557.096 64.9436 556.964 64.9969 556.82C65.0502 556.676 65.0732 556.523 65.0646 556.369C65.082 556.024 64.9684 555.685 64.7465 555.419C64.6347 555.301 64.4988 555.207 64.348 555.145C64.1971 555.083 64.0348 555.054 63.8718 555.059H62.5075V557.504Z" fill="#029DDA"/>
<path d="M70.5817 553.473L72.4733 559.378L74.365 553.473H77.056V561.965H75.0053V559.981L75.202 555.921L73.1513 561.965H71.7995L69.7404 555.917L69.9371 559.981V561.965H67.8906V553.473H70.5817Z" fill="#029DDA"/>
<path d="M83.0285 558.361H80.0153V560.391H83.6103V561.965H77.9688V553.473H83.6228V555.055H80.0153V556.846H83.0285V558.361Z" fill="#029DDA"/>
<path d="M91.3865 561.961H89.3483L86.3434 556.683V561.961H84.2969V553.473H86.3434L89.3441 558.755V553.473H91.3865V561.961Z" fill="#029DDA"/>
<path d="M99.1761 555.055H96.6273V561.961H94.5808V555.055H92.0781V553.473H99.1761V555.055Z" fill="#029DDA"/>
<g clip-path="url(#clip0_514_251)">
<path d="M110 250C110 249 110 248 110 247L0.350031 236.82C0.116698 241.18 3.10914e-05 245.573 3.10914e-05 250C-0.00981667 269.762 2.31973 289.456 6.94003 308.67L112.94 278.55C110.988 269.159 110.003 259.592 110 250Z" fill="#46DC78"/>
<path d="M316.48 126.76C323.602 130.615 330.377 135.078 336.73 140.1L411 58.72C392.508 43.1618 371.86 30.3624 349.7 20.72L309.82 123.4C312.074 124.467 314.294 125.587 316.48 126.76Z" fill="#46DC78"/>
<path d="M118.367 297.79L12.3672 327.91C19.8976 350.885 30.7347 372.64 44.5372 392.49L132.467 326.14C126.71 317.254 121.98 307.743 118.367 297.79Z" fill="#46DC78"/>
<path d="M370.58 178.84L469.23 129.77C457.58 108.587 442.929 89.1998 425.73 72.21L351.5 153.58C358.793 161.253 365.194 169.727 370.58 178.84Z" fill="#46DC78"/>
<path d="M129.999 177.86C135.283 169.091 141.51 160.925 148.569 153.51L74.3894 72.08C57.1848 89.0605 42.5234 108.437 30.8594 129.61L129.469 178.76L129.999 177.86Z" fill="#46DC78"/>
<path d="M163.35 140C171.662 133.441 180.694 127.849 190.27 123.33L150.5 20.6C128.33 30.2355 107.675 43.0354 89.1797 58.6L163.35 140Z" fill="#46DC78"/>
<path d="M208.919 116.13C211.779 115.25 214.679 114.47 217.609 113.77C224.984 112.025 232.489 110.884 240.049 110.36V0.209991C215.89 1.13255 191.993 5.56566 169.109 13.37L208.919 116.13Z" fill="#46DC78"/>
<path d="M120.53 196.65L21.9197 147.5C11.9917 169.547 5.34132 192.928 2.17969 216.9L111.87 227.11C113.592 216.661 116.497 206.442 120.53 196.65Z" fill="#46DC78"/>
<path d="M260.047 110.36C267.378 110.879 274.657 111.972 281.817 113.63C284.977 114.37 288.097 115.213 291.177 116.16L330.997 13.43C308.126 5.61096 284.239 1.16102 260.087 0.220001L260.047 110.36Z" fill="#46DC78"/>
<path d="M144.557 342.09L56.6172 408.45C71.951 427.14 89.8989 443.522 109.907 457.09L167.907 363.43C159.345 357.218 151.512 350.06 144.557 342.09Z" fill="#46DC78"/>
<path d="M381.587 297.89C377.962 307.84 373.215 317.345 367.438 326.22L455.318 392.64C469.135 372.797 479.992 351.049 487.547 328.08L381.587 297.89Z" fill="#46DC78"/>
<path d="M249.998 390C244.692 389.999 239.39 389.698 234.118 389.1L213.828 497.39C237.753 500.857 262.053 500.857 285.978 497.39L265.778 389.09C260.539 389.687 255.271 389.99 249.998 390Z" fill="#46DC78"/>
<path d="M390.003 247.12C390.003 248.12 390.003 249.04 390.003 250C390.004 259.625 389.019 269.226 387.062 278.65L493.062 308.84C497.693 289.57 500.023 269.819 500.003 250C500.003 245.64 499.893 241.307 499.673 237L390.003 247.12Z" fill="#46DC78"/>
<path d="M285.438 385.47L305.647 493.77C329.224 488.426 351.893 479.666 372.938 467.77L314.997 374C305.614 378.938 295.696 382.787 285.438 385.47Z" fill="#46DC78"/>
<path d="M379.5 196.74C383.537 206.533 386.436 216.756 388.14 227.21L497.84 217.08C494.692 193.106 488.062 169.719 478.16 147.66L379.5 196.74Z" fill="#46DC78"/>
<path d="M332 363.49L390 457.19C410.019 443.639 427.977 427.271 443.32 408.59L355.43 342.17C348.451 350.139 340.591 357.292 332 363.49Z" fill="#46DC78"/>
<path d="M184.93 374L126.93 467.65C147.965 479.576 170.627 488.372 194.2 493.76L214.49 385.46C204.232 382.78 194.314 378.935 184.93 374Z" fill="#46DC78"/>
<path d="M262.93 240H227.07C225.196 239.997 223.399 239.252 222.074 237.926C220.748 236.601 220.003 234.804 220 232.93V227.07C219.997 225.196 219.252 223.399 217.926 222.074C216.601 220.748 214.804 220.003 212.93 220H182.93C182.001 220.001 181.082 219.819 180.223 219.464C179.365 219.109 178.586 218.587 177.93 217.93L162.07 202.07C161.413 201.414 160.891 200.635 160.536 199.777C160.181 198.918 159.999 197.999 160 197.07V187.07C160.003 185.196 160.748 183.399 162.074 182.074C163.399 180.748 165.196 180.003 167.07 180H192.93C194.804 179.997 196.601 179.252 197.926 177.926C199.252 176.601 199.997 174.804 200 172.93V167.07C200 165.671 200.414 164.304 201.191 163.141C201.968 161.978 203.072 161.072 204.364 160.537C205.656 160.001 207.078 159.861 208.45 160.134C209.821 160.407 211.081 161.081 212.07 162.07L215.13 165.13C216.433 166.434 218.193 167.177 220.037 167.204C221.88 167.23 223.66 166.536 225 165.27L226.19 164.13C227.28 163.099 228.015 161.748 228.286 160.272C228.558 158.796 228.352 157.272 227.7 155.92L220.7 141.46C220.232 140.501 219.989 139.447 219.99 138.38V119.06C219.993 118.059 219.781 117.068 219.369 116.156C218.957 115.243 218.354 114.429 217.6 113.77C214.67 114.47 211.77 115.25 208.91 116.13C202.526 118.084 196.293 120.501 190.26 123.36C165.246 135.198 144.283 154.157 130 177.86V187.07C129.999 187.999 130.181 188.918 130.536 189.777C130.891 190.635 131.413 191.414 132.07 192.07L140 200L142.09 202.09L148.85 208.85L160 220L167.93 227.93C168.587 228.586 169.109 229.365 169.464 230.223C169.819 231.082 170.001 232.001 170 232.93V247.07C169.999 247.999 170.181 248.918 170.536 249.777C170.891 250.635 171.413 251.414 172.07 252.07L180 260L200 280L207.93 287.93C208.587 288.586 209.109 289.365 209.464 290.223C209.819 291.082 210.001 292.001 210 292.93V308.33C209.999 309.427 209.742 310.509 209.25 311.49L200.75 328.49C200.258 329.471 200.001 330.553 200 331.65V342.91C200.003 344.784 200.748 346.581 202.074 347.906C203.399 349.232 205.196 349.977 207.07 349.98H212.93C214.804 349.977 216.601 349.232 217.926 347.906C219.252 346.581 219.997 344.784 220 342.91V332.91C219.999 331.981 220.181 331.062 220.536 330.203C220.891 329.345 221.413 328.566 222.07 327.91L230 320L240 310L247.78 302C249.013 300.732 249.726 299.048 249.78 297.28L250 290V287.07C250.003 285.196 250.748 283.399 252.074 282.074C253.399 280.748 255.196 280.003 257.07 280H262.93C264.804 279.997 266.601 279.252 267.926 277.926C269.252 276.601 269.997 274.804 270 272.93V247.07C269.997 245.196 269.252 243.399 267.926 242.074C266.601 240.748 264.804 240.003 262.93 240Z" fill="#F0F0F0"/>
<path d="M250 110V118.25C249.998 118.807 250.107 119.359 250.32 119.874C250.533 120.389 250.846 120.857 251.24 121.25L257.41 127.42C258.13 128.137 259.084 128.571 260.097 128.643C261.111 128.714 262.116 128.419 262.93 127.81L281.82 113.64C274.66 111.982 267.381 110.889 260.05 110.37C256.73 110.13 253.38 110 250 110Z" fill="#F0F0F0"/>
<path d="M318.574 160H327.074C328.002 160.001 328.922 159.819 329.78 159.464C330.638 159.109 331.418 158.587 332.074 157.93L340.004 150L343.874 146.13C341.564 144.04 339.174 142.03 336.734 140.13C330.381 135.108 323.606 130.645 316.484 126.79L311.004 129.49C310.323 129.827 309.701 130.273 309.164 130.81L305.504 134.47L300.004 140L297.914 142.09L292.074 147.93C291.693 148.299 291.358 148.712 291.074 149.16C290.395 150.23 290.017 151.463 289.98 152.73C289.942 153.997 290.246 155.25 290.86 156.359C291.473 157.468 292.374 158.391 293.468 159.032C294.561 159.672 295.807 160.007 297.074 160H318.574Z" fill="#F0F0F0"/>
<path d="M390 247.12C389.662 229.824 386.115 212.741 379.54 196.74C378.61 194.46 377.61 192.22 376.54 190H315C313.674 190 312.402 190.527 311.464 191.464C310.527 192.402 310 193.674 310 195V215C310 216.326 310.527 217.598 311.464 218.536C312.402 219.473 313.674 220 315 220C316.326 220 317.598 220.527 318.536 221.464C319.473 222.402 320 223.674 320 225V235C320 236.326 320.527 237.598 321.464 238.536C322.402 239.473 323.674 240 325 240H337.93C339.254 240 340.523 240.525 341.46 241.46L348.54 248.54C349.475 249.477 350 250.746 350 252.07V255C350 256.326 350.527 257.598 351.464 258.536C352.402 259.473 353.674 260 355 260H365C365.887 260.006 366.757 260.247 367.52 260.7C368.272 261.139 368.896 261.766 369.331 262.521C369.766 263.275 369.997 264.129 370 265V267.93C370 269.254 369.475 270.523 368.54 271.46L367.05 273L365.45 274.6L352.53 287.52L351.46 288.59C350.525 289.527 350 290.796 350 292.12V327.98C350 329.304 350.525 330.573 351.46 331.51L357.1 337.15C357.57 337.615 358.127 337.982 358.74 338.23C361.847 334.384 364.751 330.379 367.44 326.23C373.218 317.355 377.965 307.85 381.59 297.9C383.877 291.628 385.705 285.197 387.06 278.66C389.017 269.232 390.002 259.629 390 250C390 249 390 248.08 390 247.12Z" fill="#F0F0F0"/>
</g>
<defs>
<clipPath id="clip0_514_251">
<rect width="500" height="500" fill="white"/>
</clipPath>
</defs>
</svg>
