<svg width="500" height="500" viewBox="0 0 500 500" fill="none" xmlns="http://www.w3.org/2000/svg">
<path d="M463.56 120C470.51 119.8 477.268 117.671 483.079 113.853C488.889 110.035 493.525 104.676 496.466 98.376C499.408 92.0759 500.541 85.0821 499.738 78.1755C498.936 71.2689 496.229 64.7213 491.921 59.2638C487.613 53.8062 481.872 49.6536 475.341 47.2695C468.809 44.8854 461.743 44.3637 454.932 45.7626C448.122 47.1615 441.833 50.426 436.77 55.1916C431.707 59.9571 428.068 66.0362 426.26 72.75C425.398 75.9318 424.961 79.2136 424.96 82.51H444.96C444.954 79.0436 445.977 75.6534 447.898 72.7683C449.82 69.8832 452.554 67.6329 455.755 66.3023C458.955 64.9716 462.479 64.6204 465.88 65.293C469.28 65.9657 472.405 67.6319 474.858 70.0809C477.311 72.5299 478.983 75.6516 479.661 79.051C480.34 82.4504 479.994 85.9746 478.669 89.1777C477.344 92.3808 475.098 95.1188 472.217 97.0453C469.335 98.9717 465.946 100 462.48 100H260V120H462.48C462.84 120 463.2 120 463.56 120Z" fill="#F0F0F0"/>
<path d="M289.997 150.08H259.977V170.08H289.997V150.08Z" fill="#F0F0F0"/>
<path d="M420.632 340H483.292C484.098 337.9 484.882 335.79 485.642 333.67L486.182 332.13C486.542 331.13 486.902 330.06 487.242 329.02L487.752 327.47C488.312 325.75 488.852 324.027 489.372 322.3C489.592 321.57 489.812 320.84 490.022 320.11V320H385.852L420.632 340Z" fill="#F0F0F0"/>
<path d="M420 260V280H498.22C498.39 278.58 498.54 277.15 498.69 275.73C498.69 275.46 498.74 275.19 498.77 274.91C498.93 273.3 499.07 271.69 499.2 270.07L499.32 268.5C499.45 266.65 499.58 264.79 499.67 262.93C499.67 262.81 499.67 262.7 499.67 262.58C499.67 261.72 499.74 260.86 499.78 260H420Z" fill="#F0F0F0"/>
<path d="M219.117 1.9V57.4C225.743 56.3482 232.418 55.6372 239.117 55.27V0.25C234.184 0.463333 229.291 0.796667 224.437 1.25C222.657 1.47 220.887 1.68 219.117 1.9Z" fill="#F0F0F0"/>
<path d="M152.431 19.7701C147.811 21.7301 143.261 23.8268 138.781 26.0601L157.731 78.1301C163.632 74.957 169.693 72.0932 175.891 69.5501L157.081 17.8501C155.521 18.4834 153.971 19.1234 152.431 19.7701Z" fill="#F0F0F0"/>
<path d="M87.1834 60.2998C82.1101 64.6531 77.2234 69.1998 72.5234 73.9398L108.003 116.27C112.598 111.403 117.438 106.774 122.503 102.4L87.1834 60.2998Z" fill="#F0F0F0"/>
<path d="M35.4416 121.65C34.6616 122.95 33.8816 124.25 33.1216 125.56C30.5616 130.02 28.1216 134.56 25.8516 139.2L73.5816 166.76C76.4157 160.725 79.5599 154.84 83.0016 149.13L35.4016 121.65H35.4416Z" fill="#F0F0F0"/>
<path d="M60.1731 205.07L6.00312 195.51C4.56312 201.976 3.37979 208.54 2.45312 215.2L56.6131 224.75C57.4643 218.133 58.6525 211.565 60.1731 205.07Z" fill="#F0F0F0"/>
<path d="M55.57 265.46L1.25 275L1.31 275.69C1.49 277.47 1.7 279.24 1.92 281.01C1.99 281.6 2.07 282.19 2.14 282.77C2.33 284.19 2.53 285.6 2.74 287.01C2.8 287.45 2.86 287.89 2.93 288.33C3.19 290.01 3.47 291.68 3.76 293.33L4 294.86L58.13 285.31C56.9393 278.741 56.0849 272.116 55.57 265.46Z" fill="#F0F0F0"/>
<path d="M21.0469 350.5C21.7602 352.127 22.4902 353.747 23.2369 355.36L23.4569 355.84C25.1435 359.433 26.9069 362.977 28.7469 366.47L28.8269 366.62C29.1569 367.25 29.4969 367.86 29.8269 368.48L40.0969 362.58L77.4369 341C74.3039 335.063 71.4867 328.964 68.9969 322.73L21.0469 350.5Z" fill="#F0F0F0"/>
<path d="M360.412 445.55C351.282 440.84 343.412 436.77 326.662 436.77C309.912 436.77 302.042 440.84 292.912 445.55C282.912 450.71 271.592 456.55 249.992 456.55C228.392 456.55 217.072 450.7 207.082 445.55C197.952 440.84 190.082 436.77 173.332 436.77C156.582 436.77 148.712 440.84 139.582 445.55C131.582 449.7 122.642 454.29 108.242 455.93L108.422 456.06C109.722 456.95 111.022 457.82 112.332 458.69L114.332 459.99L116.742 461.53L118.742 462.75C119.742 463.4 120.852 464.04 121.912 464.68C122.972 465.32 123.772 465.79 124.712 466.33L126.992 467.64L129.332 468.95L130.332 469.51L130.452 469.45C140.452 464.29 151.782 458.45 173.372 458.45C194.962 458.45 206.292 464.3 216.292 469.45C225.422 474.16 233.292 478.23 250.032 478.23C266.772 478.23 274.652 474.16 283.782 469.45C293.782 464.29 305.112 458.45 326.702 458.45C348.292 458.45 359.632 464.3 369.622 469.45L369.752 469.51L370.752 468.95L373.092 467.64L375.372 466.33C376.312 465.79 377.242 465.23 378.172 464.68C379.102 464.13 380.292 463.4 381.342 462.75L383.342 461.53L385.702 460L387.702 458.7C389.012 457.83 390.312 456.96 391.612 456.07L391.792 455.94C377.352 454.29 368.452 449.7 360.412 445.55Z" fill="#46DC78"/>
<path d="M326.664 478.44C309.924 478.44 302.044 482.51 292.914 487.22C282.914 492.38 271.594 498.22 249.994 498.22C228.394 498.22 217.074 492.37 207.084 487.22C197.954 482.51 190.084 478.44 173.334 478.44C166.833 478.312 160.349 479.148 154.094 480.92L157.534 482.32L159.414 483.05C160.58 483.51 161.76 483.96 162.954 484.4L164.384 484.94C165.93 485.5 167.49 486.047 169.064 486.58L170.804 487.17C172.114 487.61 173.434 488.04 174.804 488.45L175.984 488.83C177.604 489.33 179.244 489.83 180.884 490.29L182.524 490.75C183.954 491.15 185.394 491.54 186.834 491.92L187.784 492.17C189.484 492.603 191.187 493.017 192.894 493.41L194.444 493.77C195.994 494.12 197.544 494.46 199.104 494.77L199.824 494.92C201.584 495.28 203.344 495.61 205.114 495.92L206.604 496.19C208.254 496.48 209.914 496.75 211.604 497.01L212.124 497.09C213.924 497.37 215.744 497.62 217.564 497.85L219.014 498.04C220.754 498.25 222.514 498.46 224.274 498.64H224.594C226.444 498.83 228.304 498.99 230.164 499.14L231.584 499.25C233.424 499.38 235.264 499.5 237.104 499.6H237.254C239.144 499.69 241.044 499.76 242.934 499.81H244.354C246.264 499.81 248.174 499.88 250.094 499.88C252.014 499.88 253.924 499.88 255.834 499.81H257.254C259.144 499.76 261.044 499.69 262.934 499.6H263.004C264.844 499.5 266.684 499.38 268.524 499.25L269.944 499.14C271.804 498.99 273.664 498.83 275.514 498.64H275.834C277.594 498.46 279.354 498.25 281.094 498.04L282.544 497.85C284.364 497.62 286.184 497.37 287.984 497.09L288.504 497.01C290.164 496.75 291.824 496.48 293.504 496.19L295.004 496C296.774 495.68 298.534 495.35 300.294 495L301.014 494.85C302.574 494.52 304.124 494.18 305.674 493.85L307.224 493.49C308.93 493.09 310.634 492.677 312.334 492.25L313.334 492C314.774 491.62 316.214 491.23 317.644 490.83L319.284 490.37C320.924 489.89 322.564 489.37 324.184 488.91L325.364 488.53C326.684 488.12 328.004 487.69 329.314 487.25L331.054 486.66C332.62 486.133 334.18 485.587 335.734 485.02L337.164 484.48C338.357 484.04 339.537 483.59 340.704 483.13L342.584 482.4L346.014 481C339.728 479.185 333.205 478.323 326.664 478.44Z" fill="#46DC78"/>
<path d="M403.328 373.23C381.728 373.23 370.398 367.38 360.408 362.23C351.278 357.52 343.408 353.45 326.658 353.45C309.908 353.45 302.038 357.52 292.908 362.23C282.908 367.39 271.588 373.23 249.988 373.23C228.388 373.23 217.068 367.38 207.078 362.23C197.948 357.52 190.078 353.45 173.328 353.45C156.578 353.45 148.708 357.52 139.578 362.23C129.578 367.39 118.258 373.23 96.6581 373.23C84.8481 373.23 76.1081 371.47 68.9781 369.04L49.8281 380.04C54.3092 381.792 58.6805 383.812 62.9181 386.09C72.0381 390.8 79.9181 394.87 96.6581 394.87C113.398 394.87 121.278 390.8 130.408 386.09C140.408 380.93 151.738 375.09 173.328 375.09C194.918 375.09 206.248 380.93 216.248 386.09C225.378 390.8 233.248 394.87 249.988 394.87C266.728 394.87 274.608 390.8 283.738 386.09C293.738 380.93 305.068 375.09 326.658 375.09C348.248 375.09 359.588 380.93 369.578 386.09C378.708 390.8 386.578 394.87 403.328 394.87C420.078 394.87 427.948 390.8 437.078 386.09C441.314 383.808 445.685 381.788 450.168 380.04L430.998 369C423.878 371.47 415.148 373.23 403.328 373.23Z" fill="#46DC78"/>
<path d="M403.327 414.89C381.727 414.89 370.397 409.05 360.407 403.89C351.277 399.18 343.407 395.11 326.657 395.11C309.907 395.11 302.037 399.18 292.907 403.89C282.907 409.05 271.587 414.89 249.987 414.89C228.387 414.89 217.067 409.05 207.077 403.89C197.947 399.18 190.077 395.11 173.327 395.11C156.577 395.11 148.707 399.18 139.577 403.89C129.577 409.05 118.257 414.89 96.6566 414.89C75.0566 414.89 63.7366 409.05 53.7466 403.89L52.4766 403.23C53.3566 404.37 54.2466 405.5 55.1466 406.62C55.1466 406.67 55.2366 406.72 55.2766 406.78C57.7166 409.813 60.2266 412.78 62.8066 415.68L63.0566 415.97C65.5866 418.82 68.1966 421.62 70.8566 424.36L71.2866 424.8C73.8999 427.467 76.5666 430.077 79.2866 432.63L79.9466 433.25L82.1266 435.25C86.9107 436.17 91.775 436.609 96.6466 436.56C113.387 436.56 121.267 432.49 130.397 427.78C140.397 422.62 151.727 416.78 173.317 416.78C194.907 416.78 206.237 422.63 216.237 427.78C225.367 432.49 233.237 436.56 249.977 436.56C266.717 436.56 274.597 432.49 283.727 427.78C293.727 422.62 305.057 416.78 326.647 416.78C348.237 416.78 359.577 422.63 369.567 427.78C378.697 432.49 386.567 436.56 403.317 436.56C408.191 436.609 413.059 436.171 417.847 435.25L420.027 433.25L420.687 432.63C423.42 430.077 426.087 427.467 428.687 424.8L429.117 424.36C431.777 421.62 434.387 418.82 436.917 415.97L437.167 415.68C439.747 412.767 442.257 409.8 444.697 406.78C444.697 406.72 444.787 406.67 444.827 406.62C445.727 405.5 446.617 404.37 447.497 403.23L446.227 403.89C436.257 409.05 424.927 414.89 403.327 414.89Z" fill="#46DC78"/>
<path d="M217.232 283.77L197.812 294.94C204.213 296.912 210.392 299.539 216.253 302.78C225.383 307.49 233.253 311.56 249.993 311.56C266.733 311.56 274.612 307.49 283.742 302.78C289.601 299.565 295.773 296.959 302.163 295L282.742 283.83C274.742 287.21 264.743 289.94 249.993 289.94C235.243 289.94 225.252 287.16 217.232 283.77Z" fill="#46DC78"/>
<path d="M130.408 344.45C140.408 339.29 151.738 333.45 173.328 333.45C194.918 333.45 206.248 339.3 216.248 344.45C225.378 349.16 233.248 353.23 249.988 353.23C266.728 353.23 274.608 349.16 283.738 344.45C293.738 339.29 305.068 333.45 326.658 333.45C348.248 333.45 359.588 339.3 369.578 344.45C378.708 349.16 386.578 353.23 403.328 353.23H403.498L331.658 311.93C330.078 311.84 328.428 311.78 326.658 311.78C309.918 311.78 302.038 315.85 292.908 320.56C282.908 325.72 271.588 331.56 249.988 331.56C228.388 331.56 217.068 325.71 207.078 320.56C197.948 315.85 190.078 311.78 173.328 311.78C171.548 311.78 169.888 311.84 168.328 311.93L96.5078 353.23H96.6878C113.398 353.23 121.278 349.16 130.408 344.45Z" fill="#46DC78"/>
<path d="M258 269.53L250 264.94L242 269.53C244.44 269.76 247.08 269.89 250 269.89C252.92 269.89 255.53 269.76 258 269.53Z" fill="#46DC78"/>
<path d="M481.34 155.11C475.62 151.76 469.109 149.996 462.48 150H320V170H462.48C465.947 169.992 469.338 171.013 472.224 172.933C475.111 174.853 477.363 177.587 478.695 180.788C480.027 183.988 480.38 187.512 479.708 190.913C479.037 194.315 477.371 197.44 474.923 199.894C472.474 202.349 469.352 204.021 465.953 204.7C462.553 205.38 459.028 205.035 455.825 203.71C452.621 202.385 449.882 200.14 447.955 197.258C446.029 194.376 445 190.987 445 187.52H425C424.997 195.213 427.361 202.721 431.77 209.026C436.179 215.33 442.421 220.126 449.648 222.763C456.876 225.399 464.739 225.749 472.172 223.765C479.605 221.781 486.248 217.558 491.2 211.67C496.884 204.906 500 196.355 500 187.52C499.997 180.958 498.272 174.511 494.997 168.824C491.723 163.136 487.014 158.408 481.34 155.11Z" fill="#46DC78"/>
<path d="M389.65 42.6102C389.878 40.923 389.995 39.2227 390 37.5202C389.682 27.7866 385.592 18.5579 378.594 11.7849C371.596 5.01181 362.239 1.2251 352.5 1.2251C342.761 1.2251 333.404 5.01181 326.406 11.7849C319.408 18.5579 315.318 27.7866 315 37.5202H335C335.006 33.4867 336.402 29.5784 338.952 26.4531C341.501 23.3277 345.05 21.1761 349 20.3602C350.164 20.1187 351.351 19.9981 352.54 20.0002C355.775 20.0055 358.946 20.9061 361.701 22.6022C364.456 24.2984 366.688 26.7239 368.15 29.6102C369.505 32.2813 370.152 35.2559 370.027 38.2487C369.902 41.2414 369.01 44.1519 367.437 46.7009C365.864 49.2499 363.662 51.3518 361.043 52.8051C358.424 54.2584 355.475 55.0143 352.48 55.0002H260V75.0002H352.49C361.547 74.9858 370.295 71.7006 377.123 65.7492C383.95 59.7979 388.399 51.5808 389.65 42.6102Z" fill="#46DC78"/>
<path d="M362.48 220C365.947 219.992 369.338 221.013 372.224 222.933C375.111 224.853 377.363 227.587 378.695 230.788C380.027 233.988 380.38 237.512 379.708 240.913C379.037 244.315 377.371 247.44 374.923 249.894C372.474 252.349 369.352 254.021 365.953 254.7C362.553 255.38 359.028 255.035 355.825 253.71C352.621 252.385 349.882 250.14 347.955 247.258C346.029 244.376 345 240.987 345 237.52H325C325.004 244.937 327.207 252.186 331.331 258.35C335.455 264.515 341.314 269.319 348.168 272.153C355.022 274.988 362.562 275.726 369.836 274.276C377.109 272.825 383.789 269.25 389.031 264.002C394.272 258.755 397.84 252.071 399.283 244.796C400.726 237.521 399.98 229.982 397.138 223.131C394.296 216.28 389.486 210.426 383.317 206.309C377.148 202.192 369.897 199.996 362.48 200H260V220H362.5H362.48Z" fill="#46DC78"/>
<path d="M102.52 277.49C105.162 291.711 109.851 305.474 116.44 318.35C116.489 318.43 116.533 318.514 116.57 318.6L225.85 255.74L230.53 253.05L239.97 247.62V100.34C239.68 100.34 239.39 100.34 239.1 100.4C222.639 101.568 206.486 105.461 191.3 111.92C185.102 114.552 179.088 117.599 173.3 121.04C146.505 136.985 125.331 160.867 112.71 189.38C106.656 203.109 102.708 217.673 101 232.58C100.333 238.363 99.9993 244.179 100 250C100 252.553 100.063 255.083 100.19 257.59C100.527 264.267 101.305 270.915 102.52 277.49Z" fill="#46DC78"/>
</svg>
