<svg width="500" height="500" viewBox="0 0 500 500" fill="none" xmlns="http://www.w3.org/2000/svg">
<g clip-path="url(#clip0_417_900)">
<path d="M410.314 441.81L410.094 442L410.314 441.81Z" fill="#374236"/>
<path d="M380.531 463.24L380.881 463.03L381.221 462.82L381.291 462.77L380.531 463.24Z" fill="#374236"/>
<path d="M372.844 467.77L373.244 467.55L373.084 467.64L372.844 467.77Z" fill="#374236"/>
<path d="M373.078 467.64L373.238 467.55L373.528 467.38L373.078 467.64Z" fill="#374236"/>
<path d="M385 460.44L384.5 460.76L385 460.44Z" fill="#374236"/>
<path d="M174.742 488.46L175.142 488.59L175.302 488.64L174.742 488.46Z" fill="#374236"/>
<path d="M89.6875 441.81L89.9075 442L89.6875 441.81Z" fill="#374236"/>
<path d="M335.067 485.14L334.797 485.24L335.067 485.14Z" fill="#374236"/>
<path d="M381.223 462.82L380.883 463.03L381.223 462.82Z" fill="#374236"/>
<path d="M377.502 465.07L376.672 465.56L377.502 465.07Z" fill="#374236"/>
<path d="M126.461 467.38L126.761 467.55L126.921 467.64C126.771 467.55 126.621 467.46 126.461 467.38Z" fill="#374236"/>
<path d="M126.758 467.55L127.158 467.77L126.918 467.64L126.758 467.55Z" fill="#374236"/>
<path d="M118.711 462.77L118.781 462.82L119.121 463.03L119.471 463.24L118.711 462.77Z" fill="#374236"/>
<path d="M169.406 486.71C169.786 486.85 170.166 486.97 170.556 487.1L169.406 486.71Z" fill="#374236"/>
<path d="M115 460.44L115.5 460.76L115 460.44Z" fill="#374236"/>
<path d="M174.062 488.25L175.143 488.59L174.743 488.46L174.062 488.25Z" fill="#374236"/>
<path d="M324.703 488.64L324.863 488.59L325.263 488.46L324.703 488.64Z" fill="#374236"/>
<path d="M119.121 463L118.781 462.79L119.121 463Z" fill="#374236"/>
<path d="M330.587 486.71L329.438 487.1C329.827 487 330.207 486.85 330.587 486.71Z" fill="#374236"/>
<path d="M165.2 485.24L164.93 485.14L165.2 485.24Z" fill="#374236"/>
<path d="M123.33 465.56L122.5 465.07L123.33 465.56Z" fill="#374236"/>
<path d="M324.859 488.59L325.939 488.25L325.259 488.46L324.859 488.59Z" fill="#374236"/>
<path d="M320.109 490L322.449 489.29L320.109 490Z" fill="#374236"/>
<path d="M172 487.57L174.06 488.25L174.74 488.46L172 487.57Z" fill="#374236"/>
<path d="M107.406 455.35L107.756 455.6L107.406 455.35Z" fill="#374236"/>
<path d="M122.383 465L122.503 465.07L123.333 465.56L123.603 465.72L122.383 465Z" fill="#374236"/>
<path d="M392.592 455.35L392.242 455.6L392.592 455.35Z" fill="#374236"/>
<path d="M250 500C251.64 500 253.27 500 254.9 499.95H255.58C253.72 500 251.86 500 250 500Z" fill="#374236"/>
<path d="M179.887 490L177.547 489.3L179.887 490.01V490Z" fill="#374236"/>
<path d="M160.109 483.33C160.559 483.51 161.019 483.67 161.469 483.84L160.109 483.33Z" fill="#374236"/>
<path d="M164.812 485.1H164.932L165.202 485.2L166.753 485.75L164.812 485.1Z" fill="#374236"/>
<path d="M126.922 467.64L127.162 467.77L127.852 468.16L126.922 467.64Z" fill="#374236"/>
<path d="M325.258 488.46L325.938 488.25L327.998 487.57L325.258 488.46Z" fill="#374236"/>
<path d="M240.109 499.79L241.659 499.84L240.109 499.79Z" fill="#374236"/>
<path d="M339.891 483.33L338.531 483.85C338.981 483.68 339.441 483.52 339.891 483.34V483.33Z" fill="#374236"/>
<path d="M333.25 485.79L334.8 485.24L335.07 485.14H335.19L333.25 485.79Z" fill="#374236"/>
<path d="M244.852 499.94H245.102C246.732 499.94 248.362 499.99 250.002 499.99C248.142 499.99 246.282 499.99 244.422 499.92L244.852 499.94Z" fill="#374236"/>
<path d="M372.148 468.16L372.838 467.77L373.078 467.64L372.148 468.16Z" fill="#374236"/>
<path d="M376.398 465.72L376.668 465.56L377.498 465.07L377.618 465L376.398 465.72Z" fill="#374236"/>
<path d="M259.894 499.79L258.344 499.85L259.894 499.8V499.79Z" fill="#374236"/>
<path d="M258.34 499.85L259.89 499.79V469.89H320.11V490L322.45 489.3C323.2 489.08 323.95 488.86 324.7 488.62L325.26 488.44L328 487.55L329.44 487.08L330.59 486.69L333.25 485.77L335.19 485.08C336.31 484.68 337.42 484.25 338.53 483.83L339.89 483.31V469.89H369C370 469.33 371.08 468.75 372.11 468.17L373.04 467.65L373.49 467.39C374.49 466.84 375.41 466.29 376.36 465.73L377.58 465.01L380.49 463.25L381.25 462.78C382.32 462.12 383.39 461.45 384.45 460.78L384.95 460.46C387.39 458.893 389.807 457.28 392.2 455.62L392.55 455.37C395.003 453.67 397.423 451.923 399.81 450.13H339.81V389.89H400.03V449.89C403.43 447.343 406.763 444.707 410.03 441.98L410.25 441.79C411.87 440.44 413.46 439.08 415.04 437.69C416.64 436.27 418.223 434.837 419.79 433.39V389.89H457.2C458.14 388.5 459.04 387.09 459.96 385.68L432.87 370.11H419.87V362.65L400.09 351.27V370.11H339.89V316.65L293.74 290.11H259.89V270.65L250 264.94L240.14 270.62V290.11H206.22L160.11 316.63V370.11H99.89V351.26L80.11 362.64V370.11H67.11L40 385.68C40.92 387.09 41.82 388.5 42.76 389.89H80.11V433.38C81.6833 434.827 83.2667 436.26 84.86 437.68C86.44 439.07 88.03 440.43 89.65 441.78L89.87 441.97C93.1233 444.69 96.4567 447.327 99.87 449.88V389.88H160.09V450.1H100.09C102.483 451.887 104.903 453.633 107.35 455.34L107.7 455.59C110.087 457.237 112.503 458.85 114.95 460.43L115.45 460.75C116.51 461.43 117.58 462.1 118.65 462.75L119.41 463.22L122.32 464.98L123.54 465.7L126.4 467.36C126.56 467.44 126.71 467.53 126.86 467.62L127.79 468.14C128.79 468.72 129.86 469.3 130.9 469.86H160.05V483.3L161.41 483.82C162.52 484.24 163.63 484.67 164.75 485.07L166.69 485.76L169.35 486.68L170.5 487.07L171.94 487.54L174.68 488.43L175.24 488.61C175.99 488.85 176.74 489.07 177.49 489.29L179.83 489.99V469.89H240.05V499.79L241.6 499.85L244.36 499.93C246.22 499.93 248.08 500 249.94 500C251.8 500 253.66 500 255.52 499.93L258.34 499.85ZM259.89 309.85H320.11V370.07H259.89V309.85ZM259.89 389.85H320.11V450.07H259.89V389.85ZM240.11 450.07H179.89V389.89H240.11V450.07ZM240.11 370.07H179.89V309.89H240.11V370.07Z" fill="#374236"/>
<path d="M339.12 37.4499V27.9399H260V46.9599H339.12V37.4499Z" fill="#374236"/>
<path d="M260 97H447.68C442.56 90.3985 437.113 84.0573 431.36 78H260V97Z" fill="#374236"/>
<path d="M449.119 97V78H431.359C437.113 84.0573 442.56 90.3985 447.679 97H449.119Z" fill="#374236"/>
<path d="M374.08 137.45C385.392 132.557 397.586 130.033 409.91 130.033C422.234 130.033 434.428 132.557 445.74 137.45C446.88 137.95 448 138.45 449.12 139V127.94H260V146.94H357.4C362.602 143.185 368.195 140.004 374.08 137.45Z" fill="#374236"/>
<path d="M326.05 187.45C327.329 184.198 328.795 181.023 330.44 177.94H260V196.94H323C323.844 193.724 324.862 190.556 326.05 187.45Z" fill="#374236"/>
<path d="M321.72 237.45C321.55 236.57 321.36 235.69 321.21 234.8C320.83 232.51 320.56 230.23 320.36 227.94H260V246.94H324.15C323.166 243.824 322.355 240.656 321.72 237.45Z" fill="#374236"/>
<path d="M352.623 179.93C352.193 180.54 351.763 181.17 351.353 181.8L351.033 182.29L350.853 182.58C350.323 183.41 349.853 184.24 349.323 185.09C349.023 185.61 348.743 186.09 348.463 186.66C348.313 186.92 348.163 187.18 348.023 187.45C347.883 187.72 347.833 187.81 347.733 187.99C347.26 188.91 346.81 189.84 346.383 190.78L346.293 190.95C345.403 192.95 344.593 194.95 343.883 196.95C343.523 197.95 343.183 199.03 342.883 200.08C342.879 200.13 342.879 200.18 342.883 200.23C342.583 201.23 342.303 202.23 342.043 203.31C342.048 203.343 342.048 203.377 342.043 203.41C341.513 205.57 341.043 207.77 340.773 209.99H479.223C479.153 209.49 479.103 208.99 479.013 208.49C478.432 204.977 477.582 201.514 476.473 198.13V198.07C476.133 197.07 475.763 196 475.383 194.99L475.223 194.59C474.883 193.7 474.513 192.82 474.133 191.95C474.043 191.74 473.953 191.52 473.853 191.31C473.503 190.53 473.143 189.77 472.763 189.01C472.633 188.74 472.503 188.46 472.363 188.2C472.013 187.52 471.653 186.85 471.283 186.2L470.753 185.2C470.423 184.64 470.083 184.09 469.753 183.54C469.503 183.14 469.273 182.73 469.013 182.34C468.883 182.13 468.743 181.93 468.603 181.72C467.075 179.377 465.405 177.13 463.603 174.99C462.973 174.24 462.323 173.51 461.663 172.79L461.583 172.7C460.913 171.97 460.223 171.26 459.523 170.55L459.023 170.04H361.003C360.503 170.53 360.003 171.04 359.513 171.52C359.023 172 358.683 172.43 358.263 172.88C357.843 173.33 357.593 173.6 357.263 173.97C356.133 175.26 355.063 176.61 354.033 177.97C353.54 178.637 353.06 179.303 352.593 179.97L352.623 179.93Z" fill="#374236"/>
<path d="M342 203.32C342.005 203.353 342.005 203.387 342 203.42C342.005 203.387 342.005 203.353 342 203.32Z" fill="#374236"/>
<path d="M353.004 179.32L352.594 179.92C353.06 179.253 353.54 178.587 354.034 177.92C353.924 178.06 353.824 178.21 353.714 178.36C353.504 178.69 353.264 179 353.004 179.32Z" fill="#374236"/>
<path d="M351.351 181.8L351.031 182.29L351.351 181.8Z" fill="#374236"/>
<path d="M449.117 230H340.727C340.797 230.48 340.847 230.95 340.927 231.43C340.921 231.453 340.921 231.477 340.927 231.5C341.127 232.69 341.347 233.86 341.607 235.03C341.62 235.104 341.636 235.178 341.657 235.25C341.827 235.99 342.007 236.72 342.197 237.45C342.287 237.8 342.367 238.15 342.457 238.5C345.74 250.456 352.138 261.326 360.997 270H458.917C465.649 263.401 470.985 255.514 474.607 246.81C474.887 246.12 475.167 245.43 475.427 244.73C475.577 244.35 475.707 243.96 475.847 243.58C475.987 243.2 476.077 242.95 476.187 242.58C476.297 242.21 476.487 241.67 476.637 241.22L476.877 240.46C477.027 239.96 477.177 239.46 477.317 238.96L477.497 238.34C477.647 237.79 477.787 237.24 477.927 236.69C477.927 236.54 477.997 236.39 478.037 236.24L478.457 234.39C478.452 234.32 478.452 234.25 478.457 234.18C478.75 232.78 479 231.37 479.207 229.95L449.117 230Z" fill="#374236"/>
<path d="M475.437 244.73C475.177 245.43 474.897 246.12 474.617 246.81C474.897 246.12 475.177 245.43 475.437 244.73Z" fill="#374236"/>
<path d="M478.047 236.29C478.047 236.44 477.967 236.59 477.938 236.74C477.997 236.59 477.997 236.44 478.047 236.29Z" fill="#374236"/>
<path d="M476.888 240.51L476.648 241.27L476.888 240.51Z" fill="#374236"/>
<path d="M477.508 238.39L477.328 239.01L477.508 238.39Z" fill="#374236"/>
<path d="M476.199 242.63C476.089 242.95 475.979 243.26 475.859 243.63C475.999 243.26 476.089 243 476.199 242.63Z" fill="#374236"/>
<path d="M320 310H260V370H320V310Z" fill="#46DC78"/>
<path d="M240 390H180V450H240V390Z" fill="#46DC78"/>
<path d="M498.762 205.22C496.395 191.014 490.65 177.585 482.012 166.061C473.373 154.538 462.094 145.257 449.122 139C448.002 138.46 446.882 137.95 445.742 137.45C424.958 128.432 401.535 127.592 380.157 135.099C358.78 142.606 341.025 157.907 330.442 177.94C328.797 181.023 327.331 184.198 326.052 187.45C324.862 190.575 323.844 193.764 323.002 197C320.331 207.102 319.451 217.594 320.402 228C320.602 230.29 320.872 232.57 321.252 234.86C321.402 235.75 321.592 236.63 321.762 237.51C325.807 257.902 336.786 276.265 352.835 289.479C368.884 302.694 389.013 309.945 409.802 310C414.828 310 419.845 309.585 424.802 308.76C436.462 306.82 447.626 302.601 457.655 296.346C467.684 290.09 476.383 281.92 483.255 272.303C490.127 262.685 495.037 251.808 497.704 240.293C500.372 228.778 500.745 216.85 498.802 205.19L498.762 205.22ZM458.932 270C458.652 270.27 458.392 270.56 458.102 270.82C449.876 278.613 439.88 284.291 428.974 287.368C418.069 290.446 406.579 290.829 395.492 288.486C384.406 286.144 374.054 281.144 365.325 273.918C356.597 266.692 349.753 257.455 345.382 247C344.231 244.254 343.262 241.434 342.482 238.56C342.392 238.21 342.302 237.86 342.222 237.51C342.032 236.78 341.842 236.05 341.682 235.31C341.662 235.238 341.645 235.164 341.632 235.09C341.372 233.93 341.152 232.76 340.952 231.58C340.947 231.557 340.947 231.533 340.952 231.51C340.762 230.36 340.602 229.22 340.462 228.07V228.02C340.462 227.7 340.402 227.39 340.372 227.08C340.292 226.23 340.202 225.38 340.142 224.54V223.65C340.142 222.77 340.052 221.88 340.032 221C340.032 220.8 340.032 220.6 340.032 220.4C340.032 219.4 340.032 218.4 340.032 217.47C340.027 217.38 340.027 217.29 340.032 217.2C340.032 216.08 340.152 214.96 340.252 213.84C340.252 213.68 340.252 213.52 340.302 213.36C340.614 210.037 341.169 206.742 341.962 203.5C341.967 203.467 341.967 203.433 341.962 203.4C342.222 202.4 342.492 201.34 342.802 200.32C342.798 200.27 342.798 200.22 342.802 200.17C343.112 199.12 343.442 198.08 343.802 197.04C344.512 195.04 345.322 193.04 346.222 191.04L346.312 190.87C346.739 189.93 347.189 189 347.662 188.08C347.762 187.9 347.862 187.72 347.952 187.54C348.042 187.36 348.242 187.01 348.392 186.75C348.672 186.22 348.952 185.75 349.252 185.18C349.792 184.18 350.372 183.3 350.962 182.38L351.282 181.89C351.692 181.26 352.122 180.63 352.552 180.01L352.962 179.41C353.192 179.09 353.432 178.78 353.672 178.47C353.782 178.32 353.882 178.17 353.992 178.03C354.992 176.66 356.092 175.31 357.222 174.03C357.542 173.66 357.882 173.3 358.222 172.94C358.562 172.58 359.042 172.03 359.472 171.58C360.112 170.91 360.782 170.26 361.472 169.58L361.832 169.23C366.75 164.552 372.33 160.623 378.392 157.57C379.302 157.11 380.232 156.68 381.172 156.26C381.302 156.2 381.432 156.13 381.562 156.08C382.372 155.72 383.192 155.39 384.022 155.08L384.822 154.76C385.502 154.49 386.202 154.26 386.892 154.02C387.312 153.87 387.732 153.71 388.152 153.58C388.572 153.45 389.232 153.25 389.772 153.09C390.312 152.93 390.952 152.73 391.552 152.57L392.552 152.32C394.482 151.83 396.432 151.4 398.422 151.07L399.172 150.96C399.982 150.84 400.792 150.72 401.602 150.62L402.972 150.48L404.842 150.31L406.332 150.22L408.052 150.15H409.612H410.002H411.002C411.682 150.15 412.362 150.15 413.002 150.15L413.762 150.2C416.204 150.338 418.637 150.598 421.052 150.98H421.122H421.292C423.65 151.365 425.986 151.869 428.292 152.49H428.362C429.362 152.76 430.302 153.05 431.262 153.35C441.64 156.692 451.104 162.391 458.912 170L459.412 170.51C460.112 171.22 460.802 171.93 461.472 172.66L461.552 172.75C462.212 173.47 462.862 174.2 463.492 174.95C465.294 177.09 466.964 179.338 468.492 181.68C468.632 181.89 468.772 182.09 468.902 182.3C469.162 182.69 469.392 183.1 469.642 183.5C469.972 184.05 470.312 184.6 470.642 185.16L471.172 186.16C471.542 186.83 471.902 187.5 472.252 188.16C472.392 188.42 472.522 188.7 472.652 188.97C473.032 189.73 473.392 190.49 473.742 191.27C473.842 191.48 473.932 191.7 474.022 191.91C474.402 192.78 474.772 193.66 475.112 194.55L475.272 194.95C475.652 195.95 476.022 196.95 476.362 198.03V198.09C477.506 201.491 478.389 204.975 479.002 208.51C480.423 217.042 480.243 225.764 478.472 234.23C478.468 234.3 478.468 234.37 478.472 234.44L478.052 236.29C478.052 236.44 477.972 236.59 477.942 236.74C477.802 237.29 477.662 237.84 477.512 238.39L477.332 239.01C477.192 239.51 477.042 240.01 476.892 240.51L476.652 241.27C476.502 241.72 476.362 242.18 476.202 242.63C476.042 243.08 475.982 243.26 475.862 243.63C475.742 244 475.592 244.4 475.442 244.78C475.182 245.48 474.902 246.17 474.622 246.86C470.995 255.546 465.659 263.415 458.932 270Z" fill="#46DC78"/>
<path d="M0 250C0 248.05 0 246.12 0.07 244.18C0 246.12 0 248.05 0 250Z" fill="#374236"/>
<path d="M0.398438 235.91C0.458437 234.91 0.528437 233.91 0.588437 232.91C0.528437 233.89 0.458437 234.9 0.398438 235.91Z" fill="#374236"/>
<path d="M0.796875 230C0.796875 229.52 0.886875 229 0.926875 228.55C0.886875 229 0.836875 229.5 0.796875 230Z" fill="#374236"/>
<path d="M0.140625 242.13C0.140625 240.9 0.220625 239.68 0.280625 238.45C0.220625 239.68 0.170625 240.9 0.140625 242.13Z" fill="#374236"/>
<path d="M1.71875 220.73C1.71875 220.41 1.78875 220.09 1.81875 219.78C1.78875 220.09 1.74875 220.41 1.71875 220.73Z" fill="#374236"/>
<path d="M2.36719 215.54C2.36719 215.23 2.45719 214.92 2.50719 214.61C2.45719 214.92 2.41719 215.23 2.36719 215.54Z" fill="#374236"/>
<path d="M152.996 69.6099C146.608 69.6178 140.484 72.1598 135.967 76.678C131.451 81.1962 128.912 87.3215 128.906 93.7099C128.906 93.8699 128.906 94.0299 128.906 94.1899C129.04 100.493 131.635 106.493 136.138 110.906C140.64 115.319 146.692 117.793 152.996 117.8C159.299 117.791 165.348 115.315 169.848 110.903C174.349 106.49 176.943 100.491 177.076 94.1899C177.076 94.0299 177.076 93.8699 177.076 93.7099C177.068 87.324 174.529 81.2017 170.016 76.6844C165.502 72.1671 159.382 69.6231 152.996 69.6099Z" fill="#374236"/>
<path d="M240 8.48021V0.220215C237.72 0.310215 235.44 0.430215 233.18 0.580215C234.852 3.67769 237.179 6.37355 240 8.48021Z" fill="#374236"/>
<path d="M230.312 198.23C230.315 201.972 231.193 205.661 232.875 209.004C234.558 212.346 236.998 215.249 240.003 217.48V179C237.001 181.229 234.562 184.129 232.88 187.467C231.197 190.806 230.318 194.491 230.312 198.23Z" fill="#374236"/>
<path d="M51.5978 222.32C56.3652 222.322 61.0261 220.91 64.9908 218.263C68.9556 215.615 72.0461 211.852 73.8714 207.447C75.6967 203.043 76.1748 198.197 75.2452 193.521C74.3156 188.845 72.0201 184.55 68.6491 181.179C65.278 177.808 60.9829 175.512 56.307 174.583C51.6312 173.653 46.7846 174.131 42.3805 175.957C37.9764 177.782 34.2126 180.872 31.5652 184.837C28.9178 188.802 27.5058 193.463 27.5078 198.23C27.5158 204.617 30.0563 210.74 34.5724 215.256C39.0884 219.772 45.2112 222.312 51.5978 222.32Z" fill="#374236"/>
<path d="M240.001 45.5598V42.5598C230.871 40.0763 222.527 35.2997 215.763 28.6839C208.998 22.068 204.037 13.8326 201.351 4.75977C192.976 6.41015 184.691 8.49294 176.531 10.9998C192.811 29.8182 215.361 42.0968 240.001 45.5598Z" fill="#46DC78"/>
<path d="M162.25 198.71C169.026 212.206 178.679 224.051 190.53 233.41C202.382 242.77 216.141 249.416 230.84 252.88L235.52 250.18C224.477 246.168 215 238.741 208.465 228.977C201.929 219.214 198.675 207.622 199.174 195.883C199.674 184.145 203.901 172.871 211.242 163.698C218.583 154.525 228.656 147.93 240 144.87V142.82C223.487 145.156 207.787 151.461 194.246 161.195C180.705 170.929 169.726 183.802 162.25 198.71Z" fill="#46DC78"/>
<path d="M97.7216 303.23C97.7216 303.07 97.7216 302.91 97.7216 302.75C97.7374 288.092 103.566 274.038 113.929 263.672C124.292 253.305 138.343 247.471 153.002 247.45C161.97 247.454 170.803 249.641 178.737 253.822C186.672 258.004 193.469 264.054 198.542 271.45L211.062 264.25C198.921 255.96 185.146 250.365 170.663 247.84C156.179 245.316 141.324 245.922 127.094 249.616C112.865 253.311 99.5908 260.009 88.1649 269.26C76.7391 278.511 67.4259 290.101 60.8516 303.25C67.1352 315.748 75.8883 326.841 86.5816 335.86L103.002 326.38C99.577 319.14 97.775 311.239 97.7216 303.23Z" fill="#46DC78"/>
<path d="M143.748 198.71C132.926 177.133 114.88 160.034 92.7506 150.39C70.6215 140.746 45.8112 139.168 22.6384 145.93C21.5184 148.38 20.4284 150.84 19.3784 153.33C28.611 146.706 39.6606 143.088 51.023 142.969C62.3855 142.849 73.5086 146.234 82.8784 152.663C92.2481 159.092 99.4091 168.252 103.387 178.896C107.364 189.54 107.965 201.151 105.107 212.149C102.249 223.147 96.0714 232.997 87.415 240.358C78.7587 247.719 68.0442 252.234 56.7301 253.288C45.416 254.341 34.0521 251.883 24.1852 246.247C14.3184 240.611 6.42811 232.071 1.58844 221.79C0.848438 228.404 0.368437 235.09 0.148438 241.85C12.3141 248.859 25.7834 253.308 39.73 254.924C53.6766 256.541 67.8064 255.291 81.2528 251.252C94.6991 247.212 107.178 240.468 117.925 231.433C128.672 222.398 137.459 211.263 143.748 198.71Z" fill="#46DC78"/>
<path d="M239.999 103.28V85.0902C230.222 69.692 216.533 57.1647 200.331 48.7878C184.128 40.411 165.993 36.4847 147.776 37.4101C129.56 38.3354 111.915 44.0793 96.645 54.0549C81.3746 64.0305 69.0257 77.8805 60.8594 94.1902C69.0289 110.497 81.3795 124.343 96.6501 134.316C111.921 144.289 129.564 150.031 147.78 150.955C165.995 151.879 184.129 147.953 200.331 139.577C216.532 131.201 230.221 118.676 239.999 103.28ZM208.289 94.1902C208.147 108.766 202.261 122.697 191.909 132.959C181.558 143.221 167.576 148.985 152.999 149C138.425 148.982 124.445 143.217 114.096 132.955C103.746 122.694 97.8616 108.764 97.7194 94.1902C97.7194 94.0302 97.7194 93.8702 97.7194 93.7102C97.7352 79.0521 103.564 64.9986 113.927 54.6318C124.29 44.2651 138.341 38.4314 152.999 38.4102C167.659 38.4288 181.713 44.2613 192.078 54.6283C202.444 64.9953 208.273 79.0504 208.289 93.7102C208.289 93.8702 208.279 94.0002 208.279 94.1902H208.289Z" fill="#46DC78"/>
<path d="M57.8866 352.35L59.8866 351.18C57.1366 350.96 54.3666 350.84 51.5666 350.84C41.896 350.825 32.2715 352.171 22.9766 354.84C23.5966 356.17 24.2266 357.51 24.8766 358.84C34.9172 353.251 46.4656 350.973 57.8766 352.33L57.8866 352.35Z" fill="#46DC78"/>
<path d="M42.3519 303.23C33.0287 284.661 18.3309 269.329 0.171875 259.23C0.475903 267.648 1.20349 276.045 2.35187 284.39C4.36998 290.117 5.42757 296.138 5.48187 302.21L5.69187 303.21C8.16675 314.61 11.4415 325.821 15.4919 336.76C26.6914 327.585 35.8418 316.162 42.3519 303.23Z" fill="#46DC78"/>
<path d="M152.996 278.65C146.608 278.658 140.484 281.2 135.967 285.718C131.451 290.236 128.912 296.362 128.906 302.75C128.906 302.91 128.906 303.07 128.906 303.23C128.959 305.781 129.421 308.306 130.276 310.71L171.276 287.12C169.022 284.471 166.221 282.343 163.065 280.88C159.909 279.418 156.474 278.657 152.996 278.65Z" fill="#374236"/>
</g>
<defs>
<clipPath id="clip0_417_900">
<rect width="500" height="500" fill="white"/>
</clipPath>
</defs>
</svg>
