<svg width="353" height="272" viewBox="0 0 353 272" fill="none" xmlns="http://www.w3.org/2000/svg">
<circle cx="162.938" cy="136" r="112" fill="#374236"/>
<circle cx="162.938" cy="136" r="135.5" stroke="#F0F0F0"/>
<path d="M82.1615 97H83.4755V85.984H83.5115L90.4595 97H92.0615V84.13H90.7655V95.146H90.7295L83.7635 84.13H82.1615V97ZM96.1753 89.836V85.282H103.465V84.13H94.8613V97H96.1753V90.988H102.169V89.836H96.1753ZM109.104 97H110.4V85.282H114.774V84.13H104.712V85.282H109.104V97ZM117.301 91.654C115.897 91.294 114.673 91.15 114.673 89.998C114.673 89.134 115.393 88.63 116.707 88.63C118.507 88.63 118.975 89.584 119.137 90.394H120.379C120.217 88.882 119.083 87.604 116.707 87.604C114.637 87.604 113.449 88.576 113.449 90.07C113.449 91.852 115.159 92.284 116.851 92.698C118.129 93.004 119.497 93.148 119.497 94.498C119.497 95.398 118.903 96.208 117.139 96.208C115.213 96.208 114.403 95.254 114.331 93.994H113.089C113.143 95.83 114.565 97.234 117.121 97.234C119.389 97.234 120.721 96.136 120.721 94.462C120.721 92.554 119.029 92.068 117.301 91.654ZM129.755 97.234C131.267 97.234 132.347 96.658 132.995 95.614H133.031C133.085 96.766 133.553 97.072 134.309 97.072C134.525 97.072 134.723 97.036 134.921 97V96.154C134.813 96.172 134.759 96.172 134.669 96.172C134.273 96.172 134.165 95.83 134.165 95.092V90.502C134.165 88.306 132.671 87.586 130.979 87.586C128.297 87.586 127.289 88.972 127.199 90.592H128.423C128.513 89.242 129.161 88.612 130.925 88.612C132.419 88.612 133.013 89.242 133.013 90.178C133.013 91.276 132.041 91.384 130.529 91.654C128.153 92.086 126.749 92.698 126.749 94.678C126.749 96.208 127.937 97.234 129.755 97.234ZM129.899 96.208C128.567 96.208 127.973 95.632 127.973 94.57C127.973 93.4 128.891 92.95 130.673 92.626C131.771 92.446 132.743 92.23 133.013 91.852V93.562C133.013 95.218 131.789 96.208 129.899 96.208ZM143.307 91.042H144.531C144.315 89.098 142.821 87.604 140.589 87.604C137.961 87.604 136.197 89.548 136.197 92.41C136.197 95.29 137.961 97.234 140.589 97.234C142.821 97.234 144.405 95.704 144.531 93.724H143.307C143.235 94.84 142.515 96.226 140.589 96.226C138.339 96.226 137.421 94.3 137.421 92.41C137.421 90.538 138.339 88.63 140.589 88.63C142.497 88.63 143.235 90.016 143.307 91.042ZM145.569 87.82V88.846H146.919V94.624C146.919 96.622 147.747 97.072 149.097 97.072C149.385 97.072 149.601 97.054 149.961 97V96.01C149.691 96.028 149.547 96.046 149.259 96.046C148.359 96.046 148.089 95.776 148.089 94.642V88.846H149.961V87.82H148.089V84.76H146.919V87.82H145.569ZM159.109 97.234C160.621 97.234 161.701 96.658 162.349 95.614H162.385C162.439 96.766 162.907 97.072 163.663 97.072C163.879 97.072 164.077 97.036 164.275 97V96.154C164.167 96.172 164.113 96.172 164.023 96.172C163.627 96.172 163.519 95.83 163.519 95.092V90.502C163.519 88.306 162.025 87.586 160.333 87.586C157.651 87.586 156.643 88.972 156.553 90.592H157.777C157.867 89.242 158.515 88.612 160.279 88.612C161.773 88.612 162.367 89.242 162.367 90.178C162.367 91.276 161.395 91.384 159.883 91.654C157.507 92.086 156.103 92.698 156.103 94.678C156.103 96.208 157.291 97.234 159.109 97.234ZM159.253 96.208C157.921 96.208 157.327 95.632 157.327 94.57C157.327 93.4 158.245 92.95 160.027 92.626C161.125 92.446 162.097 92.23 162.367 91.852V93.562C162.367 95.218 161.143 96.208 159.253 96.208ZM169.55 91.654C168.146 91.294 166.922 91.15 166.922 89.998C166.922 89.134 167.642 88.63 168.956 88.63C170.756 88.63 171.224 89.584 171.386 90.394H172.628C172.466 88.882 171.332 87.604 168.956 87.604C166.886 87.604 165.698 88.576 165.698 90.07C165.698 91.852 167.408 92.284 169.1 92.698C170.378 93.004 171.746 93.148 171.746 94.498C171.746 95.398 171.152 96.208 169.388 96.208C167.462 96.208 166.652 95.254 166.58 93.994H165.338C165.392 95.83 166.814 97.234 169.37 97.234C171.638 97.234 172.97 96.136 172.97 94.462C172.97 92.554 171.278 92.068 169.55 91.654ZM182.004 97.234C183.516 97.234 184.596 96.658 185.244 95.614H185.28C185.334 96.766 185.802 97.072 186.558 97.072C186.774 97.072 186.972 97.036 187.17 97V96.154C187.062 96.172 187.008 96.172 186.918 96.172C186.522 96.172 186.414 95.83 186.414 95.092V90.502C186.414 88.306 184.92 87.586 183.228 87.586C180.546 87.586 179.538 88.972 179.448 90.592H180.672C180.762 89.242 181.41 88.612 183.174 88.612C184.668 88.612 185.262 89.242 185.262 90.178C185.262 91.276 184.29 91.384 182.778 91.654C180.402 92.086 178.998 92.698 178.998 94.678C178.998 96.208 180.186 97.234 182.004 97.234ZM182.148 96.208C180.816 96.208 180.222 95.632 180.222 94.57C180.222 93.4 181.14 92.95 182.922 92.626C184.02 92.446 184.992 92.23 185.262 91.852V93.562C185.262 95.218 184.038 96.208 182.148 96.208ZM194.821 95.434C195.361 96.424 196.315 97.216 197.917 97.216C200.149 97.216 201.949 95.416 201.949 92.41C201.949 89.386 200.149 87.586 197.917 87.586C196.315 87.586 195.343 88.414 194.821 89.296H194.785V84.13H193.615V97H194.785V95.434H194.821ZM197.773 88.594C199.681 88.594 200.725 90.34 200.725 92.41C200.725 94.462 199.681 96.19 197.773 96.19C196.009 96.19 194.785 94.714 194.785 92.41C194.785 90.088 196.009 88.594 197.773 88.594ZM203.924 87.82V97H205.094V91.87C205.094 90.088 206.3 88.756 207.974 88.756C208.136 88.756 208.334 88.774 208.532 88.81V87.658C208.298 87.622 208.064 87.604 207.74 87.604C206.426 87.604 205.58 88.486 205.13 89.692H205.094V87.82H203.924ZM210.01 84.472V85.984H211.522V84.472H210.01ZM210.19 87.82V97H211.36V87.82H210.19ZM220.464 89.368C219.924 88.396 218.952 87.604 217.368 87.604C215.118 87.604 213.318 89.404 213.318 92.41C213.318 95.434 215.118 97.234 217.35 97.234C218.952 97.234 219.924 96.406 220.464 95.506H220.5V97H221.67V84.13H220.5V89.368H220.464ZM217.494 96.208C215.586 96.208 214.542 94.48 214.542 92.41C214.542 90.358 215.586 88.63 217.494 88.63C219.258 88.63 220.5 90.106 220.5 92.41C220.5 94.732 219.258 96.208 217.494 96.208ZM230.791 96.586C230.791 98.458 229.693 99.268 227.839 99.268C226.075 99.268 225.283 98.458 225.103 97.486H223.879C224.023 99.088 225.337 100.294 227.821 100.294C230.341 100.294 231.961 99.016 231.961 96.424V87.82H230.791V89.26H230.755C230.215 88.342 229.207 87.604 227.659 87.604C225.481 87.604 223.627 89.044 223.627 92.068C223.627 95.128 225.481 96.568 227.659 96.568C229.207 96.568 230.215 95.83 230.755 94.876H230.791V96.586ZM227.821 88.63C229.513 88.63 230.791 89.746 230.791 92.068C230.791 94.426 229.513 95.542 227.821 95.542C225.931 95.542 224.851 94.174 224.851 92.068C224.851 89.998 225.931 88.63 227.821 88.63ZM238.292 97.252C240.596 97.252 241.856 95.866 242.306 94.192H241.118C240.938 94.948 240.218 96.244 238.31 96.244C236.15 96.244 235.16 94.516 235.142 92.644H242.414C242.432 92.5 242.432 92.248 242.432 91.996C242.432 89.44 240.938 87.586 238.292 87.586C235.646 87.586 233.918 89.476 233.918 92.41C233.918 95.2 235.484 97.252 238.292 97.252ZM238.238 88.594C240.128 88.594 241.19 89.98 241.19 91.618H235.142C235.232 89.908 236.456 88.594 238.238 88.594ZM83.1695 118.434C83.7095 119.424 84.6635 120.216 86.2655 120.216C88.4975 120.216 90.2975 118.416 90.2975 115.41C90.2975 112.386 88.4975 110.586 86.2655 110.586C84.6635 110.586 83.6915 111.414 83.1695 112.296H83.1335V107.13H81.9635V120H83.1335V118.434H83.1695ZM86.1215 111.594C88.0295 111.594 89.0735 113.34 89.0735 115.41C89.0735 117.462 88.0295 119.19 86.1215 119.19C84.3575 119.19 83.1335 117.714 83.1335 115.41C83.1335 113.088 84.3575 111.594 86.1215 111.594ZM96.2147 120.252C98.5187 120.252 99.7787 118.866 100.229 117.192H99.0407C98.8607 117.948 98.1407 119.244 96.2327 119.244C94.0727 119.244 93.0827 117.516 93.0647 115.644H100.337C100.355 115.5 100.355 115.248 100.355 114.996C100.355 112.44 98.8607 110.586 96.2147 110.586C93.5687 110.586 91.8407 112.476 91.8407 115.41C91.8407 118.2 93.4067 120.252 96.2147 120.252ZM96.1607 111.594C98.0507 111.594 99.1127 112.98 99.1127 114.618H93.0647C93.1547 112.908 94.3787 111.594 96.1607 111.594ZM101.441 110.82V111.846H102.791V117.624C102.791 119.622 103.619 120.072 104.969 120.072C105.257 120.072 105.473 120.054 105.833 120V119.01C105.563 119.028 105.419 119.046 105.131 119.046C104.231 119.046 103.961 118.776 103.961 117.642V111.846H105.833V110.82H103.961V107.76H102.791V110.82H101.441ZM107.178 110.82L110.094 120H111.408L113.55 112.242H113.586L115.764 120H117.06L119.994 110.82H118.734L116.43 118.668H116.394L114.252 110.82H112.938L110.796 118.668H110.76L108.474 110.82H107.178ZM125.244 120.252C127.548 120.252 128.808 118.866 129.258 117.192H128.07C127.89 117.948 127.17 119.244 125.262 119.244C123.102 119.244 122.112 117.516 122.094 115.644H129.366C129.384 115.5 129.384 115.248 129.384 114.996C129.384 112.44 127.89 110.586 125.244 110.586C122.598 110.586 120.87 112.476 120.87 115.41C120.87 118.2 122.436 120.252 125.244 120.252ZM125.19 111.594C127.08 111.594 128.142 112.98 128.142 114.618H122.094C122.184 112.908 123.408 111.594 125.19 111.594ZM135.307 120.252C137.611 120.252 138.871 118.866 139.321 117.192H138.133C137.953 117.948 137.233 119.244 135.325 119.244C133.165 119.244 132.175 117.516 132.157 115.644H139.429C139.447 115.5 139.447 115.248 139.447 114.996C139.447 112.44 137.953 110.586 135.307 110.586C132.661 110.586 130.933 112.476 130.933 115.41C130.933 118.2 132.499 120.252 135.307 120.252ZM135.253 111.594C137.143 111.594 138.205 112.98 138.205 114.618H132.157C132.247 112.908 133.471 111.594 135.253 111.594ZM141.428 120H142.598V114.204C142.598 112.854 143.732 111.63 145.478 111.63C147.062 111.63 147.602 112.638 147.602 113.808V120H148.772V113.556C148.772 111.522 147.404 110.604 145.766 110.604C144.128 110.604 143.138 111.378 142.634 112.134H142.598V110.82H141.428V120ZM162.386 129.41C161.072 131.228 159.92 133.928 159.92 137.294C159.92 140.552 161.072 143.288 162.386 145.106H163.448C162.206 142.928 161.234 140.552 161.234 137.294C161.234 133.964 162.206 131.588 163.448 129.41H162.386ZM169.187 143.252C171.923 143.252 173.597 141.272 173.597 138.428C173.597 135.566 171.923 133.586 169.187 133.586C166.433 133.586 164.777 135.566 164.777 138.428C164.777 141.272 166.433 143.252 169.187 143.252ZM169.187 142.226C167.027 142.226 166.001 140.534 166.001 138.428C166.001 136.304 167.027 134.612 169.187 134.612C171.329 134.612 172.373 136.304 172.373 138.428C172.373 140.534 171.329 142.226 169.187 142.226ZM174.537 134.846H175.833V143H177.003V134.846H180.117V143H181.287V134.846H183.105V133.82H181.287V132.452C181.287 131.318 181.503 131.048 182.385 131.048C182.637 131.048 182.781 131.066 183.105 131.084V130.094C182.691 130.04 182.475 130.022 182.223 130.022C180.909 130.022 180.117 130.472 180.117 132.47V133.82H177.003V132.452C177.003 131.318 177.219 131.048 178.101 131.048C178.353 131.048 178.497 131.066 178.821 131.084V130.094C178.425 130.04 178.209 130.022 177.939 130.022C176.625 130.022 175.833 130.472 175.833 132.47V133.82H174.537V134.846ZM184.203 137.834V138.986H189.027V137.834H184.203ZM197.805 137.042H199.029C198.813 135.098 197.319 133.604 195.087 133.604C192.459 133.604 190.695 135.548 190.695 138.41C190.695 141.29 192.459 143.234 195.087 143.234C197.319 143.234 198.903 141.704 199.029 139.724H197.805C197.733 140.84 197.013 142.226 195.087 142.226C192.837 142.226 191.919 140.3 191.919 138.41C191.919 136.538 192.837 134.63 195.087 134.63C196.995 134.63 197.733 136.016 197.805 137.042ZM207.136 136.808V143H208.306V136.556C208.306 134.522 206.938 133.604 205.3 133.604C203.662 133.604 202.672 134.378 202.168 135.134H202.132V130.13H200.962V143H202.132V137.204C202.132 135.854 203.266 134.63 205.012 134.63C206.596 134.63 207.136 135.638 207.136 136.808ZM213.177 143.234C214.689 143.234 215.769 142.658 216.417 141.614H216.453C216.507 142.766 216.975 143.072 217.731 143.072C217.947 143.072 218.145 143.036 218.343 143V142.154C218.235 142.172 218.181 142.172 218.091 142.172C217.695 142.172 217.587 141.83 217.587 141.092V136.502C217.587 134.306 216.093 133.586 214.401 133.586C211.719 133.586 210.711 134.972 210.621 136.592H211.845C211.935 135.242 212.583 134.612 214.347 134.612C215.841 134.612 216.435 135.242 216.435 136.178C216.435 137.276 215.463 137.384 213.951 137.654C211.575 138.086 210.171 138.698 210.171 140.678C210.171 142.208 211.359 143.234 213.177 143.234ZM213.321 142.208C211.989 142.208 211.395 141.632 211.395 140.57C211.395 139.4 212.313 138.95 214.095 138.626C215.193 138.446 216.165 138.23 216.435 137.852V139.562C216.435 141.218 215.211 142.208 213.321 142.208ZM219.994 130.472V131.984H221.506V130.472H219.994ZM220.174 133.82V143H221.344V133.82H220.174ZM223.821 143H224.991V137.204C224.991 135.854 226.125 134.63 227.871 134.63C229.455 134.63 229.995 135.638 229.995 136.808V143H231.165V136.556C231.165 134.522 229.797 133.604 228.159 133.604C226.521 133.604 225.531 134.378 225.027 135.134H224.991V133.82H223.821V143ZM234.074 145.106C235.388 143.288 236.54 140.588 236.54 137.222C236.54 133.964 235.388 131.228 234.074 129.41H233.012C234.254 131.588 235.226 133.964 235.226 137.222C235.226 140.552 234.254 142.928 233.012 145.106H234.074ZM84.5195 166.234C86.0315 166.234 87.1115 165.658 87.7595 164.614H87.7955C87.8495 165.766 88.3175 166.072 89.0735 166.072C89.2895 166.072 89.4875 166.036 89.6855 166V165.154C89.5775 165.172 89.5235 165.172 89.4335 165.172C89.0375 165.172 88.9295 164.83 88.9295 164.092V159.502C88.9295 157.306 87.4355 156.586 85.7435 156.586C83.0615 156.586 82.0535 157.972 81.9635 159.592H83.1875C83.2775 158.242 83.9255 157.612 85.6895 157.612C87.1835 157.612 87.7775 158.242 87.7775 159.178C87.7775 160.276 86.8055 160.384 85.2935 160.654C82.9175 161.086 81.5135 161.698 81.5135 163.678C81.5135 165.208 82.7015 166.234 84.5195 166.234ZM84.6635 165.208C83.3315 165.208 82.7375 164.632 82.7375 163.57C82.7375 162.4 83.6555 161.95 85.4375 161.626C86.5355 161.446 87.5075 161.23 87.7775 160.852V162.562C87.7775 164.218 86.5535 165.208 84.6635 165.208ZM91.5169 166H92.6869V160.204C92.6869 158.854 93.8209 157.63 95.5669 157.63C97.1509 157.63 97.6909 158.638 97.6909 159.808V166H98.8609V159.556C98.8609 157.522 97.4929 156.604 95.8549 156.604C94.2169 156.604 93.2269 157.378 92.7229 158.134H92.6869V156.82H91.5169V166ZM107.89 158.368C107.35 157.396 106.378 156.604 104.794 156.604C102.544 156.604 100.744 158.404 100.744 161.41C100.744 164.434 102.544 166.234 104.776 166.234C106.378 166.234 107.35 165.406 107.89 164.506H107.926V166H109.096V153.13H107.926V158.368H107.89ZM104.92 165.208C103.012 165.208 101.968 163.48 101.968 161.41C101.968 159.358 103.012 157.63 104.92 157.63C106.684 157.63 107.926 159.106 107.926 161.41C107.926 163.732 106.684 165.208 104.92 165.208ZM143.534 175.41C142.22 177.228 141.068 179.928 141.068 183.294C141.068 186.552 142.22 189.288 143.534 191.106H144.596C143.354 188.928 142.382 186.552 142.382 183.294C142.382 179.964 143.354 177.588 144.596 175.41H143.534ZM150.336 189.252C153.072 189.252 154.746 187.272 154.746 184.428C154.746 181.566 153.072 179.586 150.336 179.586C147.582 179.586 145.926 181.566 145.926 184.428C145.926 187.272 147.582 189.252 150.336 189.252ZM150.336 188.226C148.176 188.226 147.15 186.534 147.15 184.428C147.15 182.304 148.176 180.612 150.336 180.612C152.478 180.612 153.522 182.304 153.522 184.428C153.522 186.534 152.478 188.226 150.336 188.226ZM156.72 189H157.89V183.204C157.89 181.854 159.024 180.63 160.77 180.63C162.354 180.63 162.894 181.638 162.894 182.808V189H164.064V182.556C164.064 180.522 162.696 179.604 161.058 179.604C159.42 179.604 158.43 180.378 157.926 181.134H157.89V179.82H156.72V189ZM166.073 183.834V184.986H170.897V183.834H166.073ZM179.674 183.042H180.898C180.682 181.098 179.188 179.604 176.956 179.604C174.328 179.604 172.564 181.548 172.564 184.41C172.564 187.29 174.328 189.234 176.956 189.234C179.188 189.234 180.772 187.704 180.898 185.724H179.674C179.602 186.84 178.882 188.226 176.956 188.226C174.706 188.226 173.788 186.3 173.788 184.41C173.788 182.538 174.706 180.63 176.956 180.63C178.864 180.63 179.602 182.016 179.674 183.042ZM189.005 182.808V189H190.175V182.556C190.175 180.522 188.807 179.604 187.169 179.604C185.531 179.604 184.541 180.378 184.037 181.134H184.001V176.13H182.831V189H184.001V183.204C184.001 181.854 185.135 180.63 186.881 180.63C188.465 180.63 189.005 181.638 189.005 182.808ZM195.046 189.234C196.558 189.234 197.638 188.658 198.286 187.614H198.322C198.376 188.766 198.844 189.072 199.6 189.072C199.816 189.072 200.014 189.036 200.212 189V188.154C200.104 188.172 200.05 188.172 199.96 188.172C199.564 188.172 199.456 187.83 199.456 187.092V182.502C199.456 180.306 197.962 179.586 196.27 179.586C193.588 179.586 192.58 180.972 192.49 182.592H193.714C193.804 181.242 194.452 180.612 196.216 180.612C197.71 180.612 198.304 181.242 198.304 182.178C198.304 183.276 197.332 183.384 195.82 183.654C193.444 184.086 192.04 184.698 192.04 186.678C192.04 188.208 193.228 189.234 195.046 189.234ZM195.19 188.208C193.858 188.208 193.264 187.632 193.264 186.57C193.264 185.4 194.182 184.95 195.964 184.626C197.062 184.446 198.034 184.23 198.304 183.852V185.562C198.304 187.218 197.08 188.208 195.19 188.208ZM201.863 176.472V177.984H203.375V176.472H201.863ZM202.043 179.82V189H203.213V179.82H202.043ZM205.69 189H206.86V183.204C206.86 181.854 207.994 180.63 209.74 180.63C211.324 180.63 211.864 181.638 211.864 182.808V189H213.034V182.556C213.034 180.522 211.666 179.604 210.028 179.604C208.39 179.604 207.4 180.378 206.896 181.134H206.86V179.82H205.69V189ZM215.943 191.106C217.257 189.288 218.409 186.588 218.409 183.222C218.409 179.964 217.257 177.228 215.943 175.41H214.881C216.123 177.588 217.095 179.964 217.095 183.222C217.095 186.552 216.123 188.928 214.881 191.106H215.943Z" fill="#F0F0F0"/>
<path d="M159.679 120.252C162.415 120.252 164.089 118.272 164.089 115.428C164.089 112.566 162.415 110.586 159.679 110.586C156.925 110.586 155.269 112.566 155.269 115.428C155.269 118.272 156.925 120.252 159.679 120.252ZM159.679 119.226C157.519 119.226 156.493 117.534 156.493 115.428C156.493 113.304 157.519 111.612 159.679 111.612C161.821 111.612 162.865 113.304 162.865 115.428C162.865 117.534 161.821 119.226 159.679 119.226ZM165.029 111.846H166.325V120H167.495V111.846H170.609V120H171.779V111.846H173.597V110.82H171.779V109.452C171.779 108.318 171.995 108.048 172.877 108.048C173.129 108.048 173.273 108.066 173.597 108.084V107.094C173.183 107.04 172.967 107.022 172.715 107.022C171.401 107.022 170.609 107.472 170.609 109.47V110.82H167.495V109.452C167.495 108.318 167.711 108.048 168.593 108.048C168.845 108.048 168.989 108.066 169.313 108.084V107.094C168.917 107.04 168.701 107.022 168.431 107.022C167.117 107.022 166.325 107.472 166.325 109.47V110.82H165.029V111.846ZM174.623 107.472V108.984H176.135V107.472H174.623ZM174.821 110.82V120H175.991V110.82H174.821ZM185.054 114.042H186.278C186.062 112.098 184.568 110.604 182.336 110.604C179.708 110.604 177.944 112.548 177.944 115.41C177.944 118.29 179.708 120.234 182.336 120.234C184.568 120.234 186.152 118.704 186.278 116.724H185.054C184.982 117.84 184.262 119.226 182.336 119.226C180.086 119.226 179.168 117.3 179.168 115.41C179.168 113.538 180.086 111.63 182.336 111.63C184.244 111.63 184.982 113.016 185.054 114.042ZM188.031 107.472V108.984H189.543V107.472H188.031ZM188.211 110.82V120H189.381V110.82H188.211ZM194.326 120.234C195.838 120.234 196.918 119.658 197.566 118.614H197.602C197.656 119.766 198.124 120.072 198.88 120.072C199.096 120.072 199.294 120.036 199.492 120V119.154C199.384 119.172 199.33 119.172 199.24 119.172C198.844 119.172 198.736 118.83 198.736 118.092V113.502C198.736 111.306 197.242 110.586 195.55 110.586C192.868 110.586 191.86 111.972 191.77 113.592H192.994C193.084 112.242 193.732 111.612 195.496 111.612C196.99 111.612 197.584 112.242 197.584 113.178C197.584 114.276 196.612 114.384 195.1 114.654C192.724 115.086 191.32 115.698 191.32 117.678C191.32 119.208 192.508 120.234 194.326 120.234ZM194.47 119.208C193.138 119.208 192.544 118.632 192.544 117.57C192.544 116.4 193.462 115.95 195.244 115.626C196.342 115.446 197.314 115.23 197.584 114.852V116.562C197.584 118.218 196.36 119.208 194.47 119.208ZM201.323 107.13V120H202.493V107.13H201.323ZM81.9635 133.82V143H83.1335V137.87C83.1335 136.088 84.3395 134.756 86.0135 134.756C86.1755 134.756 86.3735 134.774 86.5715 134.81V133.658C86.3375 133.622 86.1035 133.604 85.7795 133.604C84.4655 133.604 83.6195 134.486 83.1695 135.692H83.1335V133.82H81.9635ZM91.6796 143.252C93.9836 143.252 95.2436 141.866 95.6936 140.192H94.5056C94.3256 140.948 93.6056 142.244 91.6976 142.244C89.5376 142.244 88.5476 140.516 88.5296 138.644H95.8016C95.8196 138.5 95.8196 138.248 95.8196 137.996C95.8196 135.44 94.3256 133.586 91.6796 133.586C89.0336 133.586 87.3056 135.476 87.3056 138.41C87.3056 141.2 88.8716 143.252 91.6796 143.252ZM91.6256 134.594C93.5156 134.594 94.5776 135.98 94.5776 137.618H88.5296C88.6196 135.908 89.8436 134.594 91.6256 134.594ZM104.533 142.586C104.533 144.458 103.435 145.268 101.581 145.268C99.8167 145.268 99.0247 144.458 98.8447 143.486H97.6207C97.7647 145.088 99.0787 146.294 101.563 146.294C104.083 146.294 105.703 145.016 105.703 142.424V133.82H104.533V135.26H104.497C103.957 134.342 102.949 133.604 101.401 133.604C99.2227 133.604 97.3687 135.044 97.3687 138.068C97.3687 141.128 99.2227 142.568 101.401 142.568C102.949 142.568 103.957 141.83 104.497 140.876H104.533V142.586ZM101.563 134.63C103.255 134.63 104.533 135.746 104.533 138.068C104.533 140.426 103.255 141.542 101.563 141.542C99.6727 141.542 98.5927 140.174 98.5927 138.068C98.5927 135.998 99.6727 134.63 101.563 134.63ZM108 130.472V131.984H109.512V130.472H108ZM108.18 133.82V143H109.35V133.82H108.18ZM115.411 137.654C114.007 137.294 112.783 137.15 112.783 135.998C112.783 135.134 113.503 134.63 114.817 134.63C116.617 134.63 117.085 135.584 117.247 136.394H118.489C118.327 134.882 117.193 133.604 114.817 133.604C112.747 133.604 111.559 134.576 111.559 136.07C111.559 137.852 113.269 138.284 114.961 138.698C116.239 139.004 117.607 139.148 117.607 140.498C117.607 141.398 117.013 142.208 115.249 142.208C113.323 142.208 112.513 141.254 112.441 139.994H111.199C111.253 141.83 112.675 143.234 115.231 143.234C117.499 143.234 118.831 142.136 118.831 140.462C118.831 138.554 117.139 138.068 115.411 137.654ZM119.8 133.82V134.846H121.15V140.624C121.15 142.622 121.978 143.072 123.328 143.072C123.616 143.072 123.832 143.054 124.192 143V142.01C123.922 142.028 123.778 142.046 123.49 142.046C122.59 142.046 122.32 141.776 122.32 140.642V134.846H124.192V133.82H122.32V130.76H121.15V133.82H119.8ZM126.17 133.82V143H127.34V137.87C127.34 136.088 128.546 134.756 130.22 134.756C130.382 134.756 130.58 134.774 130.778 134.81V133.658C130.544 133.622 130.31 133.604 129.986 133.604C128.672 133.604 127.826 134.486 127.376 135.692H127.34V133.82H126.17ZM132.257 130.472V131.984H133.769V130.472H132.257ZM132.437 133.82V143H133.607V133.82H132.437ZM139.938 143.252C142.242 143.252 143.502 141.866 143.952 140.192H142.764C142.584 140.948 141.864 142.244 139.956 142.244C137.796 142.244 136.806 140.516 136.788 138.644H144.06C144.078 138.5 144.078 138.248 144.078 137.996C144.078 135.44 142.584 133.586 139.938 133.586C137.292 133.586 135.564 135.476 135.564 138.41C135.564 141.2 137.13 143.252 139.938 143.252ZM139.884 134.594C141.774 134.594 142.836 135.98 142.836 137.618H136.788C136.878 135.908 138.102 134.594 139.884 134.594ZM149.59 137.654C148.186 137.294 146.962 137.15 146.962 135.998C146.962 135.134 147.682 134.63 148.996 134.63C150.796 134.63 151.264 135.584 151.426 136.394H152.668C152.506 134.882 151.372 133.604 148.996 133.604C146.926 133.604 145.738 134.576 145.738 136.07C145.738 137.852 147.448 138.284 149.14 138.698C150.418 139.004 151.786 139.148 151.786 140.498C151.786 141.398 151.192 142.208 149.428 142.208C147.502 142.208 146.692 141.254 146.62 139.994H145.378C145.432 141.83 146.854 143.234 149.41 143.234C151.678 143.234 153.01 142.136 153.01 140.462C153.01 138.554 151.318 138.068 149.59 137.654ZM122.813 158.368C122.273 157.396 121.301 156.604 119.717 156.604C117.467 156.604 115.667 158.404 115.667 161.41C115.667 164.434 117.467 166.234 119.699 166.234C121.301 166.234 122.273 165.406 122.813 164.506H122.849V166H124.019V153.13H122.849V158.368H122.813ZM119.843 165.208C117.935 165.208 116.891 163.48 116.891 161.41C116.891 159.358 117.935 157.63 119.843 157.63C121.607 157.63 122.849 159.106 122.849 161.41C122.849 163.732 121.607 165.208 119.843 165.208ZM126.316 153.472V154.984H127.828V153.472H126.316ZM126.496 156.82V166H127.666V156.82H126.496ZM136.787 165.586C136.787 167.458 135.689 168.268 133.835 168.268C132.071 168.268 131.279 167.458 131.099 166.486H129.875C130.019 168.088 131.333 169.294 133.817 169.294C136.337 169.294 137.957 168.016 137.957 165.424V156.82H136.787V158.26H136.751C136.211 157.342 135.203 156.604 133.655 156.604C131.477 156.604 129.623 158.044 129.623 161.068C129.623 164.128 131.477 165.568 133.655 165.568C135.203 165.568 136.211 164.83 136.751 163.876H136.787V165.586ZM133.817 157.63C135.509 157.63 136.787 158.746 136.787 161.068C136.787 163.426 135.509 164.542 133.817 164.542C131.927 164.542 130.847 163.174 130.847 161.068C130.847 158.998 131.927 157.63 133.817 157.63ZM140.255 153.472V154.984H141.767V153.472H140.255ZM140.435 156.82V166H141.605V156.82H140.435ZM143.31 156.82V157.846H144.66V163.624C144.66 165.622 145.488 166.072 146.838 166.072C147.126 166.072 147.342 166.054 147.702 166V165.01C147.432 165.028 147.288 165.046 147 165.046C146.1 165.046 145.83 164.776 145.83 163.642V157.846H147.702V156.82H145.83V153.76H144.66V156.82H143.31ZM149.57 153.472V154.984H151.082V153.472H149.57ZM149.75 156.82V166H150.92V156.82H149.75ZM152.788 165.1V166H160.06V164.974H154.3V164.938L159.88 157.558V156.82H153.094V157.846H158.242V157.882L152.788 165.1ZM165.399 166.252C167.703 166.252 168.963 164.866 169.413 163.192H168.225C168.045 163.948 167.325 165.244 165.417 165.244C163.257 165.244 162.267 163.516 162.249 161.644H169.521C169.539 161.5 169.539 161.248 169.539 160.996C169.539 158.44 168.045 156.586 165.399 156.586C162.753 156.586 161.025 158.476 161.025 161.41C161.025 164.2 162.591 166.252 165.399 166.252ZM165.345 157.594C167.235 157.594 168.297 158.98 168.297 160.618H162.249C162.339 158.908 163.563 157.594 165.345 157.594ZM178.234 158.368C177.694 157.396 176.722 156.604 175.138 156.604C172.888 156.604 171.088 158.404 171.088 161.41C171.088 164.434 172.888 166.234 175.12 166.234C176.722 166.234 177.694 165.406 178.234 164.506H178.27V166H179.44V153.13H178.27V158.368H178.234ZM175.264 165.208C173.356 165.208 172.312 163.48 172.312 161.41C172.312 159.358 173.356 157.63 175.264 157.63C177.028 157.63 178.27 159.106 178.27 161.41C178.27 163.732 177.028 165.208 175.264 165.208ZM193.121 160.042H194.345C194.129 158.098 192.635 156.604 190.403 156.604C187.775 156.604 186.011 158.548 186.011 161.41C186.011 164.29 187.775 166.234 190.403 166.234C192.635 166.234 194.219 164.704 194.345 162.724H193.121C193.049 163.84 192.329 165.226 190.403 165.226C188.153 165.226 187.235 163.3 187.235 161.41C187.235 159.538 188.153 157.63 190.403 157.63C192.311 157.63 193.049 159.016 193.121 160.042ZM198.834 166.234C200.346 166.234 201.426 165.658 202.074 164.614H202.11C202.164 165.766 202.632 166.072 203.388 166.072C203.604 166.072 203.802 166.036 204 166V165.154C203.892 165.172 203.838 165.172 203.748 165.172C203.352 165.172 203.244 164.83 203.244 164.092V159.502C203.244 157.306 201.75 156.586 200.058 156.586C197.376 156.586 196.368 157.972 196.278 159.592H197.502C197.592 158.242 198.24 157.612 200.004 157.612C201.498 157.612 202.092 158.242 202.092 159.178C202.092 160.276 201.12 160.384 199.608 160.654C197.232 161.086 195.828 161.698 195.828 163.678C195.828 165.208 197.016 166.234 198.834 166.234ZM198.978 165.208C197.646 165.208 197.052 164.632 197.052 163.57C197.052 162.4 197.97 161.95 199.752 161.626C200.85 161.446 201.822 161.23 202.092 160.852V162.562C202.092 164.218 200.868 165.208 198.978 165.208ZM205.831 156.82V166H207.001V160.87C207.001 159.088 208.207 157.756 209.881 157.756C210.043 157.756 210.241 157.774 210.439 157.81V156.658C210.205 156.622 209.971 156.604 209.647 156.604C208.333 156.604 207.487 157.486 207.037 158.692H207.001V156.82H205.831ZM213.303 164.434C213.843 165.424 214.797 166.216 216.399 166.216C218.631 166.216 220.431 164.416 220.431 161.41C220.431 158.386 218.631 156.586 216.399 156.586C214.797 156.586 213.825 157.414 213.303 158.296H213.267V153.13H212.097V166H213.267V164.434H213.303ZM216.255 157.594C218.163 157.594 219.207 159.34 219.207 161.41C219.207 163.462 218.163 165.19 216.255 165.19C214.491 165.19 213.267 163.714 213.267 161.41C213.267 159.088 214.491 157.594 216.255 157.594ZM226.384 166.252C229.12 166.252 230.794 164.272 230.794 161.428C230.794 158.566 229.12 156.586 226.384 156.586C223.63 156.586 221.974 158.566 221.974 161.428C221.974 164.272 223.63 166.252 226.384 166.252ZM226.384 165.226C224.224 165.226 223.198 163.534 223.198 161.428C223.198 159.304 224.224 157.612 226.384 157.612C228.526 157.612 229.57 159.304 229.57 161.428C229.57 163.534 228.526 165.226 226.384 165.226ZM232.768 166H233.938V160.204C233.938 158.854 235.072 157.63 236.818 157.63C238.402 157.63 238.942 158.638 238.942 159.808V166H240.112V159.556C240.112 157.522 238.744 156.604 237.106 156.604C235.468 156.604 234.478 157.378 233.974 158.134H233.938V156.82H232.768V166ZM88.6415 183.042H89.8655C89.6495 181.098 88.1555 179.604 85.9235 179.604C83.2955 179.604 81.5315 181.548 81.5315 184.41C81.5315 187.29 83.2955 189.234 85.9235 189.234C88.1555 189.234 89.7395 187.704 89.8655 185.724H88.6415C88.5695 186.84 87.8495 188.226 85.9235 188.226C83.6735 188.226 82.7555 186.3 82.7555 184.41C82.7555 182.538 83.6735 180.63 85.9235 180.63C87.8315 180.63 88.5695 182.016 88.6415 183.042ZM91.7981 179.82V189H92.9681V183.87C92.9681 182.088 94.1741 180.756 95.8481 180.756C96.0101 180.756 96.2081 180.774 96.4061 180.81V179.658C96.1721 179.622 95.9381 179.604 95.6141 179.604C94.3001 179.604 93.4541 180.486 93.0041 181.692H92.9681V179.82H91.7981ZM101.514 189.252C103.818 189.252 105.078 187.866 105.528 186.192H104.34C104.16 186.948 103.44 188.244 101.532 188.244C99.3722 188.244 98.3822 186.516 98.3642 184.644H105.636C105.654 184.5 105.654 184.248 105.654 183.996C105.654 181.44 104.16 179.586 101.514 179.586C98.8682 179.586 97.1402 181.476 97.1402 184.41C97.1402 187.2 98.7062 189.252 101.514 189.252ZM101.46 180.594C103.35 180.594 104.412 181.98 104.412 183.618H98.3642C98.4542 181.908 99.6782 180.594 101.46 180.594ZM114.349 181.368C113.809 180.396 112.837 179.604 111.253 179.604C109.003 179.604 107.203 181.404 107.203 184.41C107.203 187.434 109.003 189.234 111.235 189.234C112.837 189.234 113.809 188.406 114.349 187.506H114.385V189H115.555V176.13H114.385V181.368H114.349ZM111.379 188.208C109.471 188.208 108.427 186.48 108.427 184.41C108.427 182.358 109.471 180.63 111.379 180.63C113.143 180.63 114.385 182.106 114.385 184.41C114.385 186.732 113.143 188.208 111.379 188.208ZM117.852 176.472V177.984H119.364V176.472H117.852ZM118.032 179.82V189H119.202V179.82H118.032ZM120.908 179.82V180.846H122.258V186.624C122.258 188.622 123.086 189.072 124.436 189.072C124.724 189.072 124.94 189.054 125.3 189V188.01C125.03 188.028 124.886 188.046 124.598 188.046C123.698 188.046 123.428 187.776 123.428 186.642V180.846H125.3V179.82H123.428V176.76H122.258V179.82H120.908ZM130.739 183.654C129.335 183.294 128.111 183.15 128.111 181.998C128.111 181.134 128.831 180.63 130.145 180.63C131.945 180.63 132.413 181.584 132.575 182.394H133.817C133.655 180.882 132.521 179.604 130.145 179.604C128.075 179.604 126.887 180.576 126.887 182.07C126.887 183.852 128.597 184.284 130.289 184.698C131.567 185.004 132.935 185.148 132.935 186.498C132.935 187.398 132.341 188.208 130.577 188.208C128.651 188.208 127.841 187.254 127.769 185.994H126.527C126.581 187.83 128.003 189.234 130.559 189.234C132.827 189.234 134.159 188.136 134.159 186.462C134.159 184.554 132.467 184.068 130.739 183.654Z" fill="#46DC78"/>
<path opacity="0.2" d="M352.938 136H298.937" stroke="#F0F0F0" stroke-dasharray="4 4"/>
<path opacity="0.2" d="M27.1629 138.607C9.15671 139.94 -8.83706 145.249 -25.5211 154.882C-53.4658 171.015 -72.7435 196.396 -81.7208 224.927" stroke="#F0F0F0" stroke-dasharray="4 4"/>
</svg>
