<?xml version="1.0" encoding="UTF-8"?>
<svg width="1150px" height="566px" viewBox="0 0 1150 566" version="1.1" xmlns="http://www.w3.org/2000/svg" xmlns:xlink="http://www.w3.org/1999/xlink">
    <title>infografia-paso-2_reserva</title>
    <g id="Page-1" stroke="none" stroke-width="1" fill="none" fill-rule="evenodd">
        <g id="infografia-paso-2_reserva" transform="translate(0.659000, 0.500000)">
            <circle id="Oval" fill-opacity="0" fill="#374236" fill-rule="nonzero" cx="901.341" cy="317.5" r="248"></circle>
            <path d="M-5.68434189e-14,136.172 C20.098,118.845 44.314,105.663 71.663,98.3348 C117.47,86.0608 163.879,92.403 202.859,112.724" id="Path" stroke="#F0F0F0" stroke-dasharray="4"></path>
            <circle id="Oval" fill="#374236" fill-rule="nonzero" cx="402.341" cy="231.5" r="200"></circle>
            <circle id="Oval" stroke="#F0F0F0" cx="402.341" cy="231.5" r="231.5"></circle>
            <path d="M283.245,169.5 L285.289,169.5 L285.289,152.364 L285.345,152.364 L296.153,169.5 L298.645,169.5 L298.645,149.48 L296.629,149.48 L296.629,166.616 L296.573,166.616 L285.737,149.48 L283.245,149.48 L283.245,169.5 Z M304.484,158.356 L304.484,151.272 L315.824,151.272 L315.824,149.48 L302.44,149.48 L302.44,169.5 L304.484,169.5 L304.484,160.148 L313.808,160.148 L313.808,158.356 L304.484,158.356 Z M324.035,169.5 L326.051,169.5 L326.051,151.272 L332.855,151.272 L332.855,149.48 L317.203,149.48 L317.203,151.272 L324.035,151.272 L324.035,169.5 Z M336.227,161.184 C334.043,160.624 332.139,160.4 332.139,158.608 C332.139,157.264 333.259,156.48 335.303,156.48 C338.103,156.48 338.831,157.964 339.083,159.224 L341.015,159.224 C340.763,156.872 338.999,154.884 335.303,154.884 C332.083,154.884 330.235,156.396 330.235,158.72 C330.235,161.492 332.895,162.164 335.527,162.808 C337.515,163.284 339.643,163.508 339.643,165.608 C339.643,167.008 338.719,168.268 335.975,168.268 C332.979,168.268 331.719,166.784 331.607,164.824 L329.675,164.824 C329.759,167.68 331.971,169.864 335.947,169.864 C339.475,169.864 341.547,168.156 341.547,165.552 C341.547,162.584 338.915,161.828 336.227,161.184 Z M354.479,169.864 C356.831,169.864 358.511,168.968 359.519,167.344 L359.575,167.344 C359.659,169.136 360.387,169.612 361.563,169.612 C361.899,169.612 362.207,169.556 362.515,169.5 L362.515,168.184 C362.347,168.212 362.263,168.212 362.123,168.212 C361.507,168.212 361.339,167.68 361.339,166.532 L361.339,159.392 C361.339,155.976 359.015,154.856 356.383,154.856 C352.211,154.856 350.643,157.012 350.503,159.532 L352.407,159.532 C352.547,157.432 353.555,156.452 356.299,156.452 C358.623,156.452 359.547,157.432 359.547,158.888 C359.547,160.596 358.035,160.764 355.683,161.184 C351.987,161.856 349.803,162.808 349.803,165.888 C349.803,168.268 351.651,169.864 354.479,169.864 Z M354.703,168.268 C352.631,168.268 351.707,167.372 351.707,165.72 C351.707,163.9 353.135,163.2 355.907,162.696 C357.615,162.416 359.127,162.08 359.547,161.492 L359.547,164.152 C359.547,166.728 357.643,168.268 354.703,168.268 Z M375.001,160.232 L376.905,160.232 C376.569,157.208 374.245,154.884 370.773,154.884 C366.685,154.884 363.941,157.908 363.941,162.36 C363.941,166.84 366.685,169.864 370.773,169.864 C374.245,169.864 376.709,167.484 376.905,164.404 L375.001,164.404 C374.889,166.14 373.769,168.296 370.773,168.296 C367.273,168.296 365.845,165.3 365.845,162.36 C365.845,159.448 367.273,156.48 370.773,156.48 C373.741,156.48 374.889,158.636 375.001,160.232 Z M377.959,155.22 L377.959,156.816 L380.059,156.816 L380.059,165.804 C380.059,168.912 381.347,169.612 383.447,169.612 C383.895,169.612 384.231,169.584 384.791,169.5 L384.791,167.96 C384.371,167.988 384.147,168.016 383.699,168.016 C382.299,168.016 381.879,167.596 381.879,165.832 L381.879,156.816 L384.791,156.816 L384.791,155.22 L381.879,155.22 L381.879,150.46 L380.059,150.46 L380.059,155.22 L377.959,155.22 Z M397.901,169.864 C400.253,169.864 401.933,168.968 402.941,167.344 L402.997,167.344 C403.081,169.136 403.809,169.612 404.985,169.612 C405.321,169.612 405.629,169.556 405.937,169.5 L405.937,168.184 C405.769,168.212 405.685,168.212 405.545,168.212 C404.929,168.212 404.761,167.68 404.761,166.532 L404.761,159.392 C404.761,155.976 402.437,154.856 399.805,154.856 C395.633,154.856 394.065,157.012 393.925,159.532 L395.829,159.532 C395.969,157.432 396.977,156.452 399.721,156.452 C402.045,156.452 402.969,157.432 402.969,158.888 C402.969,160.596 401.457,160.764 399.105,161.184 C395.409,161.856 393.225,162.808 393.225,165.888 C393.225,168.268 395.073,169.864 397.901,169.864 Z M398.125,168.268 C396.053,168.268 395.129,167.372 395.129,165.72 C395.129,163.9 396.557,163.2 399.329,162.696 C401.037,162.416 402.549,162.08 402.969,161.492 L402.969,164.152 C402.969,166.728 401.065,168.268 398.125,168.268 Z M413.583,161.184 C411.399,160.624 409.495,160.4 409.495,158.608 C409.495,157.264 410.615,156.48 412.659,156.48 C415.459,156.48 416.187,157.964 416.439,159.224 L418.371,159.224 C418.119,156.872 416.355,154.884 412.659,154.884 C409.439,154.884 407.591,156.396 407.591,158.72 C407.591,161.492 410.251,162.164 412.883,162.808 C414.871,163.284 416.999,163.508 416.999,165.608 C416.999,167.008 416.075,168.268 413.331,168.268 C410.335,168.268 409.075,166.784 408.963,164.824 L407.031,164.824 C407.115,167.68 409.327,169.864 413.303,169.864 C416.831,169.864 418.903,168.156 418.903,165.552 C418.903,162.584 416.271,161.828 413.583,161.184 Z M431.835,169.864 C434.187,169.864 435.867,168.968 436.875,167.344 L436.931,167.344 C437.015,169.136 437.743,169.612 438.919,169.612 C439.255,169.612 439.563,169.556 439.871,169.5 L439.871,168.184 C439.703,168.212 439.619,168.212 439.479,168.212 C438.863,168.212 438.695,167.68 438.695,166.532 L438.695,159.392 C438.695,155.976 436.371,154.856 433.739,154.856 C429.567,154.856 427.999,157.012 427.859,159.532 L429.763,159.532 C429.903,157.432 430.911,156.452 433.655,156.452 C435.979,156.452 436.903,157.432 436.903,158.888 C436.903,160.596 435.391,160.764 433.039,161.184 C429.343,161.856 427.159,162.808 427.159,165.888 C427.159,168.268 429.007,169.864 431.835,169.864 Z M432.059,168.268 C429.987,168.268 429.063,167.372 429.063,165.72 C429.063,163.9 430.491,163.2 433.263,162.696 C434.971,162.416 436.483,162.08 436.903,161.492 L436.903,164.152 C436.903,166.728 434.999,168.268 432.059,168.268 Z M450.653,167.064 C451.493,168.604 452.977,169.836 455.469,169.836 C458.941,169.836 461.741,167.036 461.741,162.36 C461.741,157.656 458.941,154.856 455.469,154.856 C452.977,154.856 451.465,156.144 450.653,157.516 L450.597,157.516 L450.597,149.48 L448.777,149.48 L448.777,169.5 L450.597,169.5 L450.597,167.064 L450.653,167.064 Z M455.245,156.424 C458.213,156.424 459.837,159.14 459.837,162.36 C459.837,165.552 458.213,168.24 455.245,168.24 C452.501,168.24 450.597,165.944 450.597,162.36 C450.597,158.748 452.501,156.424 455.245,156.424 Z M464.253,155.22 L464.253,169.5 L466.073,169.5 L466.073,161.52 C466.073,158.748 467.949,156.676 470.553,156.676 C470.805,156.676 471.113,156.704 471.421,156.76 L471.421,154.968 C471.057,154.912 470.693,154.884 470.189,154.884 C468.145,154.884 466.829,156.256 466.129,158.132 L466.073,158.132 L466.073,155.22 L464.253,155.22 Z M473.161,150.012 L473.161,152.364 L475.513,152.364 L475.513,150.012 L473.161,150.012 Z M473.441,155.22 L473.441,169.5 L475.261,169.5 L475.261,155.22 L473.441,155.22 Z M488.861,157.628 C488.021,156.116 486.509,154.884 484.045,154.884 C480.545,154.884 477.745,157.684 477.745,162.36 C477.745,167.064 480.545,169.864 484.017,169.864 C486.509,169.864 488.021,168.576 488.861,167.176 L488.917,167.176 L488.917,169.5 L490.737,169.5 L490.737,149.48 L488.917,149.48 L488.917,157.628 L488.861,157.628 Z M484.241,168.268 C481.273,168.268 479.649,165.58 479.649,162.36 C479.649,159.168 481.273,156.48 484.241,156.48 C486.985,156.48 488.917,158.776 488.917,162.36 C488.917,165.972 486.985,168.268 484.241,168.268 Z M504.366,168.856 C504.366,171.768 502.658,173.028 499.774,173.028 C497.03,173.028 495.798,171.768 495.518,170.256 L493.614,170.256 C493.838,172.748 495.882,174.624 499.746,174.624 C503.666,174.624 506.186,172.636 506.186,168.604 L506.186,155.22 L504.366,155.22 L504.366,157.46 L504.31,157.46 C503.47,156.032 501.902,154.884 499.494,154.884 C496.106,154.884 493.222,157.124 493.222,161.828 C493.222,166.588 496.106,168.828 499.494,168.828 C501.902,168.828 503.47,167.68 504.31,166.196 L504.366,166.196 L504.366,168.856 Z M499.746,156.48 C502.378,156.48 504.366,158.216 504.366,161.828 C504.366,165.496 502.378,167.232 499.746,167.232 C496.806,167.232 495.126,165.104 495.126,161.828 C495.126,158.608 496.806,156.48 499.746,156.48 Z M515.475,169.892 C519.059,169.892 521.019,167.736 521.719,165.132 L519.871,165.132 C519.591,166.308 518.471,168.324 515.503,168.324 C512.143,168.324 510.603,165.636 510.575,162.724 L521.887,162.724 C521.915,162.5 521.915,162.108 521.915,161.716 C521.915,157.74 519.591,154.856 515.475,154.856 C511.359,154.856 508.671,157.796 508.671,162.36 C508.671,166.7 511.107,169.892 515.475,169.892 Z M515.391,156.424 C518.331,156.424 519.983,158.58 519.983,161.128 L510.575,161.128 C510.715,158.468 512.619,156.424 515.391,156.424 Z M284.813,203.064 C285.653,204.604 287.137,205.836 289.629,205.836 C293.101,205.836 295.901,203.036 295.901,198.36 C295.901,193.656 293.101,190.856 289.629,190.856 C287.137,190.856 285.625,192.144 284.813,193.516 L284.757,193.516 L284.757,185.48 L282.937,185.48 L282.937,205.5 L284.757,205.5 L284.757,203.064 L284.813,203.064 Z M289.405,192.424 C292.373,192.424 293.997,195.14 293.997,198.36 C293.997,201.552 292.373,204.24 289.405,204.24 C286.661,204.24 284.757,201.944 284.757,198.36 C284.757,194.748 286.661,192.424 289.405,192.424 Z M304.546,205.892 C308.13,205.892 310.09,203.736 310.79,201.132 L308.942,201.132 C308.662,202.308 307.542,204.324 304.574,204.324 C301.214,204.324 299.674,201.636 299.646,198.724 L310.958,198.724 C310.986,198.5 310.986,198.108 310.986,197.716 C310.986,193.74 308.662,190.856 304.546,190.856 C300.43,190.856 297.742,193.796 297.742,198.36 C297.742,202.7 300.178,205.892 304.546,205.892 Z M304.462,192.424 C307.402,192.424 309.054,194.58 309.054,197.128 L299.646,197.128 C299.786,194.468 301.69,192.424 304.462,192.424 Z M312.115,191.22 L312.115,192.816 L314.215,192.816 L314.215,201.804 C314.215,204.912 315.503,205.612 317.603,205.612 C318.051,205.612 318.387,205.584 318.947,205.5 L318.947,203.96 C318.527,203.988 318.303,204.016 317.855,204.016 C316.455,204.016 316.035,203.596 316.035,201.832 L316.035,192.816 L318.947,192.816 L318.947,191.22 L316.035,191.22 L316.035,186.46 L314.215,186.46 L314.215,191.22 L312.115,191.22 Z M320.48,191.22 L325.016,205.5 L327.06,205.5 L330.392,193.432 L330.448,193.432 L333.836,205.5 L335.852,205.5 L340.416,191.22 L338.456,191.22 L334.872,203.428 L334.816,203.428 L331.484,191.22 L329.44,191.22 L326.108,203.428 L326.052,203.428 L322.496,191.22 L320.48,191.22 Z M348.022,205.892 C351.606,205.892 353.566,203.736 354.266,201.132 L352.418,201.132 C352.138,202.308 351.018,204.324 348.05,204.324 C344.69,204.324 343.15,201.636 343.122,198.724 L354.434,198.724 C354.462,198.5 354.462,198.108 354.462,197.716 C354.462,193.74 352.138,190.856 348.022,190.856 C343.906,190.856 341.218,193.796 341.218,198.36 C341.218,202.7 343.654,205.892 348.022,205.892 Z M347.938,192.424 C350.878,192.424 352.53,194.58 352.53,197.128 L343.122,197.128 C343.262,194.468 345.166,192.424 347.938,192.424 Z M363.116,205.892 C366.7,205.892 368.66,203.736 369.36,201.132 L367.512,201.132 C367.232,202.308 366.112,204.324 363.144,204.324 C359.784,204.324 358.244,201.636 358.216,198.724 L369.528,198.724 C369.556,198.5 369.556,198.108 369.556,197.716 C369.556,193.74 367.232,190.856 363.116,190.856 C359,190.856 356.312,193.796 356.312,198.36 C356.312,202.7 358.748,205.892 363.116,205.892 Z M363.032,192.424 C365.972,192.424 367.624,194.58 367.624,197.128 L358.216,197.128 C358.356,194.468 360.26,192.424 363.032,192.424 Z M372.078,205.5 L373.898,205.5 L373.898,196.484 C373.898,194.384 375.662,192.48 378.378,192.48 C380.842,192.48 381.682,194.048 381.682,195.868 L381.682,205.5 L383.502,205.5 L383.502,195.476 C383.502,192.312 381.374,190.884 378.826,190.884 C376.278,190.884 374.738,192.088 373.954,193.264 L373.898,193.264 L373.898,191.22 L372.078,191.22 L372.078,205.5 Z M401.879,220.36 C399.835,223.188 398.043,227.388 398.043,232.624 C398.043,237.692 399.835,241.948 401.879,244.776 L403.531,244.776 C401.599,241.388 400.087,237.692 400.087,232.624 C400.087,227.444 401.599,223.748 403.531,220.36 L401.879,220.36 Z M411.898,241.892 C416.154,241.892 418.758,238.812 418.758,234.388 C418.758,229.936 416.154,226.856 411.898,226.856 C407.614,226.856 405.038,229.936 405.038,234.388 C405.038,238.812 407.614,241.892 411.898,241.892 Z M411.898,240.296 C408.538,240.296 406.942,237.664 406.942,234.388 C406.942,231.084 408.538,228.452 411.898,228.452 C415.23,228.452 416.854,231.084 416.854,234.388 C416.854,237.664 415.23,240.296 411.898,240.296 Z M419.66,228.816 L421.676,228.816 L421.676,241.5 L423.496,241.5 L423.496,228.816 L428.34,228.816 L428.34,241.5 L430.16,241.5 L430.16,228.816 L432.988,228.816 L432.988,227.22 L430.16,227.22 L430.16,225.092 C430.16,223.328 430.496,222.908 431.868,222.908 C432.26,222.908 432.484,222.936 432.988,222.964 L432.988,221.424 C432.344,221.34 432.008,221.312 431.616,221.312 C429.572,221.312 428.34,222.012 428.34,225.12 L428.34,227.22 L423.496,227.22 L423.496,225.092 C423.496,223.328 423.832,222.908 425.204,222.908 C425.596,222.908 425.82,222.936 426.324,222.964 L426.324,221.424 C425.708,221.34 425.372,221.312 424.952,221.312 C422.908,221.312 421.676,222.012 421.676,225.12 L421.676,227.22 L419.66,227.22 L419.66,228.816 Z M434.137,233.464 L434.137,235.256 L441.641,235.256 L441.641,233.464 L434.137,233.464 Z M454.735,232.232 L456.639,232.232 C456.303,229.208 453.979,226.884 450.507,226.884 C446.419,226.884 443.675,229.908 443.675,234.36 C443.675,238.84 446.419,241.864 450.507,241.864 C453.979,241.864 456.443,239.484 456.639,236.404 L454.735,236.404 C454.623,238.14 453.503,240.296 450.507,240.296 C447.007,240.296 445.579,237.3 445.579,234.36 C445.579,231.448 447.007,228.48 450.507,228.48 C453.475,228.48 454.623,230.636 454.735,232.232 Z M468.689,231.868 L468.689,241.5 L470.509,241.5 L470.509,231.476 C470.509,228.312 468.381,226.884 465.833,226.884 C463.285,226.884 461.745,228.088 460.961,229.264 L460.905,229.264 L460.905,221.48 L459.085,221.48 L459.085,241.5 L460.905,241.5 L460.905,232.484 C460.905,230.384 462.669,228.48 465.385,228.48 C467.849,228.48 468.689,230.048 468.689,231.868 Z M477.526,241.864 C479.878,241.864 481.558,240.968 482.566,239.344 L482.622,239.344 C482.706,241.136 483.434,241.612 484.61,241.612 C484.946,241.612 485.254,241.556 485.562,241.5 L485.562,240.184 C485.394,240.212 485.31,240.212 485.17,240.212 C484.554,240.212 484.386,239.68 484.386,238.532 L484.386,231.392 C484.386,227.976 482.062,226.856 479.43,226.856 C475.258,226.856 473.69,229.012 473.55,231.532 L475.454,231.532 C475.594,229.432 476.602,228.452 479.346,228.452 C481.67,228.452 482.594,229.432 482.594,230.888 C482.594,232.596 481.082,232.764 478.73,233.184 C475.034,233.856 472.85,234.808 472.85,237.888 C472.85,240.268 474.698,241.864 477.526,241.864 Z M477.75,240.268 C475.678,240.268 474.754,239.372 474.754,237.72 C474.754,235.9 476.182,235.2 478.954,234.696 C480.662,234.416 482.174,234.08 482.594,233.492 L482.594,236.152 C482.594,238.728 480.69,240.268 477.75,240.268 Z M487.571,222.012 L487.571,224.364 L489.923,224.364 L489.923,222.012 L487.571,222.012 Z M487.851,227.22 L487.851,241.5 L489.671,241.5 L489.671,227.22 L487.851,227.22 Z M492.964,241.5 L494.784,241.5 L494.784,232.484 C494.784,230.384 496.548,228.48 499.264,228.48 C501.728,228.48 502.568,230.048 502.568,231.868 L502.568,241.5 L504.388,241.5 L504.388,231.476 C504.388,228.312 502.26,226.884 499.712,226.884 C497.164,226.884 495.624,228.088 494.84,229.264 L494.784,229.264 L494.784,227.22 L492.964,227.22 L492.964,241.5 Z M508.353,244.776 C510.397,241.948 512.189,237.748 512.189,232.512 C512.189,227.444 510.397,223.188 508.353,220.36 L506.701,220.36 C508.633,223.748 510.145,227.444 510.145,232.512 C510.145,237.692 508.633,241.388 506.701,244.776 L508.353,244.776 Z M286.913,277.864 C289.265,277.864 290.945,276.968 291.953,275.344 L292.009,275.344 C292.093,277.136 292.821,277.612 293.997,277.612 C294.333,277.612 294.641,277.556 294.949,277.5 L294.949,276.184 C294.781,276.212 294.697,276.212 294.557,276.212 C293.941,276.212 293.773,275.68 293.773,274.532 L293.773,267.392 C293.773,263.976 291.449,262.856 288.817,262.856 C284.645,262.856 283.077,265.012 282.937,267.532 L284.841,267.532 C284.981,265.432 285.989,264.452 288.733,264.452 C291.057,264.452 291.981,265.432 291.981,266.888 C291.981,268.596 290.469,268.764 288.117,269.184 C284.421,269.856 282.237,270.808 282.237,273.888 C282.237,276.268 284.085,277.864 286.913,277.864 Z M287.137,276.268 C285.065,276.268 284.141,275.372 284.141,273.72 C284.141,271.9 285.569,271.2 288.341,270.696 C290.049,270.416 291.561,270.08 291.981,269.492 L291.981,272.152 C291.981,274.728 290.077,276.268 287.137,276.268 Z M297.238,277.5 L299.058,277.5 L299.058,268.484 C299.058,266.384 300.822,264.48 303.538,264.48 C306.002,264.48 306.842,266.048 306.842,267.868 L306.842,277.5 L308.662,277.5 L308.662,267.476 C308.662,264.312 306.534,262.884 303.986,262.884 C301.438,262.884 299.898,264.088 299.114,265.264 L299.058,265.264 L299.058,263.22 L297.238,263.22 L297.238,277.5 Z M322.147,265.628 C321.307,264.116 319.795,262.884 317.331,262.884 C313.831,262.884 311.031,265.684 311.031,270.36 C311.031,275.064 313.831,277.864 317.303,277.864 C319.795,277.864 321.307,276.576 322.147,275.176 L322.203,275.176 L322.203,277.5 L324.023,277.5 L324.023,257.48 L322.203,257.48 L322.203,265.628 L322.147,265.628 Z M317.527,276.268 C314.559,276.268 312.935,273.58 312.935,270.36 C312.935,267.168 314.559,264.48 317.527,264.48 C320.271,264.48 322.203,266.776 322.203,270.36 C322.203,273.972 320.271,276.268 317.527,276.268 Z M374.234,292.36 C372.19,295.188 370.398,299.388 370.398,304.624 C370.398,309.692 372.19,313.948 374.234,316.776 L375.886,316.776 C373.954,313.388 372.442,309.692 372.442,304.624 C372.442,299.444 373.954,295.748 375.886,292.36 L374.234,292.36 Z M384.254,313.892 C388.51,313.892 391.114,310.812 391.114,306.388 C391.114,301.936 388.51,298.856 384.254,298.856 C379.97,298.856 377.394,301.936 377.394,306.388 C377.394,310.812 379.97,313.892 384.254,313.892 Z M384.254,312.296 C380.894,312.296 379.298,309.664 379.298,306.388 C379.298,303.084 380.894,300.452 384.254,300.452 C387.586,300.452 389.21,303.084 389.21,306.388 C389.21,309.664 387.586,312.296 384.254,312.296 Z M393.625,313.5 L395.445,313.5 L395.445,304.484 C395.445,302.384 397.209,300.48 399.925,300.48 C402.389,300.48 403.229,302.048 403.229,303.868 L403.229,313.5 L405.049,313.5 L405.049,303.476 C405.049,300.312 402.921,298.884 400.373,298.884 C397.825,298.884 396.285,300.088 395.501,301.264 L395.445,301.264 L395.445,299.22 L393.625,299.22 L393.625,313.5 Z M407.613,305.464 L407.613,307.256 L415.117,307.256 L415.117,305.464 L407.613,305.464 Z M428.212,304.232 L430.116,304.232 C429.78,301.208 427.456,298.884 423.984,298.884 C419.896,298.884 417.152,301.908 417.152,306.36 C417.152,310.84 419.896,313.864 423.984,313.864 C427.456,313.864 429.92,311.484 430.116,308.404 L428.212,308.404 C428.1,310.14 426.98,312.296 423.984,312.296 C420.484,312.296 419.056,309.3 419.056,306.36 C419.056,303.448 420.484,300.48 423.984,300.48 C426.952,300.48 428.1,302.636 428.212,304.232 Z M442.166,303.868 L442.166,313.5 L443.986,313.5 L443.986,303.476 C443.986,300.312 441.858,298.884 439.31,298.884 C436.762,298.884 435.222,300.088 434.438,301.264 L434.382,301.264 L434.382,293.48 L432.562,293.48 L432.562,313.5 L434.382,313.5 L434.382,304.484 C434.382,302.384 436.146,300.48 438.862,300.48 C441.326,300.48 442.166,302.048 442.166,303.868 Z M451.003,313.864 C453.355,313.864 455.035,312.968 456.043,311.344 L456.099,311.344 C456.183,313.136 456.911,313.612 458.087,313.612 C458.423,313.612 458.731,313.556 459.039,313.5 L459.039,312.184 C458.871,312.212 458.787,312.212 458.647,312.212 C458.031,312.212 457.863,311.68 457.863,310.532 L457.863,303.392 C457.863,299.976 455.539,298.856 452.907,298.856 C448.735,298.856 447.167,301.012 447.027,303.532 L448.931,303.532 C449.071,301.432 450.079,300.452 452.823,300.452 C455.147,300.452 456.071,301.432 456.071,302.888 C456.071,304.596 454.559,304.764 452.207,305.184 C448.511,305.856 446.327,306.808 446.327,309.888 C446.327,312.268 448.175,313.864 451.003,313.864 Z M451.227,312.268 C449.155,312.268 448.231,311.372 448.231,309.72 C448.231,307.9 449.659,307.2 452.431,306.696 C454.139,306.416 455.651,306.08 456.071,305.492 L456.071,308.152 C456.071,310.728 454.167,312.268 451.227,312.268 Z M461.048,294.012 L461.048,296.364 L463.4,296.364 L463.4,294.012 L461.048,294.012 Z M461.328,299.22 L461.328,313.5 L463.148,313.5 L463.148,299.22 L461.328,299.22 Z M466.441,313.5 L468.261,313.5 L468.261,304.484 C468.261,302.384 470.025,300.48 472.741,300.48 C475.205,300.48 476.045,302.048 476.045,303.868 L476.045,313.5 L477.865,313.5 L477.865,303.476 C477.865,300.312 475.737,298.884 473.189,298.884 C470.641,298.884 469.101,300.088 468.317,301.264 L468.261,301.264 L468.261,299.22 L466.441,299.22 L466.441,313.5 Z M481.83,316.776 C483.874,313.948 485.666,309.748 485.666,304.512 C485.666,299.444 483.874,295.188 481.83,292.36 L480.178,292.36 C482.11,295.748 483.622,299.444 483.622,304.512 C483.622,309.692 482.11,313.388 480.178,316.776 L481.83,316.776 Z" id="Shape" fill="#F0F0F0" fill-rule="nonzero"></path>
            <path d="M399.348,205.892 C403.604,205.892 406.208,202.812 406.208,198.388 C406.208,193.936 403.604,190.856 399.348,190.856 C395.064,190.856 392.488,193.936 392.488,198.388 C392.488,202.812 395.064,205.892 399.348,205.892 Z M399.348,204.296 C395.988,204.296 394.392,201.664 394.392,198.388 C394.392,195.084 395.988,192.452 399.348,192.452 C402.68,192.452 404.304,195.084 404.304,198.388 C404.304,201.664 402.68,204.296 399.348,204.296 Z M407.109,192.816 L409.125,192.816 L409.125,205.5 L410.945,205.5 L410.945,192.816 L415.789,192.816 L415.789,205.5 L417.609,205.5 L417.609,192.816 L420.437,192.816 L420.437,191.22 L417.609,191.22 L417.609,189.092 C417.609,187.328 417.945,186.908 419.317,186.908 C419.709,186.908 419.933,186.936 420.437,186.964 L420.437,185.424 C419.793,185.34 419.457,185.312 419.065,185.312 C417.021,185.312 415.789,186.012 415.789,189.12 L415.789,191.22 L410.945,191.22 L410.945,189.092 C410.945,187.328 411.281,186.908 412.653,186.908 C413.045,186.908 413.269,186.936 413.773,186.964 L413.773,185.424 C413.157,185.34 412.821,185.312 412.401,185.312 C410.357,185.312 409.125,186.012 409.125,189.12 L409.125,191.22 L407.109,191.22 L407.109,192.816 Z M422.033,186.012 L422.033,188.364 L424.385,188.364 L424.385,186.012 L422.033,186.012 Z M422.341,191.22 L422.341,205.5 L424.161,205.5 L424.161,191.22 L422.341,191.22 Z M437.7,196.232 L439.604,196.232 C439.268,193.208 436.944,190.884 433.472,190.884 C429.384,190.884 426.64,193.908 426.64,198.36 C426.64,202.84 429.384,205.864 433.472,205.864 C436.944,205.864 439.408,203.484 439.604,200.404 L437.7,200.404 C437.588,202.14 436.468,204.296 433.472,204.296 C429.972,204.296 428.544,201.3 428.544,198.36 C428.544,195.448 429.972,192.48 433.472,192.48 C436.44,192.48 437.588,194.636 437.7,196.232 Z M441.77,186.012 L441.77,188.364 L444.122,188.364 L444.122,186.012 L441.77,186.012 Z M442.05,191.22 L442.05,205.5 L443.87,205.5 L443.87,191.22 L442.05,191.22 Z M451.003,205.864 C453.355,205.864 455.035,204.968 456.043,203.344 L456.099,203.344 C456.183,205.136 456.911,205.612 458.087,205.612 C458.423,205.612 458.731,205.556 459.039,205.5 L459.039,204.184 C458.871,204.212 458.787,204.212 458.647,204.212 C458.031,204.212 457.863,203.68 457.863,202.532 L457.863,195.392 C457.863,191.976 455.539,190.856 452.907,190.856 C448.735,190.856 447.167,193.012 447.027,195.532 L448.931,195.532 C449.071,193.432 450.079,192.452 452.823,192.452 C455.147,192.452 456.071,193.432 456.071,194.888 C456.071,196.596 454.559,196.764 452.207,197.184 C448.511,197.856 446.327,198.808 446.327,201.888 C446.327,204.268 448.175,205.864 451.003,205.864 Z M451.227,204.268 C449.155,204.268 448.231,203.372 448.231,201.72 C448.231,199.9 449.659,199.2 452.431,198.696 C454.139,198.416 455.651,198.08 456.071,197.492 L456.071,200.152 C456.071,202.728 454.167,204.268 451.227,204.268 Z M461.328,185.48 L461.328,205.5 L463.148,205.5 L463.148,185.48 L461.328,185.48 Z M282.937,227.22 L282.937,241.5 L284.757,241.5 L284.757,233.52 C284.757,230.748 286.633,228.676 289.237,228.676 C289.489,228.676 289.797,228.704 290.105,228.76 L290.105,226.968 C289.741,226.912 289.377,226.884 288.873,226.884 C286.829,226.884 285.513,228.256 284.813,230.132 L284.757,230.132 L284.757,227.22 L282.937,227.22 Z M297.491,241.892 C301.075,241.892 303.035,239.736 303.735,237.132 L301.887,237.132 C301.607,238.308 300.487,240.324 297.519,240.324 C294.159,240.324 292.619,237.636 292.591,234.724 L303.903,234.724 C303.931,234.5 303.931,234.108 303.931,233.716 C303.931,229.74 301.607,226.856 297.491,226.856 C293.375,226.856 290.687,229.796 290.687,234.36 C290.687,238.7 293.123,241.892 297.491,241.892 Z M297.407,228.424 C300.347,228.424 301.999,230.58 301.999,233.128 L292.591,233.128 C292.731,230.468 294.635,228.424 297.407,228.424 Z M316.925,240.856 C316.925,243.768 315.217,245.028 312.333,245.028 C309.589,245.028 308.357,243.768 308.077,242.256 L306.173,242.256 C306.397,244.748 308.441,246.624 312.305,246.624 C316.225,246.624 318.745,244.636 318.745,240.604 L318.745,227.22 L316.925,227.22 L316.925,229.46 L316.869,229.46 C316.029,228.032 314.461,226.884 312.053,226.884 C308.665,226.884 305.781,229.124 305.781,233.828 C305.781,238.588 308.665,240.828 312.053,240.828 C314.461,240.828 316.029,239.68 316.869,238.196 L316.925,238.196 L316.925,240.856 Z M312.305,228.48 C314.937,228.48 316.925,230.216 316.925,233.828 C316.925,237.496 314.937,239.232 312.305,239.232 C309.365,239.232 307.685,237.104 307.685,233.828 C307.685,230.608 309.365,228.48 312.305,228.48 Z M321.759,222.012 L321.759,224.364 L324.111,224.364 L324.111,222.012 L321.759,222.012 Z M322.039,227.22 L322.039,241.5 L323.859,241.5 L323.859,227.22 L322.039,227.22 Z M332.727,233.184 C330.543,232.624 328.639,232.4 328.639,230.608 C328.639,229.264 329.759,228.48 331.803,228.48 C334.603,228.48 335.331,229.964 335.583,231.224 L337.515,231.224 C337.263,228.872 335.499,226.884 331.803,226.884 C328.583,226.884 326.735,228.396 326.735,230.72 C326.735,233.492 329.395,234.164 332.027,234.808 C334.015,235.284 336.143,235.508 336.143,237.608 C336.143,239.008 335.219,240.268 332.475,240.268 C329.479,240.268 328.219,238.784 328.107,236.824 L326.175,236.824 C326.259,239.68 328.471,241.864 332.447,241.864 C335.975,241.864 338.047,240.156 338.047,237.552 C338.047,234.584 335.415,233.828 332.727,233.184 Z M338.994,227.22 L338.994,228.816 L341.094,228.816 L341.094,237.804 C341.094,240.912 342.382,241.612 344.482,241.612 C344.93,241.612 345.266,241.584 345.826,241.5 L345.826,239.96 C345.406,239.988 345.182,240.016 344.734,240.016 C343.334,240.016 342.914,239.596 342.914,237.832 L342.914,228.816 L345.826,228.816 L345.826,227.22 L342.914,227.22 L342.914,222.46 L341.094,222.46 L341.094,227.22 L338.994,227.22 Z M348.343,227.22 L348.343,241.5 L350.163,241.5 L350.163,233.52 C350.163,230.748 352.039,228.676 354.643,228.676 C354.895,228.676 355.203,228.704 355.511,228.76 L355.511,226.968 C355.147,226.912 354.783,226.884 354.279,226.884 C352.235,226.884 350.919,228.256 350.219,230.132 L350.163,230.132 L350.163,227.22 L348.343,227.22 Z M357.251,222.012 L357.251,224.364 L359.603,224.364 L359.603,222.012 L357.251,222.012 Z M357.531,227.22 L357.531,241.5 L359.351,241.5 L359.351,227.22 L357.531,227.22 Z M368.639,241.892 C372.223,241.892 374.183,239.736 374.883,237.132 L373.035,237.132 C372.755,238.308 371.635,240.324 368.667,240.324 C365.307,240.324 363.767,237.636 363.739,234.724 L375.051,234.724 C375.079,234.5 375.079,234.108 375.079,233.716 C375.079,229.74 372.755,226.856 368.639,226.856 C364.523,226.856 361.835,229.796 361.835,234.36 C361.835,238.7 364.271,241.892 368.639,241.892 Z M368.555,228.424 C371.495,228.424 373.147,230.58 373.147,233.128 L363.739,233.128 C363.879,230.468 365.783,228.424 368.555,228.424 Z M383.094,233.184 C380.91,232.624 379.006,232.4 379.006,230.608 C379.006,229.264 380.126,228.48 382.17,228.48 C384.97,228.48 385.698,229.964 385.95,231.224 L387.882,231.224 C387.63,228.872 385.866,226.884 382.17,226.884 C378.95,226.884 377.102,228.396 377.102,230.72 C377.102,233.492 379.762,234.164 382.394,234.808 C384.382,235.284 386.51,235.508 386.51,237.608 C386.51,239.008 385.586,240.268 382.842,240.268 C379.846,240.268 378.586,238.784 378.474,236.824 L376.542,236.824 C376.626,239.68 378.838,241.864 382.814,241.864 C386.342,241.864 388.414,240.156 388.414,237.552 C388.414,234.584 385.782,233.828 383.094,233.184 Z M344.24,265.628 C343.4,264.116 341.888,262.884 339.424,262.884 C335.924,262.884 333.124,265.684 333.124,270.36 C333.124,275.064 335.924,277.864 339.396,277.864 C341.888,277.864 343.4,276.576 344.24,275.176 L344.296,275.176 L344.296,277.5 L346.116,277.5 L346.116,257.48 L344.296,257.48 L344.296,265.628 L344.24,265.628 Z M339.62,276.268 C336.652,276.268 335.028,273.58 335.028,270.36 C335.028,267.168 336.652,264.48 339.62,264.48 C342.364,264.48 344.296,266.776 344.296,270.36 C344.296,273.972 342.364,276.268 339.62,276.268 Z M349.13,258.012 L349.13,260.364 L351.482,260.364 L351.482,258.012 L349.13,258.012 Z M349.41,263.22 L349.41,277.5 L351.23,277.5 L351.23,263.22 L349.41,263.22 Z M364.858,276.856 C364.858,279.768 363.15,281.028 360.266,281.028 C357.522,281.028 356.29,279.768 356.01,278.256 L354.106,278.256 C354.33,280.748 356.374,282.624 360.238,282.624 C364.158,282.624 366.678,280.636 366.678,276.604 L366.678,263.22 L364.858,263.22 L364.858,265.46 L364.802,265.46 C363.962,264.032 362.394,262.884 359.986,262.884 C356.598,262.884 353.714,265.124 353.714,269.828 C353.714,274.588 356.598,276.828 359.986,276.828 C362.394,276.828 363.962,275.68 364.802,274.196 L364.858,274.196 L364.858,276.856 Z M360.238,264.48 C362.87,264.48 364.858,266.216 364.858,269.828 C364.858,273.496 362.87,275.232 360.238,275.232 C357.298,275.232 355.618,273.104 355.618,269.828 C355.618,266.608 357.298,264.48 360.238,264.48 Z M369.692,258.012 L369.692,260.364 L372.044,260.364 L372.044,258.012 L369.692,258.012 Z M369.972,263.22 L369.972,277.5 L371.792,277.5 L371.792,263.22 L369.972,263.22 Z M373.885,263.22 L373.885,264.816 L375.985,264.816 L375.985,273.804 C375.985,276.912 377.273,277.612 379.373,277.612 C379.821,277.612 380.157,277.584 380.717,277.5 L380.717,275.96 C380.297,275.988 380.073,276.016 379.625,276.016 C378.225,276.016 377.805,275.596 377.805,273.832 L377.805,264.816 L380.717,264.816 L380.717,263.22 L377.805,263.22 L377.805,258.46 L375.985,258.46 L375.985,263.22 L373.885,263.22 Z M383.063,258.012 L383.063,260.364 L385.415,260.364 L385.415,258.012 L383.063,258.012 Z M383.343,263.22 L383.343,277.5 L385.163,277.5 L385.163,263.22 L383.343,263.22 Z M387.509,276.1 L387.509,277.5 L398.821,277.5 L398.821,275.904 L389.861,275.904 L389.861,275.848 L398.541,264.368 L398.541,263.22 L387.985,263.22 L387.985,264.816 L395.993,264.816 L395.993,264.872 L387.509,276.1 Z M406.565,277.892 C410.149,277.892 412.109,275.736 412.809,273.132 L410.961,273.132 C410.681,274.308 409.561,276.324 406.593,276.324 C403.233,276.324 401.693,273.636 401.665,270.724 L412.977,270.724 C413.005,270.5 413.005,270.108 413.005,269.716 C413.005,265.74 410.681,262.856 406.565,262.856 C402.449,262.856 399.761,265.796 399.761,270.36 C399.761,274.7 402.197,277.892 406.565,277.892 Z M406.481,264.424 C409.421,264.424 411.073,266.58 411.073,269.128 L401.665,269.128 C401.805,266.468 403.709,264.424 406.481,264.424 Z M425.971,265.628 C425.131,264.116 423.619,262.884 421.155,262.884 C417.655,262.884 414.855,265.684 414.855,270.36 C414.855,275.064 417.655,277.864 421.127,277.864 C423.619,277.864 425.131,276.576 425.971,275.176 L426.027,275.176 L426.027,277.5 L427.847,277.5 L427.847,257.48 L426.027,257.48 L426.027,265.628 L425.971,265.628 Z M421.351,276.268 C418.383,276.268 416.759,273.58 416.759,270.36 C416.759,267.168 418.383,264.48 421.351,264.48 C424.095,264.48 426.027,266.776 426.027,270.36 C426.027,273.972 424.095,276.268 421.351,276.268 Z M448.009,268.232 L449.913,268.232 C449.577,265.208 447.253,262.884 443.781,262.884 C439.693,262.884 436.949,265.908 436.949,270.36 C436.949,274.84 439.693,277.864 443.781,277.864 C447.253,277.864 449.717,275.484 449.913,272.404 L448.009,272.404 C447.897,274.14 446.777,276.296 443.781,276.296 C440.281,276.296 438.853,273.3 438.853,270.36 C438.853,267.448 440.281,264.48 443.781,264.48 C446.749,264.48 447.897,266.636 448.009,268.232 Z M456.335,277.864 C458.687,277.864 460.367,276.968 461.375,275.344 L461.431,275.344 C461.515,277.136 462.243,277.612 463.419,277.612 C463.755,277.612 464.063,277.556 464.371,277.5 L464.371,276.184 C464.203,276.212 464.119,276.212 463.979,276.212 C463.363,276.212 463.195,275.68 463.195,274.532 L463.195,267.392 C463.195,263.976 460.871,262.856 458.239,262.856 C454.067,262.856 452.499,265.012 452.359,267.532 L454.263,267.532 C454.403,265.432 455.411,264.452 458.155,264.452 C460.479,264.452 461.403,265.432 461.403,266.888 C461.403,268.596 459.891,268.764 457.539,269.184 C453.843,269.856 451.659,270.808 451.659,273.888 C451.659,276.268 453.507,277.864 456.335,277.864 Z M456.559,276.268 C454.487,276.268 453.563,275.372 453.563,273.72 C453.563,271.9 454.991,271.2 457.763,270.696 C459.471,270.416 460.983,270.08 461.403,269.492 L461.403,272.152 C461.403,274.728 459.499,276.268 456.559,276.268 Z M466.66,263.22 L466.66,277.5 L468.48,277.5 L468.48,269.52 C468.48,266.748 470.356,264.676 472.96,264.676 C473.212,264.676 473.52,264.704 473.828,264.76 L473.828,262.968 C473.464,262.912 473.1,262.884 472.596,262.884 C470.552,262.884 469.236,264.256 468.536,266.132 L468.48,266.132 L468.48,263.22 L466.66,263.22 Z M477.723,275.064 C478.563,276.604 480.047,277.836 482.539,277.836 C486.011,277.836 488.811,275.036 488.811,270.36 C488.811,265.656 486.011,262.856 482.539,262.856 C480.047,262.856 478.535,264.144 477.723,265.516 L477.667,265.516 L477.667,257.48 L475.847,257.48 L475.847,277.5 L477.667,277.5 L477.667,275.064 L477.723,275.064 Z M482.315,264.424 C485.283,264.424 486.907,267.14 486.907,270.36 C486.907,273.552 485.283,276.24 482.315,276.24 C479.571,276.24 477.667,273.944 477.667,270.36 C477.667,266.748 479.571,264.424 482.315,264.424 Z M497.512,277.892 C501.768,277.892 504.372,274.812 504.372,270.388 C504.372,265.936 501.768,262.856 497.512,262.856 C493.228,262.856 490.652,265.936 490.652,270.388 C490.652,274.812 493.228,277.892 497.512,277.892 Z M497.512,276.296 C494.152,276.296 492.556,273.664 492.556,270.388 C492.556,267.084 494.152,264.452 497.512,264.452 C500.844,264.452 502.468,267.084 502.468,270.388 C502.468,273.664 500.844,276.296 497.512,276.296 Z M506.882,277.5 L508.702,277.5 L508.702,268.484 C508.702,266.384 510.466,264.48 513.182,264.48 C515.646,264.48 516.486,266.048 516.486,267.868 L516.486,277.5 L518.306,277.5 L518.306,267.476 C518.306,264.312 516.178,262.884 513.63,262.884 C511.082,262.884 509.542,264.088 508.758,265.264 L508.702,265.264 L508.702,263.22 L506.882,263.22 L506.882,277.5 Z M293.325,304.232 L295.229,304.232 C294.893,301.208 292.569,298.884 289.097,298.884 C285.009,298.884 282.265,301.908 282.265,306.36 C282.265,310.84 285.009,313.864 289.097,313.864 C292.569,313.864 295.033,311.484 295.229,308.404 L293.325,308.404 C293.213,310.14 292.093,312.296 289.097,312.296 C285.597,312.296 284.169,309.3 284.169,306.36 C284.169,303.448 285.597,300.48 289.097,300.48 C292.065,300.48 293.213,302.636 293.325,304.232 Z M297.675,299.22 L297.675,313.5 L299.495,313.5 L299.495,305.52 C299.495,302.748 301.371,300.676 303.975,300.676 C304.227,300.676 304.535,300.704 304.843,300.76 L304.843,298.968 C304.479,298.912 304.115,298.884 303.611,298.884 C301.567,298.884 300.251,300.256 299.551,302.132 L299.495,302.132 L299.495,299.22 L297.675,299.22 Z M312.229,313.892 C315.813,313.892 317.773,311.736 318.473,309.132 L316.625,309.132 C316.345,310.308 315.225,312.324 312.257,312.324 C308.897,312.324 307.357,309.636 307.329,306.724 L318.641,306.724 C318.669,306.5 318.669,306.108 318.669,305.716 C318.669,301.74 316.345,298.856 312.229,298.856 C308.113,298.856 305.425,301.796 305.425,306.36 C305.425,310.7 307.861,313.892 312.229,313.892 Z M312.145,300.424 C315.085,300.424 316.737,302.58 316.737,305.128 L307.329,305.128 C307.469,302.468 309.373,300.424 312.145,300.424 Z M331.635,301.628 C330.795,300.116 329.283,298.884 326.819,298.884 C323.319,298.884 320.519,301.684 320.519,306.36 C320.519,311.064 323.319,313.864 326.791,313.864 C329.283,313.864 330.795,312.576 331.635,311.176 L331.691,311.176 L331.691,313.5 L333.511,313.5 L333.511,293.48 L331.691,293.48 L331.691,301.628 L331.635,301.628 Z M327.015,312.268 C324.047,312.268 322.423,309.58 322.423,306.36 C322.423,303.168 324.047,300.48 327.015,300.48 C329.759,300.48 331.691,302.776 331.691,306.36 C331.691,309.972 329.759,312.268 327.015,312.268 Z M336.524,294.012 L336.524,296.364 L338.876,296.364 L338.876,294.012 L336.524,294.012 Z M336.804,299.22 L336.804,313.5 L338.624,313.5 L338.624,299.22 L336.804,299.22 Z M340.717,299.22 L340.717,300.816 L342.817,300.816 L342.817,309.804 C342.817,312.912 344.105,313.612 346.205,313.612 C346.653,313.612 346.989,313.584 347.549,313.5 L347.549,311.96 C347.129,311.988 346.905,312.016 346.457,312.016 C345.057,312.016 344.637,311.596 344.637,309.832 L344.637,300.816 L347.549,300.816 L347.549,299.22 L344.637,299.22 L344.637,294.46 L342.817,294.46 L342.817,299.22 L340.717,299.22 Z M355.45,305.184 C353.266,304.624 351.362,304.4 351.362,302.608 C351.362,301.264 352.482,300.48 354.526,300.48 C357.326,300.48 358.054,301.964 358.306,303.224 L360.238,303.224 C359.986,300.872 358.222,298.884 354.526,298.884 C351.306,298.884 349.458,300.396 349.458,302.72 C349.458,305.492 352.118,306.164 354.75,306.808 C356.738,307.284 358.866,307.508 358.866,309.608 C358.866,311.008 357.942,312.268 355.198,312.268 C352.202,312.268 350.942,310.784 350.83,308.824 L348.898,308.824 C348.982,311.68 351.194,313.864 355.17,313.864 C358.698,313.864 360.77,312.156 360.77,309.552 C360.77,306.584 358.138,305.828 355.45,305.184 Z" id="Shape" fill="#46DC78" fill-rule="nonzero"></path>
        </g>
    </g>
</svg>