<svg width="457" height="504" viewBox="0 0 457 504" fill="none" xmlns="http://www.w3.org/2000/svg">
<path d="M181.789 327.254C168.456 322.602 155.937 314.949 145.282 304.294C135.488 294.5 128.23 283.13 123.508 271" stroke="#F0F0F0" stroke-dasharray="4 4"/>
<circle cx="317" cy="364" r="140" fill="#374236"/>
<path d="M222.674 304.234H224.042C223.7 301.822 221.738 299.896 218.732 299.896C215.222 299.896 212.828 302.686 212.828 306.574C212.828 310.48 215.222 313.234 218.714 313.234C221.792 313.234 223.772 311.236 224.096 308.428H222.728C222.584 310.21 221.45 312.082 218.714 312.082C215.636 312.082 214.178 309.454 214.178 306.574C214.178 303.694 215.618 301.048 218.732 301.048C221.36 301.048 222.404 302.794 222.674 304.234ZM228.651 313.234C230.163 313.234 231.243 312.658 231.891 311.614H231.927C231.981 312.766 232.449 313.072 233.205 313.072C233.421 313.072 233.619 313.036 233.817 313V312.154C233.709 312.172 233.655 312.172 233.565 312.172C233.169 312.172 233.061 311.83 233.061 311.092V306.502C233.061 304.306 231.567 303.586 229.875 303.586C227.193 303.586 226.185 304.972 226.095 306.592H227.319C227.409 305.242 228.057 304.612 229.821 304.612C231.315 304.612 231.909 305.242 231.909 306.178C231.909 307.276 230.937 307.384 229.425 307.654C227.049 308.086 225.645 308.698 225.645 310.678C225.645 312.208 226.833 313.234 228.651 313.234ZM228.795 312.208C227.463 312.208 226.869 311.632 226.869 310.57C226.869 309.4 227.787 308.95 229.569 308.626C230.667 308.446 231.639 308.23 231.909 307.852V309.562C231.909 311.218 230.685 312.208 228.795 312.208ZM235.648 303.82V313H236.818V307.87C236.818 306.088 238.024 304.756 239.698 304.756C239.86 304.756 240.058 304.774 240.256 304.81V303.658C240.022 303.622 239.788 303.604 239.464 303.604C238.15 303.604 237.304 304.486 236.854 305.692H236.818V303.82H235.648ZM243.121 311.434C243.661 312.424 244.615 313.216 246.217 313.216C248.449 313.216 250.249 311.416 250.249 308.41C250.249 305.386 248.449 303.586 246.217 303.586C244.615 303.586 243.643 304.414 243.121 305.296H243.085V300.13H241.915V313H243.085V311.434H243.121ZM246.073 304.594C247.981 304.594 249.025 306.34 249.025 308.41C249.025 310.462 247.981 312.19 246.073 312.19C244.309 312.19 243.085 310.714 243.085 308.41C243.085 306.088 244.309 304.594 246.073 304.594ZM256.202 313.252C258.938 313.252 260.612 311.272 260.612 308.428C260.612 305.566 258.938 303.586 256.202 303.586C253.448 303.586 251.792 305.566 251.792 308.428C251.792 311.272 253.448 313.252 256.202 313.252ZM256.202 312.226C254.042 312.226 253.016 310.534 253.016 308.428C253.016 306.304 254.042 304.612 256.202 304.612C258.344 304.612 259.388 306.304 259.388 308.428C259.388 310.534 258.344 312.226 256.202 312.226ZM262.586 313H263.756V307.204C263.756 305.854 264.89 304.63 266.636 304.63C268.22 304.63 268.76 305.638 268.76 306.808V313H269.93V306.556C269.93 304.522 268.562 303.604 266.924 303.604C265.286 303.604 264.296 304.378 263.792 305.134H263.756V303.82H262.586V313ZM283.537 307.042H284.761C284.545 305.098 283.051 303.604 280.819 303.604C278.191 303.604 276.427 305.548 276.427 308.41C276.427 311.29 278.191 313.234 280.819 313.234C283.051 313.234 284.635 311.704 284.761 309.724H283.537C283.465 310.84 282.745 312.226 280.819 312.226C278.569 312.226 277.651 310.3 277.651 308.41C277.651 306.538 278.569 304.63 280.819 304.63C282.727 304.63 283.465 306.016 283.537 307.042ZM286.693 303.82V313H287.863V307.87C287.863 306.088 289.069 304.756 290.743 304.756C290.905 304.756 291.103 304.774 291.301 304.81V303.658C291.067 303.622 290.833 303.604 290.509 303.604C289.195 303.604 288.349 304.486 287.899 305.692H287.863V303.82H286.693ZM296.409 313.252C298.713 313.252 299.973 311.866 300.423 310.192H299.235C299.055 310.948 298.335 312.244 296.427 312.244C294.267 312.244 293.277 310.516 293.259 308.644H300.531C300.549 308.5 300.549 308.248 300.549 307.996C300.549 305.44 299.055 303.586 296.409 303.586C293.763 303.586 292.035 305.476 292.035 308.41C292.035 311.2 293.601 313.252 296.409 313.252ZM296.355 304.594C298.245 304.594 299.307 305.98 299.307 307.618H293.259C293.349 305.908 294.573 304.594 296.355 304.594ZM309.244 305.368C308.704 304.396 307.732 303.604 306.148 303.604C303.898 303.604 302.098 305.404 302.098 308.41C302.098 311.434 303.898 313.234 306.13 313.234C307.732 313.234 308.704 312.406 309.244 311.506H309.28V313H310.45V300.13H309.28V305.368H309.244ZM306.274 312.208C304.366 312.208 303.322 310.48 303.322 308.41C303.322 306.358 304.366 304.63 306.274 304.63C308.038 304.63 309.28 306.106 309.28 308.41C309.28 310.732 308.038 312.208 306.274 312.208ZM312.747 300.472V301.984H314.259V300.472H312.747ZM312.927 303.82V313H314.097V303.82H312.927ZM315.803 303.82V304.846H317.153V310.624C317.153 312.622 317.981 313.072 319.331 313.072C319.619 313.072 319.835 313.054 320.195 313V312.01C319.925 312.028 319.781 312.046 319.493 312.046C318.593 312.046 318.323 311.776 318.323 310.642V304.846H320.195V303.82H318.323V300.76H317.153V303.82H315.803ZM325.634 307.654C324.23 307.294 323.006 307.15 323.006 305.998C323.006 305.134 323.726 304.63 325.04 304.63C326.84 304.63 327.308 305.584 327.47 306.394H328.712C328.55 304.882 327.416 303.604 325.04 303.604C322.97 303.604 321.782 304.576 321.782 306.07C321.782 307.852 323.492 308.284 325.184 308.698C326.462 309.004 327.83 309.148 327.83 310.498C327.83 311.398 327.236 312.208 325.472 312.208C323.546 312.208 322.736 311.254 322.664 309.994H321.422C321.476 311.83 322.898 313.234 325.454 313.234C327.722 313.234 329.054 312.136 329.054 310.462C329.054 308.554 327.362 308.068 325.634 307.654ZM334.667 303.82L338.033 313H339.365L342.731 303.82H341.471L338.735 311.812H338.717L335.963 303.82H334.667ZM347.867 313.252C350.171 313.252 351.431 311.866 351.881 310.192H350.693C350.513 310.948 349.793 312.244 347.885 312.244C345.725 312.244 344.735 310.516 344.717 308.644H351.989C352.007 308.5 352.007 308.248 352.007 307.996C352.007 305.44 350.513 303.586 347.867 303.586C345.221 303.586 343.493 305.476 343.493 308.41C343.493 311.2 345.059 313.252 347.867 313.252ZM347.813 304.594C349.703 304.594 350.765 305.98 350.765 307.618H344.717C344.807 305.908 346.031 304.594 347.813 304.594ZM353.988 303.82V313H355.158V307.87C355.158 306.088 356.364 304.756 358.038 304.756C358.2 304.756 358.398 304.774 358.596 304.81V303.658C358.362 303.622 358.128 303.604 357.804 303.604C356.49 303.604 355.644 304.486 355.194 305.692H355.158V303.82H353.988ZM360.074 300.472V301.984H361.586V300.472H360.074ZM360.254 303.82V313H361.424V303.82H360.254ZM365.597 313V304.846H367.415V303.82H365.597V302.452C365.597 301.318 365.813 301.048 366.695 301.048C366.947 301.048 367.091 301.066 367.415 301.084V300.094C367.019 300.04 366.803 300.022 366.533 300.022C365.219 300.022 364.427 300.472 364.427 302.47V303.82H363.131V304.846H364.427V313H365.597ZM368.477 300.472V301.984H369.989V300.472H368.477ZM368.675 303.82V313H369.845V303.82H368.675ZM376.184 313.252C378.488 313.252 379.748 311.866 380.198 310.192H379.01C378.83 310.948 378.11 312.244 376.202 312.244C374.042 312.244 373.052 310.516 373.034 308.644H380.306C380.324 308.5 380.324 308.248 380.324 307.996C380.324 305.44 378.83 303.586 376.184 303.586C373.538 303.586 371.81 305.476 371.81 308.41C371.81 311.2 373.376 313.252 376.184 313.252ZM376.13 304.594C378.02 304.594 379.082 305.98 379.082 307.618H373.034C373.124 305.908 374.348 304.594 376.13 304.594ZM389.019 305.368C388.479 304.396 387.507 303.604 385.923 303.604C383.673 303.604 381.873 305.404 381.873 308.41C381.873 311.434 383.673 313.234 385.905 313.234C387.507 313.234 388.479 312.406 389.019 311.506H389.055V313H390.225V300.13H389.055V305.368H389.019ZM386.049 312.208C384.141 312.208 383.097 310.48 383.097 308.41C383.097 306.358 384.141 304.63 386.049 304.63C387.813 304.63 389.055 306.106 389.055 308.41C389.055 310.732 387.813 312.208 386.049 312.208ZM212.342 326.82V327.846H213.692V333.624C213.692 335.622 214.52 336.072 215.87 336.072C216.158 336.072 216.374 336.054 216.734 336V335.01C216.464 335.028 216.32 335.046 216.032 335.046C215.132 335.046 214.862 334.776 214.862 333.642V327.846H216.734V326.82H214.862V323.76H213.692V326.82H212.342ZM224.956 329.808V336H226.126V329.556C226.126 327.522 224.758 326.604 223.12 326.604C221.482 326.604 220.492 327.378 219.988 328.134H219.952V323.13H218.782V336H219.952V330.204C219.952 328.854 221.086 327.63 222.832 327.63C224.416 327.63 224.956 328.638 224.956 329.808ZM228.529 326.82V336H229.699V330.87C229.699 329.088 230.905 327.756 232.579 327.756C232.741 327.756 232.939 327.774 233.137 327.81V326.658C232.903 326.622 232.669 326.604 232.345 326.604C231.031 326.604 230.185 327.486 229.735 328.692H229.699V326.82H228.529ZM238.281 336.252C241.017 336.252 242.691 334.272 242.691 331.428C242.691 328.566 241.017 326.586 238.281 326.586C235.527 326.586 233.871 328.566 233.871 331.428C233.871 334.272 235.527 336.252 238.281 336.252ZM238.281 335.226C236.121 335.226 235.095 333.534 235.095 331.428C235.095 329.304 236.121 327.612 238.281 327.612C240.423 327.612 241.467 329.304 241.467 331.428C241.467 333.534 240.423 335.226 238.281 335.226ZM245.728 333.012V326.82H244.558V333.264C244.558 335.298 245.908 336.216 247.564 336.216C249.202 336.216 250.192 335.46 250.696 334.704H250.732V336H251.902V326.82H250.732V332.616C250.732 333.966 249.58 335.19 247.852 335.19C246.25 335.19 245.728 334.182 245.728 333.012ZM261.038 335.586C261.038 337.458 259.94 338.268 258.086 338.268C256.322 338.268 255.53 337.458 255.35 336.486H254.126C254.27 338.088 255.584 339.294 258.068 339.294C260.588 339.294 262.208 338.016 262.208 335.424V326.82H261.038V328.26H261.002C260.462 327.342 259.454 326.604 257.906 326.604C255.728 326.604 253.874 328.044 253.874 331.068C253.874 334.128 255.728 335.568 257.906 335.568C259.454 335.568 260.462 334.83 261.002 333.876H261.038V335.586ZM258.068 327.63C259.76 327.63 261.038 328.746 261.038 331.068C261.038 333.426 259.76 334.542 258.068 334.542C256.178 334.542 255.098 333.174 255.098 331.068C255.098 328.998 256.178 327.63 258.068 327.63ZM270.86 329.808V336H272.03V329.556C272.03 327.522 270.662 326.604 269.024 326.604C267.386 326.604 266.396 327.378 265.892 328.134H265.856V323.13H264.686V336H265.856V330.204C265.856 328.854 266.99 327.63 268.736 327.63C270.32 327.63 270.86 328.638 270.86 329.808ZM278.275 326.82V327.846H279.625V333.624C279.625 335.622 280.453 336.072 281.803 336.072C282.091 336.072 282.307 336.054 282.667 336V335.01C282.397 335.028 282.253 335.046 281.965 335.046C281.065 335.046 280.795 334.776 280.795 333.642V327.846H282.667V326.82H280.795V323.76H279.625V326.82H278.275ZM290.889 329.808V336H292.059V329.556C292.059 327.522 290.691 326.604 289.053 326.604C287.415 326.604 286.425 327.378 285.921 328.134H285.885V323.13H284.715V336H285.885V330.204C285.885 328.854 287.019 327.63 288.765 327.63C290.349 327.63 290.889 328.638 290.889 329.808ZM298.316 336.252C300.62 336.252 301.88 334.866 302.33 333.192H301.142C300.962 333.948 300.242 335.244 298.334 335.244C296.174 335.244 295.184 333.516 295.166 331.644H302.438C302.456 331.5 302.456 331.248 302.456 330.996C302.456 328.44 300.962 326.586 298.316 326.586C295.67 326.586 293.942 328.476 293.942 331.41C293.942 334.2 295.508 336.252 298.316 336.252ZM298.262 327.594C300.152 327.594 301.214 328.98 301.214 330.618H295.166C295.256 328.908 296.48 327.594 298.262 327.594ZM309.249 336H313.857C317.457 336 319.491 333.57 319.491 329.592C319.491 325.614 317.493 323.13 313.893 323.13H309.249V336ZM310.563 324.282H313.893C317.115 324.282 318.123 326.73 318.123 329.592C318.123 332.436 317.079 334.848 313.857 334.848H310.563V324.282ZM321.501 323.472V324.984H323.013V323.472H321.501ZM321.681 326.82V336H322.851V326.82H321.681ZM331.972 335.586C331.972 337.458 330.874 338.268 329.02 338.268C327.256 338.268 326.464 337.458 326.284 336.486H325.06C325.204 338.088 326.518 339.294 329.002 339.294C331.522 339.294 333.142 338.016 333.142 335.424V326.82H331.972V328.26H331.936C331.396 327.342 330.388 326.604 328.84 326.604C326.662 326.604 324.808 328.044 324.808 331.068C324.808 334.128 326.662 335.568 328.84 335.568C330.388 335.568 331.396 334.83 331.936 333.876H331.972V335.586ZM329.002 327.63C330.694 327.63 331.972 328.746 331.972 331.068C331.972 333.426 330.694 334.542 329.002 334.542C327.112 334.542 326.032 333.174 326.032 331.068C326.032 328.998 327.112 327.63 329.002 327.63ZM335.439 323.472V324.984H336.951V323.472H335.439ZM335.619 326.82V336H336.789V326.82H335.619ZM338.495 326.82V327.846H339.845V333.624C339.845 335.622 340.673 336.072 342.023 336.072C342.311 336.072 342.527 336.054 342.887 336V335.01C342.617 335.028 342.473 335.046 342.185 335.046C341.285 335.046 341.015 334.776 341.015 333.642V327.846H342.887V326.82H341.015V323.76H339.845V326.82H338.495ZM347.139 336.234C348.651 336.234 349.731 335.658 350.379 334.614H350.415C350.469 335.766 350.937 336.072 351.693 336.072C351.909 336.072 352.107 336.036 352.305 336V335.154C352.197 335.172 352.143 335.172 352.053 335.172C351.657 335.172 351.549 334.83 351.549 334.092V329.502C351.549 327.306 350.055 326.586 348.363 326.586C345.681 326.586 344.673 327.972 344.583 329.592H345.807C345.897 328.242 346.545 327.612 348.309 327.612C349.803 327.612 350.397 328.242 350.397 329.178C350.397 330.276 349.425 330.384 347.913 330.654C345.537 331.086 344.133 331.698 344.133 333.678C344.133 335.208 345.321 336.234 347.139 336.234ZM347.283 335.208C345.951 335.208 345.357 334.632 345.357 333.57C345.357 332.4 346.275 331.95 348.057 331.626C349.155 331.446 350.127 331.23 350.397 330.852V332.562C350.397 334.218 349.173 335.208 347.283 335.208ZM354.137 323.13V336H355.307V323.13H354.137ZM213.224 359H214.538V347.984H214.574L218.804 359H219.992L224.24 347.984H224.276V359H225.572V346.13H223.772L219.416 357.236H219.38L215.024 346.13H213.224V359ZM232.006 359.252C234.31 359.252 235.57 357.866 236.02 356.192H234.832C234.652 356.948 233.932 358.244 232.024 358.244C229.864 358.244 228.874 356.516 228.856 354.644H236.128C236.146 354.5 236.146 354.248 236.146 353.996C236.146 351.44 234.652 349.586 232.006 349.586C229.36 349.586 227.632 351.476 227.632 354.41C227.632 357.2 229.198 359.252 232.006 359.252ZM231.952 350.594C233.842 350.594 234.904 351.98 234.904 353.618H228.856C228.946 351.908 230.17 350.594 231.952 350.594ZM240.683 359.234C242.195 359.234 243.275 358.658 243.923 357.614H243.959C244.013 358.766 244.481 359.072 245.237 359.072C245.453 359.072 245.651 359.036 245.849 359V358.154C245.741 358.172 245.687 358.172 245.597 358.172C245.201 358.172 245.093 357.83 245.093 357.092V352.502C245.093 350.306 243.599 349.586 241.907 349.586C239.225 349.586 238.217 350.972 238.127 352.592H239.351C239.441 351.242 240.089 350.612 241.853 350.612C243.347 350.612 243.941 351.242 243.941 352.178C243.941 353.276 242.969 353.384 241.457 353.654C239.081 354.086 237.677 354.698 237.677 356.678C237.677 358.208 238.865 359.234 240.683 359.234ZM240.827 358.208C239.495 358.208 238.901 357.632 238.901 356.57C238.901 355.4 239.819 354.95 241.601 354.626C242.699 354.446 243.671 354.23 243.941 353.852V355.562C243.941 357.218 242.717 358.208 240.827 358.208ZM251.124 353.654C249.72 353.294 248.496 353.15 248.496 351.998C248.496 351.134 249.216 350.63 250.53 350.63C252.33 350.63 252.798 351.584 252.96 352.394H254.202C254.04 350.882 252.906 349.604 250.53 349.604C248.46 349.604 247.272 350.576 247.272 352.07C247.272 353.852 248.982 354.284 250.674 354.698C251.952 355.004 253.32 355.148 253.32 356.498C253.32 357.398 252.726 358.208 250.962 358.208C249.036 358.208 248.226 357.254 248.154 355.994H246.912C246.966 357.83 248.388 359.234 250.944 359.234C253.212 359.234 254.544 358.136 254.544 356.462C254.544 354.554 252.852 354.068 251.124 353.654ZM257.487 356.012V349.82H256.317V356.264C256.317 358.298 257.667 359.216 259.323 359.216C260.961 359.216 261.951 358.46 262.455 357.704H262.491V359H263.661V349.82H262.491V355.616C262.491 356.966 261.339 358.19 259.611 358.19C258.009 358.19 257.487 357.182 257.487 356.012ZM266.154 349.82V359H267.324V353.87C267.324 352.088 268.53 350.756 270.204 350.756C270.366 350.756 270.564 350.774 270.762 350.81V349.658C270.528 349.622 270.294 349.604 269.97 349.604C268.656 349.604 267.81 350.486 267.36 351.692H267.324V349.82H266.154ZM275.87 359.252C278.174 359.252 279.434 357.866 279.884 356.192H278.696C278.516 356.948 277.796 358.244 275.888 358.244C273.728 358.244 272.738 356.516 272.72 354.644H279.992C280.01 354.5 280.01 354.248 280.01 353.996C280.01 351.44 278.516 349.586 275.87 349.586C273.224 349.586 271.496 351.476 271.496 354.41C271.496 357.2 273.062 359.252 275.87 359.252ZM275.816 350.594C277.706 350.594 278.768 351.98 278.768 353.618H272.72C272.81 351.908 274.034 350.594 275.816 350.594ZM281.991 359H283.161V353.204C283.161 351.872 284.115 350.63 285.717 350.63C287.247 350.63 287.517 351.656 287.517 352.808V359H288.687V353.204C288.687 351.872 289.659 350.63 291.261 350.63C292.773 350.63 293.061 351.656 293.061 352.808V359H294.231V352.556C294.231 350.648 293.277 349.604 291.513 349.604C290.073 349.604 289.083 350.378 288.489 351.296H288.453C288.093 350.198 287.265 349.604 285.969 349.604C284.529 349.604 283.665 350.378 283.197 351.116H283.161V349.82H281.991V359ZM300.479 359.252C302.783 359.252 304.043 357.866 304.493 356.192H303.305C303.125 356.948 302.405 358.244 300.497 358.244C298.337 358.244 297.347 356.516 297.329 354.644H304.601C304.619 354.5 304.619 354.248 304.619 353.996C304.619 351.44 303.125 349.586 300.479 349.586C297.833 349.586 296.105 351.476 296.105 354.41C296.105 357.2 297.671 359.252 300.479 359.252ZM300.425 350.594C302.315 350.594 303.377 351.98 303.377 353.618H297.329C297.419 351.908 298.643 350.594 300.425 350.594ZM306.6 359H307.77V353.204C307.77 351.854 308.904 350.63 310.65 350.63C312.234 350.63 312.774 351.638 312.774 352.808V359H313.944V352.556C313.944 350.522 312.576 349.604 310.938 349.604C309.3 349.604 308.31 350.378 307.806 351.134H307.77V349.82H306.6V359ZM315.399 349.82V350.846H316.749V356.624C316.749 358.622 317.577 359.072 318.927 359.072C319.215 359.072 319.431 359.054 319.791 359V358.01C319.521 358.028 319.377 358.046 319.089 358.046C318.189 358.046 317.919 357.776 317.919 356.642V350.846H319.791V349.82H317.919V346.76H316.749V349.82H315.399ZM321.766 361.178C322.99 360.8 323.278 360.008 323.278 359V357.488H321.766V359H322.504C322.522 359.864 322.342 360.188 321.766 360.404V361.178ZM330.474 359H331.788V353.654H335.712C339.15 353.654 337.962 358.46 338.574 359H339.96V358.892C339.276 358.676 340.284 353.636 337.332 353.042V353.006C338.736 352.646 339.744 351.476 339.744 349.766C339.744 347.408 338.25 346.13 335.496 346.13H330.474V359ZM331.788 347.282H335.28C337.494 347.282 338.43 348.146 338.43 349.784C338.43 351.584 337.242 352.502 335.19 352.502H331.788V347.282ZM345.934 359.252C348.238 359.252 349.498 357.866 349.948 356.192H348.76C348.58 356.948 347.86 358.244 345.952 358.244C343.792 358.244 342.802 356.516 342.784 354.644H350.056C350.074 354.5 350.074 354.248 350.074 353.996C350.074 351.44 348.58 349.586 345.934 349.586C343.288 349.586 341.56 351.476 341.56 354.41C341.56 357.2 343.126 359.252 345.934 359.252ZM345.88 350.594C347.77 350.594 348.832 351.98 348.832 353.618H342.784C342.874 351.908 344.098 350.594 345.88 350.594ZM353.261 357.452C353.801 358.424 354.755 359.216 356.357 359.216C358.589 359.216 360.389 357.416 360.389 354.41C360.389 351.386 358.589 349.586 356.357 349.586C354.755 349.586 353.783 350.414 353.261 351.296H353.225V349.82H352.055V362.186H353.225V357.452H353.261ZM356.213 350.612C358.121 350.612 359.165 352.34 359.165 354.41C359.165 356.462 358.121 358.19 356.213 358.19C354.449 358.19 353.225 356.714 353.225 354.41C353.225 352.088 354.449 350.612 356.213 350.612ZM366.342 359.252C369.078 359.252 370.752 357.272 370.752 354.428C370.752 351.566 369.078 349.586 366.342 349.586C363.588 349.586 361.932 351.566 361.932 354.428C361.932 357.272 363.588 359.252 366.342 359.252ZM366.342 358.226C364.182 358.226 363.156 356.534 363.156 354.428C363.156 352.304 364.182 350.612 366.342 350.612C368.484 350.612 369.528 352.304 369.528 354.428C369.528 356.534 368.484 358.226 366.342 358.226ZM372.726 349.82V359H373.896V353.87C373.896 352.088 375.102 350.756 376.776 350.756C376.938 350.756 377.136 350.774 377.334 350.81V349.658C377.1 349.622 376.866 349.604 376.542 349.604C375.228 349.604 374.382 350.486 373.932 351.692H373.896V349.82H372.726ZM378.519 349.82V350.846H379.869V356.624C379.869 358.622 380.697 359.072 382.047 359.072C382.335 359.072 382.551 359.054 382.911 359V358.01C382.641 358.028 382.497 358.046 382.209 358.046C381.309 358.046 381.039 357.776 381.039 356.642V350.846H382.911V349.82H381.039V346.76H379.869V349.82H378.519ZM384.78 346.472V347.984H386.292V346.472H384.78ZM384.96 349.82V359H386.13V349.82H384.96ZM388.607 359H389.777V353.204C389.777 351.854 390.911 350.63 392.657 350.63C394.241 350.63 394.781 351.638 394.781 352.808V359H395.951V352.556C395.951 350.522 394.583 349.604 392.945 349.604C391.307 349.604 390.317 350.378 389.813 351.134H389.777V349.82H388.607V359ZM404.998 358.586C404.998 360.458 403.9 361.268 402.046 361.268C400.282 361.268 399.49 360.458 399.31 359.486H398.086C398.23 361.088 399.544 362.294 402.028 362.294C404.548 362.294 406.168 361.016 406.168 358.424V349.82H404.998V351.26H404.962C404.422 350.342 403.414 349.604 401.866 349.604C399.688 349.604 397.834 351.044 397.834 354.068C397.834 357.128 399.688 358.568 401.866 358.568C403.414 358.568 404.422 357.83 404.962 356.876H404.998V358.586ZM402.028 350.63C403.72 350.63 404.998 351.746 404.998 354.068C404.998 356.426 403.72 357.542 402.028 357.542C400.138 357.542 399.058 356.174 399.058 354.068C399.058 351.998 400.138 350.63 402.028 350.63ZM215.582 382.234C217.094 382.234 218.174 381.658 218.822 380.614H218.858C218.912 381.766 219.38 382.072 220.136 382.072C220.352 382.072 220.55 382.036 220.748 382V381.154C220.64 381.172 220.586 381.172 220.496 381.172C220.1 381.172 219.992 380.83 219.992 380.092V375.502C219.992 373.306 218.498 372.586 216.806 372.586C214.124 372.586 213.116 373.972 213.026 375.592H214.25C214.34 374.242 214.988 373.612 216.752 373.612C218.246 373.612 218.84 374.242 218.84 375.178C218.84 376.276 217.868 376.384 216.356 376.654C213.98 377.086 212.576 377.698 212.576 379.678C212.576 381.208 213.764 382.234 215.582 382.234ZM215.726 381.208C214.394 381.208 213.8 380.632 213.8 379.57C213.8 378.4 214.718 377.95 216.5 377.626C217.598 377.446 218.57 377.23 218.84 376.852V378.562C218.84 380.218 217.616 381.208 215.726 381.208ZM222.579 382H223.749V376.204C223.749 374.854 224.883 373.63 226.629 373.63C228.213 373.63 228.753 374.638 228.753 375.808V382H229.923V375.556C229.923 373.522 228.555 372.604 226.917 372.604C225.279 372.604 224.289 373.378 223.785 374.134H223.749V372.82H222.579V382ZM238.952 374.368C238.412 373.396 237.44 372.604 235.856 372.604C233.606 372.604 231.806 374.404 231.806 377.41C231.806 380.434 233.606 382.234 235.838 382.234C237.44 382.234 238.412 381.406 238.952 380.506H238.988V382H240.158V369.13H238.988V374.368H238.952ZM235.982 381.208C234.074 381.208 233.03 379.48 233.03 377.41C233.03 375.358 234.074 373.63 235.982 373.63C237.746 373.63 238.988 375.106 238.988 377.41C238.988 379.732 237.746 381.208 235.982 381.208ZM246.423 369.13L251.121 382H252.489L257.115 369.13H255.747L251.823 380.668H251.805L247.845 369.13H246.423ZM261.061 382.252C263.365 382.252 264.625 380.866 265.075 379.192H263.887C263.707 379.948 262.987 381.244 261.079 381.244C258.919 381.244 257.929 379.516 257.911 377.644H265.183C265.201 377.5 265.201 377.248 265.201 376.996C265.201 374.44 263.707 372.586 261.061 372.586C258.415 372.586 256.687 374.476 256.687 377.41C256.687 380.2 258.253 382.252 261.061 382.252ZM261.007 373.594C262.897 373.594 263.959 374.98 263.959 376.618H257.911C258.001 374.908 259.225 373.594 261.007 373.594ZM267.182 372.82V382H268.352V376.87C268.352 375.088 269.558 373.756 271.232 373.756C271.394 373.756 271.592 373.774 271.79 373.81V372.658C271.556 372.622 271.322 372.604 270.998 372.604C269.684 372.604 268.838 373.486 268.388 374.692H268.352V372.82H267.182ZM273.268 369.472V370.984H274.78V369.472H273.268ZM273.448 372.82V382H274.618V372.82H273.448ZM278.791 382V373.846H280.609V372.82H278.791V371.452C278.791 370.318 279.007 370.048 279.889 370.048C280.141 370.048 280.285 370.066 280.609 370.084V369.094C280.213 369.04 279.997 369.022 279.727 369.022C278.413 369.022 277.621 369.472 277.621 371.47V372.82H276.325V373.846H277.621V382H278.791ZM281.671 369.472V370.984H283.183V369.472H281.671ZM281.869 372.82V382H283.039V372.82H281.869ZM292.114 376.042H293.338C293.122 374.098 291.628 372.604 289.396 372.604C286.768 372.604 285.004 374.548 285.004 377.41C285.004 380.29 286.768 382.234 289.396 382.234C291.628 382.234 293.212 380.704 293.338 378.724H292.114C292.042 379.84 291.322 381.226 289.396 381.226C287.146 381.226 286.228 379.3 286.228 377.41C286.228 375.538 287.146 373.63 289.396 373.63C291.304 373.63 292.042 375.016 292.114 376.042ZM297.827 382.234C299.339 382.234 300.419 381.658 301.067 380.614H301.103C301.157 381.766 301.625 382.072 302.381 382.072C302.597 382.072 302.795 382.036 302.993 382V381.154C302.885 381.172 302.831 381.172 302.741 381.172C302.345 381.172 302.237 380.83 302.237 380.092V375.502C302.237 373.306 300.743 372.586 299.051 372.586C296.369 372.586 295.361 373.972 295.271 375.592H296.495C296.585 374.242 297.233 373.612 298.997 373.612C300.491 373.612 301.085 374.242 301.085 375.178C301.085 376.276 300.113 376.384 298.601 376.654C296.225 377.086 294.821 377.698 294.821 379.678C294.821 381.208 296.009 382.234 297.827 382.234ZM297.971 381.208C296.639 381.208 296.045 380.632 296.045 379.57C296.045 378.4 296.963 377.95 298.745 377.626C299.843 377.446 300.815 377.23 301.085 376.852V378.562C301.085 380.218 299.861 381.208 297.971 381.208ZM303.683 372.82V373.846H305.033V379.624C305.033 381.622 305.861 382.072 307.211 382.072C307.499 382.072 307.715 382.054 308.075 382V381.01C307.805 381.028 307.661 381.046 307.373 381.046C306.473 381.046 306.203 380.776 306.203 379.642V373.846H308.075V372.82H306.203V369.76H305.033V372.82H303.683ZM309.943 369.472V370.984H311.455V369.472H309.943ZM310.123 372.82V382H311.293V372.82H310.123ZM317.661 382.252C320.397 382.252 322.071 380.272 322.071 377.428C322.071 374.566 320.397 372.586 317.661 372.586C314.907 372.586 313.251 374.566 313.251 377.428C313.251 380.272 314.907 382.252 317.661 382.252ZM317.661 381.226C315.501 381.226 314.475 379.534 314.475 377.428C314.475 375.304 315.501 373.612 317.661 373.612C319.803 373.612 320.847 375.304 320.847 377.428C320.847 379.534 319.803 381.226 317.661 381.226ZM324.045 382H325.215V376.204C325.215 374.854 326.349 373.63 328.095 373.63C329.679 373.63 330.219 374.638 330.219 375.808V382H331.389V375.556C331.389 373.522 330.021 372.604 328.383 372.604C326.745 372.604 325.755 373.378 325.251 374.134H325.215V372.82H324.045V382ZM213.026 405H214.196V399.204C214.196 397.872 215.15 396.63 216.752 396.63C218.282 396.63 218.552 397.656 218.552 398.808V405H219.722V399.204C219.722 397.872 220.694 396.63 222.296 396.63C223.808 396.63 224.096 397.656 224.096 398.808V405H225.266V398.556C225.266 396.648 224.312 395.604 222.548 395.604C221.108 395.604 220.118 396.378 219.524 397.296H219.488C219.128 396.198 218.3 395.604 217.004 395.604C215.564 395.604 214.7 396.378 214.232 397.116H214.196V395.82H213.026V405ZM231.514 405.252C233.818 405.252 235.078 403.866 235.528 402.192H234.34C234.16 402.948 233.44 404.244 231.532 404.244C229.372 404.244 228.382 402.516 228.364 400.644H235.636C235.654 400.5 235.654 400.248 235.654 399.996C235.654 397.44 234.16 395.586 231.514 395.586C228.868 395.586 227.14 397.476 227.14 400.41C227.14 403.2 228.706 405.252 231.514 405.252ZM231.46 396.594C233.35 396.594 234.412 397.98 234.412 399.618H228.364C228.454 397.908 229.678 396.594 231.46 396.594ZM236.74 395.82V396.846H238.09V402.624C238.09 404.622 238.918 405.072 240.268 405.072C240.556 405.072 240.772 405.054 241.132 405V404.01C240.862 404.028 240.718 404.046 240.43 404.046C239.53 404.046 239.26 403.776 239.26 402.642V396.846H241.132V395.82H239.26V392.76H238.09V395.82H236.74ZM249.354 398.808V405H250.524V398.556C250.524 396.522 249.156 395.604 247.518 395.604C245.88 395.604 244.89 396.378 244.386 397.134H244.35V392.13H243.18V405H244.35V399.204C244.35 397.854 245.484 396.63 247.23 396.63C248.814 396.63 249.354 397.638 249.354 398.808ZM256.817 405.252C259.553 405.252 261.227 403.272 261.227 400.428C261.227 397.566 259.553 395.586 256.817 395.586C254.063 395.586 252.407 397.566 252.407 400.428C252.407 403.272 254.063 405.252 256.817 405.252ZM256.817 404.226C254.657 404.226 253.631 402.534 253.631 400.428C253.631 398.304 254.657 396.612 256.817 396.612C258.959 396.612 260.003 398.304 260.003 400.428C260.003 402.534 258.959 404.226 256.817 404.226ZM269.915 397.368C269.375 396.396 268.403 395.604 266.819 395.604C264.569 395.604 262.769 397.404 262.769 400.41C262.769 403.434 264.569 405.234 266.801 405.234C268.403 405.234 269.375 404.406 269.915 403.506H269.951V405H271.121V392.13H269.951V397.368H269.915ZM266.945 404.208C265.037 404.208 263.993 402.48 263.993 400.41C263.993 398.358 265.037 396.63 266.945 396.63C268.709 396.63 269.951 398.106 269.951 400.41C269.951 402.732 268.709 404.208 266.945 404.208ZM277.488 405.252C280.224 405.252 281.898 403.272 281.898 400.428C281.898 397.566 280.224 395.586 277.488 395.586C274.734 395.586 273.078 397.566 273.078 400.428C273.078 403.272 274.734 405.252 277.488 405.252ZM277.488 404.226C275.328 404.226 274.302 402.534 274.302 400.428C274.302 398.304 275.328 396.612 277.488 396.612C279.63 396.612 280.674 398.304 280.674 400.428C280.674 402.534 279.63 404.226 277.488 404.226ZM283.872 392.13V405H285.042V392.13H283.872ZM291.409 405.252C294.145 405.252 295.819 403.272 295.819 400.428C295.819 397.566 294.145 395.586 291.409 395.586C288.655 395.586 286.999 397.566 286.999 400.428C286.999 403.272 288.655 405.252 291.409 405.252ZM291.409 404.226C289.249 404.226 288.223 402.534 288.223 400.428C288.223 398.304 289.249 396.612 291.409 396.612C293.551 396.612 294.595 398.304 294.595 400.428C294.595 402.534 293.551 404.226 291.409 404.226ZM304.525 404.586C304.525 406.458 303.427 407.268 301.573 407.268C299.809 407.268 299.017 406.458 298.837 405.486H297.613C297.757 407.088 299.071 408.294 301.555 408.294C304.075 408.294 305.695 407.016 305.695 404.424V395.82H304.525V397.26H304.489C303.949 396.342 302.941 395.604 301.393 395.604C299.215 395.604 297.361 397.044 297.361 400.068C297.361 403.128 299.215 404.568 301.393 404.568C302.941 404.568 303.949 403.83 304.489 402.876H304.525V404.586ZM301.555 396.63C303.247 396.63 304.525 397.746 304.525 400.068C304.525 402.426 303.247 403.542 301.555 403.542C299.665 403.542 298.585 402.174 298.585 400.068C298.585 397.998 299.665 396.63 301.555 396.63ZM310.929 404.946C310.443 406.638 309.723 407.196 308.877 407.196C308.571 407.196 308.427 407.178 308.157 407.142V408.15C308.535 408.204 308.751 408.222 309.039 408.222C310.281 408.222 311.073 407.556 311.973 405.27L315.663 395.82H314.403L311.541 403.47H311.505L308.535 395.82H307.221L310.929 404.946ZM398.352 405.234C399.864 405.234 400.944 404.658 401.592 403.614H401.628C401.682 404.766 402.15 405.072 402.906 405.072C403.122 405.072 403.32 405.036 403.518 405V404.154C403.41 404.172 403.356 404.172 403.266 404.172C402.87 404.172 402.762 403.83 402.762 403.092V398.502C402.762 396.306 401.268 395.586 399.576 395.586C396.894 395.586 395.886 396.972 395.796 398.592H397.02C397.11 397.242 397.758 396.612 399.522 396.612C401.016 396.612 401.61 397.242 401.61 398.178C401.61 399.276 400.638 399.384 399.126 399.654C396.75 400.086 395.346 400.698 395.346 402.678C395.346 404.208 396.534 405.234 398.352 405.234ZM398.496 404.208C397.164 404.208 396.57 403.632 396.57 402.57C396.57 401.4 397.488 400.95 399.27 400.626C400.368 400.446 401.34 400.23 401.61 399.852V401.562C401.61 403.218 400.386 404.208 398.496 404.208ZM405.35 395.82V405H406.52V399.87C406.52 398.088 407.726 396.756 409.4 396.756C409.562 396.756 409.76 396.774 409.958 396.81V395.658C409.724 395.622 409.49 395.604 409.166 395.604C407.852 395.604 407.006 396.486 406.556 397.692H406.52V395.82H405.35ZM415.066 405.252C417.37 405.252 418.63 403.866 419.08 402.192H417.892C417.712 402.948 416.992 404.244 415.084 404.244C412.924 404.244 411.934 402.516 411.916 400.644H419.188C419.206 400.5 419.206 400.248 419.206 399.996C419.206 397.44 417.712 395.586 415.066 395.586C412.42 395.586 410.692 397.476 410.692 400.41C410.692 403.2 412.258 405.252 415.066 405.252ZM415.012 396.594C416.902 396.594 417.964 397.98 417.964 399.618H411.916C412.006 397.908 413.23 396.594 415.012 396.594ZM215.582 428.234C217.094 428.234 218.174 427.658 218.822 426.614H218.858C218.912 427.766 219.38 428.072 220.136 428.072C220.352 428.072 220.55 428.036 220.748 428V427.154C220.64 427.172 220.586 427.172 220.496 427.172C220.1 427.172 219.992 426.83 219.992 426.092V421.502C219.992 419.306 218.498 418.586 216.806 418.586C214.124 418.586 213.116 419.972 213.026 421.592H214.25C214.34 420.242 214.988 419.612 216.752 419.612C218.246 419.612 218.84 420.242 218.84 421.178C218.84 422.276 217.868 422.384 216.356 422.654C213.98 423.086 212.576 423.698 212.576 425.678C212.576 427.208 213.764 428.234 215.582 428.234ZM215.726 427.208C214.394 427.208 213.8 426.632 213.8 425.57C213.8 424.4 214.718 423.95 216.5 423.626C217.598 423.446 218.57 423.23 218.84 422.852V424.562C218.84 426.218 217.616 427.208 215.726 427.208ZM223.431 425.012V418.82H222.261V425.264C222.261 427.298 223.611 428.216 225.267 428.216C226.905 428.216 227.895 427.46 228.399 426.704H228.435V428H229.605V418.82H228.435V424.616C228.435 425.966 227.283 427.19 225.555 427.19C223.953 427.19 223.431 426.182 223.431 425.012ZM231.326 418.82V419.846H232.676V425.624C232.676 427.622 233.504 428.072 234.854 428.072C235.142 428.072 235.358 428.054 235.718 428V427.01C235.448 427.028 235.304 427.046 235.016 427.046C234.116 427.046 233.846 426.776 233.846 425.642V419.846H235.718V418.82H233.846V415.76H232.676V418.82H231.326ZM241.27 428.252C244.006 428.252 245.68 426.272 245.68 423.428C245.68 420.566 244.006 418.586 241.27 418.586C238.516 418.586 236.86 420.566 236.86 423.428C236.86 426.272 238.516 428.252 241.27 428.252ZM241.27 427.226C239.11 427.226 238.084 425.534 238.084 423.428C238.084 421.304 239.11 419.612 241.27 419.612C243.412 419.612 244.456 421.304 244.456 423.428C244.456 425.534 243.412 427.226 241.27 427.226ZM247.653 428H248.823V422.204C248.823 420.872 249.777 419.63 251.379 419.63C252.909 419.63 253.179 420.656 253.179 421.808V428H254.349V422.204C254.349 420.872 255.321 419.63 256.923 419.63C258.435 419.63 258.723 420.656 258.723 421.808V428H259.893V421.556C259.893 419.648 258.939 418.604 257.175 418.604C255.735 418.604 254.745 419.378 254.151 420.296H254.115C253.755 419.198 252.927 418.604 251.631 418.604C250.191 418.604 249.327 419.378 248.859 420.116H248.823V418.82H247.653V428ZM264.755 428.234C266.267 428.234 267.347 427.658 267.995 426.614H268.031C268.085 427.766 268.553 428.072 269.309 428.072C269.525 428.072 269.723 428.036 269.921 428V427.154C269.813 427.172 269.759 427.172 269.669 427.172C269.273 427.172 269.165 426.83 269.165 426.092V421.502C269.165 419.306 267.671 418.586 265.979 418.586C263.297 418.586 262.289 419.972 262.199 421.592H263.423C263.513 420.242 264.161 419.612 265.925 419.612C267.419 419.612 268.013 420.242 268.013 421.178C268.013 422.276 267.041 422.384 265.529 422.654C263.153 423.086 261.749 423.698 261.749 425.678C261.749 427.208 262.937 428.234 264.755 428.234ZM264.899 427.208C263.567 427.208 262.973 426.632 262.973 425.57C262.973 424.4 263.891 423.95 265.673 423.626C266.771 423.446 267.743 423.23 268.013 422.852V424.562C268.013 426.218 266.789 427.208 264.899 427.208ZM270.611 418.82V419.846H271.961V425.624C271.961 427.622 272.789 428.072 274.139 428.072C274.427 428.072 274.643 428.054 275.003 428V427.01C274.733 427.028 274.589 427.046 274.301 427.046C273.401 427.046 273.131 426.776 273.131 425.642V419.846H275.003V418.82H273.131V415.76H271.961V418.82H270.611ZM276.872 415.472V416.984H278.384V415.472H276.872ZM277.052 418.82V428H278.222V418.82H277.052ZM287.289 422.042H288.513C288.297 420.098 286.803 418.604 284.571 418.604C281.943 418.604 280.179 420.548 280.179 423.41C280.179 426.29 281.943 428.234 284.571 428.234C286.803 428.234 288.387 426.704 288.513 424.724H287.289C287.217 425.84 286.497 427.226 284.571 427.226C282.321 427.226 281.403 425.3 281.403 423.41C281.403 421.538 282.321 419.63 284.571 419.63C286.479 419.63 287.217 421.016 287.289 422.042ZM293.002 428.234C294.514 428.234 295.594 427.658 296.242 426.614H296.278C296.332 427.766 296.8 428.072 297.556 428.072C297.772 428.072 297.97 428.036 298.168 428V427.154C298.06 427.172 298.006 427.172 297.916 427.172C297.52 427.172 297.412 426.83 297.412 426.092V421.502C297.412 419.306 295.918 418.586 294.226 418.586C291.544 418.586 290.536 419.972 290.446 421.592H291.67C291.76 420.242 292.408 419.612 294.172 419.612C295.666 419.612 296.26 420.242 296.26 421.178C296.26 422.276 295.288 422.384 293.776 422.654C291.4 423.086 289.996 423.698 289.996 425.678C289.996 427.208 291.184 428.234 293.002 428.234ZM293.146 427.208C291.814 427.208 291.22 426.632 291.22 425.57C291.22 424.4 292.138 423.95 293.92 423.626C295.018 423.446 295.99 423.23 296.26 422.852V424.562C296.26 426.218 295.036 427.208 293.146 427.208ZM299.999 415.13V428H301.169V415.13H299.999ZM303.646 415.13V428H304.816V415.13H303.646ZM310.049 427.946C309.563 429.638 308.843 430.196 307.997 430.196C307.691 430.196 307.547 430.178 307.277 430.142V431.15C307.655 431.204 307.871 431.222 308.159 431.222C309.401 431.222 310.193 430.556 311.093 428.27L314.783 418.82H313.523L310.661 426.47H310.625L307.655 418.82H306.341L310.049 427.946ZM320.232 418.82V419.846H321.582V425.624C321.582 427.622 322.41 428.072 323.76 428.072C324.048 428.072 324.264 428.054 324.624 428V427.01C324.354 427.028 324.21 427.046 323.922 427.046C323.022 427.046 322.752 426.776 322.752 425.642V419.846H324.624V418.82H322.752V415.76H321.582V418.82H320.232ZM330.175 428.252C332.911 428.252 334.585 426.272 334.585 423.428C334.585 420.566 332.911 418.586 330.175 418.586C327.421 418.586 325.765 420.566 325.765 423.428C325.765 426.272 327.421 428.252 330.175 428.252ZM330.175 427.226C328.015 427.226 326.989 425.534 326.989 423.428C326.989 421.304 328.015 419.612 330.175 419.612C332.317 419.612 333.361 421.304 333.361 423.428C333.361 425.534 332.317 427.226 330.175 427.226ZM336.559 428H337.729V424.4L339.313 422.924L342.769 428H344.173L340.105 422.186L343.723 418.82H342.283L337.729 423.122V415.13H336.559V428ZM348.912 428.252C351.216 428.252 352.476 426.866 352.926 425.192H351.738C351.558 425.948 350.838 427.244 348.93 427.244C346.77 427.244 345.78 425.516 345.762 423.644H353.034C353.052 423.5 353.052 423.248 353.052 422.996C353.052 420.44 351.558 418.586 348.912 418.586C346.266 418.586 344.538 420.476 344.538 423.41C344.538 426.2 346.104 428.252 348.912 428.252ZM348.858 419.594C350.748 419.594 351.81 420.98 351.81 422.618H345.762C345.852 420.908 347.076 419.594 348.858 419.594ZM355.033 428H356.203V422.204C356.203 420.854 357.337 419.63 359.083 419.63C360.667 419.63 361.207 420.638 361.207 421.808V428H362.377V421.556C362.377 419.522 361.009 418.604 359.371 418.604C357.733 418.604 356.743 419.378 356.239 420.134H356.203V418.82H355.033V428ZM364.6 415.472V416.984H366.112V415.472H364.6ZM364.78 418.82V428H365.95V418.82H364.78ZM367.818 427.1V428H375.09V426.974H369.33V426.938L374.91 419.558V418.82H368.124V419.846H373.272V419.882L367.818 427.1ZM380.428 428.252C382.732 428.252 383.992 426.866 384.442 425.192H383.254C383.074 425.948 382.354 427.244 380.446 427.244C378.286 427.244 377.296 425.516 377.278 423.644H384.55C384.568 423.5 384.568 423.248 384.568 422.996C384.568 420.44 383.074 418.586 380.428 418.586C377.782 418.586 376.054 420.476 376.054 423.41C376.054 426.2 377.62 428.252 380.428 428.252ZM380.374 419.594C382.264 419.594 383.326 420.98 383.326 422.618H377.278C377.368 420.908 378.592 419.594 380.374 419.594ZM393.264 420.368C392.724 419.396 391.752 418.604 390.168 418.604C387.918 418.604 386.118 420.404 386.118 423.41C386.118 426.434 387.918 428.234 390.15 428.234C391.752 428.234 392.724 427.406 393.264 426.506H393.3V428H394.47V415.13H393.3V420.368H393.264ZM390.294 427.208C388.386 427.208 387.342 425.48 387.342 423.41C387.342 421.358 388.386 419.63 390.294 419.63C392.058 419.63 393.3 421.106 393.3 423.41C393.3 425.732 392.058 427.208 390.294 427.208Z" fill="#F0F0F0"/>
<path d="M324.693 391.41C323.379 393.228 322.227 395.928 322.227 399.294C322.227 402.552 323.379 405.288 324.693 407.106H325.755C324.513 404.928 323.541 402.552 323.541 399.294C323.541 395.964 324.513 393.588 325.755 391.41H324.693ZM327.89 405H332.498C336.098 405 338.132 402.57 338.132 398.592C338.132 394.614 336.134 392.13 332.534 392.13H327.89V405ZM329.204 393.282H332.534C335.756 393.282 336.764 395.73 336.764 398.592C336.764 401.436 335.72 403.848 332.498 403.848H329.204V393.282ZM340.033 399.834V400.986H344.857V399.834H340.033ZM347.155 405H348.469V393.984H348.505L352.735 405H353.923L358.171 393.984H358.207V405H359.503V392.13H357.703L353.347 403.236H353.311L348.955 392.13H347.155V405ZM362.316 405H363.63V399.654H367.554C370.992 399.654 369.804 404.46 370.416 405H371.802V404.892C371.118 404.676 372.126 399.636 369.174 399.042V399.006C370.578 398.646 371.586 397.476 371.586 395.766C371.586 393.408 370.092 392.13 367.338 392.13H362.316V405ZM363.63 393.282H367.122C369.336 393.282 370.272 394.146 370.272 395.784C370.272 397.584 369.084 398.502 367.032 398.502H363.63V393.282ZM372.797 392.13L377.495 405H378.863L383.489 392.13H382.121L378.197 403.668H378.179L374.219 392.13H372.797ZM385.879 407.106C387.193 405.288 388.345 402.588 388.345 399.222C388.345 395.964 387.193 393.228 385.879 391.41H384.817C386.059 393.588 387.031 395.964 387.031 399.222C387.031 402.552 386.059 404.928 384.817 407.106H385.879Z" fill="#46DC78"/>
<circle cx="136" cy="136" r="112" fill="#374236"/>
<circle cx="136" cy="136" r="135.5" stroke="#F0F0F0"/>
<path d="M65.674 87.234H67.042C66.7 84.822 64.738 82.896 61.732 82.896C58.222 82.896 55.828 85.686 55.828 89.574C55.828 93.48 58.222 96.234 61.714 96.234C64.792 96.234 66.772 94.236 67.096 91.428H65.728C65.584 93.21 64.45 95.082 61.714 95.082C58.636 95.082 57.178 92.454 57.178 89.574C57.178 86.694 58.618 84.048 61.732 84.048C64.36 84.048 65.404 85.794 65.674 87.234ZM73.16 96.252C75.464 96.252 76.724 94.866 77.174 93.192H75.986C75.806 93.948 75.086 95.244 73.178 95.244C71.018 95.244 70.028 93.516 70.01 91.644H77.282C77.3 91.5 77.3 91.248 77.3 90.996C77.3 88.44 75.806 86.586 73.16 86.586C70.514 86.586 68.786 88.476 68.786 91.41C68.786 94.2 70.352 96.252 73.16 96.252ZM73.106 87.594C74.996 87.594 76.058 88.98 76.058 90.618H70.01C70.1 88.908 71.324 87.594 73.106 87.594ZM79.2812 86.82V96H80.4512V90.87C80.4512 89.088 81.6572 87.756 83.3312 87.756C83.4932 87.756 83.6912 87.774 83.8892 87.81V86.658C83.6552 86.622 83.4212 86.604 83.0972 86.604C81.7832 86.604 80.9372 87.486 80.4872 88.692H80.4512V86.82H79.2812ZM85.0743 86.82V87.846H86.4243V93.624C86.4243 95.622 87.2523 96.072 88.6023 96.072C88.8903 96.072 89.1063 96.054 89.4663 96V95.01C89.1963 95.028 89.0523 95.046 88.7643 95.046C87.8643 95.046 87.5943 94.776 87.5943 93.642V87.846H89.4663V86.82H87.5943V83.76H86.4243V86.82H85.0743ZM91.3348 83.472V84.984H92.8468V83.472H91.3348ZM91.5148 86.82V96H92.6848V86.82H91.5148ZM96.8573 96V87.846H98.6753V86.82H96.8573V85.452C96.8573 84.318 97.0733 84.048 97.9553 84.048C98.2073 84.048 98.3513 84.066 98.6753 84.084V83.094C98.2793 83.04 98.0633 83.022 97.7933 83.022C96.4793 83.022 95.6873 83.472 95.6873 85.47V86.82H94.3913V87.846H95.6873V96H96.8573ZM99.7373 83.472V84.984H101.249V83.472H99.7373ZM99.9353 86.82V96H101.105V86.82H99.9353ZM110.18 90.042H111.404C111.188 88.098 109.694 86.604 107.462 86.604C104.834 86.604 103.07 88.548 103.07 91.41C103.07 94.29 104.834 96.234 107.462 96.234C109.694 96.234 111.278 94.704 111.404 92.724H110.18C110.108 93.84 109.388 95.226 107.462 95.226C105.212 95.226 104.294 93.3 104.294 91.41C104.294 89.538 105.212 87.63 107.462 87.63C109.37 87.63 110.108 89.016 110.18 90.042ZM115.893 96.234C117.405 96.234 118.485 95.658 119.133 94.614H119.169C119.223 95.766 119.691 96.072 120.447 96.072C120.663 96.072 120.861 96.036 121.059 96V95.154C120.951 95.172 120.897 95.172 120.807 95.172C120.411 95.172 120.303 94.83 120.303 94.092V89.502C120.303 87.306 118.809 86.586 117.117 86.586C114.435 86.586 113.427 87.972 113.337 89.592H114.561C114.651 88.242 115.299 87.612 117.063 87.612C118.557 87.612 119.151 88.242 119.151 89.178C119.151 90.276 118.179 90.384 116.667 90.654C114.291 91.086 112.887 91.698 112.887 93.678C112.887 95.208 114.075 96.234 115.893 96.234ZM116.037 95.208C114.705 95.208 114.111 94.632 114.111 93.57C114.111 92.4 115.029 91.95 116.811 91.626C117.909 91.446 118.881 91.23 119.151 90.852V92.562C119.151 94.218 117.927 95.208 116.037 95.208ZM121.749 86.82V87.846H123.099V93.624C123.099 95.622 123.927 96.072 125.277 96.072C125.565 96.072 125.781 96.054 126.141 96V95.01C125.871 95.028 125.727 95.046 125.439 95.046C124.539 95.046 124.269 94.776 124.269 93.642V87.846H126.141V86.82H124.269V83.76H123.099V86.82H121.749ZM131.657 96.252C133.961 96.252 135.221 94.866 135.671 93.192H134.483C134.303 93.948 133.583 95.244 131.675 95.244C129.515 95.244 128.525 93.516 128.507 91.644H135.779C135.797 91.5 135.797 91.248 135.797 90.996C135.797 88.44 134.303 86.586 131.657 86.586C129.011 86.586 127.283 88.476 127.283 91.41C127.283 94.2 128.849 96.252 131.657 96.252ZM131.603 87.594C133.493 87.594 134.555 88.98 134.555 90.618H128.507C128.597 88.908 129.821 87.594 131.603 87.594ZM149.106 88.368C148.566 87.396 147.594 86.604 146.01 86.604C143.76 86.604 141.96 88.404 141.96 91.41C141.96 94.434 143.76 96.234 145.992 96.234C147.594 96.234 148.566 95.406 149.106 94.506H149.142V96H150.312V83.13H149.142V88.368H149.106ZM146.136 95.208C144.228 95.208 143.184 93.48 143.184 91.41C143.184 89.358 144.228 87.63 146.136 87.63C147.9 87.63 149.142 89.106 149.142 91.41C149.142 93.732 147.9 95.208 146.136 95.208ZM155.257 96.234C156.769 96.234 157.849 95.658 158.497 94.614H158.533C158.587 95.766 159.055 96.072 159.811 96.072C160.027 96.072 160.225 96.036 160.423 96V95.154C160.315 95.172 160.261 95.172 160.171 95.172C159.775 95.172 159.667 94.83 159.667 94.092V89.502C159.667 87.306 158.173 86.586 156.481 86.586C153.799 86.586 152.791 87.972 152.701 89.592H153.925C154.015 88.242 154.663 87.612 156.427 87.612C157.921 87.612 158.515 88.242 158.515 89.178C158.515 90.276 157.543 90.384 156.031 90.654C153.655 91.086 152.251 91.698 152.251 93.678C152.251 95.208 153.439 96.234 155.257 96.234ZM155.401 95.208C154.069 95.208 153.475 94.632 153.475 93.57C153.475 92.4 154.393 91.95 156.175 91.626C157.273 91.446 158.245 91.23 158.515 90.852V92.562C158.515 94.218 157.291 95.208 155.401 95.208ZM161.114 86.82V87.846H162.464V93.624C162.464 95.622 163.292 96.072 164.642 96.072C164.93 96.072 165.146 96.054 165.506 96V95.01C165.236 95.028 165.092 95.046 164.804 95.046C163.904 95.046 163.634 94.776 163.634 93.642V87.846H165.506V86.82H163.634V83.76H162.464V86.82H161.114ZM169.759 96.234C171.271 96.234 172.351 95.658 172.999 94.614H173.035C173.089 95.766 173.557 96.072 174.313 96.072C174.529 96.072 174.727 96.036 174.925 96V95.154C174.817 95.172 174.763 95.172 174.673 95.172C174.277 95.172 174.169 94.83 174.169 94.092V89.502C174.169 87.306 172.675 86.586 170.983 86.586C168.301 86.586 167.293 87.972 167.203 89.592H168.427C168.517 88.242 169.165 87.612 170.929 87.612C172.423 87.612 173.017 88.242 173.017 89.178C173.017 90.276 172.045 90.384 170.533 90.654C168.157 91.086 166.753 91.698 166.753 93.678C166.753 95.208 167.941 96.234 169.759 96.234ZM169.903 95.208C168.571 95.208 167.977 94.632 167.977 93.57C167.977 92.4 168.895 91.95 170.677 91.626C171.775 91.446 172.747 91.23 173.017 90.852V92.562C173.017 94.218 171.793 95.208 169.903 95.208ZM183.206 96V87.846H185.024V86.82H183.206V85.452C183.206 84.318 183.422 84.048 184.304 84.048C184.556 84.048 184.7 84.066 185.024 84.084V83.094C184.628 83.04 184.412 83.022 184.142 83.022C182.828 83.022 182.036 83.472 182.036 85.47V86.82H180.74V87.846H182.036V96H183.206ZM186.845 86.82V96H188.015V90.87C188.015 89.088 189.221 87.756 190.895 87.756C191.057 87.756 191.255 87.774 191.453 87.81V86.658C191.219 86.622 190.985 86.604 190.661 86.604C189.347 86.604 188.501 87.486 188.051 88.692H188.015V86.82H186.845ZM196.597 96.252C199.333 96.252 201.007 94.272 201.007 91.428C201.007 88.566 199.333 86.586 196.597 86.586C193.843 86.586 192.187 88.566 192.187 91.428C192.187 94.272 193.843 96.252 196.597 96.252ZM196.597 95.226C194.437 95.226 193.411 93.534 193.411 91.428C193.411 89.304 194.437 87.612 196.597 87.612C198.739 87.612 199.783 89.304 199.783 91.428C199.783 93.534 198.739 95.226 196.597 95.226ZM202.981 96H204.151V90.204C204.151 88.872 205.105 87.63 206.707 87.63C208.237 87.63 208.507 88.656 208.507 89.808V96H209.677V90.204C209.677 88.872 210.649 87.63 212.251 87.63C213.763 87.63 214.051 88.656 214.051 89.808V96H215.221V89.556C215.221 87.648 214.267 86.604 212.503 86.604C211.063 86.604 210.073 87.378 209.479 88.296H209.443C209.083 87.198 208.255 86.604 206.959 86.604C205.519 86.604 204.655 87.378 204.187 88.116H204.151V86.82H202.981V96ZM133.37 129.472V130.984H134.882V129.472H133.37ZM133.55 132.82V142H134.72V132.82H133.55ZM140.782 136.654C139.378 136.294 138.154 136.15 138.154 134.998C138.154 134.134 138.874 133.63 140.188 133.63C141.988 133.63 142.456 134.584 142.618 135.394H143.86C143.698 133.882 142.564 132.604 140.188 132.604C138.118 132.604 136.93 133.576 136.93 135.07C136.93 136.852 138.64 137.284 140.332 137.698C141.61 138.004 142.978 138.148 142.978 139.498C142.978 140.398 142.384 141.208 140.62 141.208C138.694 141.208 137.884 140.254 137.812 138.994H136.57C136.624 140.83 138.046 142.234 140.602 142.234C142.87 142.234 144.202 141.136 144.202 139.462C144.202 137.554 142.51 137.068 140.782 136.654ZM157.393 134.368C156.853 133.396 155.881 132.604 154.297 132.604C152.047 132.604 150.247 134.404 150.247 137.41C150.247 140.434 152.047 142.234 154.279 142.234C155.881 142.234 156.853 141.406 157.393 140.506H157.429V142H158.599V129.13H157.429V134.368H157.393ZM154.423 141.208C152.515 141.208 151.471 139.48 151.471 137.41C151.471 135.358 152.515 133.63 154.423 133.63C156.187 133.63 157.429 135.106 157.429 137.41C157.429 139.732 156.187 141.208 154.423 141.208ZM160.896 129.472V130.984H162.408V129.472H160.896ZM161.076 132.82V142H162.246V132.82H161.076ZM171.368 141.586C171.368 143.458 170.27 144.268 168.416 144.268C166.652 144.268 165.86 143.458 165.68 142.486H164.456C164.6 144.088 165.914 145.294 168.398 145.294C170.918 145.294 172.538 144.016 172.538 141.424V132.82H171.368V134.26H171.332C170.792 133.342 169.784 132.604 168.236 132.604C166.058 132.604 164.204 134.044 164.204 137.068C164.204 140.128 166.058 141.568 168.236 141.568C169.784 141.568 170.792 140.83 171.332 139.876H171.368V141.586ZM168.398 133.63C170.09 133.63 171.368 134.746 171.368 137.068C171.368 139.426 170.09 140.542 168.398 140.542C166.508 140.542 165.428 139.174 165.428 137.068C165.428 134.998 166.508 133.63 168.398 133.63ZM174.835 129.472V130.984H176.347V129.472H174.835ZM175.015 132.82V142H176.185V132.82H175.015ZM177.89 132.82V133.846H179.24V139.624C179.24 141.622 180.068 142.072 181.418 142.072C181.706 142.072 181.922 142.054 182.282 142V141.01C182.012 141.028 181.868 141.046 181.58 141.046C180.68 141.046 180.41 140.776 180.41 139.642V133.846H182.282V132.82H180.41V129.76H179.24V132.82H177.89ZM184.151 129.472V130.984H185.663V129.472H184.151ZM184.331 132.82V142H185.501V132.82H184.331ZM187.369 141.1V142H194.641V140.974H188.881V140.938L194.461 133.558V132.82H187.675V133.846H192.823V133.882L187.369 141.1ZM199.979 142.252C202.283 142.252 203.543 140.866 203.993 139.192H202.805C202.625 139.948 201.905 141.244 199.997 141.244C197.837 141.244 196.847 139.516 196.829 137.644H204.101C204.119 137.5 204.119 137.248 204.119 136.996C204.119 134.44 202.625 132.586 199.979 132.586C197.333 132.586 195.605 134.476 195.605 137.41C195.605 140.2 197.171 142.252 199.979 142.252ZM199.925 133.594C201.815 133.594 202.877 134.98 202.877 136.618H196.829C196.919 134.908 198.143 133.594 199.925 133.594ZM212.814 134.368C212.274 133.396 211.302 132.604 209.718 132.604C207.468 132.604 205.668 134.404 205.668 137.41C205.668 140.434 207.468 142.234 209.7 142.234C211.302 142.234 212.274 141.406 212.814 140.506H212.85V142H214.02V129.13H212.85V134.368H212.814ZM209.844 141.208C207.936 141.208 206.892 139.48 206.892 137.41C206.892 135.358 207.936 133.63 209.844 133.63C211.608 133.63 212.85 135.106 212.85 137.41C212.85 139.732 211.608 141.208 209.844 141.208ZM55.846 152.472V153.984H57.358V152.472H55.846ZM56.026 155.82V165H57.196V155.82H56.026ZM59.6731 165H60.8431V159.204C60.8431 157.854 61.9771 156.63 63.7231 156.63C65.3071 156.63 65.8471 157.638 65.8471 158.808V165H67.0171V158.556C67.0171 156.522 65.6491 155.604 64.0111 155.604C62.3731 155.604 61.3831 156.378 60.8791 157.134H60.8431V155.82H59.6731V165ZM68.4722 155.82V156.846H69.8222V162.624C69.8222 164.622 70.6502 165.072 72.0002 165.072C72.2882 165.072 72.5042 165.054 72.8642 165V164.01C72.5942 164.028 72.4502 164.046 72.1622 164.046C71.2622 164.046 70.9922 163.776 70.9922 162.642V156.846H72.8642V155.82H70.9922V152.76H69.8222V155.82H68.4722ZM78.416 165.252C81.152 165.252 82.826 163.272 82.826 160.428C82.826 157.566 81.152 155.586 78.416 155.586C75.662 155.586 74.006 157.566 74.006 160.428C74.006 163.272 75.662 165.252 78.416 165.252ZM78.416 164.226C76.256 164.226 75.23 162.534 75.23 160.428C75.23 158.304 76.256 156.612 78.416 156.612C80.558 156.612 81.602 158.304 81.602 160.428C81.602 162.534 80.558 164.226 78.416 164.226ZM89.4139 165H90.5839V159.204C90.5839 157.854 91.7179 156.63 93.4639 156.63C95.0479 156.63 95.5879 157.638 95.5879 158.808V165H96.7579V158.556C96.7579 156.522 95.3899 155.604 93.7519 155.604C92.1139 155.604 91.1239 156.378 90.6199 157.134H90.5839V155.82H89.4139V165ZM103.051 165.252C105.787 165.252 107.461 163.272 107.461 160.428C107.461 157.566 105.787 155.586 103.051 155.586C100.297 155.586 98.6407 157.566 98.6407 160.428C98.6407 163.272 100.297 165.252 103.051 165.252ZM103.051 164.226C100.891 164.226 99.8647 162.534 99.8647 160.428C99.8647 158.304 100.891 156.612 103.051 156.612C105.193 156.612 106.237 158.304 106.237 160.428C106.237 162.534 105.193 164.226 103.051 164.226ZM109.435 165H110.605V159.204C110.605 157.854 111.739 156.63 113.485 156.63C115.069 156.63 115.609 157.638 115.609 158.808V165H116.779V158.556C116.779 156.522 115.411 155.604 113.773 155.604C112.135 155.604 111.145 156.378 110.641 157.134H110.605V155.82H109.435V165ZM118.788 159.834V160.986H123.612V159.834H118.788ZM127.495 165V156.846H129.313V155.82H127.495V154.452C127.495 153.318 127.711 153.048 128.593 153.048C128.845 153.048 128.989 153.066 129.313 153.084V152.094C128.917 152.04 128.701 152.022 128.431 152.022C127.117 152.022 126.325 152.472 126.325 154.47V155.82H125.029V156.846H126.325V165H127.495ZM132.214 162.012V155.82H131.044V162.264C131.044 164.298 132.394 165.216 134.05 165.216C135.688 165.216 136.678 164.46 137.182 163.704H137.218V165H138.388V155.82H137.218V161.616C137.218 162.966 136.066 164.19 134.338 164.19C132.736 164.19 132.214 163.182 132.214 162.012ZM140.881 165H142.051V159.204C142.051 157.854 143.185 156.63 144.931 156.63C146.515 156.63 147.055 157.638 147.055 158.808V165H148.225V158.556C148.225 156.522 146.857 155.604 145.219 155.604C143.581 155.604 142.591 156.378 142.087 157.134H142.051V155.82H140.881V165ZM157.271 164.586C157.271 166.458 156.173 167.268 154.319 167.268C152.555 167.268 151.763 166.458 151.583 165.486H150.359C150.503 167.088 151.817 168.294 154.301 168.294C156.821 168.294 158.441 167.016 158.441 164.424V155.82H157.271V157.26H157.235C156.695 156.342 155.687 155.604 154.139 155.604C151.961 155.604 150.107 157.044 150.107 160.068C150.107 163.128 151.961 164.568 154.139 164.568C155.687 164.568 156.695 163.83 157.235 162.876H157.271V164.586ZM154.301 156.63C155.993 156.63 157.271 157.746 157.271 160.068C157.271 162.426 155.993 163.542 154.301 163.542C152.411 163.542 151.331 162.174 151.331 160.068C151.331 157.998 152.411 156.63 154.301 156.63ZM160.739 152.472V153.984H162.251V152.472H160.739ZM160.919 155.82V165H162.089V155.82H160.919ZM165.772 163.434C166.312 164.424 167.266 165.216 168.868 165.216C171.1 165.216 172.9 163.416 172.9 160.41C172.9 157.386 171.1 155.586 168.868 155.586C167.266 155.586 166.294 156.414 165.772 157.296H165.736V152.13H164.566V165H165.736V163.434H165.772ZM168.724 156.594C170.632 156.594 171.676 158.34 171.676 160.41C171.676 162.462 170.632 164.19 168.724 164.19C166.96 164.19 165.736 162.714 165.736 160.41C165.736 158.088 166.96 156.594 168.724 156.594ZM174.875 152.13V165H176.045V152.13H174.875ZM182.376 165.252C184.68 165.252 185.94 163.866 186.39 162.192H185.202C185.022 162.948 184.302 164.244 182.394 164.244C180.234 164.244 179.244 162.516 179.226 160.644H186.498C186.516 160.5 186.516 160.248 186.516 159.996C186.516 157.44 185.022 155.586 182.376 155.586C179.73 155.586 178.002 157.476 178.002 160.41C178.002 163.2 179.568 165.252 182.376 165.252ZM182.322 156.594C184.212 156.594 185.274 157.98 185.274 159.618H179.226C179.316 157.908 180.54 156.594 182.322 156.594ZM55.342 178.82V179.846H56.692V185.624C56.692 187.622 57.52 188.072 58.87 188.072C59.158 188.072 59.374 188.054 59.734 188V187.01C59.464 187.028 59.32 187.046 59.032 187.046C58.132 187.046 57.862 186.776 57.862 185.642V179.846H59.734V178.82H57.862V175.76H56.692V178.82H55.342ZM65.2859 188.252C68.0219 188.252 69.6959 186.272 69.6959 183.428C69.6959 180.566 68.0219 178.586 65.2859 178.586C62.5319 178.586 60.8759 180.566 60.8759 183.428C60.8759 186.272 62.5319 188.252 65.2859 188.252ZM65.2859 187.226C63.1259 187.226 62.0999 185.534 62.0999 183.428C62.0999 181.304 63.1259 179.612 65.2859 179.612C67.4279 179.612 68.4719 181.304 68.4719 183.428C68.4719 185.534 67.4279 187.226 65.2859 187.226ZM71.6698 188H72.8398V184.4L74.4238 182.924L77.8798 188H79.2838L75.2158 182.186L78.8338 178.82H77.3938L72.8398 183.122V175.13H71.6698V188ZM84.0226 188.252C86.3266 188.252 87.5866 186.866 88.0366 185.192H86.8486C86.6686 185.948 85.9486 187.244 84.0406 187.244C81.8806 187.244 80.8906 185.516 80.8726 183.644H88.1446C88.1626 183.5 88.1626 183.248 88.1626 182.996C88.1626 180.44 86.6686 178.586 84.0226 178.586C81.3766 178.586 79.6486 180.476 79.6486 183.41C79.6486 186.2 81.2146 188.252 84.0226 188.252ZM83.9686 179.594C85.8586 179.594 86.9206 180.98 86.9206 182.618H80.8726C80.9626 180.908 82.1866 179.594 83.9686 179.594ZM90.1437 188H91.3137V182.204C91.3137 180.854 92.4477 179.63 94.1937 179.63C95.7777 179.63 96.3177 180.638 96.3177 181.808V188H97.4877V181.556C97.4877 179.522 96.1197 178.604 94.4817 178.604C92.8437 178.604 91.8537 179.378 91.3497 180.134H91.3137V178.82H90.1437V188ZM103.475 182.654C102.071 182.294 100.847 182.15 100.847 180.998C100.847 180.134 101.567 179.63 102.881 179.63C104.681 179.63 105.149 180.584 105.311 181.394H106.553C106.391 179.882 105.257 178.604 102.881 178.604C100.811 178.604 99.6226 179.576 99.6226 181.07C99.6226 182.852 101.333 183.284 103.025 183.698C104.303 184.004 105.671 184.148 105.671 185.498C105.671 186.398 105.077 187.208 103.313 187.208C101.387 187.208 100.577 186.254 100.505 184.994H99.2626C99.3166 186.83 100.739 188.234 103.295 188.234C105.563 188.234 106.895 187.136 106.895 185.462C106.895 183.554 105.203 183.068 103.475 182.654ZM116.27 174.41C114.956 176.228 113.804 178.928 113.804 182.294C113.804 185.552 114.956 188.288 116.27 190.106H117.332C116.09 187.928 115.118 185.552 115.118 182.294C115.118 178.964 116.09 176.588 117.332 174.41H116.27ZM119.467 188H120.781V176.984H120.817L127.765 188H129.367V175.13H128.071V186.146H128.035L121.069 175.13H119.467V188ZM133.481 180.836V176.282H140.771V175.13H132.167V188H133.481V181.988H139.475V180.836H133.481ZM146.409 188H147.705V176.282H152.079V175.13H142.017V176.282H146.409V188ZM154.607 182.654C153.203 182.294 151.979 182.15 151.979 180.998C151.979 180.134 152.699 179.63 154.013 179.63C155.813 179.63 156.281 180.584 156.443 181.394H157.685C157.523 179.882 156.389 178.604 154.013 178.604C151.943 178.604 150.755 179.576 150.755 181.07C150.755 182.852 152.465 183.284 154.157 183.698C155.435 184.004 156.803 184.148 156.803 185.498C156.803 186.398 156.209 187.208 154.445 187.208C152.519 187.208 151.709 186.254 151.637 184.994H150.395C150.449 186.83 151.871 188.234 154.427 188.234C156.695 188.234 158.027 187.136 158.027 185.462C158.027 183.554 156.335 183.068 154.607 182.654ZM160.432 190.106C161.746 188.288 162.898 185.588 162.898 182.222C162.898 178.964 161.746 176.228 160.432 174.41H159.37C160.612 176.588 161.584 178.964 161.584 182.222C161.584 185.552 160.612 187.928 159.37 190.106H160.432Z" fill="#F0F0F0"/>
<path d="M60.004 119.252C62.74 119.252 64.414 117.272 64.414 114.428C64.414 111.566 62.74 109.586 60.004 109.586C57.25 109.586 55.594 111.566 55.594 114.428C55.594 117.272 57.25 119.252 60.004 119.252ZM60.004 118.226C57.844 118.226 56.818 116.534 56.818 114.428C56.818 112.304 57.844 110.612 60.004 110.612C62.146 110.612 63.19 112.304 63.19 114.428C63.19 116.534 62.146 118.226 60.004 118.226ZM65.3537 110.846H66.6497V119H67.8197V110.846H70.9337V119H72.1037V110.846H73.9217V109.82H72.1037V108.452C72.1037 107.318 72.3197 107.048 73.2017 107.048C73.4537 107.048 73.5977 107.066 73.9217 107.084V106.094C73.5077 106.04 73.2917 106.022 73.0397 106.022C71.7257 106.022 70.9337 106.472 70.9337 108.47V109.82H67.8197V108.452C67.8197 107.318 68.0357 107.048 68.9177 107.048C69.1697 107.048 69.3137 107.066 69.6377 107.084V106.094C69.2417 106.04 69.0257 106.022 68.7557 106.022C67.4417 106.022 66.6497 106.472 66.6497 108.47V109.82H65.3537V110.846ZM74.9477 106.472V107.984H76.4597V106.472H74.9477ZM75.1457 109.82V119H76.3157V109.82H75.1457ZM85.3791 113.042H86.6031C86.3871 111.098 84.8931 109.604 82.6611 109.604C80.0331 109.604 78.2691 111.548 78.2691 114.41C78.2691 117.29 80.0331 119.234 82.6611 119.234C84.8931 119.234 86.4771 117.704 86.6031 115.724H85.3791C85.3071 116.84 84.5871 118.226 82.6611 118.226C80.4111 118.226 79.4931 116.3 79.4931 114.41C79.4931 112.538 80.4111 110.63 82.6611 110.63C84.5691 110.63 85.3071 112.016 85.3791 113.042ZM88.3557 106.472V107.984H89.8677V106.472H88.3557ZM88.5357 109.82V119H89.7057V109.82H88.5357ZM94.6509 119.234C96.1629 119.234 97.2429 118.658 97.8909 117.614H97.9269C97.9809 118.766 98.4489 119.072 99.2049 119.072C99.4209 119.072 99.6189 119.036 99.8169 119V118.154C99.7089 118.172 99.6549 118.172 99.5649 118.172C99.1689 118.172 99.0609 117.83 99.0609 117.092V112.502C99.0609 110.306 97.5669 109.586 95.8749 109.586C93.1929 109.586 92.1849 110.972 92.0949 112.592H93.3189C93.4089 111.242 94.0569 110.612 95.8209 110.612C97.3149 110.612 97.9089 111.242 97.9089 112.178C97.9089 113.276 96.9369 113.384 95.4249 113.654C93.0489 114.086 91.6449 114.698 91.6449 116.678C91.6449 118.208 92.8329 119.234 94.6509 119.234ZM94.7949 118.208C93.4629 118.208 92.8689 117.632 92.8689 116.57C92.8689 115.4 93.7869 114.95 95.5689 114.626C96.6669 114.446 97.6389 114.23 97.9089 113.852V115.562C97.9089 117.218 96.6849 118.208 94.7949 118.208ZM101.648 106.13V119H102.818V106.13H101.648ZM116.499 113.042H117.723C117.507 111.098 116.013 109.604 113.781 109.604C111.153 109.604 109.389 111.548 109.389 114.41C109.389 117.29 111.153 119.234 113.781 119.234C116.013 119.234 117.597 117.704 117.723 115.724H116.499C116.427 116.84 115.707 118.226 113.781 118.226C111.531 118.226 110.613 116.3 110.613 114.41C110.613 112.538 111.531 110.63 113.781 110.63C115.689 110.63 116.427 112.016 116.499 113.042ZM122.212 119.234C123.724 119.234 124.804 118.658 125.452 117.614H125.488C125.542 118.766 126.01 119.072 126.766 119.072C126.982 119.072 127.18 119.036 127.378 119V118.154C127.27 118.172 127.216 118.172 127.126 118.172C126.73 118.172 126.622 117.83 126.622 117.092V112.502C126.622 110.306 125.128 109.586 123.436 109.586C120.754 109.586 119.746 110.972 119.656 112.592H120.88C120.97 111.242 121.618 110.612 123.382 110.612C124.876 110.612 125.47 111.242 125.47 112.178C125.47 113.276 124.498 113.384 122.986 113.654C120.61 114.086 119.206 114.698 119.206 116.678C119.206 118.208 120.394 119.234 122.212 119.234ZM122.356 118.208C121.024 118.208 120.43 117.632 120.43 116.57C120.43 115.4 121.348 114.95 123.13 114.626C124.228 114.446 125.2 114.23 125.47 113.852V115.562C125.47 117.218 124.246 118.208 122.356 118.208ZM129.209 109.82V119H130.379V113.87C130.379 112.088 131.585 110.756 133.259 110.756C133.421 110.756 133.619 110.774 133.817 110.81V109.658C133.583 109.622 133.349 109.604 133.025 109.604C131.711 109.604 130.865 110.486 130.415 111.692H130.379V109.82H129.209ZM136.682 117.434C137.222 118.424 138.176 119.216 139.778 119.216C142.01 119.216 143.81 117.416 143.81 114.41C143.81 111.386 142.01 109.586 139.778 109.586C138.176 109.586 137.204 110.414 136.682 111.296H136.646V106.13H135.476V119H136.646V117.434H136.682ZM139.634 110.594C141.542 110.594 142.586 112.34 142.586 114.41C142.586 116.462 141.542 118.19 139.634 118.19C137.87 118.19 136.646 116.714 136.646 114.41C136.646 112.088 137.87 110.594 139.634 110.594ZM149.763 119.252C152.499 119.252 154.173 117.272 154.173 114.428C154.173 111.566 152.499 109.586 149.763 109.586C147.009 109.586 145.353 111.566 145.353 114.428C145.353 117.272 147.009 119.252 149.763 119.252ZM149.763 118.226C147.603 118.226 146.577 116.534 146.577 114.428C146.577 112.304 147.603 110.612 149.763 110.612C151.905 110.612 152.949 112.304 152.949 114.428C152.949 116.534 151.905 118.226 149.763 118.226ZM156.147 119H157.317V113.204C157.317 111.854 158.451 110.63 160.197 110.63C161.781 110.63 162.321 111.638 162.321 112.808V119H163.491V112.556C163.491 110.522 162.123 109.604 160.485 109.604C158.847 109.604 157.857 110.378 157.353 111.134H157.317V109.82H156.147V119ZM177.098 113.042H178.322C178.106 111.098 176.612 109.604 174.38 109.604C171.752 109.604 169.988 111.548 169.988 114.41C169.988 117.29 171.752 119.234 174.38 119.234C176.612 119.234 178.196 117.704 178.322 115.724H177.098C177.026 116.84 176.306 118.226 174.38 118.226C172.13 118.226 171.212 116.3 171.212 114.41C171.212 112.538 172.13 110.63 174.38 110.63C176.288 110.63 177.026 112.016 177.098 113.042ZM180.254 109.82V119H181.424V113.87C181.424 112.088 182.63 110.756 184.304 110.756C184.466 110.756 184.664 110.774 184.862 110.81V109.658C184.628 109.622 184.394 109.604 184.07 109.604C182.756 109.604 181.91 110.486 181.46 111.692H181.424V109.82H180.254ZM189.97 119.252C192.274 119.252 193.534 117.866 193.984 116.192H192.796C192.616 116.948 191.896 118.244 189.988 118.244C187.828 118.244 186.838 116.516 186.82 114.644H194.092C194.11 114.5 194.11 114.248 194.11 113.996C194.11 111.44 192.616 109.586 189.97 109.586C187.324 109.586 185.596 111.476 185.596 114.41C185.596 117.2 187.162 119.252 189.97 119.252ZM189.916 110.594C191.806 110.594 192.868 111.98 192.868 113.618H186.82C186.91 111.908 188.134 110.594 189.916 110.594ZM202.805 111.368C202.265 110.396 201.293 109.604 199.709 109.604C197.459 109.604 195.659 111.404 195.659 114.41C195.659 117.434 197.459 119.234 199.691 119.234C201.293 119.234 202.265 118.406 202.805 117.506H202.841V119H204.011V106.13H202.841V111.368H202.805ZM199.835 118.208C197.927 118.208 196.883 116.48 196.883 114.41C196.883 112.358 197.927 110.63 199.835 110.63C201.599 110.63 202.841 112.106 202.841 114.41C202.841 116.732 201.599 118.208 199.835 118.208ZM206.308 106.472V107.984H207.82V106.472H206.308ZM206.488 109.82V119H207.658V109.82H206.488ZM209.364 109.82V110.846H210.714V116.624C210.714 118.622 211.542 119.072 212.892 119.072C213.18 119.072 213.396 119.054 213.756 119V118.01C213.486 118.028 213.342 118.046 213.054 118.046C212.154 118.046 211.884 117.776 211.884 116.642V110.846H213.756V109.82H211.884V106.76H210.714V109.82H209.364ZM56.026 132.82V142H57.196V136.87C57.196 135.088 58.402 133.756 60.076 133.756C60.238 133.756 60.436 133.774 60.634 133.81V132.658C60.4 132.622 60.166 132.604 59.842 132.604C58.528 132.604 57.682 133.486 57.232 134.692H57.196V132.82H56.026ZM65.7421 142.252C68.0461 142.252 69.3061 140.866 69.7561 139.192H68.5681C68.3881 139.948 67.6681 141.244 65.7601 141.244C63.6001 141.244 62.6101 139.516 62.5921 137.644H69.8641C69.8821 137.5 69.8821 137.248 69.8821 136.996C69.8821 134.44 68.3881 132.586 65.7421 132.586C63.0961 132.586 61.3681 134.476 61.3681 137.41C61.3681 140.2 62.9341 142.252 65.7421 142.252ZM65.6881 133.594C67.5781 133.594 68.6401 134.98 68.6401 136.618H62.5921C62.6821 134.908 63.9061 133.594 65.6881 133.594ZM78.5952 141.586C78.5952 143.458 77.4972 144.268 75.6432 144.268C73.8792 144.268 73.0872 143.458 72.9072 142.486H71.6832C71.8272 144.088 73.1412 145.294 75.6252 145.294C78.1452 145.294 79.7652 144.016 79.7652 141.424V132.82H78.5952V134.26H78.5592C78.0192 133.342 77.0112 132.604 75.4632 132.604C73.2852 132.604 71.4312 134.044 71.4312 137.068C71.4312 140.128 73.2852 141.568 75.4632 141.568C77.0112 141.568 78.0192 140.83 78.5592 139.876H78.5952V141.586ZM75.6252 133.63C77.3172 133.63 78.5952 134.746 78.5952 137.068C78.5952 139.426 77.3172 140.542 75.6252 140.542C73.7352 140.542 72.6552 139.174 72.6552 137.068C72.6552 134.998 73.7352 133.63 75.6252 133.63ZM82.0627 129.472V130.984H83.5747V129.472H82.0627ZM82.2427 132.82V142H83.4127V132.82H82.2427ZM89.4739 136.654C88.0699 136.294 86.8459 136.15 86.8459 134.998C86.8459 134.134 87.5659 133.63 88.8799 133.63C90.6799 133.63 91.1479 134.584 91.3099 135.394H92.5519C92.3899 133.882 91.2559 132.604 88.8799 132.604C86.8099 132.604 85.6219 133.576 85.6219 135.07C85.6219 136.852 87.3319 137.284 89.0239 137.698C90.3019 138.004 91.6699 138.148 91.6699 139.498C91.6699 140.398 91.0759 141.208 89.3119 141.208C87.3859 141.208 86.5759 140.254 86.5039 138.994H85.2619C85.3159 140.83 86.7379 142.234 89.2939 142.234C91.5619 142.234 92.8939 141.136 92.8939 139.462C92.8939 137.554 91.2019 137.068 89.4739 136.654ZM93.8627 132.82V133.846H95.2127V139.624C95.2127 141.622 96.0407 142.072 97.3907 142.072C97.6787 142.072 97.8947 142.054 98.2547 142V141.01C97.9847 141.028 97.8407 141.046 97.5527 141.046C96.6527 141.046 96.3827 140.776 96.3827 139.642V133.846H98.2547V132.82H96.3827V129.76H95.2127V132.82H93.8627ZM100.233 132.82V142H101.403V136.87C101.403 135.088 102.609 133.756 104.283 133.756C104.445 133.756 104.643 133.774 104.841 133.81V132.658C104.607 132.622 104.373 132.604 104.049 132.604C102.735 132.604 101.889 133.486 101.439 134.692H101.403V132.82H100.233ZM106.319 129.472V130.984H107.831V129.472H106.319ZM106.499 132.82V142H107.669V132.82H106.499ZM114 142.252C116.304 142.252 117.564 140.866 118.014 139.192H116.826C116.646 139.948 115.926 141.244 114.018 141.244C111.858 141.244 110.868 139.516 110.85 137.644H118.122C118.14 137.5 118.14 137.248 118.14 136.996C118.14 134.44 116.646 132.586 114 132.586C111.354 132.586 109.626 134.476 109.626 137.41C109.626 140.2 111.192 142.252 114 142.252ZM113.946 133.594C115.836 133.594 116.898 134.98 116.898 136.618H110.85C110.94 134.908 112.164 133.594 113.946 133.594ZM123.653 136.654C122.249 136.294 121.025 136.15 121.025 134.998C121.025 134.134 121.745 133.63 123.059 133.63C124.859 133.63 125.327 134.584 125.489 135.394H126.731C126.569 133.882 125.435 132.604 123.059 132.604C120.989 132.604 119.801 133.576 119.801 135.07C119.801 136.852 121.511 137.284 123.203 137.698C124.481 138.004 125.849 138.148 125.849 139.498C125.849 140.398 125.255 141.208 123.491 141.208C121.565 141.208 120.755 140.254 120.683 138.994H119.441C119.495 140.83 120.917 142.234 123.473 142.234C125.741 142.234 127.073 141.136 127.073 139.462C127.073 137.554 125.381 137.068 123.653 136.654Z" fill="#46DC78"/>
</svg>
