<svg width="1338" height="606" viewBox="0 0 1338 606" fill="none" xmlns="http://www.w3.org/2000/svg">
<path d="M12.96 102.56C20.68 102.56 23.96 96.12 23.96 88.2C23.96 80.28 20.68 73.8 12.96 73.8C5.24 73.8 1.96 80.28 1.96 88.2C1.96 96.12 5.24 102.56 12.96 102.56ZM12.96 98.84C8 98.84 6.48 93.88 6.48 88.2C6.48 82.52 8 77.52 12.96 77.52C17.96 77.52 19.44 82.52 19.44 88.2C19.44 93.88 17.96 98.84 12.96 98.84ZM32.4575 82.68C32.4575 80 33.6575 77.52 38.2975 77.52C41.7375 77.52 43.0175 79.44 43.0175 81.6C43.0175 84.6 41.0575 85.84 38.3375 85.84H35.8975V89.4H38.4975C41.2575 89.4 43.9775 90.32 43.9775 94.12C43.9775 97.08 42.5375 98.84 38.1775 98.84C33.3375 98.84 31.7375 96.36 31.7375 92.56H27.3375C27.3375 98.88 31.3375 102.56 38.4575 102.56C44.5375 102.56 48.4975 99.56 48.4975 94.2C48.4975 90.96 46.9775 88.56 43.3375 87.4V87.32C46.0175 86.2 47.5375 84.36 47.5375 81.4C47.5375 76.52 43.2575 73.8 38.3375 73.8C31.5375 73.8 28.0575 77.56 28.0575 82.68H32.4575ZM2.72 121.4V150H5.64V121.4H2.72ZM18.6822 138.12C15.5622 137.32 12.8422 137 12.8422 134.44C12.8422 132.52 14.4422 131.4 17.3622 131.4C21.3622 131.4 22.4022 133.52 22.7622 135.32H25.5222C25.1622 131.96 22.6422 129.12 17.3622 129.12C12.7622 129.12 10.1222 131.28 10.1222 134.6C10.1222 138.56 13.9222 139.52 17.6822 140.44C20.5222 141.12 23.5622 141.44 23.5622 144.44C23.5622 146.44 22.2422 148.24 18.3222 148.24C14.0422 148.24 12.2422 146.12 12.0822 143.32H9.32219C9.44219 147.4 12.6022 150.52 18.2822 150.52C23.3222 150.52 26.2822 148.08 26.2822 144.36C26.2822 140.12 22.5222 139.04 18.6822 138.12ZM37.7838 138.12C34.6638 137.32 31.9438 137 31.9438 134.44C31.9438 132.52 33.5438 131.4 36.4638 131.4C40.4638 131.4 41.5038 133.52 41.8638 135.32H44.6238C44.2638 131.96 41.7438 129.12 36.4638 129.12C31.8638 129.12 29.2238 131.28 29.2238 134.6C29.2238 138.56 33.0238 139.52 36.7838 140.44C39.6238 141.12 42.6638 141.44 42.6638 144.44C42.6638 146.44 41.3438 148.24 37.4238 148.24C33.1438 148.24 31.3438 146.12 31.1838 143.32H28.4238C28.5438 147.4 31.7038 150.52 37.3838 150.52C42.4238 150.52 45.3838 148.08 45.3838 144.36C45.3838 140.12 41.6238 139.04 37.7838 138.12ZM51.1253 143.36V129.6H48.5253V143.92C48.5253 148.44 51.5253 150.48 55.2053 150.48C58.8453 150.48 61.0453 148.8 62.1653 147.12H62.2453V150H64.8453V129.6H62.2453V142.48C62.2453 145.48 59.6853 148.2 55.8453 148.2C52.2853 148.2 51.1253 145.96 51.1253 143.36ZM75.0694 150.52C78.4294 150.52 80.8294 149.24 82.2694 146.92H82.3494C82.4694 149.48 83.5094 150.16 85.1894 150.16C85.6694 150.16 86.1094 150.08 86.5494 150V148.12C86.3094 148.16 86.1894 148.16 85.9894 148.16C85.1094 148.16 84.8694 147.4 84.8694 145.76V135.56C84.8694 130.68 81.5494 129.08 77.7894 129.08C71.8294 129.08 69.5894 132.16 69.3894 135.76H72.1094C72.3094 132.76 73.7494 131.36 77.6694 131.36C80.9894 131.36 82.3094 132.76 82.3094 134.84C82.3094 137.28 80.1494 137.52 76.7894 138.12C71.5094 139.08 68.3894 140.44 68.3894 144.84C68.3894 148.24 71.0294 150.52 75.0694 150.52ZM75.3894 148.24C72.4294 148.24 71.1094 146.96 71.1094 144.6C71.1094 142 73.1494 141 77.1094 140.28C79.5494 139.88 81.7094 139.4 82.3094 138.56V142.36C82.3094 146.04 79.5894 148.24 75.3894 148.24ZM89.8191 150H92.4191V137.12C92.4191 134.12 94.9391 131.4 98.8191 131.4C102.339 131.4 103.539 133.64 103.539 136.24V150H106.139V135.68C106.139 131.16 103.099 129.12 99.4591 129.12C95.8191 129.12 93.6191 130.84 92.4991 132.52H92.4191V129.6H89.8191V150ZM125.323 136.76H128.043C127.563 132.44 124.243 129.12 119.283 129.12C113.443 129.12 109.523 133.44 109.523 139.8C109.523 146.2 113.443 150.52 119.283 150.52C124.243 150.52 127.763 147.12 128.043 142.72H125.323C125.163 145.2 123.563 148.28 119.283 148.28C114.283 148.28 112.243 144 112.243 139.8C112.243 135.64 114.283 131.4 119.283 131.4C123.523 131.4 125.163 134.48 125.323 136.76ZM140.298 150.56C145.418 150.56 148.218 147.48 149.218 143.76H146.578C146.178 145.44 144.578 148.32 140.338 148.32C135.538 148.32 133.338 144.48 133.298 140.32H149.458C149.498 140 149.498 139.44 149.498 138.88C149.498 133.2 146.178 129.08 140.298 129.08C134.418 129.08 130.578 133.28 130.578 139.8C130.578 146 134.058 150.56 140.298 150.56ZM140.178 131.32C144.378 131.32 146.738 134.4 146.738 138.04H133.298C133.498 134.24 136.218 131.32 140.178 131.32ZM171.393 150.56C177.473 150.56 181.193 146.16 181.193 139.84C181.193 133.48 177.473 129.08 171.393 129.08C165.273 129.08 161.593 133.48 161.593 139.84C161.593 146.16 165.273 150.56 171.393 150.56ZM171.393 148.28C166.593 148.28 164.313 144.52 164.313 139.84C164.313 135.12 166.593 131.36 171.393 131.36C176.153 131.36 178.473 135.12 178.473 139.84C178.473 144.52 176.153 148.28 171.393 148.28ZM187.962 150V131.88H192.002V129.6H187.962V126.56C187.962 124.04 188.442 123.44 190.402 123.44C190.962 123.44 191.282 123.48 192.002 123.52V121.32C191.122 121.2 190.642 121.16 190.042 121.16C187.122 121.16 185.362 122.16 185.362 126.6V129.6H182.482V131.88H185.362V150H187.962ZM208.062 134.08V123.96H224.262V121.4H205.142V150H208.062V136.64H221.382V134.08H208.062ZM228.235 143.36V129.6H225.635V143.92C225.635 148.44 228.635 150.48 232.315 150.48C235.955 150.48 238.155 148.8 239.275 147.12H239.355V150H241.955V129.6H239.355V142.48C239.355 145.48 236.795 148.2 232.955 148.2C229.395 148.2 228.235 145.96 228.235 143.36ZM246.694 150H249.294V137.12C249.294 134.12 251.814 131.4 255.694 131.4C259.214 131.4 260.414 133.64 260.414 136.24V150H263.014V135.68C263.014 131.16 259.974 129.12 256.334 129.12C252.694 129.12 250.494 130.84 249.374 132.52H249.294V129.6H246.694V150ZM282.318 149.08C282.318 153.24 279.878 155.04 275.758 155.04C271.838 155.04 270.078 153.24 269.678 151.08H266.958C267.278 154.64 270.198 157.32 275.718 157.32C281.318 157.32 284.918 154.48 284.918 148.72V129.6H282.318V132.8H282.238C281.038 130.76 278.798 129.12 275.358 129.12C270.518 129.12 266.398 132.32 266.398 139.04C266.398 145.84 270.518 149.04 275.358 149.04C278.798 149.04 281.038 147.4 282.238 145.28H282.318V149.08ZM275.718 131.4C279.478 131.4 282.318 133.88 282.318 139.04C282.318 144.28 279.478 146.76 275.718 146.76C271.518 146.76 269.118 143.72 269.118 139.04C269.118 134.44 271.518 131.4 275.718 131.4ZM289.224 122.16V125.52H292.584V122.16H289.224ZM289.624 129.6V150H292.224V129.6H289.624ZM299.608 146.52C300.808 148.72 302.928 150.48 306.488 150.48C311.448 150.48 315.448 146.48 315.448 139.8C315.448 133.08 311.448 129.08 306.488 129.08C302.928 129.08 300.768 130.92 299.608 132.88H299.528V121.4H296.928V150H299.528V146.52H299.608ZM306.168 131.32C310.408 131.32 312.728 135.2 312.728 139.8C312.728 144.36 310.408 148.2 306.168 148.2C302.248 148.2 299.528 144.92 299.528 139.8C299.528 134.64 302.248 131.32 306.168 131.32ZM319.038 121.4V150H321.638V121.4H319.038ZM334.907 150.56C340.027 150.56 342.827 147.48 343.827 143.76H341.187C340.787 145.44 339.187 148.32 334.947 148.32C330.147 148.32 327.947 144.48 327.907 140.32H344.067C344.107 140 344.107 139.44 344.107 138.88C344.107 133.2 340.787 129.08 334.907 129.08C329.027 129.08 325.187 133.28 325.187 139.8C325.187 146 328.667 150.56 334.907 150.56ZM334.787 131.32C338.987 131.32 341.347 134.4 341.347 138.04H327.907C328.107 134.24 330.827 131.32 334.787 131.32ZM19.36 190.08L22.2 198H25.36L14.56 169.4H11.28L0.6 198H3.6L6.48 190.08H19.36ZM7.44 187.48L12.88 172.16H12.96L18.4 187.48H7.44ZM28.2566 169.4V198H30.8566V169.4H28.2566ZM50.3259 197.08C50.3259 201.24 47.8859 203.04 43.7659 203.04C39.8459 203.04 38.0859 201.24 37.6859 199.08H34.9659C35.2859 202.64 38.2059 205.32 43.7259 205.32C49.3259 205.32 52.9259 202.48 52.9259 196.72V177.6H50.3259V180.8H50.2459C49.0459 178.76 46.8059 177.12 43.3659 177.12C38.5259 177.12 34.4059 180.32 34.4059 187.04C34.4059 193.84 38.5259 197.04 43.3659 197.04C46.8059 197.04 49.0459 195.4 50.2459 193.28H50.3259V197.08ZM43.7259 179.4C47.4859 179.4 50.3259 181.88 50.3259 187.04C50.3259 192.28 47.4859 194.76 43.7259 194.76C39.5259 194.76 37.1259 191.72 37.1259 187.04C37.1259 182.44 39.5259 179.4 43.7259 179.4ZM66.2763 198.56C72.3563 198.56 76.0763 194.16 76.0763 187.84C76.0763 181.48 72.3563 177.08 66.2763 177.08C60.1562 177.08 56.4762 181.48 56.4762 187.84C56.4762 194.16 60.1562 198.56 66.2763 198.56ZM66.2763 196.28C61.4763 196.28 59.1963 192.52 59.1963 187.84C59.1963 183.12 61.4763 179.36 66.2763 179.36C71.0363 179.36 73.3563 183.12 73.3563 187.84C73.3563 192.52 71.0363 196.28 66.2763 196.28ZM79.6628 177.6V198H82.2628V186.6C82.2628 182.64 84.9428 179.68 88.6628 179.68C89.0228 179.68 89.4628 179.72 89.9028 179.8V177.24C89.3828 177.16 88.8628 177.12 88.1428 177.12C85.2228 177.12 83.3428 179.08 82.3428 181.76H82.2628V177.6H79.6628ZM97.1788 198.52C100.539 198.52 102.939 197.24 104.379 194.92H104.459C104.579 197.48 105.619 198.16 107.299 198.16C107.779 198.16 108.219 198.08 108.659 198V196.12C108.419 196.16 108.299 196.16 108.099 196.16C107.219 196.16 106.979 195.4 106.979 193.76V183.56C106.979 178.68 103.659 177.08 99.8988 177.08C93.9388 177.08 91.6988 180.16 91.4988 183.76H94.2188C94.4188 180.76 95.8588 179.36 99.7787 179.36C103.099 179.36 104.419 180.76 104.419 182.84C104.419 185.28 102.259 185.52 98.8988 186.12C93.6188 187.08 90.4988 188.44 90.4988 192.84C90.4988 196.24 93.1388 198.52 97.1788 198.52ZM97.4988 196.24C94.5388 196.24 93.2188 194.96 93.2188 192.6C93.2188 190 95.2588 189 99.2188 188.28C101.659 187.88 103.819 187.4 104.419 186.56V190.36C104.419 194.04 101.699 196.24 97.4988 196.24ZM111.928 198H114.528V185.12C114.528 182.12 117.048 179.4 120.928 179.4C124.448 179.4 125.648 181.64 125.648 184.24V198H128.248V183.68C128.248 179.16 125.208 177.12 121.568 177.12C117.928 177.12 115.728 178.84 114.608 180.52H114.528V177.6H111.928V198ZM147.513 181.04C146.313 178.88 144.153 177.12 140.633 177.12C135.633 177.12 131.632 181.12 131.632 187.8C131.632 194.52 135.633 198.52 140.592 198.52C144.153 198.52 146.313 196.68 147.513 194.68H147.593V198H150.193V169.4H147.593V181.04H147.513ZM140.913 196.24C136.673 196.24 134.353 192.4 134.353 187.8C134.353 183.24 136.673 179.4 140.913 179.4C144.833 179.4 147.593 182.68 147.593 187.8C147.593 192.96 144.833 196.24 140.913 196.24ZM174.915 181.68C170.715 180.76 167.315 179.96 167.315 176.12C167.315 173.16 169.595 171.44 173.795 171.44C178.635 171.44 180.835 173.68 181.315 177.64H184.355C183.915 172.04 179.995 168.88 173.755 168.88C167.915 168.88 164.275 171.68 164.275 176.24C164.275 181.48 168.795 182.92 173.475 184C179.315 185.32 182.315 186.04 182.275 190.28C182.275 193.44 180.475 195.96 175.195 195.96C169.235 195.96 166.515 192.96 166.115 188.52H163.075C163.475 194.96 168.395 198.52 175.315 198.52C182.115 198.52 185.315 194.84 185.315 190.2C185.315 184.4 180.755 182.96 174.915 181.68ZM187.283 177.6V179.88H190.283V192.72C190.283 197.16 192.123 198.16 195.123 198.16C195.763 198.16 196.243 198.12 197.043 198V195.8C196.443 195.84 196.123 195.88 195.483 195.88C193.483 195.88 192.883 195.28 192.883 192.76V179.88H197.043V177.6H192.883V170.8H190.283V177.6H187.283ZM205.694 198.52C209.054 198.52 211.454 197.24 212.894 194.92H212.974C213.094 197.48 214.134 198.16 215.814 198.16C216.294 198.16 216.734 198.08 217.174 198V196.12C216.934 196.16 216.814 196.16 216.614 196.16C215.734 196.16 215.494 195.4 215.494 193.76V183.56C215.494 178.68 212.174 177.08 208.414 177.08C202.454 177.08 200.214 180.16 200.014 183.76H202.734C202.934 180.76 204.374 179.36 208.294 179.36C211.614 179.36 212.934 180.76 212.934 182.84C212.934 185.28 210.774 185.52 207.414 186.12C202.134 187.08 199.014 188.44 199.014 192.84C199.014 196.24 201.654 198.52 205.694 198.52ZM206.014 196.24C203.054 196.24 201.734 194.96 201.734 192.6C201.734 190 203.774 189 207.734 188.28C210.174 187.88 212.334 187.4 212.934 186.56V190.36C212.934 194.04 210.214 196.24 206.014 196.24ZM220.444 198H223.044V185.12C223.044 182.12 225.564 179.4 229.444 179.4C232.964 179.4 234.164 181.64 234.164 184.24V198H236.764V183.68C236.764 179.16 233.724 177.12 230.084 177.12C226.444 177.12 224.244 178.84 223.124 180.52H223.044V177.6H220.444V198ZM256.028 181.04C254.828 178.88 252.668 177.12 249.148 177.12C244.148 177.12 240.148 181.12 240.148 187.8C240.148 194.52 244.148 198.52 249.108 198.52C252.668 198.52 254.828 196.68 256.028 194.68H256.108V198H258.708V169.4H256.108V181.04H256.028ZM249.428 196.24C245.188 196.24 242.868 192.4 242.868 187.8C242.868 183.24 245.188 179.4 249.428 179.4C253.348 179.4 256.108 182.68 256.108 187.8C256.108 192.96 253.348 196.24 249.428 196.24ZM268.898 198.52C272.258 198.52 274.658 197.24 276.098 194.92H276.178C276.298 197.48 277.338 198.16 279.018 198.16C279.498 198.16 279.938 198.08 280.378 198V196.12C280.138 196.16 280.018 196.16 279.818 196.16C278.938 196.16 278.698 195.4 278.698 193.76V183.56C278.698 178.68 275.378 177.08 271.618 177.08C265.658 177.08 263.418 180.16 263.218 183.76H265.938C266.138 180.76 267.578 179.36 271.497 179.36C274.818 179.36 276.138 180.76 276.138 182.84C276.138 185.28 273.978 185.52 270.618 186.12C265.338 187.08 262.218 188.44 262.218 192.84C262.218 196.24 264.858 198.52 268.898 198.52ZM269.218 196.24C266.258 196.24 264.938 194.96 264.938 192.6C264.938 190 266.978 189 270.938 188.28C273.378 187.88 275.538 187.4 276.138 186.56V190.36C276.138 194.04 273.418 196.24 269.218 196.24ZM283.647 177.6V198H286.247V186.6C286.247 182.64 288.927 179.68 292.647 179.68C293.007 179.68 293.447 179.72 293.887 179.8V177.24C293.367 177.16 292.847 177.12 292.127 177.12C289.207 177.12 287.327 179.08 286.327 181.76H286.247V177.6H283.647ZM310.598 181.04C309.398 178.88 307.238 177.12 303.718 177.12C298.718 177.12 294.718 181.12 294.718 187.8C294.718 194.52 298.718 198.52 303.678 198.52C307.238 198.52 309.398 196.68 310.598 194.68H310.678V198H313.278V169.4H310.678V181.04H310.598ZM303.998 196.24C299.758 196.24 297.438 192.4 297.438 187.8C297.438 183.24 299.758 179.4 303.998 179.4C307.918 179.4 310.678 182.68 310.678 187.8C310.678 192.96 307.918 196.24 303.998 196.24ZM344.321 190.08L347.161 198H350.321L339.521 169.4H336.241L325.561 198H328.561L331.441 190.08H344.321ZM332.401 187.48L337.841 172.16H337.921L343.361 187.48H332.401ZM361.026 186.12C357.906 185.32 355.186 185 355.186 182.44C355.186 180.52 356.786 179.4 359.706 179.4C363.706 179.4 364.746 181.52 365.106 183.32H367.866C367.506 179.96 364.986 177.12 359.706 177.12C355.106 177.12 352.466 179.28 352.466 182.6C352.466 186.56 356.266 187.52 360.026 188.44C362.866 189.12 365.906 189.44 365.906 192.44C365.906 194.44 364.586 196.24 360.666 196.24C356.386 196.24 354.586 194.12 354.426 191.32H351.666C351.786 195.4 354.946 198.52 360.626 198.52C365.666 198.52 368.626 196.08 368.626 192.36C368.626 188.12 364.866 187.04 361.026 186.12ZM380.128 186.12C377.008 185.32 374.288 185 374.288 182.44C374.288 180.52 375.888 179.4 378.808 179.4C382.808 179.4 383.848 181.52 384.208 183.32H386.968C386.608 179.96 384.088 177.12 378.808 177.12C374.208 177.12 371.568 179.28 371.568 182.6C371.568 186.56 375.368 187.52 379.128 188.44C381.968 189.12 385.008 189.44 385.008 192.44C385.008 194.44 383.688 196.24 379.768 196.24C375.488 196.24 373.688 194.12 373.528 191.32H370.768C370.888 195.4 374.048 198.52 379.728 198.52C384.768 198.52 387.728 196.08 387.728 192.36C387.728 188.12 383.968 187.04 380.128 186.12ZM399.634 198.56C404.754 198.56 407.554 195.48 408.554 191.76H405.914C405.514 193.44 403.914 196.32 399.674 196.32C394.874 196.32 392.674 192.48 392.634 188.32H408.794C408.834 188 408.834 187.44 408.834 186.88C408.834 181.2 405.514 177.08 399.634 177.08C393.754 177.08 389.914 181.28 389.914 187.8C389.914 194 393.394 198.56 399.634 198.56ZM399.514 179.32C403.714 179.32 406.074 182.4 406.074 186.04H392.634C392.834 182.24 395.554 179.32 399.514 179.32ZM410.448 177.6V179.88H413.448V192.72C413.448 197.16 415.288 198.16 418.288 198.16C418.928 198.16 419.408 198.12 420.208 198V195.8C419.608 195.84 419.288 195.88 418.648 195.88C416.648 195.88 416.048 195.28 416.048 192.76V179.88H420.208V177.6H416.048V170.8H413.448V177.6H410.448ZM431.495 186.12C428.375 185.32 425.655 185 425.655 182.44C425.655 180.52 427.255 179.4 430.175 179.4C434.175 179.4 435.215 181.52 435.575 183.32H438.335C437.975 179.96 435.455 177.12 430.175 177.12C425.575 177.12 422.935 179.28 422.935 182.6C422.935 186.56 426.735 187.52 430.495 188.44C433.335 189.12 436.375 189.44 436.375 192.44C436.375 194.44 435.055 196.24 431.135 196.24C426.855 196.24 425.055 194.12 424.895 191.32H422.135C422.255 195.4 425.415 198.52 431.095 198.52C436.135 198.52 439.095 196.08 439.095 192.36C439.095 188.12 435.335 187.04 431.495 186.12Z" fill="#F0F0F0"/>
<path d="M537 232L-2.86102e-06 232" stroke="#F0F0F0" stroke-dasharray="4 4"/>
<circle cx="1152" cy="186" r="154" fill="#46DC78"/>
<circle cx="1029" cy="460" r="114" fill="#46DC78"/>
<path d="M1077.95 148.856V141.772H1089.29V139.98H1075.9V160H1077.95V150.648H1087.27V148.856H1077.95ZM1092.07 155.352V145.72H1090.25V155.744C1090.25 158.908 1092.35 160.336 1094.92 160.336C1097.47 160.336 1099.01 159.16 1099.8 157.984H1099.85V160H1101.67V145.72H1099.85V154.736C1099.85 156.836 1098.06 158.74 1095.37 158.74C1092.88 158.74 1092.07 157.172 1092.07 155.352ZM1104.99 160H1106.81V150.984C1106.81 148.884 1108.57 146.98 1111.29 146.98C1113.75 146.98 1114.59 148.548 1114.59 150.368V160H1116.41V149.976C1116.41 146.812 1114.29 145.384 1111.74 145.384C1109.19 145.384 1107.65 146.588 1106.87 147.764H1106.81V145.72H1104.99V160ZM1129.93 159.356C1129.93 162.268 1128.22 163.528 1125.34 163.528C1122.59 163.528 1121.36 162.268 1121.08 160.756H1119.18C1119.4 163.248 1121.44 165.124 1125.31 165.124C1129.23 165.124 1131.75 163.136 1131.75 159.104V145.72H1129.93V147.96H1129.87C1129.03 146.532 1127.46 145.384 1125.06 145.384C1121.67 145.384 1118.78 147.624 1118.78 152.328C1118.78 157.088 1121.67 159.328 1125.06 159.328C1127.46 159.328 1129.03 158.18 1129.87 156.696H1129.93V159.356ZM1125.31 146.98C1127.94 146.98 1129.93 148.716 1129.93 152.328C1129.93 155.996 1127.94 157.732 1125.31 157.732C1122.37 157.732 1120.69 155.604 1120.69 152.328C1120.69 149.108 1122.37 146.98 1125.31 146.98ZM1134.76 140.512V142.864H1137.11V140.512H1134.76ZM1135.04 145.72V160H1136.86V145.72H1135.04ZM1142.03 157.564C1142.87 159.104 1144.35 160.336 1146.85 160.336C1150.32 160.336 1153.12 157.536 1153.12 152.86C1153.12 148.156 1150.32 145.356 1146.85 145.356C1144.35 145.356 1142.84 146.644 1142.03 148.016H1141.97V139.98H1140.15V160H1141.97V157.564H1142.03ZM1146.62 146.924C1149.59 146.924 1151.21 149.64 1151.21 152.86C1151.21 156.052 1149.59 158.74 1146.62 158.74C1143.88 158.74 1141.97 156.444 1141.97 152.86C1141.97 149.248 1143.88 146.924 1146.62 146.924ZM1155.63 139.98V160H1157.45V139.98H1155.63ZM1166.74 160.392C1170.32 160.392 1172.28 158.236 1172.98 155.632H1171.14C1170.86 156.808 1169.74 158.824 1166.77 158.824C1163.41 158.824 1161.87 156.136 1161.84 153.224H1173.15C1173.18 153 1173.18 152.608 1173.18 152.216C1173.18 148.24 1170.86 145.356 1166.74 145.356C1162.62 145.356 1159.94 148.296 1159.94 152.86C1159.94 157.2 1162.37 160.392 1166.74 160.392ZM1166.66 146.924C1169.6 146.924 1171.25 149.08 1171.25 151.628H1161.84C1161.98 148.968 1163.88 146.924 1166.66 146.924ZM1090.6 182.364H1092.73C1092.2 178.612 1089.15 175.616 1084.47 175.616C1079.01 175.616 1075.29 179.956 1075.29 186.004C1075.29 192.08 1079.01 196.364 1084.44 196.364C1089.23 196.364 1092.31 193.256 1092.82 188.888H1090.69C1090.46 191.66 1088.7 194.572 1084.44 194.572C1079.66 194.572 1077.39 190.484 1077.39 186.004C1077.39 181.524 1079.63 177.408 1084.47 177.408C1088.56 177.408 1090.18 180.124 1090.6 182.364ZM1095.37 175.98V196H1097.19V175.98H1095.37ZM1100.2 176.512V178.864H1102.55V176.512H1100.2ZM1100.48 181.72V196H1102.3V181.72H1100.48ZM1105.59 196H1107.41V186.984C1107.41 184.912 1108.9 182.98 1111.39 182.98C1113.77 182.98 1114.19 184.576 1114.19 186.368V196H1116.01V186.984C1116.01 184.912 1117.52 182.98 1120.01 182.98C1122.36 182.98 1122.81 184.576 1122.81 186.368V196H1124.63V185.976C1124.63 183.008 1123.15 181.384 1120.4 181.384C1118.16 181.384 1116.62 182.588 1115.7 184.016H1115.64C1115.08 182.308 1113.8 181.384 1111.78 181.384C1109.54 181.384 1108.2 182.588 1107.47 183.736H1107.41V181.72H1105.59V196ZM1131.63 196.364C1133.99 196.364 1135.67 195.468 1136.67 193.844H1136.73C1136.81 195.636 1137.54 196.112 1138.72 196.112C1139.05 196.112 1139.36 196.056 1139.67 196V194.684C1139.5 194.712 1139.42 194.712 1139.28 194.712C1138.66 194.712 1138.49 194.18 1138.49 193.032V185.892C1138.49 182.476 1136.17 181.356 1133.54 181.356C1129.37 181.356 1127.8 183.512 1127.66 186.032H1129.56C1129.7 183.932 1130.71 182.952 1133.45 182.952C1135.78 182.952 1136.7 183.932 1136.7 185.388C1136.7 187.096 1135.19 187.264 1132.84 187.684C1129.14 188.356 1126.96 189.308 1126.96 192.388C1126.96 194.768 1128.81 196.364 1131.63 196.364ZM1131.86 194.768C1129.79 194.768 1128.86 193.872 1128.86 192.22C1128.86 190.4 1130.29 189.7 1133.06 189.196C1134.77 188.916 1136.28 188.58 1136.7 187.992V190.652C1136.7 193.228 1134.8 194.768 1131.86 194.768ZM1140.18 181.72V183.316H1142.28V192.304C1142.28 195.412 1143.57 196.112 1145.67 196.112C1146.12 196.112 1146.46 196.084 1147.02 196V194.46C1146.6 194.488 1146.37 194.516 1145.92 194.516C1144.52 194.516 1144.1 194.096 1144.1 192.332V183.316H1147.02V181.72H1144.1V176.96H1142.28V181.72H1140.18ZM1155.04 196.392C1158.62 196.392 1160.58 194.236 1161.28 191.632H1159.43C1159.15 192.808 1158.03 194.824 1155.06 194.824C1151.7 194.824 1150.16 192.136 1150.14 189.224H1161.45C1161.48 189 1161.48 188.608 1161.48 188.216C1161.48 184.24 1159.15 181.356 1155.04 181.356C1150.92 181.356 1148.23 184.296 1148.23 188.86C1148.23 193.2 1150.67 196.392 1155.04 196.392ZM1154.95 182.924C1157.89 182.924 1159.54 185.08 1159.54 187.628H1150.14C1150.28 184.968 1152.18 182.924 1154.95 182.924ZM1179.01 182.364H1181.13C1180.6 178.612 1177.55 175.616 1172.87 175.616C1167.41 175.616 1163.69 179.956 1163.69 186.004C1163.69 192.08 1167.41 196.364 1172.85 196.364C1177.63 196.364 1180.71 193.256 1181.22 188.888H1179.09C1178.87 191.66 1177.1 194.572 1172.85 194.572C1168.06 194.572 1165.79 190.484 1165.79 186.004C1165.79 181.524 1168.03 177.408 1172.87 177.408C1176.96 177.408 1178.59 180.124 1179.01 182.364ZM1190.15 196.392C1194.4 196.392 1197.01 193.312 1197.01 188.888C1197.01 184.436 1194.4 181.356 1190.15 181.356C1185.86 181.356 1183.29 184.436 1183.29 188.888C1183.29 193.312 1185.86 196.392 1190.15 196.392ZM1190.15 194.796C1186.79 194.796 1185.19 192.164 1185.19 188.888C1185.19 185.584 1186.79 182.952 1190.15 182.952C1193.48 182.952 1195.1 185.584 1195.1 188.888C1195.1 192.164 1193.48 194.796 1190.15 194.796ZM1199.24 176.512V178.864H1201.59V176.512H1199.24ZM1199.52 181.72V196H1201.34V181.72H1199.52ZM1204.63 196H1206.45V186.984C1206.45 184.884 1208.22 182.98 1210.93 182.98C1213.4 182.98 1214.24 184.548 1214.24 186.368V196H1216.06V185.976C1216.06 182.812 1213.93 181.384 1211.38 181.384C1208.83 181.384 1207.29 182.588 1206.51 183.764H1206.45V181.72H1204.63V196ZM1224.81 187.684C1222.62 187.124 1220.72 186.9 1220.72 185.108C1220.72 183.764 1221.84 182.98 1223.88 182.98C1226.68 182.98 1227.41 184.464 1227.66 185.724H1229.6C1229.34 183.372 1227.58 181.384 1223.88 181.384C1220.66 181.384 1218.82 182.896 1218.82 185.22C1218.82 187.992 1221.48 188.664 1224.11 189.308C1226.1 189.784 1228.22 190.008 1228.22 192.108C1228.22 193.508 1227.3 194.768 1224.56 194.768C1221.56 194.768 1220.3 193.284 1220.19 191.324H1218.26C1218.34 194.18 1220.55 196.364 1224.53 196.364C1228.06 196.364 1230.13 194.656 1230.13 192.052C1230.13 189.084 1227.5 188.328 1224.81 187.684ZM1080.1 210.86C1078.06 213.688 1076.27 217.888 1076.27 223.124C1076.27 228.192 1078.06 232.448 1080.1 235.276H1081.76C1079.82 231.888 1078.31 228.192 1078.31 223.124C1078.31 217.944 1079.82 214.248 1081.76 210.86H1080.1ZM1084.52 232H1086.56V223.684H1092.67C1098.01 223.684 1096.17 231.16 1097.12 232H1099.27V231.832C1098.21 231.496 1099.78 223.656 1095.19 222.732V222.676C1097.37 222.116 1098.94 220.296 1098.94 217.636C1098.94 213.968 1096.61 211.98 1092.33 211.98H1084.52V232ZM1086.56 213.772H1091.99C1095.44 213.772 1096.89 215.116 1096.89 217.664C1096.89 220.464 1095.05 221.892 1091.85 221.892H1086.56V213.772ZM1104.53 220.66V213.772H1116.06V211.98H1102.48V232H1116.37V230.208H1104.53V222.452H1114.8V220.66H1104.53ZM1119.05 232H1121.1V214.864H1121.15L1127.73 232H1129.58L1136.19 214.864H1136.24V232H1138.26V211.98H1135.46L1128.68 229.256H1128.63L1121.85 211.98H1119.05V232ZM1142.69 235.276C1144.74 232.448 1146.53 228.248 1146.53 223.012C1146.53 217.944 1144.74 213.688 1142.69 210.86H1141.04C1142.97 214.248 1144.48 217.944 1144.48 223.012C1144.48 228.192 1142.97 231.888 1141.04 235.276H1142.69Z" fill="#1D1C20"/>
<path d="M954.948 422.856V415.772H966.288V413.98H952.904V434H954.948V424.648H964.272V422.856H954.948ZM969.069 429.352V419.72H967.249V429.744C967.249 432.908 969.349 434.336 971.925 434.336C974.473 434.336 976.013 433.16 976.797 431.984H976.853V434H978.673V419.72H976.853V428.736C976.853 430.836 975.061 432.74 972.373 432.74C969.881 432.74 969.069 431.172 969.069 429.352ZM981.991 434H983.811V424.984C983.811 422.884 985.575 420.98 988.291 420.98C990.755 420.98 991.595 422.548 991.595 424.368V434H993.415V423.976C993.415 420.812 991.287 419.384 988.739 419.384C986.191 419.384 984.651 420.588 983.867 421.764H983.811V419.72H981.991V434ZM1006.93 433.356C1006.93 436.268 1005.22 437.528 1002.34 437.528C999.591 437.528 998.359 436.268 998.079 434.756H996.175C996.399 437.248 998.443 439.124 1002.31 439.124C1006.23 439.124 1008.75 437.136 1008.75 433.104V419.72H1006.93V421.96H1006.87C1006.03 420.532 1004.46 419.384 1002.06 419.384C998.667 419.384 995.783 421.624 995.783 426.328C995.783 431.088 998.667 433.328 1002.06 433.328C1004.46 433.328 1006.03 432.18 1006.87 430.696H1006.93V433.356ZM1002.31 420.98C1004.94 420.98 1006.93 422.716 1006.93 426.328C1006.93 429.996 1004.94 431.732 1002.31 431.732C999.367 431.732 997.687 429.604 997.687 426.328C997.687 423.108 999.367 420.98 1002.31 420.98ZM1011.76 414.512V416.864H1014.11V414.512H1011.76ZM1012.04 419.72V434H1013.86V419.72H1012.04ZM1019.03 431.564C1019.87 433.104 1021.35 434.336 1023.85 434.336C1027.32 434.336 1030.12 431.536 1030.12 426.86C1030.12 422.156 1027.32 419.356 1023.85 419.356C1021.35 419.356 1019.84 420.644 1019.03 422.016H1018.97V413.98H1017.15V434H1018.97V431.564H1019.03ZM1023.62 420.924C1026.59 420.924 1028.21 423.64 1028.21 426.86C1028.21 430.052 1026.59 432.74 1023.62 432.74C1020.88 432.74 1018.97 430.444 1018.97 426.86C1018.97 423.248 1020.88 420.924 1023.62 420.924ZM1032.63 413.98V434H1034.45V413.98H1032.63ZM1043.74 434.392C1047.32 434.392 1049.28 432.236 1049.98 429.632H1048.14C1047.86 430.808 1046.74 432.824 1043.77 432.824C1040.41 432.824 1038.87 430.136 1038.84 427.224H1050.15C1050.18 427 1050.18 426.608 1050.18 426.216C1050.18 422.24 1047.86 419.356 1043.74 419.356C1039.62 419.356 1036.94 422.296 1036.94 426.86C1036.94 431.2 1039.37 434.392 1043.74 434.392ZM1043.66 420.924C1046.6 420.924 1048.25 423.08 1048.25 425.628H1038.84C1038.98 422.968 1040.88 420.924 1043.66 420.924ZM967.604 456.364H969.732C969.2 452.612 966.148 449.616 961.472 449.616C956.012 449.616 952.288 453.956 952.288 460.004C952.288 466.08 956.012 470.364 961.444 470.364C966.232 470.364 969.312 467.256 969.816 462.888H967.688C967.464 465.66 965.7 468.572 961.444 468.572C956.656 468.572 954.388 464.484 954.388 460.004C954.388 455.524 956.628 451.408 961.472 451.408C965.56 451.408 967.184 454.124 967.604 456.364ZM972.366 449.98V470H974.186V449.98H972.366ZM977.199 450.512V452.864H979.551V450.512H977.199ZM977.479 455.72V470H979.299V455.72H977.479ZM982.592 470H984.412V460.984C984.412 458.912 985.896 456.98 988.388 456.98C990.768 456.98 991.188 458.576 991.188 460.368V470H993.008V460.984C993.008 458.912 994.52 456.98 997.012 456.98C999.364 456.98 999.812 458.576 999.812 460.368V470H1001.63V459.976C1001.63 457.008 1000.15 455.384 997.404 455.384C995.164 455.384 993.624 456.588 992.7 458.016H992.644C992.084 456.308 990.796 455.384 988.78 455.384C986.54 455.384 985.196 456.588 984.468 457.736H984.412V455.72H982.592V470ZM1008.63 470.364C1010.99 470.364 1012.67 469.468 1013.67 467.844H1013.73C1013.81 469.636 1014.54 470.112 1015.72 470.112C1016.05 470.112 1016.36 470.056 1016.67 470V468.684C1016.5 468.712 1016.42 468.712 1016.28 468.712C1015.66 468.712 1015.49 468.18 1015.49 467.032V459.892C1015.49 456.476 1013.17 455.356 1010.54 455.356C1006.37 455.356 1004.8 457.512 1004.66 460.032H1006.56C1006.7 457.932 1007.71 456.952 1010.45 456.952C1012.78 456.952 1013.7 457.932 1013.7 459.388C1013.7 461.096 1012.19 461.264 1009.84 461.684C1006.14 462.356 1003.96 463.308 1003.96 466.388C1003.96 468.768 1005.81 470.364 1008.63 470.364ZM1008.86 468.768C1006.79 468.768 1005.86 467.872 1005.86 466.22C1005.86 464.4 1007.29 463.7 1010.06 463.196C1011.77 462.916 1013.28 462.58 1013.7 461.992V464.652C1013.7 467.228 1011.8 468.768 1008.86 468.768ZM1017.18 455.72V457.316H1019.28V466.304C1019.28 469.412 1020.57 470.112 1022.67 470.112C1023.12 470.112 1023.46 470.084 1024.02 470V468.46C1023.6 468.488 1023.37 468.516 1022.92 468.516C1021.52 468.516 1021.1 468.096 1021.1 466.332V457.316H1024.02V455.72H1021.1V450.96H1019.28V455.72H1017.18ZM1032.04 470.392C1035.62 470.392 1037.58 468.236 1038.28 465.632H1036.43C1036.15 466.808 1035.03 468.824 1032.06 468.824C1028.7 468.824 1027.16 466.136 1027.14 463.224H1038.45C1038.48 463 1038.48 462.608 1038.48 462.216C1038.48 458.24 1036.15 455.356 1032.04 455.356C1027.92 455.356 1025.23 458.296 1025.23 462.86C1025.23 467.2 1027.67 470.392 1032.04 470.392ZM1031.95 456.924C1034.89 456.924 1036.54 459.08 1036.54 461.628H1027.14C1027.28 458.968 1029.18 456.924 1031.95 456.924ZM1056.01 456.364H1058.13C1057.6 452.612 1054.55 449.616 1049.87 449.616C1044.41 449.616 1040.69 453.956 1040.69 460.004C1040.69 466.08 1044.41 470.364 1049.85 470.364C1054.63 470.364 1057.71 467.256 1058.22 462.888H1056.09C1055.87 465.66 1054.1 468.572 1049.85 468.572C1045.06 468.572 1042.79 464.484 1042.79 460.004C1042.79 455.524 1045.03 451.408 1049.87 451.408C1053.96 451.408 1055.59 454.124 1056.01 456.364ZM1067.15 470.392C1071.4 470.392 1074.01 467.312 1074.01 462.888C1074.01 458.436 1071.4 455.356 1067.15 455.356C1062.86 455.356 1060.29 458.436 1060.29 462.888C1060.29 467.312 1062.86 470.392 1067.15 470.392ZM1067.15 468.796C1063.79 468.796 1062.19 466.164 1062.19 462.888C1062.19 459.584 1063.79 456.952 1067.15 456.952C1070.48 456.952 1072.1 459.584 1072.1 462.888C1072.1 466.164 1070.48 468.796 1067.15 468.796ZM1076.24 450.512V452.864H1078.59V450.512H1076.24ZM1076.52 455.72V470H1078.34V455.72H1076.52ZM1081.63 470H1083.45V460.984C1083.45 458.884 1085.22 456.98 1087.93 456.98C1090.4 456.98 1091.24 458.548 1091.24 460.368V470H1093.06V459.976C1093.06 456.812 1090.93 455.384 1088.38 455.384C1085.83 455.384 1084.29 456.588 1083.51 457.764H1083.45V455.72H1081.63V470ZM1101.81 461.684C1099.62 461.124 1097.72 460.9 1097.72 459.108C1097.72 457.764 1098.84 456.98 1100.88 456.98C1103.68 456.98 1104.41 458.464 1104.66 459.724H1106.6C1106.34 457.372 1104.58 455.384 1100.88 455.384C1097.66 455.384 1095.82 456.896 1095.82 459.22C1095.82 461.992 1098.48 462.664 1101.11 463.308C1103.1 463.784 1105.22 464.008 1105.22 466.108C1105.22 467.508 1104.3 468.768 1101.56 468.768C1098.56 468.768 1097.3 467.284 1097.19 465.324H1095.26C1095.34 468.18 1097.55 470.364 1101.53 470.364C1105.06 470.364 1107.13 468.656 1107.13 466.052C1107.13 463.084 1104.5 462.328 1101.81 461.684ZM957.104 484.86C955.06 487.688 953.268 491.888 953.268 497.124C953.268 502.192 955.06 506.448 957.104 509.276H958.756C956.824 505.888 955.312 502.192 955.312 497.124C955.312 491.944 956.824 488.248 958.756 484.86H957.104ZM961.517 485.98V506H963.561V485.98H961.517ZM967.369 506H969.413V497.684H975.517C980.865 497.684 979.017 505.16 979.969 506H982.125V505.832C981.061 505.496 982.629 497.656 978.037 496.732V496.676C980.221 496.116 981.789 494.296 981.789 491.636C981.789 487.968 979.465 485.98 975.181 485.98H967.369V506ZM969.413 487.772H974.845C978.289 487.772 979.745 489.116 979.745 491.664C979.745 494.464 977.897 495.892 974.705 495.892H969.413V487.772ZM987.378 494.66V487.772H998.914V485.98H985.334V506H999.222V504.208H987.378V496.452H997.654V494.66H987.378ZM1015.37 492.364H1017.5C1016.97 488.612 1013.92 485.616 1009.24 485.616C1003.78 485.616 1000.06 489.956 1000.06 496.004C1000.06 502.08 1003.78 506.364 1009.21 506.364C1014 506.364 1017.08 503.256 1017.59 498.888H1015.46C1015.23 501.66 1013.47 504.572 1009.21 504.572C1004.43 504.572 1002.16 500.484 1002.16 496.004C1002.16 491.524 1004.4 487.408 1009.24 487.408C1013.33 487.408 1014.95 490.124 1015.37 492.364ZM1021.25 509.276C1023.29 506.448 1025.09 502.248 1025.09 497.012C1025.09 491.944 1023.29 487.688 1021.25 484.86H1019.6C1021.53 488.248 1023.04 491.944 1023.04 497.012C1023.04 502.192 1021.53 505.888 1019.6 509.276H1021.25Z" fill="#1D1C20"/>
<circle cx="769" cy="232" r="200" fill="#46DC78"/>
<path d="M885.889 432.7L886.026 431.979L885.391 432.348C851.191 452.26 811.428 463.665 769 463.665C641.055 463.665 537.335 359.945 537.335 232C537.335 104.055 641.055 0.335 769 0.335C859.027 0.335 937.061 51.6875 975.406 126.7L975.768 127.408L976.022 126.655C1000.78 53.2171 1070.21 0.335 1152 0.335C1254.54 0.335 1337.66 83.4601 1337.66 186C1337.66 288.54 1254.54 371.665 1152 371.665C1149.8 371.665 1147.61 371.627 1145.43 371.551L1144.73 371.527L1145.16 372.088C1163.68 396.521 1174.66 426.977 1174.66 460C1174.66 540.449 1109.45 605.665 1029 605.665C948.551 605.665 883.335 540.449 883.335 460C883.335 450.669 884.212 441.543 885.889 432.7Z" stroke="#F0F0F0" stroke-width="0.67"/>
<path d="M656.948 212.856V205.772H668.288V203.98H654.904V224H656.948V214.648H666.272V212.856H656.948ZM671.069 219.352V209.72H669.249V219.744C669.249 222.908 671.349 224.336 673.925 224.336C676.473 224.336 678.013 223.16 678.797 221.984H678.853V224H680.673V209.72H678.853V218.736C678.853 220.836 677.061 222.74 674.373 222.74C671.881 222.74 671.069 221.172 671.069 219.352ZM683.991 224H685.811V214.984C685.811 212.884 687.575 210.98 690.291 210.98C692.755 210.98 693.595 212.548 693.595 214.368V224H695.415V213.976C695.415 210.812 693.287 209.384 690.739 209.384C688.191 209.384 686.651 210.588 685.867 211.764H685.811V209.72H683.991V224ZM708.927 223.356C708.927 226.268 707.219 227.528 704.335 227.528C701.591 227.528 700.359 226.268 700.079 224.756H698.175C698.399 227.248 700.443 229.124 704.307 229.124C708.227 229.124 710.747 227.136 710.747 223.104V209.72H708.927V211.96H708.871C708.031 210.532 706.463 209.384 704.055 209.384C700.667 209.384 697.783 211.624 697.783 216.328C697.783 221.088 700.667 223.328 704.055 223.328C706.463 223.328 708.031 222.18 708.871 220.696H708.927V223.356ZM704.307 210.98C706.939 210.98 708.927 212.716 708.927 216.328C708.927 219.996 706.939 221.732 704.307 221.732C701.367 221.732 699.687 219.604 699.687 216.328C699.687 213.108 701.367 210.98 704.307 210.98ZM713.761 204.512V206.864H716.113V204.512H713.761ZM714.041 209.72V224H715.861V209.72H714.041ZM721.031 221.564C721.871 223.104 723.355 224.336 725.847 224.336C729.319 224.336 732.119 221.536 732.119 216.86C732.119 212.156 729.319 209.356 725.847 209.356C723.355 209.356 721.843 210.644 721.031 212.016H720.975V203.98H719.155V224H720.975V221.564H721.031ZM725.623 210.924C728.591 210.924 730.215 213.64 730.215 216.86C730.215 220.052 728.591 222.74 725.623 222.74C722.879 222.74 720.975 220.444 720.975 216.86C720.975 213.248 722.879 210.924 725.623 210.924ZM734.631 203.98V224H736.451V203.98H734.631ZM745.74 224.392C749.324 224.392 751.284 222.236 751.984 219.632H750.136C749.856 220.808 748.736 222.824 745.768 222.824C742.408 222.824 740.868 220.136 740.84 217.224H752.152C752.18 217 752.18 216.608 752.18 216.216C752.18 212.24 749.856 209.356 745.74 209.356C741.624 209.356 738.936 212.296 738.936 216.86C738.936 221.2 741.372 224.392 745.74 224.392ZM745.656 210.924C748.596 210.924 750.248 213.08 750.248 215.628H740.84C740.98 212.968 742.884 210.924 745.656 210.924ZM669.604 246.364H671.732C671.2 242.612 668.148 239.616 663.472 239.616C658.012 239.616 654.288 243.956 654.288 250.004C654.288 256.08 658.012 260.364 663.444 260.364C668.232 260.364 671.312 257.256 671.816 252.888H669.688C669.464 255.66 667.7 258.572 663.444 258.572C658.656 258.572 656.388 254.484 656.388 250.004C656.388 245.524 658.628 241.408 663.472 241.408C667.56 241.408 669.184 244.124 669.604 246.364ZM674.366 239.98V260H676.186V239.98H674.366ZM679.199 240.512V242.864H681.551V240.512H679.199ZM679.479 245.72V260H681.299V245.72H679.479ZM684.592 260H686.412V250.984C686.412 248.912 687.896 246.98 690.388 246.98C692.768 246.98 693.188 248.576 693.188 250.368V260H695.008V250.984C695.008 248.912 696.52 246.98 699.012 246.98C701.364 246.98 701.812 248.576 701.812 250.368V260H703.632V249.976C703.632 247.008 702.148 245.384 699.404 245.384C697.164 245.384 695.624 246.588 694.7 248.016H694.644C694.084 246.308 692.796 245.384 690.78 245.384C688.54 245.384 687.196 246.588 686.468 247.736H686.412V245.72H684.592V260ZM710.635 260.364C712.987 260.364 714.667 259.468 715.675 257.844H715.731C715.815 259.636 716.543 260.112 717.719 260.112C718.055 260.112 718.363 260.056 718.671 260V258.684C718.503 258.712 718.419 258.712 718.279 258.712C717.663 258.712 717.495 258.18 717.495 257.032V249.892C717.495 246.476 715.171 245.356 712.539 245.356C708.367 245.356 706.799 247.512 706.659 250.032H708.562C708.703 247.932 709.711 246.952 712.454 246.952C714.779 246.952 715.703 247.932 715.703 249.388C715.703 251.096 714.191 251.264 711.839 251.684C708.143 252.356 705.959 253.308 705.959 256.388C705.959 258.768 707.807 260.364 710.635 260.364ZM710.859 258.768C708.787 258.768 707.863 257.872 707.863 256.22C707.863 254.4 709.291 253.7 712.062 253.196C713.771 252.916 715.283 252.58 715.703 251.992V254.652C715.703 257.228 713.799 258.768 710.859 258.768ZM719.184 245.72V247.316H721.284V256.304C721.284 259.412 722.572 260.112 724.672 260.112C725.12 260.112 725.456 260.084 726.016 260V258.46C725.596 258.488 725.372 258.516 724.924 258.516C723.524 258.516 723.104 258.096 723.104 256.332V247.316H726.016V245.72H723.104V240.96H721.284V245.72H719.184ZM734.037 260.392C737.621 260.392 739.581 258.236 740.281 255.632H738.433C738.153 256.808 737.033 258.824 734.065 258.824C730.705 258.824 729.165 256.136 729.137 253.224H740.449C740.477 253 740.477 252.608 740.477 252.216C740.477 248.24 738.153 245.356 734.037 245.356C729.921 245.356 727.233 248.296 727.233 252.86C727.233 257.2 729.669 260.392 734.037 260.392ZM733.953 246.924C736.893 246.924 738.545 249.08 738.545 251.628H729.137C729.277 248.968 731.181 246.924 733.953 246.924ZM758.006 246.364H760.134C759.602 242.612 756.55 239.616 751.874 239.616C746.414 239.616 742.69 243.956 742.69 250.004C742.69 256.08 746.414 260.364 751.846 260.364C756.634 260.364 759.714 257.256 760.218 252.888H758.09C757.866 255.66 756.102 258.572 751.846 258.572C747.058 258.572 744.79 254.484 744.79 250.004C744.79 245.524 747.03 241.408 751.874 241.408C755.962 241.408 757.586 244.124 758.006 246.364ZM769.147 260.392C773.403 260.392 776.007 257.312 776.007 252.888C776.007 248.436 773.403 245.356 769.147 245.356C764.863 245.356 762.287 248.436 762.287 252.888C762.287 257.312 764.863 260.392 769.147 260.392ZM769.147 258.796C765.787 258.796 764.191 256.164 764.191 252.888C764.191 249.584 765.787 246.952 769.147 246.952C772.479 246.952 774.103 249.584 774.103 252.888C774.103 256.164 772.479 258.796 769.147 258.796ZM778.238 240.512V242.864H780.59V240.512H778.238ZM778.518 245.72V260H780.338V245.72H778.518ZM783.631 260H785.451V250.984C785.451 248.884 787.215 246.98 789.931 246.98C792.395 246.98 793.235 248.548 793.235 250.368V260H795.055V249.976C795.055 246.812 792.927 245.384 790.379 245.384C787.831 245.384 786.291 246.588 785.507 247.764H785.451V245.72H783.631V260ZM803.808 251.684C801.624 251.124 799.72 250.9 799.72 249.108C799.72 247.764 800.84 246.98 802.884 246.98C805.684 246.98 806.412 248.464 806.664 249.724H808.596C808.344 247.372 806.58 245.384 802.884 245.384C799.664 245.384 797.816 246.896 797.816 249.22C797.816 251.992 800.476 252.664 803.108 253.308C805.096 253.784 807.224 254.008 807.224 256.108C807.224 257.508 806.3 258.768 803.556 258.768C800.56 258.768 799.3 257.284 799.188 255.324H797.256C797.34 258.18 799.552 260.364 803.528 260.364C807.056 260.364 809.128 258.656 809.128 256.052C809.128 253.084 806.496 252.328 803.808 251.684ZM822.592 238.86C820.548 241.688 818.756 245.888 818.756 251.124C818.756 256.192 820.548 260.448 822.592 263.276H824.244C822.312 259.888 820.8 256.192 820.8 251.124C820.8 245.944 822.312 242.248 824.244 238.86H822.592ZM827.006 260H829.05V242.864H829.106L835.686 260H837.534L844.142 242.864H844.198V260H846.214V239.98H843.414L836.638 257.256H836.582L829.806 239.98H827.006V260ZM849.245 251.964V253.756H856.749V251.964H849.245ZM859.763 260H861.807V251.684H867.911C873.259 251.684 871.411 259.16 872.363 260H874.519V259.832C873.455 259.496 875.023 251.656 870.431 250.732V250.676C872.615 250.116 874.183 248.296 874.183 245.636C874.183 241.968 871.859 239.98 867.575 239.98H859.763V260ZM861.807 241.772H867.239C870.683 241.772 872.139 243.116 872.139 245.664C872.139 248.464 870.291 249.892 867.099 249.892H861.807V241.772ZM878.344 263.276C880.388 260.448 882.18 256.248 882.18 251.012C882.18 245.944 880.388 241.688 878.344 238.86H876.692C878.624 242.248 880.136 245.944 880.136 251.012C880.136 256.192 878.624 259.888 876.692 263.276H878.344Z" fill="#1D1C20"/>
</svg>
