<svg width="424" height="397" viewBox="0 0 424 397" fill="none" xmlns="http://www.w3.org/2000/svg">
<circle cx="212" cy="112" r="88" fill="#46DC78"/>
<circle cx="112" cy="285" r="88" fill="#46DC78"/>
<circle cx="312" cy="285" r="88" fill="#46DC78"/>
<path d="M304.592 173.241C316.225 155.688 323 134.635 323 112C323 50.6964 273.304 1 212 1C150.696 1 101 50.6964 101 112C101 134.635 107.775 155.688 119.408 173.241M312 174C373.304 174 423 223.696 423 285C423 346.304 373.304 396 312 396C268.433 396 230.729 370.901 212.558 334.373M112 174C50.6964 174 1 223.696 1 285C1 346.304 50.6964 396 112 396C155.567 396 193.271 370.901 211.442 334.373M304.312 173.056L304.198 173.229L304.301 173.409L304.859 174.375L304.963 174.555L305.17 174.542C307.429 174.405 309.706 174.335 312 174.335C373.119 174.335 422.665 223.881 422.665 285C422.665 346.119 373.119 395.665 312 395.665C268.565 395.665 230.974 370.642 212.858 334.224L212.765 334.038H212.558H211.442H211.235L211.142 334.224C193.026 370.642 155.435 395.665 112 395.665C50.8814 395.665 1.335 346.119 1.335 285C1.335 223.881 50.8814 174.335 112 174.335C114.294 174.335 116.571 174.405 118.83 174.542L119.037 174.555L119.141 174.375L119.699 173.409L119.802 173.229L119.688 173.056C108.09 155.556 101.335 134.567 101.335 112C101.335 50.8814 150.881 1.335 212 1.335C273.119 1.335 322.665 50.8814 322.665 112C322.665 134.567 315.91 155.556 304.312 173.056ZM304.985 173.253C316.584 155.682 323.335 134.629 323.335 112C323.335 50.5114 273.489 0.665 212 0.665C150.511 0.665 100.665 50.5114 100.665 112C100.665 134.629 107.416 155.682 119.015 173.253L118.664 173.861C116.459 173.731 114.237 173.665 112 173.665C50.5114 173.665 0.665 223.511 0.665 285C0.665 346.489 50.5114 396.335 112 396.335C155.625 396.335 193.389 371.244 211.649 334.708H212.351C230.611 371.244 268.375 396.335 312 396.335C373.489 396.335 423.335 346.489 423.335 285C423.335 223.511 373.489 173.665 312 173.665C309.763 173.665 307.541 173.731 305.336 173.861L304.985 173.253ZM305.557 172.983L305.196 173.537L305.856 173.501C307.89 173.391 309.938 173.335 312 173.335C373.671 173.335 423.665 223.329 423.665 285C423.665 346.671 373.671 396.665 312 396.665C268.44 396.665 230.706 371.723 212.299 335.34L212 334.75L211.701 335.34C193.294 371.723 155.56 396.665 112 396.665C50.3291 396.665 0.335 346.671 0.335 285C0.335 223.329 50.3291 173.335 112 173.335C114.062 173.335 116.11 173.391 118.144 173.501L118.804 173.537L118.443 172.983C106.991 155.452 100.335 134.504 100.335 112C100.335 50.3291 150.329 0.335 212 0.335C273.671 0.335 323.665 50.3291 323.665 112C323.665 134.504 317.009 155.452 305.557 172.983Z" stroke="#F0F0F0" stroke-width="0.67"/>
<path d="M162.538 88.836V84.282H169.828V83.13H161.224V96H162.538V89.988H168.532V88.836H162.538ZM171.976 93.012V86.82H170.806V93.264C170.806 95.298 172.156 96.216 173.812 96.216C175.45 96.216 176.44 95.46 176.944 94.704H176.98V96H178.15V86.82H176.98V92.616C176.98 93.966 175.828 95.19 174.1 95.19C172.498 95.19 171.976 94.182 171.976 93.012ZM180.642 96H181.812V90.204C181.812 88.854 182.946 87.63 184.692 87.63C186.276 87.63 186.816 88.638 186.816 89.808V96H187.986V89.556C187.986 87.522 186.618 86.604 184.98 86.604C183.342 86.604 182.352 87.378 181.848 88.134H181.812V86.82H180.642V96ZM197.033 95.586C197.033 97.458 195.935 98.268 194.081 98.268C192.317 98.268 191.525 97.458 191.345 96.486H190.121C190.265 98.088 191.579 99.294 194.063 99.294C196.583 99.294 198.203 98.016 198.203 95.424V86.82H197.033V88.26H196.997C196.457 87.342 195.449 86.604 193.901 86.604C191.723 86.604 189.869 88.044 189.869 91.068C189.869 94.128 191.723 95.568 193.901 95.568C195.449 95.568 196.457 94.83 196.997 93.876H197.033V95.586ZM194.063 87.63C195.755 87.63 197.033 88.746 197.033 91.068C197.033 93.426 195.755 94.542 194.063 94.542C192.173 94.542 191.093 93.174 191.093 91.068C191.093 88.998 192.173 87.63 194.063 87.63ZM200.501 83.472V84.984H202.013V83.472H200.501ZM200.681 86.82V96H201.851V86.82H200.681ZM205.534 94.434C206.074 95.424 207.028 96.216 208.63 96.216C210.862 96.216 212.662 94.416 212.662 91.41C212.662 88.386 210.862 86.586 208.63 86.586C207.028 86.586 206.056 87.414 205.534 88.296H205.498V83.13H204.328V96H205.498V94.434H205.534ZM208.486 87.594C210.394 87.594 211.438 89.34 211.438 91.41C211.438 93.462 210.394 95.19 208.486 95.19C206.722 95.19 205.498 93.714 205.498 91.41C205.498 89.088 206.722 87.594 208.486 87.594ZM214.637 83.13V96H215.807V83.13H214.637ZM222.138 96.252C224.442 96.252 225.702 94.866 226.152 93.192H224.964C224.784 93.948 224.064 95.244 222.156 95.244C219.996 95.244 219.006 93.516 218.988 91.644H226.26C226.278 91.5 226.278 91.248 226.278 90.996C226.278 88.44 224.784 86.586 222.138 86.586C219.492 86.586 217.764 88.476 217.764 91.41C217.764 94.2 219.33 96.252 222.138 96.252ZM222.084 87.594C223.974 87.594 225.036 88.98 225.036 90.618H218.988C219.078 88.908 220.302 87.594 222.084 87.594ZM170.674 110.234H172.042C171.7 107.822 169.738 105.896 166.732 105.896C163.222 105.896 160.828 108.686 160.828 112.574C160.828 116.48 163.222 119.234 166.714 119.234C169.792 119.234 171.772 117.236 172.096 114.428H170.728C170.584 116.21 169.45 118.082 166.714 118.082C163.636 118.082 162.178 115.454 162.178 112.574C162.178 109.694 163.618 107.048 166.732 107.048C169.36 107.048 170.404 108.794 170.674 110.234ZM174.095 106.13V119H175.265V106.13H174.095ZM177.562 106.472V107.984H179.074V106.472H177.562ZM177.742 109.82V119H178.912V109.82H177.742ZM181.389 119H182.559V113.204C182.559 111.872 183.513 110.63 185.115 110.63C186.645 110.63 186.915 111.656 186.915 112.808V119H188.085V113.204C188.085 111.872 189.057 110.63 190.659 110.63C192.171 110.63 192.459 111.656 192.459 112.808V119H193.629V112.556C193.629 110.648 192.675 109.604 190.911 109.604C189.471 109.604 188.481 110.378 187.887 111.296H187.851C187.491 110.198 186.663 109.604 185.367 109.604C183.927 109.604 183.063 110.378 182.595 111.116H182.559V109.82H181.389V119ZM198.491 119.234C200.003 119.234 201.083 118.658 201.731 117.614H201.767C201.821 118.766 202.289 119.072 203.045 119.072C203.261 119.072 203.459 119.036 203.657 119V118.154C203.549 118.172 203.495 118.172 203.405 118.172C203.009 118.172 202.901 117.83 202.901 117.092V112.502C202.901 110.306 201.407 109.586 199.715 109.586C197.033 109.586 196.025 110.972 195.935 112.592H197.159C197.249 111.242 197.897 110.612 199.661 110.612C201.155 110.612 201.749 111.242 201.749 112.178C201.749 113.276 200.777 113.384 199.265 113.654C196.889 114.086 195.485 114.698 195.485 116.678C195.485 118.208 196.673 119.234 198.491 119.234ZM198.635 118.208C197.303 118.208 196.709 117.632 196.709 116.57C196.709 115.4 197.627 114.95 199.409 114.626C200.507 114.446 201.479 114.23 201.749 113.852V115.562C201.749 117.218 200.525 118.208 198.635 118.208ZM204.347 109.82V110.846H205.697V116.624C205.697 118.622 206.525 119.072 207.875 119.072C208.163 119.072 208.379 119.054 208.739 119V118.01C208.469 118.028 208.325 118.046 208.037 118.046C207.137 118.046 206.867 117.776 206.867 116.642V110.846H208.739V109.82H206.867V106.76H205.697V109.82H204.347ZM214.255 119.252C216.559 119.252 217.819 117.866 218.269 116.192H217.081C216.901 116.948 216.181 118.244 214.273 118.244C212.113 118.244 211.123 116.516 211.105 114.644H218.377C218.395 114.5 218.395 114.248 218.395 113.996C218.395 111.44 216.901 109.586 214.255 109.586C211.609 109.586 209.881 111.476 209.881 114.41C209.881 117.2 211.447 119.252 214.255 119.252ZM214.201 110.594C216.091 110.594 217.153 111.98 217.153 113.618H211.105C211.195 111.908 212.419 110.594 214.201 110.594ZM230.024 110.234H231.392C231.05 107.822 229.088 105.896 226.082 105.896C222.572 105.896 220.178 108.686 220.178 112.574C220.178 116.48 222.572 119.234 226.064 119.234C229.142 119.234 231.122 117.236 231.446 114.428H230.078C229.934 116.21 228.8 118.082 226.064 118.082C222.986 118.082 221.528 115.454 221.528 112.574C221.528 109.694 222.968 107.048 226.082 107.048C228.71 107.048 229.754 108.794 230.024 110.234ZM237.546 119.252C240.282 119.252 241.956 117.272 241.956 114.428C241.956 111.566 240.282 109.586 237.546 109.586C234.792 109.586 233.136 111.566 233.136 114.428C233.136 117.272 234.792 119.252 237.546 119.252ZM237.546 118.226C235.386 118.226 234.36 116.534 234.36 114.428C234.36 112.304 235.386 110.612 237.546 110.612C239.688 110.612 240.732 112.304 240.732 114.428C240.732 116.534 239.688 118.226 237.546 118.226ZM243.75 106.472V107.984H245.262V106.472H243.75ZM243.93 109.82V119H245.1V109.82H243.93ZM247.577 119H248.747V113.204C248.747 111.854 249.881 110.63 251.627 110.63C253.211 110.63 253.751 111.638 253.751 112.808V119H254.921V112.556C254.921 110.522 253.553 109.604 251.915 109.604C250.277 109.604 249.287 110.378 248.783 111.134H248.747V109.82H247.577V119ZM260.908 113.654C259.504 113.294 258.28 113.15 258.28 111.998C258.28 111.134 259 110.63 260.314 110.63C262.114 110.63 262.582 111.584 262.744 112.394H263.986C263.824 110.882 262.69 109.604 260.314 109.604C258.244 109.604 257.056 110.576 257.056 112.07C257.056 113.852 258.766 114.284 260.458 114.698C261.736 115.004 263.104 115.148 263.104 116.498C263.104 117.398 262.51 118.208 260.746 118.208C258.82 118.208 258.01 117.254 257.938 115.994H256.696C256.75 117.83 258.172 119.234 260.728 119.234C262.996 119.234 264.328 118.136 264.328 116.462C264.328 114.554 262.636 114.068 260.908 113.654ZM163.924 128.41C162.61 130.228 161.458 132.928 161.458 136.294C161.458 139.552 162.61 142.288 163.924 144.106H164.986C163.744 141.928 162.772 139.552 162.772 136.294C162.772 132.964 163.744 130.588 164.986 128.41H163.924ZM167.121 142H168.435V130.984H168.471L172.701 142H173.889L178.137 130.984H178.173V142H179.469V129.13H177.669L173.313 140.236H173.277L168.921 129.13H167.121V142ZM181.778 136.834V137.986H186.602V136.834H181.778ZM188.9 142H190.214V136.654H194.138C197.576 136.654 196.388 141.46 197 142H198.386V141.892C197.702 141.676 198.71 136.636 195.758 136.042V136.006C197.162 135.646 198.17 134.476 198.17 132.766C198.17 130.408 196.676 129.13 193.922 129.13H188.9V142ZM190.214 130.282H193.706C195.92 130.282 196.856 131.146 196.856 132.784C196.856 134.584 195.668 135.502 193.616 135.502H190.214V130.282ZM201.205 144.106C202.519 142.288 203.671 139.588 203.671 136.222C203.671 132.964 202.519 130.228 201.205 128.41H200.143C201.385 130.588 202.357 132.964 202.357 136.222C202.357 139.552 201.385 141.928 200.143 144.106H201.205Z" fill="#1D1C20"/>
<path d="M62.538 261.836V257.282H69.828V256.13H61.224V269H62.538V262.988H68.532V261.836H62.538ZM71.9758 266.012V259.82H70.8058V266.264C70.8058 268.298 72.1558 269.216 73.8118 269.216C75.4498 269.216 76.4398 268.46 76.9438 267.704H76.9798V269H78.1498V259.82H76.9798V265.616C76.9798 266.966 75.8278 268.19 74.0998 268.19C72.4978 268.19 71.9758 267.182 71.9758 266.012ZM80.6425 269H81.8125V263.204C81.8125 261.854 82.9465 260.63 84.6925 260.63C86.2765 260.63 86.8165 261.638 86.8165 262.808V269H87.9865V262.556C87.9865 260.522 86.6185 259.604 84.9805 259.604C83.3425 259.604 82.3525 260.378 81.8485 261.134H81.8125V259.82H80.6425V269ZM97.0333 268.586C97.0333 270.458 95.9353 271.268 94.0813 271.268C92.3173 271.268 91.5253 270.458 91.3453 269.486H90.1213C90.2653 271.088 91.5793 272.294 94.0633 272.294C96.5833 272.294 98.2033 271.016 98.2033 268.424V259.82H97.0333V261.26H96.9973C96.4573 260.342 95.4493 259.604 93.9013 259.604C91.7233 259.604 89.8693 261.044 89.8693 264.068C89.8693 267.128 91.7233 268.568 93.9013 268.568C95.4493 268.568 96.4573 267.83 96.9973 266.876H97.0333V268.586ZM94.0633 260.63C95.7553 260.63 97.0333 261.746 97.0333 264.068C97.0333 266.426 95.7553 267.542 94.0633 267.542C92.1733 267.542 91.0933 266.174 91.0933 264.068C91.0933 261.998 92.1733 260.63 94.0633 260.63ZM100.501 256.472V257.984H102.013V256.472H100.501ZM100.681 259.82V269H101.851V259.82H100.681ZM105.534 267.434C106.074 268.424 107.028 269.216 108.63 269.216C110.862 269.216 112.662 267.416 112.662 264.41C112.662 261.386 110.862 259.586 108.63 259.586C107.028 259.586 106.056 260.414 105.534 261.296H105.498V256.13H104.328V269H105.498V267.434H105.534ZM108.486 260.594C110.394 260.594 111.438 262.34 111.438 264.41C111.438 266.462 110.394 268.19 108.486 268.19C106.722 268.19 105.498 266.714 105.498 264.41C105.498 262.088 106.722 260.594 108.486 260.594ZM114.637 256.13V269H115.807V256.13H114.637ZM122.138 269.252C124.442 269.252 125.702 267.866 126.152 266.192H124.964C124.784 266.948 124.064 268.244 122.156 268.244C119.996 268.244 119.006 266.516 118.988 264.644H126.26C126.278 264.5 126.278 264.248 126.278 263.996C126.278 261.44 124.784 259.586 122.138 259.586C119.492 259.586 117.764 261.476 117.764 264.41C117.764 267.2 119.33 269.252 122.138 269.252ZM122.084 260.594C123.974 260.594 125.036 261.98 125.036 263.618H118.988C119.078 261.908 120.302 260.594 122.084 260.594ZM70.674 283.234H72.042C71.7 280.822 69.738 278.896 66.732 278.896C63.222 278.896 60.828 281.686 60.828 285.574C60.828 289.48 63.222 292.234 66.714 292.234C69.792 292.234 71.772 290.236 72.096 287.428H70.728C70.584 289.21 69.45 291.082 66.714 291.082C63.636 291.082 62.178 288.454 62.178 285.574C62.178 282.694 63.618 280.048 66.732 280.048C69.36 280.048 70.404 281.794 70.674 283.234ZM74.095 279.13V292H75.265V279.13H74.095ZM77.5621 279.472V280.984H79.0741V279.472H77.5621ZM77.7421 282.82V292H78.9121V282.82H77.7421ZM81.3892 292H82.5592V286.204C82.5592 284.872 83.5132 283.63 85.1152 283.63C86.6452 283.63 86.9152 284.656 86.9152 285.808V292H88.0852V286.204C88.0852 284.872 89.0572 283.63 90.6592 283.63C92.1712 283.63 92.4592 284.656 92.4592 285.808V292H93.6292V285.556C93.6292 283.648 92.6752 282.604 90.9112 282.604C89.4712 282.604 88.4812 283.378 87.8872 284.296H87.8512C87.4912 283.198 86.6632 282.604 85.3672 282.604C83.9272 282.604 83.0632 283.378 82.5952 284.116H82.5592V282.82H81.3892V292ZM98.4907 292.234C100.003 292.234 101.083 291.658 101.731 290.614H101.767C101.821 291.766 102.289 292.072 103.045 292.072C103.261 292.072 103.459 292.036 103.657 292V291.154C103.549 291.172 103.495 291.172 103.405 291.172C103.009 291.172 102.901 290.83 102.901 290.092V285.502C102.901 283.306 101.407 282.586 99.7147 282.586C97.0327 282.586 96.0247 283.972 95.9347 285.592H97.1587C97.2487 284.242 97.8967 283.612 99.6607 283.612C101.155 283.612 101.749 284.242 101.749 285.178C101.749 286.276 100.777 286.384 99.2647 286.654C96.8887 287.086 95.4847 287.698 95.4847 289.678C95.4847 291.208 96.6727 292.234 98.4907 292.234ZM98.6347 291.208C97.3027 291.208 96.7087 290.632 96.7087 289.57C96.7087 288.4 97.6267 287.95 99.4087 287.626C100.507 287.446 101.479 287.23 101.749 286.852V288.562C101.749 290.218 100.525 291.208 98.6347 291.208ZM104.347 282.82V283.846H105.697V289.624C105.697 291.622 106.525 292.072 107.875 292.072C108.163 292.072 108.379 292.054 108.739 292V291.01C108.469 291.028 108.325 291.046 108.037 291.046C107.137 291.046 106.867 290.776 106.867 289.642V283.846H108.739V282.82H106.867V279.76H105.697V282.82H104.347ZM114.255 292.252C116.559 292.252 117.819 290.866 118.269 289.192H117.081C116.901 289.948 116.181 291.244 114.273 291.244C112.113 291.244 111.123 289.516 111.105 287.644H118.377C118.395 287.5 118.395 287.248 118.395 286.996C118.395 284.44 116.901 282.586 114.255 282.586C111.609 282.586 109.881 284.476 109.881 287.41C109.881 290.2 111.447 292.252 114.255 292.252ZM114.201 283.594C116.091 283.594 117.153 284.98 117.153 286.618H111.105C111.195 284.908 112.419 283.594 114.201 283.594ZM130.024 283.234H131.392C131.05 280.822 129.088 278.896 126.082 278.896C122.572 278.896 120.178 281.686 120.178 285.574C120.178 289.48 122.572 292.234 126.064 292.234C129.142 292.234 131.122 290.236 131.446 287.428H130.078C129.934 289.21 128.8 291.082 126.064 291.082C122.986 291.082 121.528 288.454 121.528 285.574C121.528 282.694 122.968 280.048 126.082 280.048C128.71 280.048 129.754 281.794 130.024 283.234ZM137.546 292.252C140.282 292.252 141.956 290.272 141.956 287.428C141.956 284.566 140.282 282.586 137.546 282.586C134.792 282.586 133.136 284.566 133.136 287.428C133.136 290.272 134.792 292.252 137.546 292.252ZM137.546 291.226C135.386 291.226 134.36 289.534 134.36 287.428C134.36 285.304 135.386 283.612 137.546 283.612C139.688 283.612 140.732 285.304 140.732 287.428C140.732 289.534 139.688 291.226 137.546 291.226ZM143.75 279.472V280.984H145.262V279.472H143.75ZM143.93 282.82V292H145.1V282.82H143.93ZM147.577 292H148.747V286.204C148.747 284.854 149.881 283.63 151.627 283.63C153.211 283.63 153.751 284.638 153.751 285.808V292H154.921V285.556C154.921 283.522 153.553 282.604 151.915 282.604C150.277 282.604 149.287 283.378 148.783 284.134H148.747V282.82H147.577V292ZM160.908 286.654C159.504 286.294 158.28 286.15 158.28 284.998C158.28 284.134 159 283.63 160.314 283.63C162.114 283.63 162.582 284.584 162.744 285.394H163.986C163.824 283.882 162.69 282.604 160.314 282.604C158.244 282.604 157.056 283.576 157.056 285.07C157.056 286.852 158.766 287.284 160.458 287.698C161.736 288.004 163.104 288.148 163.104 289.498C163.104 290.398 162.51 291.208 160.746 291.208C158.82 291.208 158.01 290.254 157.938 288.994H156.696C156.75 290.83 158.172 292.234 160.728 292.234C162.996 292.234 164.328 291.136 164.328 289.462C164.328 287.554 162.636 287.068 160.908 286.654ZM63.924 301.41C62.61 303.228 61.458 305.928 61.458 309.294C61.458 312.552 62.61 315.288 63.924 317.106H64.986C63.744 314.928 62.772 312.552 62.772 309.294C62.772 305.964 63.744 303.588 64.986 301.41H63.924ZM67.1211 302.13V315H68.4351V302.13H67.1211ZM71.2428 315H72.5568V309.654H76.4808C79.9188 309.654 78.7308 314.46 79.3428 315H80.7288V314.892C80.0448 314.676 81.0528 309.636 78.1008 309.042V309.006C79.5048 308.646 80.5128 307.476 80.5128 305.766C80.5128 303.408 79.0188 302.13 76.2648 302.13H71.2428V315ZM72.5568 303.282H76.0488C78.2628 303.282 79.1988 304.146 79.1988 305.784C79.1988 307.584 78.0108 308.502 75.9588 308.502H72.5568V303.282ZM84.4657 307.71V303.282H91.8817V302.13H83.1517V315H92.0797V313.848H84.4657V308.862H91.0717V307.71H84.4657ZM102.823 306.234H104.191C103.849 303.822 101.887 301.896 98.881 301.896C95.371 301.896 92.977 304.686 92.977 308.574C92.977 312.48 95.371 315.234 98.863 315.234C101.941 315.234 103.921 313.236 104.245 310.428H102.877C102.733 312.21 101.599 314.082 98.863 314.082C95.785 314.082 94.327 311.454 94.327 308.574C94.327 305.694 95.767 303.048 98.881 303.048C101.509 303.048 102.553 304.794 102.823 306.234ZM106.961 317.106C108.275 315.288 109.427 312.588 109.427 309.222C109.427 305.964 108.275 303.228 106.961 301.41H105.899C107.141 303.588 108.113 305.964 108.113 309.222C108.113 312.552 107.141 314.928 105.899 317.106H106.961Z" fill="#1D1C20"/>
<path d="M262.538 261.836V257.282H269.828V256.13H261.224V269H262.538V262.988H268.532V261.836H262.538ZM271.976 266.012V259.82H270.806V266.264C270.806 268.298 272.156 269.216 273.812 269.216C275.45 269.216 276.44 268.46 276.944 267.704H276.98V269H278.15V259.82H276.98V265.616C276.98 266.966 275.828 268.19 274.1 268.19C272.498 268.19 271.976 267.182 271.976 266.012ZM280.642 269H281.812V263.204C281.812 261.854 282.946 260.63 284.692 260.63C286.276 260.63 286.816 261.638 286.816 262.808V269H287.986V262.556C287.986 260.522 286.618 259.604 284.98 259.604C283.342 259.604 282.352 260.378 281.848 261.134H281.812V259.82H280.642V269ZM297.033 268.586C297.033 270.458 295.935 271.268 294.081 271.268C292.317 271.268 291.525 270.458 291.345 269.486H290.121C290.265 271.088 291.579 272.294 294.063 272.294C296.583 272.294 298.203 271.016 298.203 268.424V259.82H297.033V261.26H296.997C296.457 260.342 295.449 259.604 293.901 259.604C291.723 259.604 289.869 261.044 289.869 264.068C289.869 267.128 291.723 268.568 293.901 268.568C295.449 268.568 296.457 267.83 296.997 266.876H297.033V268.586ZM294.063 260.63C295.755 260.63 297.033 261.746 297.033 264.068C297.033 266.426 295.755 267.542 294.063 267.542C292.173 267.542 291.093 266.174 291.093 264.068C291.093 261.998 292.173 260.63 294.063 260.63ZM300.501 256.472V257.984H302.013V256.472H300.501ZM300.681 259.82V269H301.851V259.82H300.681ZM305.534 267.434C306.074 268.424 307.028 269.216 308.63 269.216C310.862 269.216 312.662 267.416 312.662 264.41C312.662 261.386 310.862 259.586 308.63 259.586C307.028 259.586 306.056 260.414 305.534 261.296H305.498V256.13H304.328V269H305.498V267.434H305.534ZM308.486 260.594C310.394 260.594 311.438 262.34 311.438 264.41C311.438 266.462 310.394 268.19 308.486 268.19C306.722 268.19 305.498 266.714 305.498 264.41C305.498 262.088 306.722 260.594 308.486 260.594ZM314.637 256.13V269H315.807V256.13H314.637ZM322.138 269.252C324.442 269.252 325.702 267.866 326.152 266.192H324.964C324.784 266.948 324.064 268.244 322.156 268.244C319.996 268.244 319.006 266.516 318.988 264.644H326.26C326.278 264.5 326.278 264.248 326.278 263.996C326.278 261.44 324.784 259.586 322.138 259.586C319.492 259.586 317.764 261.476 317.764 264.41C317.764 267.2 319.33 269.252 322.138 269.252ZM322.084 260.594C323.974 260.594 325.036 261.98 325.036 263.618H318.988C319.078 261.908 320.302 260.594 322.084 260.594ZM270.674 283.234H272.042C271.7 280.822 269.738 278.896 266.732 278.896C263.222 278.896 260.828 281.686 260.828 285.574C260.828 289.48 263.222 292.234 266.714 292.234C269.792 292.234 271.772 290.236 272.096 287.428H270.728C270.584 289.21 269.45 291.082 266.714 291.082C263.636 291.082 262.178 288.454 262.178 285.574C262.178 282.694 263.618 280.048 266.732 280.048C269.36 280.048 270.404 281.794 270.674 283.234ZM274.095 279.13V292H275.265V279.13H274.095ZM277.562 279.472V280.984H279.074V279.472H277.562ZM277.742 282.82V292H278.912V282.82H277.742ZM281.389 292H282.559V286.204C282.559 284.872 283.513 283.63 285.115 283.63C286.645 283.63 286.915 284.656 286.915 285.808V292H288.085V286.204C288.085 284.872 289.057 283.63 290.659 283.63C292.171 283.63 292.459 284.656 292.459 285.808V292H293.629V285.556C293.629 283.648 292.675 282.604 290.911 282.604C289.471 282.604 288.481 283.378 287.887 284.296H287.851C287.491 283.198 286.663 282.604 285.367 282.604C283.927 282.604 283.063 283.378 282.595 284.116H282.559V282.82H281.389V292ZM298.491 292.234C300.003 292.234 301.083 291.658 301.731 290.614H301.767C301.821 291.766 302.289 292.072 303.045 292.072C303.261 292.072 303.459 292.036 303.657 292V291.154C303.549 291.172 303.495 291.172 303.405 291.172C303.009 291.172 302.901 290.83 302.901 290.092V285.502C302.901 283.306 301.407 282.586 299.715 282.586C297.033 282.586 296.025 283.972 295.935 285.592H297.159C297.249 284.242 297.897 283.612 299.661 283.612C301.155 283.612 301.749 284.242 301.749 285.178C301.749 286.276 300.777 286.384 299.265 286.654C296.889 287.086 295.485 287.698 295.485 289.678C295.485 291.208 296.673 292.234 298.491 292.234ZM298.635 291.208C297.303 291.208 296.709 290.632 296.709 289.57C296.709 288.4 297.627 287.95 299.409 287.626C300.507 287.446 301.479 287.23 301.749 286.852V288.562C301.749 290.218 300.525 291.208 298.635 291.208ZM304.347 282.82V283.846H305.697V289.624C305.697 291.622 306.525 292.072 307.875 292.072C308.163 292.072 308.379 292.054 308.739 292V291.01C308.469 291.028 308.325 291.046 308.037 291.046C307.137 291.046 306.867 290.776 306.867 289.642V283.846H308.739V282.82H306.867V279.76H305.697V282.82H304.347ZM314.255 292.252C316.559 292.252 317.819 290.866 318.269 289.192H317.081C316.901 289.948 316.181 291.244 314.273 291.244C312.113 291.244 311.123 289.516 311.105 287.644H318.377C318.395 287.5 318.395 287.248 318.395 286.996C318.395 284.44 316.901 282.586 314.255 282.586C311.609 282.586 309.881 284.476 309.881 287.41C309.881 290.2 311.447 292.252 314.255 292.252ZM314.201 283.594C316.091 283.594 317.153 284.98 317.153 286.618H311.105C311.195 284.908 312.419 283.594 314.201 283.594ZM330.024 283.234H331.392C331.05 280.822 329.088 278.896 326.082 278.896C322.572 278.896 320.178 281.686 320.178 285.574C320.178 289.48 322.572 292.234 326.064 292.234C329.142 292.234 331.122 290.236 331.446 287.428H330.078C329.934 289.21 328.8 291.082 326.064 291.082C322.986 291.082 321.528 288.454 321.528 285.574C321.528 282.694 322.968 280.048 326.082 280.048C328.71 280.048 329.754 281.794 330.024 283.234ZM337.546 292.252C340.282 292.252 341.956 290.272 341.956 287.428C341.956 284.566 340.282 282.586 337.546 282.586C334.792 282.586 333.136 284.566 333.136 287.428C333.136 290.272 334.792 292.252 337.546 292.252ZM337.546 291.226C335.386 291.226 334.36 289.534 334.36 287.428C334.36 285.304 335.386 283.612 337.546 283.612C339.688 283.612 340.732 285.304 340.732 287.428C340.732 289.534 339.688 291.226 337.546 291.226ZM343.75 279.472V280.984H345.262V279.472H343.75ZM343.93 282.82V292H345.1V282.82H343.93ZM347.577 292H348.747V286.204C348.747 284.854 349.881 283.63 351.627 283.63C353.211 283.63 353.751 284.638 353.751 285.808V292H354.921V285.556C354.921 283.522 353.553 282.604 351.915 282.604C350.277 282.604 349.287 283.378 348.783 284.134H348.747V282.82H347.577V292ZM360.908 286.654C359.504 286.294 358.28 286.15 358.28 284.998C358.28 284.134 359 283.63 360.314 283.63C362.114 283.63 362.582 284.584 362.744 285.394H363.986C363.824 283.882 362.69 282.604 360.314 282.604C358.244 282.604 357.056 283.576 357.056 285.07C357.056 286.852 358.766 287.284 360.458 287.698C361.736 288.004 363.104 288.148 363.104 289.498C363.104 290.398 362.51 291.208 360.746 291.208C358.82 291.208 358.01 290.254 357.938 288.994H356.696C356.75 290.83 358.172 292.234 360.728 292.234C362.996 292.234 364.328 291.136 364.328 289.462C364.328 287.554 362.636 287.068 360.908 286.654ZM263.924 301.41C262.61 303.228 261.458 305.928 261.458 309.294C261.458 312.552 262.61 315.288 263.924 317.106H264.986C263.744 314.928 262.772 312.552 262.772 309.294C262.772 305.964 263.744 303.588 264.986 301.41H263.924ZM267.121 315H268.435V309.654H272.359C275.797 309.654 274.609 314.46 275.221 315H276.607V314.892C275.923 314.676 276.931 309.636 273.979 309.042V309.006C275.383 308.646 276.391 307.476 276.391 305.766C276.391 303.408 274.897 302.13 272.143 302.13H267.121V315ZM268.435 303.282H271.927C274.141 303.282 275.077 304.146 275.077 305.784C275.077 307.584 273.889 308.502 271.837 308.502H268.435V303.282ZM280.344 307.71V303.282H287.76V302.13H279.03V315H287.958V313.848H280.344V308.862H286.95V307.71H280.344ZM290.042 315H291.356V303.984H291.392L295.622 315H296.81L301.058 303.984H301.094V315H302.39V302.13H300.59L296.234 313.236H296.198L291.842 302.13H290.042V315ZM305.599 317.106C306.913 315.288 308.065 312.588 308.065 309.222C308.065 305.964 306.913 303.228 305.599 301.41H304.537C305.779 303.588 306.751 305.964 306.751 309.222C306.751 312.552 305.779 314.928 304.537 317.106H305.599Z" fill="#1D1C20"/>
</svg>
