<svg width="1406" height="606" viewBox="0 0 1406 606" fill="none" xmlns="http://www.w3.org/2000/svg">
<path d="M12.96 102.56C20.68 102.56 23.96 96.12 23.96 88.2C23.96 80.28 20.68 73.8 12.96 73.8C5.24 73.8 1.96 80.28 1.96 88.2C1.96 96.12 5.24 102.56 12.96 102.56ZM12.96 98.84C8 98.84 6.48 93.88 6.48 88.2C6.48 82.52 8 77.52 12.96 77.52C17.96 77.52 19.44 82.52 19.44 88.2C19.44 93.88 17.96 98.84 12.96 98.84ZM32.2175 84.12C32.2175 80.32 33.5375 77.52 37.8575 77.52C41.6575 77.52 42.5375 79.96 42.5375 82.24C42.5375 85.92 40.2175 87.08 35.5375 89.92C30.2575 93.24 27.0975 96.8 27.0975 102H46.7375V98.28H32.6575V98.2C33.4575 95.76 36.0175 94.24 38.6975 92.64C42.6975 90.16 47.0575 87.44 47.0575 82.08C47.0575 76.8 42.9775 73.8 37.9775 73.8C30.9775 73.8 27.8175 78.24 27.8175 84.12H32.2175ZM2.72 150H5.64V125.52H5.72L21.16 150H24.72V121.4H21.84V145.88H21.76L6.28 121.4H2.72V150ZM33.0619 134.08V123.96H49.2619V121.4H30.1419V150H33.0619V136.64H46.3819V134.08H33.0619ZM60.9916 150H63.8716V123.96H73.5916V121.4H51.2316V123.96H60.9916V150ZM78.4088 138.12C75.2888 137.32 72.5688 137 72.5688 134.44C72.5688 132.52 74.1688 131.4 77.0888 131.4C81.0888 131.4 82.1288 133.52 82.4888 135.32H85.2488C84.8888 131.96 82.3688 129.12 77.0888 129.12C72.4888 129.12 69.8488 131.28 69.8488 134.6C69.8488 138.56 73.6488 139.52 77.4088 140.44C80.2488 141.12 83.2888 141.44 83.2888 144.44C83.2888 146.44 81.9688 148.24 78.0488 148.24C73.7688 148.24 71.9688 146.12 71.8088 143.32H69.0488C69.1688 147.4 72.3288 150.52 78.0088 150.52C83.0488 150.52 86.0088 148.08 86.0088 144.36C86.0088 140.12 82.2488 139.04 78.4088 138.12ZM98.8034 121.4V150H101.403V121.4H98.8034ZM114.753 150.56C120.833 150.56 124.553 146.16 124.553 139.84C124.553 133.48 120.833 129.08 114.753 129.08C108.633 129.08 104.953 133.48 104.953 139.84C104.953 146.16 108.633 150.56 114.753 150.56ZM114.753 148.28C109.953 148.28 107.673 144.52 107.673 139.84C107.673 135.12 109.953 131.36 114.753 131.36C119.513 131.36 121.833 135.12 121.833 139.84C121.833 144.52 119.513 148.28 114.753 148.28ZM142.979 136.76H145.699C145.219 132.44 141.899 129.12 136.939 129.12C131.099 129.12 127.179 133.44 127.179 139.8C127.179 146.2 131.099 150.52 136.939 150.52C141.899 150.52 145.419 147.12 145.699 142.72H142.979C142.819 145.2 141.219 148.28 136.939 148.28C131.939 148.28 129.899 144 129.899 139.8C129.899 135.64 131.939 131.4 136.939 131.4C141.179 131.4 142.819 134.48 142.979 136.76ZM149.194 150H151.794V142L155.314 138.72L162.994 150H166.114L157.074 137.08L165.114 129.6H161.914L151.794 139.16V121.4H149.194V150ZM175.845 150.56C180.965 150.56 183.765 147.48 184.765 143.76H182.125C181.725 145.44 180.125 148.32 175.885 148.32C171.085 148.32 168.885 144.48 168.845 140.32H185.005C185.045 140 185.045 139.44 185.045 138.88C185.045 133.2 181.725 129.08 175.845 129.08C169.965 129.08 166.125 133.28 166.125 139.8C166.125 146 169.605 150.56 175.845 150.56ZM175.725 131.32C179.925 131.32 182.285 134.4 182.285 138.04H168.845C169.045 134.24 171.765 131.32 175.725 131.32ZM203.567 133.04C202.367 130.88 200.207 129.12 196.687 129.12C191.687 129.12 187.687 133.12 187.687 139.8C187.687 146.52 191.687 150.52 196.647 150.52C200.207 150.52 202.367 148.68 203.567 146.68H203.647V150H206.247V121.4H203.647V133.04H203.567ZM196.967 148.24C192.727 148.24 190.407 144.4 190.407 139.8C190.407 135.24 192.727 131.4 196.967 131.4C200.887 131.4 203.647 134.68 203.647 139.8C203.647 144.96 200.887 148.24 196.967 148.24ZM219.81 122.16V125.52H223.17V122.16H219.81ZM220.21 129.6V150H222.81V129.6H220.21ZM227.514 150H230.114V137.12C230.114 134.12 232.634 131.4 236.514 131.4C240.034 131.4 241.234 133.64 241.234 136.24V150H243.834V135.68C243.834 131.16 240.794 129.12 237.154 129.12C233.514 129.12 231.314 130.84 230.194 132.52H230.114V129.6H227.514V150ZM17.12 184.76H19.84C19.36 180.44 16.04 177.12 11.08 177.12C5.24 177.12 1.32 181.44 1.32 187.8C1.32 194.2 5.24 198.52 11.08 198.52C16.04 198.52 19.56 195.12 19.84 190.72H17.12C16.96 193.2 15.36 196.28 11.08 196.28C6.08 196.28 4.04 192 4.04 187.8C4.04 183.64 6.08 179.4 11.08 179.4C15.32 179.4 16.96 182.48 17.12 184.76ZM29.0147 198.52C32.3747 198.52 34.7747 197.24 36.2147 194.92H36.2947C36.4147 197.48 37.4547 198.16 39.1347 198.16C39.6147 198.16 40.0547 198.08 40.4947 198V196.12C40.2547 196.16 40.1347 196.16 39.9347 196.16C39.0547 196.16 38.8147 195.4 38.8147 193.76V183.56C38.8147 178.68 35.4947 177.08 31.7347 177.08C25.7747 177.08 23.5347 180.16 23.3347 183.76H26.0547C26.2547 180.76 27.6947 179.36 31.6147 179.36C34.9347 179.36 36.2547 180.76 36.2547 182.84C36.2547 185.28 34.0947 185.52 30.7347 186.12C25.4547 187.08 22.3347 188.44 22.3347 192.84C22.3347 196.24 24.9747 198.52 29.0147 198.52ZM29.3347 196.24C26.3747 196.24 25.0547 194.96 25.0547 192.6C25.0547 190 27.0947 189 31.0547 188.28C33.4947 187.88 35.6547 187.4 36.2547 186.56V190.36C36.2547 194.04 33.5347 196.24 29.3347 196.24ZM41.2288 177.6V179.88H44.2288V192.72C44.2288 197.16 46.0688 198.16 49.0688 198.16C49.7088 198.16 50.1888 198.12 50.9888 198V195.8C50.3888 195.84 50.0688 195.88 49.4288 195.88C47.4288 195.88 46.8288 195.28 46.8288 192.76V179.88H50.9888V177.6H46.8288V170.8H44.2288V177.6H41.2288ZM62.4463 198.56C67.5663 198.56 70.3663 195.48 71.3663 191.76H68.7263C68.3263 193.44 66.7263 196.32 62.4863 196.32C57.6863 196.32 55.4863 192.48 55.4463 188.32H71.6062C71.6463 188 71.6463 187.44 71.6463 186.88C71.6463 181.2 68.3263 177.08 62.4463 177.08C56.5663 177.08 52.7262 181.28 52.7262 187.8C52.7262 194 56.2063 198.56 62.4463 198.56ZM62.3263 179.32C66.5263 179.32 68.8863 182.4 68.8863 186.04H55.4463C55.6463 182.24 58.3663 179.32 62.3263 179.32ZM90.2088 197.08C90.2088 201.24 87.7688 203.04 83.6488 203.04C79.7288 203.04 77.9688 201.24 77.5688 199.08H74.8488C75.1688 202.64 78.0888 205.32 83.6088 205.32C89.2088 205.32 92.8088 202.48 92.8088 196.72V177.6H90.2088V180.8H90.1288C88.9288 178.76 86.6888 177.12 83.2487 177.12C78.4088 177.12 74.2887 180.32 74.2887 187.04C74.2887 193.84 78.4088 197.04 83.2487 197.04C86.6888 197.04 88.9288 195.4 90.1288 193.28H90.2088V197.08ZM83.6088 179.4C87.3688 179.4 90.2088 181.88 90.2088 187.04C90.2088 192.28 87.3688 194.76 83.6088 194.76C79.4088 194.76 77.0088 191.72 77.0088 187.04C77.0088 182.44 79.4088 179.4 83.6088 179.4ZM106.159 198.56C112.239 198.56 115.959 194.16 115.959 187.84C115.959 181.48 112.239 177.08 106.159 177.08C100.039 177.08 96.3591 181.48 96.3591 187.84C96.3591 194.16 100.039 198.56 106.159 198.56ZM106.159 196.28C101.359 196.28 99.0791 192.52 99.0791 187.84C99.0791 183.12 101.359 179.36 106.159 179.36C110.919 179.36 113.239 183.12 113.239 187.84C113.239 192.52 110.919 196.28 106.159 196.28ZM119.546 177.6V198H122.146V186.6C122.146 182.64 124.826 179.68 128.546 179.68C128.906 179.68 129.346 179.72 129.786 179.8V177.24C129.266 177.16 128.746 177.12 128.026 177.12C125.106 177.12 123.226 179.08 122.226 181.76H122.146V177.6H119.546ZM132.271 170.16V173.52H135.631V170.16H132.271ZM132.671 177.6V198H135.271V177.6H132.671ZM138.622 196V198H154.782V195.72H141.982V195.64L154.382 179.24V177.6H139.302V179.88H150.742V179.96L138.622 196ZM165.845 198.56C170.965 198.56 173.765 195.48 174.765 191.76H172.125C171.725 193.44 170.125 196.32 165.885 196.32C161.085 196.32 158.885 192.48 158.845 188.32H175.005C175.045 188 175.045 187.44 175.045 186.88C175.045 181.2 171.725 177.08 165.845 177.08C159.965 177.08 156.125 181.28 156.125 187.8C156.125 194 159.605 198.56 165.845 198.56ZM165.725 179.32C169.925 179.32 172.285 182.4 172.285 186.04H158.845C159.045 182.24 161.765 179.32 165.725 179.32ZM193.567 181.04C192.367 178.88 190.207 177.12 186.687 177.12C181.687 177.12 177.687 181.12 177.687 187.8C177.687 194.52 181.687 198.52 186.647 198.52C190.207 198.52 192.367 196.68 193.567 194.68H193.647V198H196.247V169.4H193.647V181.04H193.567ZM186.967 196.24C182.727 196.24 180.407 192.4 180.407 187.8C180.407 183.24 182.727 179.4 186.967 179.4C190.887 179.4 193.647 182.68 193.647 187.8C193.647 192.96 190.887 196.24 186.967 196.24ZM225.05 184.76H227.77C227.29 180.44 223.97 177.12 219.01 177.12C213.17 177.12 209.25 181.44 209.25 187.8C209.25 194.2 213.17 198.52 219.01 198.52C223.97 198.52 227.49 195.12 227.77 190.72H225.05C224.89 193.2 223.29 196.28 219.01 196.28C214.01 196.28 211.97 192 211.97 187.8C211.97 183.64 214.01 179.4 219.01 179.4C223.25 179.4 224.89 182.48 225.05 184.76ZM236.944 198.52C240.304 198.52 242.704 197.24 244.144 194.92H244.224C244.344 197.48 245.384 198.16 247.064 198.16C247.544 198.16 247.984 198.08 248.424 198V196.12C248.184 196.16 248.064 196.16 247.864 196.16C246.984 196.16 246.744 195.4 246.744 193.76V183.56C246.744 178.68 243.424 177.08 239.664 177.08C233.704 177.08 231.464 180.16 231.264 183.76H233.984C234.184 180.76 235.624 179.36 239.544 179.36C242.864 179.36 244.184 180.76 244.184 182.84C244.184 185.28 242.024 185.52 238.664 186.12C233.384 187.08 230.264 188.44 230.264 192.84C230.264 196.24 232.904 198.52 236.944 198.52ZM237.264 196.24C234.304 196.24 232.984 194.96 232.984 192.6C232.984 190 235.024 189 238.984 188.28C241.424 187.88 243.584 187.4 244.184 186.56V190.36C244.184 194.04 241.464 196.24 237.264 196.24ZM251.694 177.6V198H254.294V186.6C254.294 182.64 256.974 179.68 260.694 179.68C261.054 179.68 261.494 179.72 261.934 179.8V177.24C261.414 177.16 260.894 177.12 260.174 177.12C257.254 177.12 255.374 179.08 254.374 181.76H254.294V177.6H251.694ZM267.499 194.52C268.699 196.72 270.819 198.48 274.379 198.48C279.339 198.48 283.339 194.48 283.339 187.8C283.339 181.08 279.339 177.08 274.379 177.08C270.819 177.08 268.659 178.92 267.499 180.88H267.419V169.4H264.819V198H267.419V194.52H267.499ZM274.059 179.32C278.299 179.32 280.619 183.2 280.619 187.8C280.619 192.36 278.299 196.2 274.059 196.2C270.139 196.2 267.419 192.92 267.419 187.8C267.419 182.64 270.139 179.32 274.059 179.32ZM295.768 198.56C301.848 198.56 305.568 194.16 305.568 187.84C305.568 181.48 301.848 177.08 295.768 177.08C289.648 177.08 285.968 181.48 285.968 187.84C285.968 194.16 289.648 198.56 295.768 198.56ZM295.768 196.28C290.968 196.28 288.688 192.52 288.688 187.84C288.688 183.12 290.968 179.36 295.768 179.36C300.528 179.36 302.848 183.12 302.848 187.84C302.848 192.52 300.528 196.28 295.768 196.28ZM309.155 198H311.755V185.12C311.755 182.12 314.275 179.4 318.155 179.4C321.675 179.4 322.875 181.64 322.875 184.24V198H325.475V183.68C325.475 179.16 322.435 177.12 318.795 177.12C315.155 177.12 312.955 178.84 311.835 180.52H311.755V177.6H309.155V198ZM341.952 194.56C343.152 196.72 345.272 198.48 348.832 198.48C353.792 198.48 357.792 194.48 357.792 187.8C357.792 181.08 353.792 177.08 348.832 177.08C345.272 177.08 343.112 178.92 341.952 180.88H341.872V177.6H339.272V205.08H341.872V194.56H341.952ZM348.512 179.36C352.752 179.36 355.072 183.2 355.072 187.8C355.072 192.36 352.752 196.2 348.512 196.2C344.592 196.2 341.872 192.92 341.872 187.8C341.872 182.64 344.592 179.36 348.512 179.36ZM370.222 198.56C376.302 198.56 380.022 194.16 380.022 187.84C380.022 181.48 376.302 177.08 370.222 177.08C364.102 177.08 360.422 181.48 360.422 187.84C360.422 194.16 364.102 198.56 370.222 198.56ZM370.222 196.28C365.422 196.28 363.142 192.52 363.142 187.84C363.142 183.12 365.422 179.36 370.222 179.36C374.982 179.36 377.302 183.12 377.302 187.84C377.302 192.52 374.982 196.28 370.222 196.28ZM392.448 198.56C398.528 198.56 402.248 194.16 402.248 187.84C402.248 181.48 398.528 177.08 392.448 177.08C386.328 177.08 382.648 181.48 382.648 187.84C382.648 194.16 386.328 198.56 392.448 198.56ZM392.448 196.28C387.648 196.28 385.368 192.52 385.368 187.84C385.368 183.12 387.648 179.36 392.448 179.36C397.208 179.36 399.528 183.12 399.528 187.84C399.528 192.52 397.208 196.28 392.448 196.28ZM405.835 169.4V198H408.435V169.4H405.835ZM421.104 186.12C417.984 185.32 415.264 185 415.264 182.44C415.264 180.52 416.864 179.4 419.784 179.4C423.784 179.4 424.824 181.52 425.184 183.32H427.944C427.584 179.96 425.064 177.12 419.784 177.12C415.184 177.12 412.544 179.28 412.544 182.6C412.544 186.56 416.344 187.52 420.104 188.44C422.944 189.12 425.984 189.44 425.984 192.44C425.984 194.44 424.664 196.24 420.744 196.24C416.464 196.24 414.664 194.12 414.504 191.32H411.744C411.864 195.4 415.024 198.52 420.704 198.52C425.744 198.52 428.704 196.08 428.704 192.36C428.704 188.12 424.944 187.04 421.104 186.12Z" fill="#F0F0F0"/>
<path d="M528 232L2 232" stroke="#F0F0F0" stroke-dasharray="4 4"/>
<circle cx="1143" cy="186" r="154" fill="#374236"/>
<circle cx="1020" cy="460" r="114" fill="#374236"/>
<path d="M1059.6 164.364H1061.73C1061.2 160.612 1058.15 157.616 1053.47 157.616C1048.01 157.616 1044.29 161.956 1044.29 168.004C1044.29 174.08 1048.01 178.364 1053.44 178.364C1058.23 178.364 1061.31 175.256 1061.82 170.888H1059.69C1059.46 173.66 1057.7 176.572 1053.44 176.572C1048.66 176.572 1046.39 172.484 1046.39 168.004C1046.39 163.524 1048.63 159.408 1053.47 159.408C1057.56 159.408 1059.18 162.124 1059.6 164.364ZM1068.34 178.364C1070.69 178.364 1072.37 177.468 1073.38 175.844H1073.44C1073.52 177.636 1074.25 178.112 1075.43 178.112C1075.76 178.112 1076.07 178.056 1076.38 178V176.684C1076.21 176.712 1076.13 176.712 1075.99 176.712C1075.37 176.712 1075.2 176.18 1075.2 175.032V167.892C1075.2 164.476 1072.88 163.356 1070.25 163.356C1066.07 163.356 1064.51 165.512 1064.37 168.032H1066.27C1066.41 165.932 1067.42 164.952 1070.16 164.952C1072.49 164.952 1073.41 165.932 1073.41 167.388C1073.41 169.096 1071.9 169.264 1069.55 169.684C1065.85 170.356 1063.67 171.308 1063.67 174.388C1063.67 176.768 1065.51 178.364 1068.34 178.364ZM1068.57 176.768C1066.49 176.768 1065.57 175.872 1065.57 174.22C1065.57 172.4 1067 171.7 1069.77 171.196C1071.48 170.916 1072.99 170.58 1073.41 169.992V172.652C1073.41 175.228 1071.51 176.768 1068.57 176.768ZM1078.67 163.72V178H1080.49V170.02C1080.49 167.248 1082.36 165.176 1084.97 165.176C1085.22 165.176 1085.53 165.204 1085.83 165.26V163.468C1085.47 163.412 1085.11 163.384 1084.6 163.384C1082.56 163.384 1081.24 164.756 1080.54 166.632H1080.49V163.72H1078.67ZM1089.73 175.564C1090.57 177.104 1092.05 178.336 1094.55 178.336C1098.02 178.336 1100.82 175.536 1100.82 170.86C1100.82 166.156 1098.02 163.356 1094.55 163.356C1092.05 163.356 1090.54 164.644 1089.73 166.016H1089.67V157.98H1087.85V178H1089.67V175.564H1089.73ZM1094.32 164.924C1097.29 164.924 1098.91 167.64 1098.91 170.86C1098.91 174.052 1097.29 176.74 1094.32 176.74C1091.58 176.74 1089.67 174.444 1089.67 170.86C1089.67 167.248 1091.58 164.924 1094.32 164.924ZM1109.52 178.392C1113.77 178.392 1116.38 175.312 1116.38 170.888C1116.38 166.436 1113.77 163.356 1109.52 163.356C1105.23 163.356 1102.66 166.436 1102.66 170.888C1102.66 175.312 1105.23 178.392 1109.52 178.392ZM1109.52 176.796C1106.16 176.796 1104.56 174.164 1104.56 170.888C1104.56 167.584 1106.16 164.952 1109.52 164.952C1112.85 164.952 1114.47 167.584 1114.47 170.888C1114.47 174.164 1112.85 176.796 1109.52 176.796ZM1118.89 178H1120.71V168.984C1120.71 166.884 1122.47 164.98 1125.19 164.98C1127.65 164.98 1128.49 166.548 1128.49 168.368V178H1130.31V167.976C1130.31 164.812 1128.18 163.384 1125.64 163.384C1123.09 163.384 1121.55 164.588 1120.76 165.764H1120.71V163.72H1118.89V178ZM1046.47 211.592C1047.31 213.104 1048.8 214.336 1051.29 214.336C1054.76 214.336 1057.56 211.536 1057.56 206.86C1057.56 202.156 1054.76 199.356 1051.29 199.356C1048.8 199.356 1047.28 200.644 1046.47 202.016H1046.42V199.72H1044.6V218.956H1046.42V211.592H1046.47ZM1051.06 200.952C1054.03 200.952 1055.66 203.64 1055.66 206.86C1055.66 210.052 1054.03 212.74 1051.06 212.74C1048.32 212.74 1046.42 210.444 1046.42 206.86C1046.42 203.248 1048.32 200.952 1051.06 200.952ZM1066.26 214.392C1070.52 214.392 1073.12 211.312 1073.12 206.888C1073.12 202.436 1070.52 199.356 1066.26 199.356C1061.98 199.356 1059.4 202.436 1059.4 206.888C1059.4 211.312 1061.98 214.392 1066.26 214.392ZM1066.26 212.796C1062.9 212.796 1061.3 210.164 1061.3 206.888C1061.3 203.584 1062.9 200.952 1066.26 200.952C1069.59 200.952 1071.22 203.584 1071.22 206.888C1071.22 210.164 1069.59 212.796 1066.26 212.796ZM1081.82 214.392C1086.08 214.392 1088.68 211.312 1088.68 206.888C1088.68 202.436 1086.08 199.356 1081.82 199.356C1077.54 199.356 1074.96 202.436 1074.96 206.888C1074.96 211.312 1077.54 214.392 1081.82 214.392ZM1081.82 212.796C1078.46 212.796 1076.86 210.164 1076.86 206.888C1076.86 203.584 1078.46 200.952 1081.82 200.952C1085.15 200.952 1086.78 203.584 1086.78 206.888C1086.78 210.164 1085.15 212.796 1081.82 212.796ZM1091.19 193.98V214H1093.01V193.98H1091.19ZM1107.29 192.86C1105.25 195.688 1103.46 199.888 1103.46 205.124C1103.46 210.192 1105.25 214.448 1107.29 217.276H1108.94C1107.01 213.888 1105.5 210.192 1105.5 205.124C1105.5 199.944 1107.01 196.248 1108.94 192.86H1107.29ZM1111.7 214H1113.75V205.684H1119.85C1125.2 205.684 1123.35 213.16 1124.3 214H1126.46V213.832C1125.4 213.496 1126.96 205.656 1122.37 204.732V204.676C1124.56 204.116 1126.12 202.296 1126.12 199.636C1126.12 195.968 1123.8 193.98 1119.52 193.98H1111.7V214ZM1113.75 195.772H1119.18C1122.62 195.772 1124.08 197.116 1124.08 199.664C1124.08 202.464 1122.23 203.892 1119.04 203.892H1113.75V195.772ZM1131.71 202.66V195.772H1143.25V193.98H1129.67V214H1143.56V212.208H1131.71V204.452H1141.99V202.66H1131.71ZM1146.24 214H1148.28V196.864H1148.34L1154.92 214H1156.77L1163.38 196.864H1163.43V214H1165.45V193.98H1162.65L1155.87 211.256H1155.82L1149.04 193.98H1146.24V214ZM1169.88 217.276C1171.92 214.448 1173.72 210.248 1173.72 205.012C1173.72 199.944 1171.92 195.688 1169.88 192.86H1168.23C1170.16 196.248 1171.67 199.944 1171.67 205.012C1171.67 210.192 1170.16 213.888 1168.23 217.276H1169.88Z" fill="#F0F0F0"/>
<path d="M1139.97 163.72V178H1141.79V170.02C1141.79 167.248 1143.67 165.176 1146.27 165.176C1146.52 165.176 1146.83 165.204 1147.14 165.26V163.468C1146.78 163.412 1146.41 163.384 1145.91 163.384C1143.86 163.384 1142.55 164.756 1141.85 166.632H1141.79V163.72H1139.97ZM1154.52 178.392C1158.11 178.392 1160.07 176.236 1160.77 173.632H1158.92C1158.64 174.808 1157.52 176.824 1154.55 176.824C1151.19 176.824 1149.65 174.136 1149.62 171.224H1160.94C1160.96 171 1160.96 170.608 1160.96 170.216C1160.96 166.24 1158.64 163.356 1154.52 163.356C1150.41 163.356 1147.72 166.296 1147.72 170.86C1147.72 175.2 1150.16 178.392 1154.52 178.392ZM1154.44 164.924C1157.38 164.924 1159.03 167.08 1159.03 169.628H1149.62C1149.76 166.968 1151.67 164.924 1154.44 164.924ZM1163.49 178H1165.31V168.984C1165.31 166.912 1166.79 164.98 1169.28 164.98C1171.66 164.98 1172.08 166.576 1172.08 168.368V178H1173.9V168.984C1173.9 166.912 1175.41 164.98 1177.91 164.98C1180.26 164.98 1180.71 166.576 1180.71 168.368V178H1182.53V167.976C1182.53 165.008 1181.04 163.384 1178.3 163.384C1176.06 163.384 1174.52 164.588 1173.59 166.016H1173.54C1172.98 164.308 1171.69 163.384 1169.67 163.384C1167.43 163.384 1166.09 164.588 1165.36 165.736H1165.31V163.72H1163.49V178ZM1191.74 178.392C1196 178.392 1198.6 175.312 1198.6 170.888C1198.6 166.436 1196 163.356 1191.74 163.356C1187.46 163.356 1184.88 166.436 1184.88 170.888C1184.88 175.312 1187.46 178.392 1191.74 178.392ZM1191.74 176.796C1188.38 176.796 1186.79 174.164 1186.79 170.888C1186.79 167.584 1188.38 164.952 1191.74 164.952C1195.07 164.952 1196.7 167.584 1196.7 170.888C1196.7 174.164 1195.07 176.796 1191.74 176.796ZM1199.22 163.72L1204.46 178H1206.53L1211.76 163.72H1209.8L1205.55 176.152H1205.52L1201.24 163.72H1199.22ZM1216.79 178.364C1219.14 178.364 1220.82 177.468 1221.83 175.844H1221.89C1221.97 177.636 1222.7 178.112 1223.87 178.112C1224.21 178.112 1224.52 178.056 1224.83 178V176.684C1224.66 176.712 1224.57 176.712 1224.43 176.712C1223.82 176.712 1223.65 176.18 1223.65 175.032V167.892C1223.65 164.476 1221.33 163.356 1218.69 163.356C1214.52 163.356 1212.95 165.512 1212.81 168.032H1214.72C1214.86 165.932 1215.87 164.952 1218.61 164.952C1220.93 164.952 1221.86 165.932 1221.86 167.388C1221.86 169.096 1220.35 169.264 1217.99 169.684C1214.3 170.356 1212.11 171.308 1212.11 174.388C1212.11 176.768 1213.96 178.364 1216.79 178.364ZM1217.01 176.768C1214.94 176.768 1214.02 175.872 1214.02 174.22C1214.02 172.4 1215.45 171.7 1218.22 171.196C1219.93 170.916 1221.44 170.58 1221.86 169.992V172.652C1221.86 175.228 1219.95 176.768 1217.01 176.768ZM1227.12 157.98V178H1228.94V157.98H1227.12ZM1237.8 169.684C1235.62 169.124 1233.72 168.9 1233.72 167.108C1233.72 165.764 1234.84 164.98 1236.88 164.98C1239.68 164.98 1240.41 166.464 1240.66 167.724H1242.59C1242.34 165.372 1240.58 163.384 1236.88 163.384C1233.66 163.384 1231.81 164.896 1231.81 167.22C1231.81 169.992 1234.47 170.664 1237.1 171.308C1239.09 171.784 1241.22 172.008 1241.22 174.108C1241.22 175.508 1240.3 176.768 1237.55 176.768C1234.56 176.768 1233.3 175.284 1233.18 173.324H1231.25C1231.34 176.18 1233.55 178.364 1237.52 178.364C1241.05 178.364 1243.12 176.656 1243.12 174.052C1243.12 171.084 1240.49 170.328 1237.8 169.684Z" fill="#46DC78"/>
<path d="M949.904 434H951.948V425.684H958.052C963.4 425.684 961.552 433.16 962.504 434H964.66V433.832C963.596 433.496 965.164 425.656 960.572 424.732V424.676C962.756 424.116 964.324 422.296 964.324 419.636C964.324 415.968 962 413.98 957.716 413.98H949.904V434ZM951.948 415.772H957.38C960.824 415.772 962.28 417.116 962.28 419.664C962.28 422.464 960.432 423.892 957.24 423.892H951.948V415.772ZM973.392 434.392C976.976 434.392 978.936 432.236 979.636 429.632H977.788C977.508 430.808 976.388 432.824 973.42 432.824C970.06 432.824 968.52 430.136 968.492 427.224H979.804C979.832 427 979.832 426.608 979.832 426.216C979.832 422.24 977.508 419.356 973.392 419.356C969.276 419.356 966.588 422.296 966.588 426.86C966.588 431.2 969.024 434.392 973.392 434.392ZM973.308 420.924C976.248 420.924 977.9 423.08 977.9 425.628H968.492C968.632 422.968 970.536 420.924 973.308 420.924ZM982.354 434H984.174V424.984C984.174 422.884 985.938 420.98 988.654 420.98C991.118 420.98 991.958 422.548 991.958 424.368V434H993.778V423.976C993.778 420.812 991.65 419.384 989.102 419.384C986.554 419.384 985.014 420.588 984.23 421.764H984.174V419.72H982.354V434ZM1002.95 434.392C1006.53 434.392 1008.49 432.236 1009.19 429.632H1007.35C1007.07 430.808 1005.95 432.824 1002.98 432.824C999.619 432.824 998.079 430.136 998.051 427.224H1009.36C1009.39 427 1009.39 426.608 1009.39 426.216C1009.39 422.24 1007.07 419.356 1002.95 419.356C998.835 419.356 996.147 422.296 996.147 426.86C996.147 431.2 998.583 434.392 1002.95 434.392ZM1002.87 420.924C1005.81 420.924 1007.46 423.08 1007.46 425.628H998.051C998.191 422.968 1000.09 420.924 1002.87 420.924ZM1010.19 419.72L1014.73 434H1016.77L1020.1 421.932H1020.16L1023.55 434H1025.56L1030.13 419.72H1028.17L1024.58 431.928H1024.53L1021.19 419.72H1019.15L1015.82 431.928H1015.76L1012.21 419.72H1010.19ZM1035.3 434.364C1037.65 434.364 1039.33 433.468 1040.34 431.844H1040.4C1040.48 433.636 1041.21 434.112 1042.39 434.112C1042.72 434.112 1043.03 434.056 1043.34 434V432.684C1043.17 432.712 1043.09 432.712 1042.95 432.712C1042.33 432.712 1042.16 432.18 1042.16 431.032V423.892C1042.16 420.476 1039.84 419.356 1037.21 419.356C1033.03 419.356 1031.47 421.512 1031.33 424.032H1033.23C1033.37 421.932 1034.38 420.952 1037.12 420.952C1039.45 420.952 1040.37 421.932 1040.37 423.388C1040.37 425.096 1038.86 425.264 1036.51 425.684C1032.81 426.356 1030.63 427.308 1030.63 430.388C1030.63 432.768 1032.47 434.364 1035.3 434.364ZM1035.53 432.768C1033.45 432.768 1032.53 431.872 1032.53 430.22C1032.53 428.4 1033.96 427.7 1036.73 427.196C1038.44 426.916 1039.95 426.58 1040.37 425.992V428.652C1040.37 431.228 1038.47 432.768 1035.53 432.768ZM1047.5 431.564C1048.34 433.104 1049.83 434.336 1052.32 434.336C1055.79 434.336 1058.59 431.536 1058.59 426.86C1058.59 422.156 1055.79 419.356 1052.32 419.356C1049.83 419.356 1048.32 420.644 1047.5 422.016H1047.45V413.98H1045.63V434H1047.45V431.564H1047.5ZM1052.1 420.924C1055.06 420.924 1056.69 423.64 1056.69 426.86C1056.69 430.052 1055.06 432.74 1052.1 432.74C1049.35 432.74 1047.45 430.444 1047.45 426.86C1047.45 423.248 1049.35 420.924 1052.1 420.924ZM1061.1 413.98V434H1062.92V413.98H1061.1ZM1072.21 434.392C1075.8 434.392 1077.76 432.236 1078.46 429.632H1076.61C1076.33 430.808 1075.21 432.824 1072.24 432.824C1068.88 432.824 1067.34 430.136 1067.31 427.224H1078.62C1078.65 427 1078.65 426.608 1078.65 426.216C1078.65 422.24 1076.33 419.356 1072.21 419.356C1068.1 419.356 1065.41 422.296 1065.41 426.86C1065.41 431.2 1067.84 434.392 1072.21 434.392ZM1072.13 420.924C1075.07 420.924 1076.72 423.08 1076.72 425.628H1067.31C1067.45 422.968 1069.36 420.924 1072.13 420.924ZM955.728 470.392C959.312 470.392 961.272 468.236 961.972 465.632H960.124C959.844 466.808 958.724 468.824 955.756 468.824C952.396 468.824 950.856 466.136 950.828 463.224H962.14C962.168 463 962.168 462.608 962.168 462.216C962.168 458.24 959.844 455.356 955.728 455.356C951.612 455.356 948.924 458.296 948.924 462.86C948.924 467.2 951.36 470.392 955.728 470.392ZM955.644 456.924C958.584 456.924 960.236 459.08 960.236 461.628H950.828C950.968 458.968 952.872 456.924 955.644 456.924ZM964.69 470H966.51V460.984C966.51 458.884 968.274 456.98 970.99 456.98C973.454 456.98 974.294 458.548 974.294 460.368V470H976.114V459.976C976.114 456.812 973.986 455.384 971.438 455.384C968.89 455.384 967.35 456.588 966.566 457.764H966.51V455.72H964.69V470ZM985.287 470.392C988.871 470.392 990.831 468.236 991.531 465.632H989.683C989.403 466.808 988.283 468.824 985.315 468.824C981.955 468.824 980.415 466.136 980.387 463.224H991.699C991.727 463 991.727 462.608 991.727 462.216C991.727 458.24 989.403 455.356 985.287 455.356C981.171 455.356 978.483 458.296 978.483 462.86C978.483 467.2 980.919 470.392 985.287 470.392ZM985.203 456.924C988.143 456.924 989.795 459.08 989.795 461.628H980.387C980.527 458.968 982.431 456.924 985.203 456.924ZM994.248 455.72V470H996.068V462.02C996.068 459.248 997.944 457.176 1000.55 457.176C1000.8 457.176 1001.11 457.204 1001.42 457.26V455.468C1001.05 455.412 1000.69 455.384 1000.18 455.384C998.14 455.384 996.824 456.756 996.124 458.632H996.068V455.72H994.248ZM1013.14 469.356C1013.14 472.268 1011.43 473.528 1008.55 473.528C1005.81 473.528 1004.57 472.268 1004.29 470.756H1002.39C1002.61 473.248 1004.66 475.124 1008.52 475.124C1012.44 475.124 1014.96 473.136 1014.96 469.104V455.72H1013.14V457.96H1013.09C1012.25 456.532 1010.68 455.384 1008.27 455.384C1004.88 455.384 1002 457.624 1002 462.328C1002 467.088 1004.88 469.328 1008.27 469.328C1010.68 469.328 1012.25 468.18 1013.09 466.696H1013.14V469.356ZM1008.52 456.98C1011.15 456.98 1013.14 458.716 1013.14 462.328C1013.14 465.996 1011.15 467.732 1008.52 467.732C1005.58 467.732 1003.9 465.604 1003.9 462.328C1003.9 459.108 1005.58 456.98 1008.52 456.98ZM1022.54 469.916C1021.79 472.548 1020.67 473.416 1019.35 473.416C1018.88 473.416 1018.65 473.388 1018.23 473.332V474.9C1018.82 474.984 1019.16 475.012 1019.6 475.012C1021.54 475.012 1022.77 473.976 1024.17 470.42L1029.91 455.72H1027.95L1023.5 467.62H1023.44L1018.82 455.72H1016.78L1022.54 469.916Z" fill="#46DC78"/>
<path d="M1040.2 467.592C1041.04 469.104 1042.53 470.336 1045.02 470.336C1048.49 470.336 1051.29 467.536 1051.29 462.86C1051.29 458.156 1048.49 455.356 1045.02 455.356C1042.53 455.356 1041.01 456.644 1040.2 458.016H1040.15V455.72H1038.33V474.956H1040.15V467.592H1040.2ZM1044.79 456.952C1047.76 456.952 1049.39 459.64 1049.39 462.86C1049.39 466.052 1047.76 468.74 1044.79 468.74C1042.05 468.74 1040.15 466.444 1040.15 462.86C1040.15 459.248 1042.05 456.952 1044.79 456.952ZM1059.99 470.392C1064.25 470.392 1066.85 467.312 1066.85 462.888C1066.85 458.436 1064.25 455.356 1059.99 455.356C1055.71 455.356 1053.13 458.436 1053.13 462.888C1053.13 467.312 1055.71 470.392 1059.99 470.392ZM1059.99 468.796C1056.63 468.796 1055.04 466.164 1055.04 462.888C1055.04 459.584 1056.63 456.952 1059.99 456.952C1063.32 456.952 1064.95 459.584 1064.95 462.888C1064.95 466.164 1063.32 468.796 1059.99 468.796ZM1075.55 470.392C1079.81 470.392 1082.41 467.312 1082.41 462.888C1082.41 458.436 1079.81 455.356 1075.55 455.356C1071.27 455.356 1068.69 458.436 1068.69 462.888C1068.69 467.312 1071.27 470.392 1075.55 470.392ZM1075.55 468.796C1072.19 468.796 1070.59 466.164 1070.59 462.888C1070.59 459.584 1072.19 456.952 1075.55 456.952C1078.88 456.952 1080.51 459.584 1080.51 462.888C1080.51 466.164 1078.88 468.796 1075.55 468.796ZM1084.92 449.98V470H1086.74V449.98H1084.92ZM954.104 484.86C952.06 487.688 950.268 491.888 950.268 497.124C950.268 502.192 952.06 506.448 954.104 509.276H955.756C953.824 505.888 952.312 502.192 952.312 497.124C952.312 491.944 953.824 488.248 955.756 484.86H954.104ZM958.517 485.98V506H960.561V485.98H958.517ZM964.369 506H966.413V497.684H972.517C977.865 497.684 976.017 505.16 976.969 506H979.125V505.832C978.061 505.496 979.629 497.656 975.037 496.732V496.676C977.221 496.116 978.789 494.296 978.789 491.636C978.789 487.968 976.465 485.98 972.181 485.98H964.369V506ZM966.413 487.772H971.845C975.289 487.772 976.745 489.116 976.745 491.664C976.745 494.464 974.897 495.892 971.705 495.892H966.413V487.772ZM984.378 494.66V487.772H995.914V485.98H982.334V506H996.222V504.208H984.378V496.452H994.654V494.66H984.378ZM1012.37 492.364H1014.5C1013.97 488.612 1010.92 485.616 1006.24 485.616C1000.78 485.616 997.058 489.956 997.058 496.004C997.058 502.08 1000.78 506.364 1006.21 506.364C1011 506.364 1014.08 503.256 1014.59 498.888H1012.46C1012.23 501.66 1010.47 504.572 1006.21 504.572C1001.43 504.572 999.158 500.484 999.158 496.004C999.158 491.524 1001.4 487.408 1006.24 487.408C1010.33 487.408 1011.95 490.124 1012.37 492.364ZM1018.25 509.276C1020.29 506.448 1022.09 502.248 1022.09 497.012C1022.09 491.944 1020.29 487.688 1018.25 484.86H1016.6C1018.53 488.248 1020.04 491.944 1020.04 497.012C1020.04 502.192 1018.53 505.888 1016.6 509.276H1018.25Z" fill="#F0F0F0"/>
<circle cx="760" cy="232" r="200" fill="#374236"/>
<path d="M876.889 432.7L877.026 431.979L876.391 432.348C842.191 452.26 802.428 463.665 760 463.665C632.055 463.665 528.335 359.945 528.335 232C528.335 104.055 632.055 0.335 760 0.335C850.027 0.335 928.061 51.6875 966.406 126.7L966.768 127.408L967.022 126.655C991.778 53.2171 1061.21 0.335 1143 0.335C1245.54 0.335 1328.66 83.4601 1328.66 186C1328.66 288.54 1245.54 371.665 1143 371.665C1140.8 371.665 1138.61 371.627 1136.43 371.551L1135.73 371.527L1136.16 372.088C1154.68 396.521 1165.66 426.977 1165.66 460C1165.66 540.449 1100.45 605.665 1020 605.665C939.551 605.665 874.335 540.449 874.335 460C874.335 450.669 875.212 441.543 876.889 432.7Z" stroke="#F0F0F0" stroke-width="0.67"/>
<path d="M671.604 192.364H673.732C673.2 188.612 670.148 185.616 665.472 185.616C660.012 185.616 656.288 189.956 656.288 196.004C656.288 202.08 660.012 206.364 665.444 206.364C670.232 206.364 673.312 203.256 673.816 198.888H671.688C671.464 201.66 669.7 204.572 665.444 204.572C660.656 204.572 658.388 200.484 658.388 196.004C658.388 191.524 660.628 187.408 665.472 187.408C669.56 187.408 671.184 190.124 671.604 192.364ZM680.342 206.364C682.694 206.364 684.374 205.468 685.382 203.844H685.438C685.522 205.636 686.25 206.112 687.426 206.112C687.762 206.112 688.07 206.056 688.378 206V204.684C688.21 204.712 688.126 204.712 687.986 204.712C687.37 204.712 687.202 204.18 687.202 203.032V195.892C687.202 192.476 684.878 191.356 682.246 191.356C678.074 191.356 676.506 193.512 676.366 196.032H678.27C678.41 193.932 679.418 192.952 682.162 192.952C684.486 192.952 685.41 193.932 685.41 195.388C685.41 197.096 683.898 197.264 681.546 197.684C677.85 198.356 675.666 199.308 675.666 202.388C675.666 204.768 677.514 206.364 680.342 206.364ZM680.566 204.768C678.494 204.768 677.57 203.872 677.57 202.22C677.57 200.4 678.998 199.7 681.77 199.196C683.478 198.916 684.99 198.58 685.41 197.992V200.652C685.41 203.228 683.506 204.768 680.566 204.768ZM690.666 191.72V206H692.486V198.02C692.486 195.248 694.362 193.176 696.966 193.176C697.218 193.176 697.526 193.204 697.834 193.26V191.468C697.47 191.412 697.106 191.384 696.602 191.384C694.558 191.384 693.242 192.756 692.542 194.632H692.486V191.72H690.666ZM701.73 203.564C702.57 205.104 704.054 206.336 706.546 206.336C710.018 206.336 712.818 203.536 712.818 198.86C712.818 194.156 710.018 191.356 706.546 191.356C704.054 191.356 702.542 192.644 701.73 194.016H701.674V185.98H699.854V206H701.674V203.564H701.73ZM706.322 192.924C709.29 192.924 710.914 195.64 710.914 198.86C710.914 202.052 709.29 204.74 706.322 204.74C703.578 204.74 701.674 202.444 701.674 198.86C701.674 195.248 703.578 192.924 706.322 192.924ZM721.518 206.392C725.774 206.392 728.378 203.312 728.378 198.888C728.378 194.436 725.774 191.356 721.518 191.356C717.234 191.356 714.658 194.436 714.658 198.888C714.658 203.312 717.234 206.392 721.518 206.392ZM721.518 204.796C718.158 204.796 716.562 202.164 716.562 198.888C716.562 195.584 718.158 192.952 721.518 192.952C724.85 192.952 726.474 195.584 726.474 198.888C726.474 202.164 724.85 204.796 721.518 204.796ZM730.889 206H732.709V196.984C732.709 194.884 734.473 192.98 737.189 192.98C739.653 192.98 740.493 194.548 740.493 196.368V206H742.313V195.976C742.313 192.812 740.185 191.384 737.637 191.384C735.089 191.384 733.549 192.588 732.765 193.764H732.709V191.72H730.889V206ZM660.572 242.364C662.924 242.364 664.604 241.468 665.612 239.844H665.668C665.752 241.636 666.48 242.112 667.656 242.112C667.992 242.112 668.3 242.056 668.608 242V240.684C668.44 240.712 668.356 240.712 668.216 240.712C667.6 240.712 667.432 240.18 667.432 239.032V231.892C667.432 228.476 665.108 227.356 662.476 227.356C658.304 227.356 656.736 229.512 656.596 232.032H658.5C658.64 229.932 659.648 228.952 662.392 228.952C664.716 228.952 665.64 229.932 665.64 231.388C665.64 233.096 664.128 233.264 661.776 233.684C658.08 234.356 655.896 235.308 655.896 238.388C655.896 240.768 657.744 242.364 660.572 242.364ZM660.796 240.768C658.724 240.768 657.8 239.872 657.8 238.22C657.8 236.4 659.228 235.7 662 235.196C663.708 234.916 665.22 234.58 665.64 233.992V236.652C665.64 239.228 663.736 240.768 660.796 240.768ZM670.897 242H672.717V232.984C672.717 230.884 674.481 228.98 677.197 228.98C679.661 228.98 680.501 230.548 680.501 232.368V242H682.321V231.976C682.321 228.812 680.193 227.384 677.645 227.384C675.097 227.384 673.557 228.588 672.773 229.764H672.717V227.72H670.897V242ZM695.806 230.128C694.966 228.616 693.454 227.384 690.99 227.384C687.49 227.384 684.69 230.184 684.69 234.86C684.69 239.564 687.49 242.364 690.962 242.364C693.454 242.364 694.966 241.076 695.806 239.676H695.862V242H697.682V221.98H695.862V230.128H695.806ZM691.186 240.768C688.218 240.768 686.594 238.08 686.594 234.86C686.594 231.668 688.218 228.98 691.186 228.98C693.93 228.98 695.862 231.276 695.862 234.86C695.862 238.472 693.93 240.768 691.186 240.768ZM658.472 275.592C659.312 277.104 660.796 278.336 663.288 278.336C666.76 278.336 669.56 275.536 669.56 270.86C669.56 266.156 666.76 263.356 663.288 263.356C660.796 263.356 659.284 264.644 658.472 266.016H658.416V263.72H656.596V282.956H658.416V275.592H658.472ZM663.064 264.952C666.032 264.952 667.656 267.64 667.656 270.86C667.656 274.052 666.032 276.74 663.064 276.74C660.32 276.74 658.416 274.444 658.416 270.86C658.416 267.248 660.32 264.952 663.064 264.952ZM678.261 278.392C682.517 278.392 685.121 275.312 685.121 270.888C685.121 266.436 682.517 263.356 678.261 263.356C673.977 263.356 671.401 266.436 671.401 270.888C671.401 275.312 673.977 278.392 678.261 278.392ZM678.261 276.796C674.901 276.796 673.305 274.164 673.305 270.888C673.305 267.584 674.901 264.952 678.261 264.952C681.593 264.952 683.217 267.584 683.217 270.888C683.217 274.164 681.593 276.796 678.261 276.796ZM693.819 278.392C698.075 278.392 700.679 275.312 700.679 270.888C700.679 266.436 698.075 263.356 693.819 263.356C689.535 263.356 686.959 266.436 686.959 270.888C686.959 275.312 689.535 278.392 693.819 278.392ZM693.819 276.796C690.459 276.796 688.863 274.164 688.863 270.888C688.863 267.584 690.459 264.952 693.819 264.952C697.151 264.952 698.775 267.584 698.775 270.888C698.775 274.164 697.151 276.796 693.819 276.796ZM703.19 257.98V278H705.01V257.98H703.19ZM719.292 256.86C717.248 259.688 715.456 263.888 715.456 269.124C715.456 274.192 717.248 278.448 719.292 281.276H720.944C719.012 277.888 717.5 274.192 717.5 269.124C717.5 263.944 719.012 260.248 720.944 256.86H719.292ZM723.705 278H725.749V260.864H725.805L732.385 278H734.233L740.841 260.864H740.897V278H742.913V257.98H740.113L733.337 275.256H733.281L726.505 257.98H723.705V278ZM745.944 269.964V271.756H753.448V269.964H745.944ZM756.463 278H758.507V269.684H764.611C769.959 269.684 768.111 277.16 769.063 278H771.219V277.832C770.155 277.496 771.723 269.656 767.131 268.732V268.676C769.315 268.116 770.883 266.296 770.883 263.636C770.883 259.968 768.559 257.98 764.275 257.98H756.463V278ZM758.507 259.772H763.939C767.383 259.772 768.839 261.116 768.839 263.664C768.839 266.464 766.991 267.892 763.799 267.892H758.507V259.772ZM775.043 281.276C777.087 278.448 778.879 274.248 778.879 269.012C778.879 263.944 777.087 259.688 775.043 256.86H773.391C775.323 260.248 776.835 263.944 776.835 269.012C776.835 274.192 775.323 277.888 773.391 281.276H775.043Z" fill="#F0F0F0"/>
<path d="M751.971 206H753.791V196.984C753.791 194.912 755.275 192.98 757.767 192.98C760.147 192.98 760.567 194.576 760.567 196.368V206H762.387V196.984C762.387 194.912 763.899 192.98 766.391 192.98C768.743 192.98 769.191 194.576 769.191 196.368V206H771.011V195.976C771.011 193.008 769.527 191.384 766.783 191.384C764.543 191.384 763.003 192.588 762.079 194.016H762.023C761.463 192.308 760.175 191.384 758.159 191.384C755.919 191.384 754.575 192.588 753.847 193.736H753.791V191.72H751.971V206ZM773.894 186.512V188.864H776.246V186.512H773.894ZM774.174 191.72V206H775.994V191.72H774.174ZM778.087 191.72V193.316H780.187V202.304C780.187 205.412 781.475 206.112 783.575 206.112C784.023 206.112 784.359 206.084 784.919 206V204.46C784.499 204.488 784.275 204.516 783.827 204.516C782.427 204.516 782.007 204.096 782.007 202.332V193.316H784.919V191.72H782.007V186.96H780.187V191.72H778.087ZM787.265 186.512V188.864H789.617V186.512H787.265ZM787.545 191.72V206H789.365V191.72H787.545ZM802.994 205.356C802.994 208.268 801.286 209.528 798.402 209.528C795.658 209.528 794.426 208.268 794.146 206.756H792.242C792.466 209.248 794.51 211.124 798.374 211.124C802.294 211.124 804.814 209.136 804.814 205.104V191.72H802.994V193.96H802.938C802.098 192.532 800.53 191.384 798.122 191.384C794.734 191.384 791.85 193.624 791.85 198.328C791.85 203.088 794.734 205.328 798.122 205.328C800.53 205.328 802.098 204.18 802.938 202.696H802.994V205.356ZM798.374 192.98C801.006 192.98 802.994 194.716 802.994 198.328C802.994 201.996 801.006 203.732 798.374 203.732C795.434 203.732 793.754 201.604 793.754 198.328C793.754 195.108 795.434 192.98 798.374 192.98ZM811.947 206.364C814.299 206.364 815.979 205.468 816.987 203.844H817.043C817.127 205.636 817.855 206.112 819.031 206.112C819.367 206.112 819.675 206.056 819.983 206V204.684C819.815 204.712 819.731 204.712 819.591 204.712C818.975 204.712 818.807 204.18 818.807 203.032V195.892C818.807 192.476 816.483 191.356 813.851 191.356C809.679 191.356 808.111 193.512 807.971 196.032H809.875C810.015 193.932 811.023 192.952 813.767 192.952C816.091 192.952 817.015 193.932 817.015 195.388C817.015 197.096 815.503 197.264 813.151 197.684C809.455 198.356 807.271 199.308 807.271 202.388C807.271 204.768 809.119 206.364 811.947 206.364ZM812.171 204.768C810.099 204.768 809.175 203.872 809.175 202.22C809.175 200.4 810.603 199.7 813.375 199.196C815.083 198.916 816.595 198.58 817.015 197.992V200.652C817.015 203.228 815.111 204.768 812.171 204.768ZM820.497 191.72V193.316H822.597V202.304C822.597 205.412 823.885 206.112 825.985 206.112C826.433 206.112 826.769 206.084 827.329 206V204.46C826.909 204.488 826.685 204.516 826.237 204.516C824.837 204.516 824.417 204.096 824.417 202.332V193.316H827.329V191.72H824.417V186.96H822.597V191.72H820.497ZM829.675 186.512V188.864H832.027V186.512H829.675ZM829.955 191.72V206H831.775V191.72H829.955ZM841.12 206.392C845.376 206.392 847.98 203.312 847.98 198.888C847.98 194.436 845.376 191.356 841.12 191.356C836.836 191.356 834.26 194.436 834.26 198.888C834.26 203.312 836.836 206.392 841.12 206.392ZM841.12 204.796C837.76 204.796 836.164 202.164 836.164 198.888C836.164 195.584 837.76 192.952 841.12 192.952C844.452 192.952 846.076 195.584 846.076 198.888C846.076 202.164 844.452 204.796 841.12 204.796ZM850.491 206H852.311V196.984C852.311 194.884 854.075 192.98 856.791 192.98C859.255 192.98 860.095 194.548 860.095 196.368V206H861.915V195.976C861.915 192.812 859.787 191.384 857.239 191.384C854.691 191.384 853.151 192.588 852.367 193.764H852.311V191.72H850.491V206ZM707.455 227.72V242H709.275V234.02C709.275 231.248 711.151 229.176 713.755 229.176C714.007 229.176 714.315 229.204 714.623 229.26V227.468C714.259 227.412 713.895 227.384 713.391 227.384C711.347 227.384 710.031 228.756 709.331 230.632H709.275V227.72H707.455ZM722.009 242.392C725.593 242.392 727.553 240.236 728.253 237.632H726.405C726.125 238.808 725.005 240.824 722.037 240.824C718.677 240.824 717.137 238.136 717.109 235.224H728.421C728.449 235 728.449 234.608 728.449 234.216C728.449 230.24 726.125 227.356 722.009 227.356C717.893 227.356 715.205 230.296 715.205 234.86C715.205 239.2 717.641 242.392 722.009 242.392ZM721.925 228.924C724.865 228.924 726.517 231.08 726.517 233.628H717.109C717.249 230.968 719.153 228.924 721.925 228.924ZM741.415 230.128C740.575 228.616 739.063 227.384 736.599 227.384C733.099 227.384 730.299 230.184 730.299 234.86C730.299 239.564 733.099 242.364 736.571 242.364C739.063 242.364 740.575 241.076 741.415 239.676H741.471V242H743.291V221.98H741.471V230.128H741.415ZM736.795 240.768C733.827 240.768 732.203 238.08 732.203 234.86C732.203 231.668 733.827 228.98 736.795 228.98C739.539 228.98 741.471 231.276 741.471 234.86C741.471 238.472 739.539 240.768 736.795 240.768ZM748.264 237.352V227.72H746.444V237.744C746.444 240.908 748.544 242.336 751.12 242.336C753.668 242.336 755.208 241.16 755.992 239.984H756.048V242H757.868V227.72H756.048V236.736C756.048 238.836 754.256 240.74 751.568 240.74C749.076 240.74 748.264 239.172 748.264 237.352ZM771.437 232.732H773.341C773.005 229.708 770.681 227.384 767.209 227.384C763.121 227.384 760.377 230.408 760.377 234.86C760.377 239.34 763.121 242.364 767.209 242.364C770.681 242.364 773.145 239.984 773.341 236.904H771.437C771.325 238.64 770.205 240.796 767.209 240.796C763.709 240.796 762.281 237.8 762.281 234.86C762.281 231.948 763.709 228.98 767.209 228.98C770.177 228.98 771.325 231.136 771.437 232.732ZM774.395 227.72V229.316H776.495V238.304C776.495 241.412 777.783 242.112 779.883 242.112C780.331 242.112 780.667 242.084 781.227 242V240.46C780.807 240.488 780.583 240.516 780.135 240.516C778.735 240.516 778.315 240.096 778.315 238.332V229.316H781.227V227.72H778.315V222.96H776.495V227.72H774.395ZM783.574 222.512V224.864H785.926V222.512H783.574ZM783.854 227.72V242H785.674V227.72H783.854ZM795.018 242.392C799.274 242.392 801.878 239.312 801.878 234.888C801.878 230.436 799.274 227.356 795.018 227.356C790.734 227.356 788.158 230.436 788.158 234.888C788.158 239.312 790.734 242.392 795.018 242.392ZM795.018 240.796C791.658 240.796 790.062 238.164 790.062 234.888C790.062 231.584 791.658 228.952 795.018 228.952C798.35 228.952 799.974 231.584 799.974 234.888C799.974 238.164 798.35 240.796 795.018 240.796ZM804.389 242H806.209V232.984C806.209 230.884 807.973 228.98 810.689 228.98C813.153 228.98 813.993 230.548 813.993 232.368V242H815.813V231.976C815.813 228.812 813.685 227.384 811.137 227.384C808.589 227.384 807.049 228.588 806.265 229.764H806.209V227.72H804.389V242ZM824.566 233.684C822.382 233.124 820.478 232.9 820.478 231.108C820.478 229.764 821.598 228.98 823.642 228.98C826.442 228.98 827.17 230.464 827.422 231.724H829.354C829.102 229.372 827.338 227.384 823.642 227.384C820.422 227.384 818.574 228.896 818.574 231.22C818.574 233.992 821.234 234.664 823.866 235.308C825.854 235.784 827.982 236.008 827.982 238.108C827.982 239.508 827.058 240.768 824.314 240.768C821.318 240.768 820.058 239.284 819.946 237.324H818.014C818.098 240.18 820.31 242.364 824.286 242.364C827.814 242.364 829.886 240.656 829.886 238.052C829.886 235.084 827.254 234.328 824.566 233.684Z" fill="#46DC78"/>
<path d="M1215.22 424H1220.7C1223.25 424 1224.94 422.74 1224.94 420.31C1224.94 418.456 1223.81 417.394 1222.39 417.124V417.088C1223.54 416.692 1224.42 415.9 1224.42 414.37C1224.42 412.354 1222.89 411.13 1220.35 411.13H1215.22V424ZM1216.54 416.656V412.282H1220.61C1222.26 412.282 1223.05 413.182 1223.05 414.496C1223.05 415.774 1222.37 416.656 1220.61 416.656H1216.54ZM1216.54 422.848V417.808H1221.06C1222.59 417.808 1223.58 418.798 1223.58 420.31C1223.58 421.804 1222.78 422.848 1220.73 422.848H1216.54ZM1228.91 423.946C1228.42 425.638 1227.7 426.196 1226.86 426.196C1226.55 426.196 1226.41 426.178 1226.14 426.142V427.15C1226.52 427.204 1226.73 427.222 1227.02 427.222C1228.26 427.222 1229.05 426.556 1229.95 424.27L1233.64 414.82H1232.38L1229.52 422.47H1229.49L1226.52 414.82H1225.2L1228.91 423.946ZM1238.37 414.82V415.846H1239.72V421.624C1239.72 423.622 1240.55 424.072 1241.9 424.072C1242.19 424.072 1242.4 424.054 1242.76 424V423.01C1242.49 423.028 1242.35 423.046 1242.06 423.046C1241.16 423.046 1240.89 422.776 1240.89 421.642V415.846H1242.76V414.82H1240.89V411.76H1239.72V414.82H1238.37ZM1247.96 424.252C1250.69 424.252 1252.37 422.272 1252.37 419.428C1252.37 416.566 1250.69 414.586 1247.96 414.586C1245.2 414.586 1243.55 416.566 1243.55 419.428C1243.55 422.272 1245.2 424.252 1247.96 424.252ZM1247.96 423.226C1245.8 423.226 1244.77 421.534 1244.77 419.428C1244.77 417.304 1245.8 415.612 1247.96 415.612C1250.1 415.612 1251.14 417.304 1251.14 419.428C1251.14 421.534 1250.1 423.226 1247.96 423.226ZM1253.98 424H1255.15V420.4L1256.73 418.924L1260.19 424H1261.59L1257.53 418.186L1261.14 414.82H1259.7L1255.15 419.122V411.13H1253.98V424ZM1265.97 424.252C1268.28 424.252 1269.54 422.866 1269.99 421.192H1268.8C1268.62 421.948 1267.9 423.244 1265.99 423.244C1263.83 423.244 1262.84 421.516 1262.82 419.644H1270.09C1270.11 419.5 1270.11 419.248 1270.11 418.996C1270.11 416.44 1268.62 414.586 1265.97 414.586C1263.33 414.586 1261.6 416.476 1261.6 419.41C1261.6 422.2 1263.16 424.252 1265.97 424.252ZM1265.92 415.594C1267.81 415.594 1268.87 416.98 1268.87 418.618H1262.82C1262.91 416.908 1264.14 415.594 1265.92 415.594ZM1271.73 424H1272.9V418.204C1272.9 416.854 1274.04 415.63 1275.78 415.63C1277.37 415.63 1277.91 416.638 1277.91 417.808V424H1279.08V417.556C1279.08 415.522 1277.71 414.604 1276.07 414.604C1274.43 414.604 1273.44 415.378 1272.94 416.134H1272.9V414.82H1271.73V424ZM1280.94 411.472V412.984H1282.45V411.472H1280.94ZM1281.12 414.82V424H1282.29V414.82H1281.12ZM1283.8 423.1V424H1291.07V422.974H1285.31V422.938L1290.89 415.558V414.82H1284.1V415.846H1289.25V415.882L1283.8 423.1ZM1292.42 411.472V412.984H1293.93V411.472H1292.42ZM1292.6 414.82V424H1293.77V414.82H1292.6ZM1295.89 424H1297.06V418.204C1297.06 416.854 1298.19 415.63 1299.94 415.63C1301.52 415.63 1302.06 416.638 1302.06 417.808V424H1303.23V417.556C1303.23 415.522 1301.86 414.604 1300.22 414.604C1298.59 414.604 1297.6 415.378 1297.09 416.134H1297.06V414.82H1295.89V424ZM1311.92 423.586C1311.92 425.458 1310.82 426.268 1308.96 426.268C1307.2 426.268 1306.41 425.458 1306.23 424.486H1305C1305.15 426.088 1306.46 427.294 1308.95 427.294C1311.47 427.294 1313.09 426.016 1313.09 423.424V414.82H1311.92V416.26H1311.88C1311.34 415.342 1310.33 414.604 1308.78 414.604C1306.61 414.604 1304.75 416.044 1304.75 419.068C1304.75 422.128 1306.61 423.568 1308.78 423.568C1310.33 423.568 1311.34 422.83 1311.88 421.876H1311.92V423.586ZM1308.95 415.63C1310.64 415.63 1311.92 416.746 1311.92 419.068C1311.92 421.426 1310.64 422.542 1308.95 422.542C1307.06 422.542 1305.98 421.174 1305.98 419.068C1305.98 416.998 1307.06 415.63 1308.95 415.63ZM1326.05 418.042H1327.27C1327.06 416.098 1325.56 414.604 1323.33 414.604C1320.7 414.604 1318.94 416.548 1318.94 419.41C1318.94 422.29 1320.7 424.234 1323.33 424.234C1325.56 424.234 1327.15 422.704 1327.27 420.724H1326.05C1325.98 421.84 1325.26 423.226 1323.33 423.226C1321.08 423.226 1320.16 421.3 1320.16 419.41C1320.16 417.538 1321.08 415.63 1323.33 415.63C1325.24 415.63 1325.98 417.016 1326.05 418.042ZM1331.4 424.234C1332.91 424.234 1333.99 423.658 1334.64 422.614H1334.68C1334.73 423.766 1335.2 424.072 1335.95 424.072C1336.17 424.072 1336.37 424.036 1336.57 424V423.154C1336.46 423.172 1336.4 423.172 1336.31 423.172C1335.92 423.172 1335.81 422.83 1335.81 422.092V417.502C1335.81 415.306 1334.32 414.586 1332.62 414.586C1329.94 414.586 1328.93 415.972 1328.84 417.592H1330.07C1330.16 416.242 1330.81 415.612 1332.57 415.612C1334.06 415.612 1334.66 416.242 1334.66 417.178C1334.66 418.276 1333.69 418.384 1332.17 418.654C1329.8 419.086 1328.39 419.698 1328.39 421.678C1328.39 423.208 1329.58 424.234 1331.4 424.234ZM1331.54 423.208C1330.21 423.208 1329.62 422.632 1329.62 421.57C1329.62 420.4 1330.54 419.95 1332.32 419.626C1333.42 419.446 1334.39 419.23 1334.66 418.852V420.562C1334.66 422.218 1333.43 423.208 1331.54 423.208ZM1338.04 414.82V424H1339.21V418.87C1339.21 417.088 1340.41 415.756 1342.09 415.756C1342.25 415.756 1342.45 415.774 1342.65 415.81V414.658C1342.41 414.622 1342.18 414.604 1341.85 414.604C1340.54 414.604 1339.69 415.486 1339.24 416.692H1339.21V414.82H1338.04ZM1345.15 422.434C1345.69 423.424 1346.64 424.216 1348.25 424.216C1350.48 424.216 1352.28 422.416 1352.28 419.41C1352.28 416.386 1350.48 414.586 1348.25 414.586C1346.64 414.586 1345.67 415.414 1345.15 416.296H1345.11V411.13H1343.94V424H1345.11V422.434H1345.15ZM1348.1 415.594C1350.01 415.594 1351.05 417.34 1351.05 419.41C1351.05 421.462 1350.01 423.19 1348.1 423.19C1346.34 423.19 1345.11 421.714 1345.11 419.41C1345.11 417.088 1346.34 415.594 1348.1 415.594ZM1357.87 424.252C1360.61 424.252 1362.28 422.272 1362.28 419.428C1362.28 416.566 1360.61 414.586 1357.87 414.586C1355.12 414.586 1353.46 416.566 1353.46 419.428C1353.46 422.272 1355.12 424.252 1357.87 424.252ZM1357.87 423.226C1355.71 423.226 1354.69 421.534 1354.69 419.428C1354.69 417.304 1355.71 415.612 1357.87 415.612C1360.01 415.612 1361.06 417.304 1361.06 419.428C1361.06 421.534 1360.01 423.226 1357.87 423.226ZM1363.9 424H1365.07V418.204C1365.07 416.854 1366.2 415.63 1367.95 415.63C1369.53 415.63 1370.07 416.638 1370.07 417.808V424H1371.24V417.556C1371.24 415.522 1369.87 414.604 1368.23 414.604C1366.6 414.604 1365.61 415.378 1365.1 416.134H1365.07V414.82H1363.9V424ZM1221.7 441.042H1222.93C1222.71 439.098 1221.22 437.604 1218.99 437.604C1216.36 437.604 1214.59 439.548 1214.59 442.41C1214.59 445.29 1216.36 447.234 1218.99 447.234C1221.22 447.234 1222.8 445.704 1222.93 443.724H1221.7C1221.63 444.84 1220.91 446.226 1218.99 446.226C1216.74 446.226 1215.82 444.3 1215.82 442.41C1215.82 440.538 1216.74 438.63 1218.99 438.63C1220.89 438.63 1221.63 440.016 1221.7 441.042ZM1224.5 437.82V447H1225.67V441.87C1225.67 440.088 1226.88 438.756 1228.55 438.756C1228.71 438.756 1228.91 438.774 1229.11 438.81V437.658C1228.87 437.622 1228.64 437.604 1228.32 437.604C1227 437.604 1226.16 438.486 1225.71 439.692H1225.67V437.82H1224.5ZM1233.86 447.252C1236.16 447.252 1237.42 445.866 1237.87 444.192H1236.68C1236.5 444.948 1235.78 446.244 1233.87 446.244C1231.71 446.244 1230.72 444.516 1230.71 442.644H1237.98C1238 442.5 1238 442.248 1238 441.996C1238 439.44 1236.5 437.586 1233.86 437.586C1231.21 437.586 1229.48 439.476 1229.48 442.41C1229.48 445.2 1231.05 447.252 1233.86 447.252ZM1233.8 438.594C1235.69 438.594 1236.75 439.98 1236.75 441.618H1230.71C1230.8 439.908 1232.02 438.594 1233.8 438.594ZM1246.33 439.368C1245.79 438.396 1244.82 437.604 1243.24 437.604C1240.99 437.604 1239.19 439.404 1239.19 442.41C1239.19 445.434 1240.99 447.234 1243.22 447.234C1244.82 447.234 1245.79 446.406 1246.33 445.506H1246.37V447H1247.54V434.13H1246.37V439.368H1246.33ZM1243.36 446.208C1241.45 446.208 1240.41 444.48 1240.41 442.41C1240.41 440.358 1241.45 438.63 1243.36 438.63C1245.13 438.63 1246.37 440.106 1246.37 442.41C1246.37 444.732 1245.13 446.208 1243.36 446.208ZM1249.47 434.472V435.984H1250.99V434.472H1249.47ZM1249.65 437.82V447H1250.82V437.82H1249.65ZM1252.17 437.82V438.846H1253.52V444.624C1253.52 446.622 1254.35 447.072 1255.7 447.072C1255.99 447.072 1256.2 447.054 1256.56 447V446.01C1256.29 446.028 1256.15 446.046 1255.86 446.046C1254.96 446.046 1254.69 445.776 1254.69 444.642V438.846H1256.56V437.82H1254.69V434.76H1253.52V437.82H1252.17ZM1261.64 441.654C1260.24 441.294 1259.01 441.15 1259.01 439.998C1259.01 439.134 1259.73 438.63 1261.05 438.63C1262.85 438.63 1263.32 439.584 1263.48 440.394H1264.72C1264.56 438.882 1263.42 437.604 1261.05 437.604C1258.98 437.604 1257.79 438.576 1257.79 440.07C1257.79 441.852 1259.5 442.284 1261.19 442.698C1262.47 443.004 1263.84 443.148 1263.84 444.498C1263.84 445.398 1263.24 446.208 1261.48 446.208C1259.55 446.208 1258.74 445.254 1258.67 443.994H1257.43C1257.48 445.83 1258.91 447.234 1261.46 447.234C1263.73 447.234 1265.06 446.136 1265.06 444.462C1265.06 442.554 1263.37 442.068 1261.64 441.654ZM1272.65 447V438.846H1274.47V437.82H1272.65V436.452C1272.65 435.318 1272.87 435.048 1273.75 435.048C1274 435.048 1274.15 435.066 1274.47 435.084V434.094C1274.08 434.04 1273.86 434.022 1273.59 434.022C1272.28 434.022 1271.48 434.472 1271.48 436.47V437.82H1270.19V438.846H1271.48V447H1272.65ZM1275.93 437.82V447H1277.1V441.87C1277.1 440.088 1278.31 438.756 1279.98 438.756C1280.15 438.756 1280.34 438.774 1280.54 438.81V437.658C1280.31 437.622 1280.07 437.604 1279.75 437.604C1278.44 437.604 1277.59 438.486 1277.14 439.692H1277.1V437.82H1275.93ZM1285.33 447.252C1288.06 447.252 1289.74 445.272 1289.74 442.428C1289.74 439.566 1288.06 437.586 1285.33 437.586C1282.57 437.586 1280.92 439.566 1280.92 442.428C1280.92 445.272 1282.57 447.252 1285.33 447.252ZM1285.33 446.226C1283.17 446.226 1282.14 444.534 1282.14 442.428C1282.14 440.304 1283.17 438.612 1285.33 438.612C1287.47 438.612 1288.51 440.304 1288.51 442.428C1288.51 444.534 1287.47 446.226 1285.33 446.226ZM1291.35 447H1292.52V441.204C1292.52 439.872 1293.47 438.63 1295.08 438.63C1296.61 438.63 1296.88 439.656 1296.88 440.808V447H1298.05V441.204C1298.05 439.872 1299.02 438.63 1300.62 438.63C1302.13 438.63 1302.42 439.656 1302.42 440.808V447H1303.59V440.556C1303.59 438.648 1302.64 437.604 1300.87 437.604C1299.43 437.604 1298.44 438.378 1297.85 439.296H1297.81C1297.45 438.198 1296.62 437.604 1295.33 437.604C1293.89 437.604 1293.02 438.378 1292.56 439.116H1292.52V437.82H1291.35V447ZM1313.77 447.252C1316.5 447.252 1318.18 445.272 1318.18 442.428C1318.18 439.566 1316.5 437.586 1313.77 437.586C1311.01 437.586 1309.36 439.566 1309.36 442.428C1309.36 445.272 1311.01 447.252 1313.77 447.252ZM1313.77 446.226C1311.61 446.226 1310.58 444.534 1310.58 442.428C1310.58 440.304 1311.61 438.612 1313.77 438.612C1315.91 438.612 1316.95 440.304 1316.95 442.428C1316.95 444.534 1315.91 446.226 1313.77 446.226ZM1318.76 438.846H1320.05V447H1321.22V438.846H1324.34V447H1325.51V438.846H1327.33V437.82H1325.51V436.452C1325.51 435.318 1325.72 435.048 1326.61 435.048C1326.86 435.048 1327 435.066 1327.33 435.084V434.094C1326.91 434.04 1326.7 434.022 1326.44 434.022C1325.13 434.022 1324.34 434.472 1324.34 436.47V437.82H1321.22V436.452C1321.22 435.318 1321.44 435.048 1322.32 435.048C1322.57 435.048 1322.72 435.066 1323.04 435.084V434.094C1322.65 434.04 1322.43 434.022 1322.16 434.022C1320.85 434.022 1320.05 434.472 1320.05 436.47V437.82H1318.76V438.846ZM1328.06 441.834V442.986H1332.89V441.834H1328.06ZM1341.31 441.042H1342.53C1342.31 439.098 1340.82 437.604 1338.59 437.604C1335.96 437.604 1334.2 439.548 1334.2 442.41C1334.2 445.29 1335.96 447.234 1338.59 447.234C1340.82 447.234 1342.4 445.704 1342.53 443.724H1341.31C1341.23 444.84 1340.51 446.226 1338.59 446.226C1336.34 446.226 1335.42 444.3 1335.42 442.41C1335.42 440.538 1336.34 438.63 1338.59 438.63C1340.5 438.63 1341.23 440.016 1341.31 441.042ZM1350.28 440.808V447H1351.45V440.556C1351.45 438.522 1350.08 437.604 1348.44 437.604C1346.8 437.604 1345.81 438.378 1345.31 439.134H1345.27V434.13H1344.1V447H1345.27V441.204C1345.27 439.854 1346.41 438.63 1348.15 438.63C1349.74 438.63 1350.28 439.638 1350.28 440.808ZM1355.96 447.234C1357.47 447.234 1358.55 446.658 1359.2 445.614H1359.23C1359.29 446.766 1359.76 447.072 1360.51 447.072C1360.73 447.072 1360.93 447.036 1361.12 447V446.154C1361.02 446.172 1360.96 446.172 1360.87 446.172C1360.48 446.172 1360.37 445.83 1360.37 445.092V440.502C1360.37 438.306 1358.87 437.586 1357.18 437.586C1354.5 437.586 1353.49 438.972 1353.4 440.592H1354.62C1354.72 439.242 1355.36 438.612 1357.13 438.612C1358.62 438.612 1359.22 439.242 1359.22 440.178C1359.22 441.276 1358.24 441.384 1356.73 441.654C1354.36 442.086 1352.95 442.698 1352.95 444.678C1352.95 446.208 1354.14 447.234 1355.96 447.234ZM1356.1 446.208C1354.77 446.208 1354.18 445.632 1354.18 444.57C1354.18 443.4 1355.09 442.95 1356.88 442.626C1357.97 442.446 1358.95 442.23 1359.22 441.852V443.562C1359.22 445.218 1357.99 446.208 1356.1 446.208ZM1362.41 434.472V435.984H1363.93V434.472H1362.41ZM1362.59 437.82V447H1363.76V437.82H1362.59ZM1365.88 447H1367.05V441.204C1367.05 439.854 1368.19 438.63 1369.93 438.63C1371.52 438.63 1372.06 439.638 1372.06 440.808V447H1373.23V440.556C1373.23 438.522 1371.86 437.604 1370.22 437.604C1368.58 437.604 1367.59 438.378 1367.09 439.134H1367.05V437.82H1365.88V447ZM1219 470.252C1221.74 470.252 1223.41 468.272 1223.41 465.428C1223.41 462.566 1221.74 460.586 1219 460.586C1216.25 460.586 1214.59 462.566 1214.59 465.428C1214.59 468.272 1216.25 470.252 1219 470.252ZM1219 469.226C1216.84 469.226 1215.82 467.534 1215.82 465.428C1215.82 463.304 1216.84 461.612 1219 461.612C1221.15 461.612 1222.19 463.304 1222.19 465.428C1222.19 467.534 1221.15 469.226 1219 469.226ZM1223.99 461.846H1225.29V470H1226.46V461.846H1229.57V470H1230.74V461.846H1232.56V460.82H1230.74V459.452C1230.74 458.318 1230.96 458.048 1231.84 458.048C1232.09 458.048 1232.24 458.066 1232.56 458.084V457.094C1232.15 457.04 1231.93 457.022 1231.68 457.022C1230.37 457.022 1229.57 457.472 1229.57 459.47V460.82H1226.46V459.452C1226.46 458.318 1226.68 458.048 1227.56 458.048C1227.81 458.048 1227.95 458.066 1228.28 458.084V457.094C1227.88 457.04 1227.67 457.022 1227.4 457.022C1226.08 457.022 1225.29 457.472 1225.29 459.47V460.82H1223.99V461.846ZM1233.59 457.472V458.984H1235.1V457.472H1233.59ZM1233.79 460.82V470H1234.96V460.82H1233.79ZM1243.66 464.042H1244.88C1244.67 462.098 1243.17 460.604 1240.94 460.604C1238.31 460.604 1236.55 462.548 1236.55 465.41C1236.55 468.29 1238.31 470.234 1240.94 470.234C1243.17 470.234 1244.76 468.704 1244.88 466.724H1243.66C1243.59 467.84 1242.87 469.226 1240.94 469.226C1238.69 469.226 1237.77 467.3 1237.77 465.41C1237.77 463.538 1238.69 461.63 1240.94 461.63C1242.85 461.63 1243.59 463.016 1243.66 464.042ZM1246.28 457.472V458.984H1247.79V457.472H1246.28ZM1246.46 460.82V470H1247.63V460.82H1246.46ZM1252.21 470.234C1253.72 470.234 1254.8 469.658 1255.45 468.614H1255.49C1255.54 469.766 1256.01 470.072 1256.76 470.072C1256.98 470.072 1257.18 470.036 1257.38 470V469.154C1257.27 469.172 1257.21 469.172 1257.12 469.172C1256.73 469.172 1256.62 468.83 1256.62 468.092V463.502C1256.62 461.306 1255.13 460.586 1253.43 460.586C1250.75 460.586 1249.74 461.972 1249.65 463.592H1250.88C1250.97 462.242 1251.62 461.612 1253.38 461.612C1254.87 461.612 1255.47 462.242 1255.47 463.178C1255.47 464.276 1254.5 464.384 1252.98 464.654C1250.61 465.086 1249.2 465.698 1249.2 467.678C1249.2 469.208 1250.39 470.234 1252.21 470.234ZM1252.35 469.208C1251.02 469.208 1250.43 468.632 1250.43 467.57C1250.43 466.4 1251.35 465.95 1253.13 465.626C1254.23 465.446 1255.2 465.23 1255.47 464.852V466.562C1255.47 468.218 1254.24 469.208 1252.35 469.208ZM1258.85 457.13V470H1260.02V457.13H1258.85ZM1266.3 460.82V470H1267.47V464.87C1267.47 463.088 1268.68 461.756 1270.35 461.756C1270.51 461.756 1270.71 461.774 1270.91 461.81V460.658C1270.68 460.622 1270.44 460.604 1270.12 460.604C1268.8 460.604 1267.96 461.486 1267.51 462.692H1267.47V460.82H1266.3ZM1275.66 470.252C1277.96 470.252 1279.22 468.866 1279.67 467.192H1278.48C1278.3 467.948 1277.58 469.244 1275.68 469.244C1273.52 469.244 1272.53 467.516 1272.51 465.644H1279.78C1279.8 465.5 1279.8 465.248 1279.8 464.996C1279.8 462.44 1278.3 460.586 1275.66 460.586C1273.01 460.586 1271.28 462.476 1271.28 465.41C1271.28 468.2 1272.85 470.252 1275.66 470.252ZM1275.6 461.594C1277.49 461.594 1278.56 462.98 1278.56 464.618H1272.51C1272.6 462.908 1273.82 461.594 1275.6 461.594ZM1288.15 469.586C1288.15 471.458 1287.05 472.268 1285.2 472.268C1283.43 472.268 1282.64 471.458 1282.46 470.486H1281.24C1281.38 472.088 1282.7 473.294 1285.18 473.294C1287.7 473.294 1289.32 472.016 1289.32 469.424V460.82H1288.15V462.26H1288.11C1287.57 461.342 1286.57 460.604 1285.02 460.604C1282.84 460.604 1280.99 462.044 1280.99 465.068C1280.99 468.128 1282.84 469.568 1285.02 469.568C1286.57 469.568 1287.57 468.83 1288.11 467.876H1288.15V469.586ZM1285.18 461.63C1286.87 461.63 1288.15 462.746 1288.15 465.068C1288.15 467.426 1286.87 468.542 1285.18 468.542C1283.29 468.542 1282.21 467.174 1282.21 465.068C1282.21 462.998 1283.29 461.63 1285.18 461.63ZM1291.26 457.472V458.984H1292.77V457.472H1291.26ZM1291.44 460.82V470H1292.61V460.82H1291.44ZM1298.31 464.654C1296.91 464.294 1295.68 464.15 1295.68 462.998C1295.68 462.134 1296.4 461.63 1297.72 461.63C1299.52 461.63 1299.98 462.584 1300.15 463.394H1301.39C1301.23 461.882 1300.09 460.604 1297.72 460.604C1295.65 460.604 1294.46 461.576 1294.46 463.07C1294.46 464.852 1296.17 465.284 1297.86 465.698C1299.14 466.004 1300.51 466.148 1300.51 467.498C1300.51 468.398 1299.91 469.208 1298.15 469.208C1296.22 469.208 1295.41 468.254 1295.34 466.994H1294.1C1294.15 468.83 1295.57 470.234 1298.13 470.234C1300.4 470.234 1301.73 469.136 1301.73 467.462C1301.73 465.554 1300.04 465.068 1298.31 464.654ZM1302.34 460.82V461.846H1303.69V467.624C1303.69 469.622 1304.52 470.072 1305.87 470.072C1306.15 470.072 1306.37 470.054 1306.73 470V469.01C1306.46 469.028 1306.32 469.046 1306.03 469.046C1305.13 469.046 1304.86 468.776 1304.86 467.642V461.846H1306.73V460.82H1304.86V457.76H1303.69V460.82H1302.34ZM1308.35 460.82V470H1309.52V464.87C1309.52 463.088 1310.72 461.756 1312.4 461.756C1312.56 461.756 1312.76 461.774 1312.96 461.81V460.658C1312.72 460.622 1312.49 460.604 1312.16 460.604C1310.85 460.604 1310 461.486 1309.55 462.692H1309.52V460.82H1308.35ZM1314.07 457.472V458.984H1315.59V457.472H1314.07ZM1314.25 460.82V470H1315.42V460.82H1314.25ZM1321.4 470.252C1323.7 470.252 1324.96 468.866 1325.41 467.192H1324.22C1324.04 467.948 1323.32 469.244 1321.41 469.244C1319.25 469.244 1318.26 467.516 1318.25 465.644H1325.52C1325.54 465.5 1325.54 465.248 1325.54 464.996C1325.54 462.44 1324.04 460.586 1321.4 460.586C1318.75 460.586 1317.02 462.476 1317.02 465.41C1317.02 468.2 1318.59 470.252 1321.4 470.252ZM1321.34 461.594C1323.23 461.594 1324.29 462.98 1324.29 464.618H1318.25C1318.34 462.908 1319.56 461.594 1321.34 461.594ZM1330.69 464.654C1329.28 464.294 1328.06 464.15 1328.06 462.998C1328.06 462.134 1328.78 461.63 1330.09 461.63C1331.89 461.63 1332.36 462.584 1332.52 463.394H1333.77C1333.6 461.882 1332.47 460.604 1330.09 460.604C1328.02 460.604 1326.84 461.576 1326.84 463.07C1326.84 464.852 1328.55 465.284 1330.24 465.698C1331.52 466.004 1332.88 466.148 1332.88 467.498C1332.88 468.398 1332.29 469.208 1330.53 469.208C1328.6 469.208 1327.79 468.254 1327.72 466.994H1326.48C1326.53 468.83 1327.95 470.234 1330.51 470.234C1332.78 470.234 1334.11 469.136 1334.11 467.462C1334.11 465.554 1332.42 465.068 1330.69 464.654ZM1335.49 472.178C1336.71 471.8 1337 471.008 1337 470V468.488H1335.49V470H1336.22C1336.24 470.864 1336.06 471.188 1335.49 471.404V472.178ZM1349.95 464.042H1351.18C1350.96 462.098 1349.47 460.604 1347.24 460.604C1344.61 460.604 1342.84 462.548 1342.84 465.41C1342.84 468.29 1344.61 470.234 1347.24 470.234C1349.47 470.234 1351.05 468.704 1351.18 466.724H1349.95C1349.88 467.84 1349.16 469.226 1347.24 469.226C1344.99 469.226 1344.07 467.3 1344.07 465.41C1344.07 463.538 1344.99 461.63 1347.24 461.63C1349.14 461.63 1349.88 463.016 1349.95 464.042ZM1352.75 460.82V470H1353.92V464.87C1353.92 463.088 1355.13 461.756 1356.8 461.756C1356.96 461.756 1357.16 461.774 1357.36 461.81V460.658C1357.12 460.622 1356.89 460.604 1356.57 460.604C1355.25 460.604 1354.41 461.486 1353.96 462.692H1353.92V460.82H1352.75ZM1362.11 470.252C1364.41 470.252 1365.67 468.866 1366.12 467.192H1364.93C1364.75 467.948 1364.03 469.244 1362.12 469.244C1359.96 469.244 1358.97 467.516 1358.96 465.644H1366.23C1366.25 465.5 1366.25 465.248 1366.25 464.996C1366.25 462.44 1364.75 460.586 1362.11 460.586C1359.46 460.586 1357.73 462.476 1357.73 465.41C1357.73 468.2 1359.3 470.252 1362.11 470.252ZM1362.05 461.594C1363.94 461.594 1365 462.98 1365 464.618H1358.96C1359.05 462.908 1360.27 461.594 1362.05 461.594ZM1374.58 462.368C1374.04 461.396 1373.07 460.604 1371.49 460.604C1369.24 460.604 1367.44 462.404 1367.44 465.41C1367.44 468.434 1369.24 470.234 1371.47 470.234C1373.07 470.234 1374.04 469.406 1374.58 468.506H1374.62V470H1375.79V457.13H1374.62V462.368H1374.58ZM1371.61 469.208C1369.7 469.208 1368.66 467.48 1368.66 465.41C1368.66 463.358 1369.7 461.63 1371.61 461.63C1373.38 461.63 1374.62 463.106 1374.62 465.41C1374.62 467.732 1373.38 469.208 1371.61 469.208ZM1377.72 457.472V458.984H1379.24V457.472H1377.72ZM1377.9 460.82V470H1379.07V460.82H1377.9ZM1380.42 460.82V461.846H1381.77V467.624C1381.77 469.622 1382.6 470.072 1383.95 470.072C1384.24 470.072 1384.45 470.054 1384.81 470V469.01C1384.54 469.028 1384.4 469.046 1384.11 469.046C1383.21 469.046 1382.94 468.776 1382.94 467.642V461.846H1384.81V460.82H1382.94V457.76H1381.77V460.82H1380.42ZM1219 493.252C1221.74 493.252 1223.41 491.272 1223.41 488.428C1223.41 485.566 1221.74 483.586 1219 483.586C1216.25 483.586 1214.59 485.566 1214.59 488.428C1214.59 491.272 1216.25 493.252 1219 493.252ZM1219 492.226C1216.84 492.226 1215.82 490.534 1215.82 488.428C1215.82 486.304 1216.84 484.612 1219 484.612C1221.15 484.612 1222.19 486.304 1222.19 488.428C1222.19 490.534 1221.15 492.226 1219 492.226ZM1223.92 483.82L1226.84 493H1228.15L1230.29 485.242H1230.33L1232.51 493H1233.8L1236.74 483.82H1235.48L1233.17 491.668H1233.14L1230.99 483.82H1229.68L1227.54 491.668H1227.5L1225.22 483.82H1223.92ZM1238.04 493H1239.21V487.204C1239.21 485.854 1240.34 484.63 1242.09 484.63C1243.67 484.63 1244.21 485.638 1244.21 486.808V493H1245.38V486.556C1245.38 484.522 1244.01 483.604 1242.37 483.604C1240.74 483.604 1239.75 484.378 1239.24 485.134H1239.21V483.82H1238.04V493ZM1251.28 493.252C1253.58 493.252 1254.84 491.866 1255.29 490.192H1254.1C1253.92 490.948 1253.2 492.244 1251.29 492.244C1249.13 492.244 1248.14 490.516 1248.13 488.644H1255.4C1255.42 488.5 1255.42 488.248 1255.42 487.996C1255.42 485.44 1253.92 483.586 1251.28 483.586C1248.63 483.586 1246.9 485.476 1246.9 488.41C1246.9 491.2 1248.47 493.252 1251.28 493.252ZM1251.22 484.594C1253.11 484.594 1254.17 485.98 1254.17 487.618H1248.13C1248.22 485.908 1249.44 484.594 1251.22 484.594ZM1257.04 483.82V493H1258.21V487.87C1258.21 486.088 1259.41 484.756 1261.09 484.756C1261.25 484.756 1261.45 484.774 1261.65 484.81V483.658C1261.41 483.622 1261.18 483.604 1260.85 483.604C1259.54 483.604 1258.69 484.486 1258.24 485.692H1258.21V483.82H1257.04ZM1266.51 487.654C1265.11 487.294 1263.88 487.15 1263.88 485.998C1263.88 485.134 1264.6 484.63 1265.92 484.63C1267.72 484.63 1268.18 485.584 1268.35 486.394H1269.59C1269.43 484.882 1268.29 483.604 1265.92 483.604C1263.85 483.604 1262.66 484.576 1262.66 486.07C1262.66 487.852 1264.37 488.284 1266.06 488.698C1267.34 489.004 1268.71 489.148 1268.71 490.498C1268.71 491.398 1268.11 492.208 1266.35 492.208C1264.42 492.208 1263.61 491.254 1263.54 489.994H1262.3C1262.35 491.83 1263.77 493.234 1266.33 493.234C1268.6 493.234 1269.93 492.136 1269.93 490.462C1269.93 488.554 1268.24 488.068 1266.51 487.654ZM1282.42 492.586C1282.42 494.458 1281.32 495.268 1279.47 495.268C1277.7 495.268 1276.91 494.458 1276.73 493.486H1275.51C1275.65 495.088 1276.97 496.294 1279.45 496.294C1281.97 496.294 1283.59 495.016 1283.59 492.424V483.82H1282.42V485.26H1282.38C1281.84 484.342 1280.84 483.604 1279.29 483.604C1277.11 483.604 1275.26 485.044 1275.26 488.068C1275.26 491.128 1277.11 492.568 1279.29 492.568C1280.84 492.568 1281.84 491.83 1282.38 490.876H1282.42V492.586ZM1279.45 484.63C1281.14 484.63 1282.42 485.746 1282.42 488.068C1282.42 490.426 1281.14 491.542 1279.45 491.542C1277.56 491.542 1276.48 490.174 1276.48 488.068C1276.48 485.998 1277.56 484.63 1279.45 484.63ZM1289.56 493.252C1291.87 493.252 1293.13 491.866 1293.58 490.192H1292.39C1292.21 490.948 1291.49 492.244 1289.58 492.244C1287.42 492.244 1286.43 490.516 1286.41 488.644H1293.68C1293.7 488.5 1293.7 488.248 1293.7 487.996C1293.7 485.44 1292.21 483.586 1289.56 483.586C1286.92 483.586 1285.19 485.476 1285.19 488.41C1285.19 491.2 1286.75 493.252 1289.56 493.252ZM1289.51 484.594C1291.4 484.594 1292.46 485.98 1292.46 487.618H1286.41C1286.5 485.908 1287.73 484.594 1289.51 484.594ZM1294.43 483.82V484.846H1295.78V490.624C1295.78 492.622 1296.61 493.072 1297.96 493.072C1298.24 493.072 1298.46 493.054 1298.82 493V492.01C1298.55 492.028 1298.41 492.046 1298.12 492.046C1297.22 492.046 1296.95 491.776 1296.95 490.642V484.846H1298.82V483.82H1296.95V480.76H1295.78V483.82H1294.43ZM1304.01 483.82V484.846H1305.36V490.624C1305.36 492.622 1306.19 493.072 1307.54 493.072C1307.82 493.072 1308.04 493.054 1308.4 493V492.01C1308.13 492.028 1307.99 492.046 1307.7 492.046C1306.8 492.046 1306.53 491.776 1306.53 490.642V484.846H1308.4V483.82H1306.53V480.76H1305.36V483.82H1304.01ZM1316.26 486.808V493H1317.43V486.556C1317.43 484.522 1316.06 483.604 1314.43 483.604C1312.79 483.604 1311.8 484.378 1311.29 485.134H1311.26V480.13H1310.09V493H1311.26V487.204C1311.26 485.854 1312.39 484.63 1314.14 484.63C1315.72 484.63 1316.26 485.638 1316.26 486.808ZM1323.33 493.252C1325.63 493.252 1326.89 491.866 1327.34 490.192H1326.16C1325.98 490.948 1325.26 492.244 1323.35 492.244C1321.19 492.244 1320.2 490.516 1320.18 488.644H1327.45C1327.47 488.5 1327.47 488.248 1327.47 487.996C1327.47 485.44 1325.98 483.586 1323.33 483.586C1320.68 483.586 1318.96 485.476 1318.96 488.41C1318.96 491.2 1320.52 493.252 1323.33 493.252ZM1323.28 484.594C1325.17 484.594 1326.23 485.98 1326.23 487.618H1320.18C1320.27 485.908 1321.49 484.594 1323.28 484.594ZM1333.34 483.82V493H1334.51V487.87C1334.51 486.088 1335.72 484.756 1337.39 484.756C1337.56 484.756 1337.75 484.774 1337.95 484.81V483.658C1337.72 483.622 1337.48 483.604 1337.16 483.604C1335.85 483.604 1335 484.486 1334.55 485.692H1334.51V483.82H1333.34ZM1339.07 480.472V481.984H1340.58V480.472H1339.07ZM1339.25 483.82V493H1340.42V483.82H1339.25ZM1349.18 492.586C1349.18 494.458 1348.08 495.268 1346.23 495.268C1344.47 495.268 1343.67 494.458 1343.49 493.486H1342.27C1342.41 495.088 1343.73 496.294 1346.21 496.294C1348.73 496.294 1350.35 495.016 1350.35 492.424V483.82H1349.18V485.26H1349.15C1348.61 484.342 1347.6 483.604 1346.05 483.604C1343.87 483.604 1342.02 485.044 1342.02 488.068C1342.02 491.128 1343.87 492.568 1346.05 492.568C1347.6 492.568 1348.61 491.83 1349.15 490.876H1349.18V492.586ZM1346.21 484.63C1347.9 484.63 1349.18 485.746 1349.18 488.068C1349.18 490.426 1347.9 491.542 1346.21 491.542C1344.32 491.542 1343.24 490.174 1343.24 488.068C1343.24 485.998 1344.32 484.63 1346.21 484.63ZM1358.64 486.808V493H1359.81V486.556C1359.81 484.522 1358.45 483.604 1356.81 483.604C1355.17 483.604 1354.18 484.378 1353.68 485.134H1353.64V480.13H1352.47V493H1353.64V487.204C1353.64 485.854 1354.77 484.63 1356.52 484.63C1358.1 484.63 1358.64 485.638 1358.64 486.808ZM1360.91 483.82V484.846H1362.26V490.624C1362.26 492.622 1363.09 493.072 1364.44 493.072C1364.72 493.072 1364.94 493.054 1365.3 493V492.01C1365.03 492.028 1364.89 492.046 1364.6 492.046C1363.7 492.046 1363.43 491.776 1363.43 490.642V484.846H1365.3V483.82H1363.43V480.76H1362.26V483.82H1360.91ZM1370.49 483.82V484.846H1371.84V490.624C1371.84 492.622 1372.67 493.072 1374.02 493.072C1374.3 493.072 1374.52 493.054 1374.88 493V492.01C1374.61 492.028 1374.47 492.046 1374.18 492.046C1373.28 492.046 1373.01 491.776 1373.01 490.642V484.846H1374.88V483.82H1373.01V480.76H1371.84V483.82H1370.49ZM1380.07 493.252C1382.81 493.252 1384.48 491.272 1384.48 488.428C1384.48 485.566 1382.81 483.586 1380.07 483.586C1377.32 483.586 1375.66 485.566 1375.66 488.428C1375.66 491.272 1377.32 493.252 1380.07 493.252ZM1380.07 492.226C1377.91 492.226 1376.89 490.534 1376.89 488.428C1376.89 486.304 1377.91 484.612 1380.07 484.612C1382.21 484.612 1383.26 486.304 1383.26 488.428C1383.26 490.534 1382.21 492.226 1380.07 492.226ZM1221.7 510.042H1222.93C1222.71 508.098 1221.22 506.604 1218.99 506.604C1216.36 506.604 1214.59 508.548 1214.59 511.41C1214.59 514.29 1216.36 516.234 1218.99 516.234C1221.22 516.234 1222.8 514.704 1222.93 512.724H1221.7C1221.63 513.84 1220.91 515.226 1218.99 515.226C1216.74 515.226 1215.82 513.3 1215.82 511.41C1215.82 509.538 1216.74 507.63 1218.99 507.63C1220.89 507.63 1221.63 509.016 1221.7 510.042ZM1224.5 503.13V516H1225.67V503.13H1224.5ZM1230.26 516.234C1231.77 516.234 1232.85 515.658 1233.5 514.614H1233.53C1233.59 515.766 1234.05 516.072 1234.81 516.072C1235.03 516.072 1235.22 516.036 1235.42 516V515.154C1235.31 515.172 1235.26 515.172 1235.17 515.172C1234.77 515.172 1234.67 514.83 1234.67 514.092V509.502C1234.67 507.306 1233.17 506.586 1231.48 506.586C1228.8 506.586 1227.79 507.972 1227.7 509.592H1228.92C1229.01 508.242 1229.66 507.612 1231.43 507.612C1232.92 507.612 1233.51 508.242 1233.51 509.178C1233.51 510.276 1232.54 510.384 1231.03 510.654C1228.65 511.086 1227.25 511.698 1227.25 513.678C1227.25 515.208 1228.44 516.234 1230.26 516.234ZM1230.4 515.208C1229.07 515.208 1228.47 514.632 1228.47 513.57C1228.47 512.4 1229.39 511.95 1231.17 511.626C1232.27 511.446 1233.24 511.23 1233.51 510.852V512.562C1233.51 514.218 1232.29 515.208 1230.4 515.208ZM1236.71 503.472V504.984H1238.23V503.472H1236.71ZM1236.89 506.82V516H1238.06V506.82H1236.89ZM1240.18 516H1241.35V510.204C1241.35 508.872 1242.3 507.63 1243.91 507.63C1245.44 507.63 1245.71 508.656 1245.71 509.808V516H1246.88V510.204C1246.88 508.872 1247.85 507.63 1249.45 507.63C1250.96 507.63 1251.25 508.656 1251.25 509.808V516H1252.42V509.556C1252.42 507.648 1251.47 506.604 1249.7 506.604C1248.26 506.604 1247.27 507.378 1246.68 508.296H1246.64C1246.28 507.198 1245.45 506.604 1244.16 506.604C1242.72 506.604 1241.85 507.378 1241.39 508.116H1241.35V506.82H1240.18V516Z" fill="#F0F0F0"/>
<path d="M1261.18 516.234C1262.69 516.234 1263.77 515.658 1264.42 514.614H1264.45C1264.51 515.766 1264.97 516.072 1265.73 516.072C1265.95 516.072 1266.14 516.036 1266.34 516V515.154C1266.23 515.172 1266.18 515.172 1266.09 515.172C1265.69 515.172 1265.59 514.83 1265.59 514.092V509.502C1265.59 507.306 1264.09 506.586 1262.4 506.586C1259.72 506.586 1258.71 507.972 1258.62 509.592H1259.84C1259.93 508.242 1260.58 507.612 1262.35 507.612C1263.84 507.612 1264.43 508.242 1264.43 509.178C1264.43 510.276 1263.46 510.384 1261.95 510.654C1259.57 511.086 1258.17 511.698 1258.17 513.678C1258.17 515.208 1259.36 516.234 1261.18 516.234ZM1261.32 515.208C1259.99 515.208 1259.39 514.632 1259.39 513.57C1259.39 512.4 1260.31 511.95 1262.09 511.626C1263.19 511.446 1264.16 511.23 1264.43 510.852V512.562C1264.43 514.218 1263.21 515.208 1261.32 515.208ZM1273.27 514.452C1273.81 515.424 1274.77 516.216 1276.37 516.216C1278.6 516.216 1280.4 514.416 1280.4 511.41C1280.4 508.386 1278.6 506.586 1276.37 506.586C1274.77 506.586 1273.8 507.414 1273.27 508.296H1273.24V506.82H1272.07V519.186H1273.24V514.452H1273.27ZM1276.23 507.612C1278.13 507.612 1279.18 509.34 1279.18 511.41C1279.18 513.462 1278.13 515.19 1276.23 515.19C1274.46 515.19 1273.24 513.714 1273.24 511.41C1273.24 509.088 1274.46 507.612 1276.23 507.612ZM1282.02 506.82V516H1283.19V510.87C1283.19 509.088 1284.39 507.756 1286.07 507.756C1286.23 507.756 1286.43 507.774 1286.62 507.81V506.658C1286.39 506.622 1286.16 506.604 1285.83 506.604C1284.52 506.604 1283.67 507.486 1283.22 508.692H1283.19V506.82H1282.02ZM1291.41 516.252C1294.14 516.252 1295.82 514.272 1295.82 511.428C1295.82 508.566 1294.14 506.586 1291.41 506.586C1288.65 506.586 1287 508.566 1287 511.428C1287 514.272 1288.65 516.252 1291.41 516.252ZM1291.41 515.226C1289.25 515.226 1288.22 513.534 1288.22 511.428C1288.22 509.304 1289.25 507.612 1291.41 507.612C1293.55 507.612 1294.59 509.304 1294.59 511.428C1294.59 513.534 1293.55 515.226 1291.41 515.226ZM1298.64 514.452C1299.18 515.424 1300.13 516.216 1301.73 516.216C1303.97 516.216 1305.77 514.416 1305.77 511.41C1305.77 508.386 1303.97 506.586 1301.73 506.586C1300.13 506.586 1299.16 507.414 1298.64 508.296H1298.6V506.82H1297.43V519.186H1298.6V514.452H1298.64ZM1301.59 507.612C1303.5 507.612 1304.54 509.34 1304.54 511.41C1304.54 513.462 1303.5 515.19 1301.59 515.19C1299.83 515.19 1298.6 513.714 1298.6 511.41C1298.6 509.088 1299.83 507.612 1301.59 507.612ZM1311.36 516.252C1314.1 516.252 1315.77 514.272 1315.77 511.428C1315.77 508.566 1314.1 506.586 1311.36 506.586C1308.61 506.586 1306.95 508.566 1306.95 511.428C1306.95 514.272 1308.61 516.252 1311.36 516.252ZM1311.36 515.226C1309.2 515.226 1308.17 513.534 1308.17 511.428C1308.17 509.304 1309.2 507.612 1311.36 507.612C1313.5 507.612 1314.55 509.304 1314.55 511.428C1314.55 513.534 1313.5 515.226 1311.36 515.226ZM1317.38 506.82V516H1318.55V510.87C1318.55 509.088 1319.76 507.756 1321.43 507.756C1321.6 507.756 1321.79 507.774 1321.99 507.81V506.658C1321.76 506.622 1321.52 506.604 1321.2 506.604C1319.89 506.604 1319.04 507.486 1318.59 508.692H1318.55V506.82H1317.38ZM1322.82 506.82V507.846H1324.17V513.624C1324.17 515.622 1324.99 516.072 1326.34 516.072C1326.63 516.072 1326.85 516.054 1327.21 516V515.01C1326.94 515.028 1326.79 515.046 1326.51 515.046C1325.61 515.046 1325.34 514.776 1325.34 513.642V507.846H1327.21V506.82H1325.34V503.76H1324.17V506.82H1322.82ZM1328.72 503.472V504.984H1330.23V503.472H1328.72ZM1328.9 506.82V516H1330.07V506.82H1328.9ZM1336.07 516.252C1338.81 516.252 1340.48 514.272 1340.48 511.428C1340.48 508.566 1338.81 506.586 1336.07 506.586C1333.32 506.586 1331.66 508.566 1331.66 511.428C1331.66 514.272 1333.32 516.252 1336.07 516.252ZM1336.07 515.226C1333.91 515.226 1332.89 513.534 1332.89 511.428C1332.89 509.304 1333.91 507.612 1336.07 507.612C1338.22 507.612 1339.26 509.304 1339.26 511.428C1339.26 513.534 1338.22 515.226 1336.07 515.226ZM1342.1 516H1343.27V510.204C1343.27 508.854 1344.4 507.63 1346.15 507.63C1347.73 507.63 1348.27 508.638 1348.27 509.808V516H1349.44V509.556C1349.44 507.522 1348.07 506.604 1346.44 506.604C1344.8 506.604 1343.81 507.378 1343.3 508.134H1343.27V506.82H1342.1V516ZM1353.95 516.234C1355.47 516.234 1356.55 515.658 1357.19 514.614H1357.23C1357.28 515.766 1357.75 516.072 1358.51 516.072C1358.72 516.072 1358.92 516.036 1359.12 516V515.154C1359.01 515.172 1358.96 515.172 1358.87 515.172C1358.47 515.172 1358.36 514.83 1358.36 514.092V509.502C1358.36 507.306 1356.87 506.586 1355.18 506.586C1352.5 506.586 1351.49 507.972 1351.4 509.592H1352.62C1352.71 508.242 1353.36 507.612 1355.12 507.612C1356.62 507.612 1357.21 508.242 1357.21 509.178C1357.21 510.276 1356.24 510.384 1354.73 510.654C1352.35 511.086 1350.95 511.698 1350.95 513.678C1350.95 515.208 1352.14 516.234 1353.95 516.234ZM1354.1 515.208C1352.77 515.208 1352.17 514.632 1352.17 513.57C1352.17 512.4 1353.09 511.95 1354.87 511.626C1355.97 511.446 1356.94 511.23 1357.21 510.852V512.562C1357.21 514.218 1355.99 515.208 1354.1 515.208ZM1360.59 503.13V516H1361.76V503.13H1360.59ZM1369.25 514.452C1369.79 515.424 1370.74 516.216 1372.35 516.216C1374.58 516.216 1376.38 514.416 1376.38 511.41C1376.38 508.386 1374.58 506.586 1372.35 506.586C1370.74 506.586 1369.77 507.414 1369.25 508.296H1369.21V506.82H1368.04V519.186H1369.21V514.452H1369.25ZM1372.2 507.612C1374.11 507.612 1375.15 509.34 1375.15 511.41C1375.15 513.462 1374.11 515.19 1372.2 515.19C1370.44 515.19 1369.21 513.714 1369.21 511.41C1369.21 509.088 1370.44 507.612 1372.2 507.612ZM1380.55 516.234C1382.06 516.234 1383.14 515.658 1383.79 514.614H1383.82C1383.88 515.766 1384.35 516.072 1385.1 516.072C1385.32 516.072 1385.52 516.036 1385.71 516V515.154C1385.61 515.172 1385.55 515.172 1385.46 515.172C1385.07 515.172 1384.96 514.83 1384.96 514.092V509.502C1384.96 507.306 1383.46 506.586 1381.77 506.586C1379.09 506.586 1378.08 507.972 1377.99 509.592H1379.22C1379.31 508.242 1379.95 507.612 1381.72 507.612C1383.21 507.612 1383.81 508.242 1383.81 509.178C1383.81 510.276 1382.83 510.384 1381.32 510.654C1378.95 511.086 1377.54 511.698 1377.54 513.678C1377.54 515.208 1378.73 516.234 1380.55 516.234ZM1380.69 515.208C1379.36 515.208 1378.77 514.632 1378.77 513.57C1378.77 512.4 1379.68 511.95 1381.47 511.626C1382.56 511.446 1383.54 511.23 1383.81 510.852V512.562C1383.81 514.218 1382.58 515.208 1380.69 515.208ZM1387.19 506.82V516H1388.36V510.87C1388.36 509.088 1389.56 507.756 1391.24 507.756C1391.4 507.756 1391.6 507.774 1391.79 507.81V506.658C1391.56 506.622 1391.33 506.604 1391 506.604C1389.69 506.604 1388.84 507.486 1388.39 508.692H1388.36V506.82H1387.19ZM1392.62 506.82V507.846H1393.97V513.624C1393.97 515.622 1394.8 516.072 1396.15 516.072C1396.44 516.072 1396.65 516.054 1397.01 516V515.01C1396.74 515.028 1396.6 515.046 1396.31 515.046C1395.41 515.046 1395.14 514.776 1395.14 513.642V507.846H1397.01V506.82H1395.14V503.76H1393.97V506.82H1392.62ZM1219 539.252C1221.74 539.252 1223.41 537.272 1223.41 534.428C1223.41 531.566 1221.74 529.586 1219 529.586C1216.25 529.586 1214.59 531.566 1214.59 534.428C1214.59 537.272 1216.25 539.252 1219 539.252ZM1219 538.226C1216.84 538.226 1215.82 536.534 1215.82 534.428C1215.82 532.304 1216.84 530.612 1219 530.612C1221.15 530.612 1222.19 532.304 1222.19 534.428C1222.19 536.534 1221.15 538.226 1219 538.226ZM1226.46 539V530.846H1228.28V529.82H1226.46V528.452C1226.46 527.318 1226.68 527.048 1227.56 527.048C1227.81 527.048 1227.95 527.066 1228.28 527.084V526.094C1227.88 526.04 1227.67 526.022 1227.4 526.022C1226.08 526.022 1225.29 526.472 1225.29 528.47V529.82H1223.99V530.846H1225.29V539H1226.46ZM1233.31 529.82V530.846H1234.66V536.624C1234.66 538.622 1235.49 539.072 1236.84 539.072C1237.12 539.072 1237.34 539.054 1237.7 539V538.01C1237.43 538.028 1237.29 538.046 1237 538.046C1236.1 538.046 1235.83 537.776 1235.83 536.642V530.846H1237.7V529.82H1235.83V526.76H1234.66V529.82H1233.31ZM1245.56 532.808V539H1246.73V532.556C1246.73 530.522 1245.37 529.604 1243.73 529.604C1242.09 529.604 1241.1 530.378 1240.6 531.134H1240.56V526.13H1239.39V539H1240.56V533.204C1240.56 531.854 1241.69 530.63 1243.44 530.63C1245.02 530.63 1245.56 531.638 1245.56 532.808ZM1252.63 539.252C1254.93 539.252 1256.19 537.866 1256.64 536.192H1255.46C1255.28 536.948 1254.56 538.244 1252.65 538.244C1250.49 538.244 1249.5 536.516 1249.48 534.644H1256.75C1256.77 534.5 1256.77 534.248 1256.77 533.996C1256.77 531.44 1255.28 529.586 1252.63 529.586C1249.98 529.586 1248.26 531.476 1248.26 534.41C1248.26 537.2 1249.82 539.252 1252.63 539.252ZM1252.58 530.594C1254.47 530.594 1255.53 531.98 1255.53 533.618H1249.48C1249.57 531.908 1250.79 530.594 1252.58 530.594ZM1272.29 530.234H1273.66C1273.32 527.822 1271.36 525.896 1268.35 525.896C1264.84 525.896 1262.45 528.686 1262.45 532.574C1262.45 536.48 1264.84 539.234 1268.33 539.234C1271.41 539.234 1273.39 537.236 1273.72 534.428H1272.35C1272.2 536.21 1271.07 538.082 1268.33 538.082C1265.26 538.082 1263.8 535.454 1263.8 532.574C1263.8 529.694 1265.24 527.048 1268.35 527.048C1270.98 527.048 1272.02 528.794 1272.29 530.234ZM1281.45 539.234C1285.16 539.234 1287.65 536.426 1287.65 532.556C1287.65 528.686 1285.16 525.896 1281.45 525.896C1277.75 525.896 1275.28 528.686 1275.28 532.556C1275.28 536.426 1277.75 539.234 1281.45 539.234ZM1281.45 538.082C1278.29 538.082 1276.65 535.598 1276.65 532.556C1276.65 529.514 1278.29 527.048 1281.45 527.048C1284.64 527.048 1286.28 529.514 1286.28 532.556C1286.28 535.598 1284.64 538.082 1281.45 538.082ZM1290.75 530.756C1290.75 528.992 1291.56 527.48 1293.72 527.48C1295.62 527.48 1296.22 528.776 1296.22 530C1296.22 531.89 1294.96 532.43 1292.71 533.726C1290.46 534.986 1289.04 536.696 1289.04 539H1297.46V537.848H1290.6V537.812C1290.91 536.156 1292.4 535.31 1293.91 534.446C1295.71 533.42 1297.59 532.34 1297.59 529.982C1297.59 527.66 1295.86 526.328 1293.73 526.328C1290.8 526.328 1289.38 528.344 1289.38 530.756H1290.75ZM1305.17 531.836V527.282H1312.46V526.13H1303.85V539H1305.17V532.988H1311.16V531.836H1305.17ZM1314.24 536.012V529.82H1313.07V536.264C1313.07 538.298 1314.42 539.216 1316.08 539.216C1317.72 539.216 1318.71 538.46 1319.21 537.704H1319.25V539H1320.42V529.82H1319.25V535.616C1319.25 536.966 1318.1 538.19 1316.37 538.19C1314.77 538.19 1314.24 537.182 1314.24 536.012ZM1322.55 539H1323.72V533.204C1323.72 531.854 1324.86 530.63 1326.6 530.63C1328.19 530.63 1328.73 531.638 1328.73 532.808V539H1329.9V532.556C1329.9 530.522 1328.53 529.604 1326.89 529.604C1325.25 529.604 1324.26 530.378 1323.76 531.134H1323.72V529.82H1322.55V539ZM1338.56 531.368C1338.02 530.396 1337.05 529.604 1335.47 529.604C1333.22 529.604 1331.42 531.404 1331.42 534.41C1331.42 537.434 1333.22 539.234 1335.45 539.234C1337.05 539.234 1338.02 538.406 1338.56 537.506H1338.6V539H1339.77V526.13H1338.6V531.368H1338.56ZM1335.59 538.208C1333.69 538.208 1332.64 536.48 1332.64 534.41C1332.64 532.358 1333.69 530.63 1335.59 530.63C1337.36 530.63 1338.6 532.106 1338.6 534.41C1338.6 536.732 1337.36 538.208 1335.59 538.208ZM1341.67 537.488V539H1343.19V537.488H1341.67Z" fill="#46DC78"/>
</svg>
