<svg width="424" height="483" viewBox="0 0 424 483" fill="none" xmlns="http://www.w3.org/2000/svg">
<circle cx="212" cy="112" r="88" fill="#374236"/>
<circle cx="112" cy="285" r="88" fill="#374236"/>
<circle cx="312" cy="285" r="88" fill="#374236"/>
<path d="M304.592 173.241C316.225 155.688 323 134.635 323 112C323 50.6964 273.304 1 212 1C150.696 1 101 50.6964 101 112C101 134.635 107.775 155.688 119.408 173.241M312 174C373.304 174 423 223.696 423 285C423 346.304 373.304 396 312 396C268.433 396 230.729 370.901 212.558 334.373M112 174C50.6964 174 1 223.696 1 285C1 346.304 50.6964 396 112 396C155.567 396 193.271 370.901 211.442 334.373M304.312 173.056L304.198 173.229L304.301 173.409L304.859 174.375L304.963 174.555L305.17 174.542C307.429 174.405 309.706 174.335 312 174.335C373.119 174.335 422.665 223.881 422.665 285C422.665 346.119 373.119 395.665 312 395.665C268.565 395.665 230.974 370.642 212.858 334.224L212.765 334.038H212.558H211.442H211.235L211.142 334.224C193.026 370.642 155.435 395.665 112 395.665C50.8814 395.665 1.335 346.119 1.335 285C1.335 223.881 50.8814 174.335 112 174.335C114.294 174.335 116.571 174.405 118.83 174.542L119.037 174.555L119.141 174.375L119.699 173.409L119.802 173.229L119.688 173.056C108.09 155.556 101.335 134.567 101.335 112C101.335 50.8814 150.881 1.335 212 1.335C273.119 1.335 322.665 50.8814 322.665 112C322.665 134.567 315.91 155.556 304.312 173.056ZM304.985 173.253C316.584 155.682 323.335 134.629 323.335 112C323.335 50.5114 273.489 0.665 212 0.665C150.511 0.665 100.665 50.5114 100.665 112C100.665 134.629 107.416 155.682 119.015 173.253L118.664 173.861C116.459 173.731 114.237 173.665 112 173.665C50.5114 173.665 0.665 223.511 0.665 285C0.665 346.489 50.5114 396.335 112 396.335C155.625 396.335 193.389 371.244 211.649 334.708H212.351C230.611 371.244 268.375 396.335 312 396.335C373.489 396.335 423.335 346.489 423.335 285C423.335 223.511 373.489 173.665 312 173.665C309.763 173.665 307.541 173.731 305.336 173.861L304.985 173.253ZM305.557 172.983L305.196 173.537L305.856 173.501C307.89 173.391 309.938 173.335 312 173.335C373.671 173.335 423.665 223.329 423.665 285C423.665 346.671 373.671 396.665 312 396.665C268.44 396.665 230.706 371.723 212.299 335.34L212 334.75L211.701 335.34C193.294 371.723 155.56 396.665 112 396.665C50.3291 396.665 0.335 346.671 0.335 285C0.335 223.329 50.3291 173.335 112 173.335C114.062 173.335 116.11 173.391 118.144 173.501L118.804 173.537L118.443 172.983C106.991 155.452 100.335 134.504 100.335 112C100.335 50.3291 150.329 0.335 212 0.335C273.671 0.335 323.665 50.3291 323.665 112C323.665 134.504 317.009 155.452 305.557 172.983Z" stroke="#F0F0F0" stroke-width="0.67"/>
<path d="M166.674 75.234H168.042C167.7 72.822 165.738 70.896 162.732 70.896C159.222 70.896 156.828 73.686 156.828 77.574C156.828 81.48 159.222 84.234 162.714 84.234C165.792 84.234 167.772 82.236 168.096 79.428H166.728C166.584 81.21 165.45 83.082 162.714 83.082C159.636 83.082 158.178 80.454 158.178 77.574C158.178 74.694 159.618 72.048 162.732 72.048C165.36 72.048 166.404 73.794 166.674 75.234ZM172.651 84.234C174.163 84.234 175.243 83.658 175.891 82.614H175.927C175.981 83.766 176.449 84.072 177.205 84.072C177.421 84.072 177.619 84.036 177.817 84V83.154C177.709 83.172 177.655 83.172 177.565 83.172C177.169 83.172 177.061 82.83 177.061 82.092V77.502C177.061 75.306 175.567 74.586 173.875 74.586C171.193 74.586 170.185 75.972 170.095 77.592H171.319C171.409 76.242 172.057 75.612 173.821 75.612C175.315 75.612 175.909 76.242 175.909 77.178C175.909 78.276 174.937 78.384 173.425 78.654C171.049 79.086 169.645 79.698 169.645 81.678C169.645 83.208 170.833 84.234 172.651 84.234ZM172.795 83.208C171.463 83.208 170.869 82.632 170.869 81.57C170.869 80.4 171.787 79.95 173.569 79.626C174.667 79.446 175.639 79.23 175.909 78.852V80.562C175.909 82.218 174.685 83.208 172.795 83.208ZM179.648 74.82V84H180.818V78.87C180.818 77.088 182.024 75.756 183.698 75.756C183.86 75.756 184.058 75.774 184.256 75.81V74.658C184.022 74.622 183.788 74.604 183.464 74.604C182.15 74.604 181.304 75.486 180.854 76.692H180.818V74.82H179.648ZM187.121 82.434C187.661 83.424 188.615 84.216 190.217 84.216C192.449 84.216 194.249 82.416 194.249 79.41C194.249 76.386 192.449 74.586 190.217 74.586C188.615 74.586 187.643 75.414 187.121 76.296H187.085V71.13H185.915V84H187.085V82.434H187.121ZM190.073 75.594C191.981 75.594 193.025 77.34 193.025 79.41C193.025 81.462 191.981 83.19 190.073 83.19C188.309 83.19 187.085 81.714 187.085 79.41C187.085 77.088 188.309 75.594 190.073 75.594ZM200.202 84.252C202.938 84.252 204.612 82.272 204.612 79.428C204.612 76.566 202.938 74.586 200.202 74.586C197.448 74.586 195.792 76.566 195.792 79.428C195.792 82.272 197.448 84.252 200.202 84.252ZM200.202 83.226C198.042 83.226 197.016 81.534 197.016 79.428C197.016 77.304 198.042 75.612 200.202 75.612C202.344 75.612 203.388 77.304 203.388 79.428C203.388 81.534 202.344 83.226 200.202 83.226ZM206.586 84H207.756V78.204C207.756 76.854 208.89 75.63 210.636 75.63C212.22 75.63 212.76 76.638 212.76 77.808V84H213.93V77.556C213.93 75.522 212.562 74.604 210.924 74.604C209.286 74.604 208.296 75.378 207.792 76.134H207.756V74.82H206.586V84ZM240.429 107.234C241.941 107.234 243.021 106.658 243.669 105.614H243.705C243.759 106.766 244.227 107.072 244.983 107.072C245.199 107.072 245.397 107.036 245.595 107V106.154C245.487 106.172 245.433 106.172 245.343 106.172C244.947 106.172 244.839 105.83 244.839 105.092V100.502C244.839 98.306 243.345 97.586 241.653 97.586C238.971 97.586 237.963 98.972 237.873 100.592H239.097C239.187 99.242 239.835 98.612 241.599 98.612C243.093 98.612 243.687 99.242 243.687 100.178C243.687 101.276 242.715 101.384 241.203 101.654C238.827 102.086 237.423 102.698 237.423 104.678C237.423 106.208 238.611 107.234 240.429 107.234ZM240.573 106.208C239.241 106.208 238.647 105.632 238.647 104.57C238.647 103.4 239.565 102.95 241.347 102.626C242.445 102.446 243.417 102.23 243.687 101.852V103.562C243.687 105.218 242.463 106.208 240.573 106.208ZM247.426 107H248.596V101.204C248.596 99.854 249.73 98.63 251.476 98.63C253.06 98.63 253.6 99.638 253.6 100.808V107H254.77V100.556C254.77 98.522 253.402 97.604 251.764 97.604C250.126 97.604 249.136 98.378 248.632 99.134H248.596V97.82H247.426V107ZM263.799 99.368C263.259 98.396 262.287 97.604 260.703 97.604C258.453 97.604 256.653 99.404 256.653 102.41C256.653 105.434 258.453 107.234 260.685 107.234C262.287 107.234 263.259 106.406 263.799 105.506H263.835V107H265.005V94.13H263.835V99.368H263.799ZM260.829 106.208C258.921 106.208 257.877 104.48 257.877 102.41C257.877 100.358 258.921 98.63 260.829 98.63C262.593 98.63 263.835 100.106 263.835 102.41C263.835 104.732 262.593 106.208 260.829 106.208ZM158.232 151.452C158.772 152.424 159.726 153.216 161.328 153.216C163.56 153.216 165.36 151.416 165.36 148.41C165.36 145.386 163.56 143.586 161.328 143.586C159.726 143.586 158.754 144.414 158.232 145.296H158.196V143.82H157.026V156.186H158.196V151.452H158.232ZM161.184 144.612C163.092 144.612 164.136 146.34 164.136 148.41C164.136 150.462 163.092 152.19 161.184 152.19C159.42 152.19 158.196 150.714 158.196 148.41C158.196 146.088 159.42 144.612 161.184 144.612ZM171.313 153.252C174.049 153.252 175.723 151.272 175.723 148.428C175.723 145.566 174.049 143.586 171.313 143.586C168.559 143.586 166.903 145.566 166.903 148.428C166.903 151.272 168.559 153.252 171.313 153.252ZM171.313 152.226C169.153 152.226 168.127 150.534 168.127 148.428C168.127 146.304 169.153 144.612 171.313 144.612C173.455 144.612 174.499 146.304 174.499 148.428C174.499 150.534 173.455 152.226 171.313 152.226ZM181.675 153.252C184.411 153.252 186.085 151.272 186.085 148.428C186.085 145.566 184.411 143.586 181.675 143.586C178.921 143.586 177.265 145.566 177.265 148.428C177.265 151.272 178.921 153.252 181.675 153.252ZM181.675 152.226C179.515 152.226 178.489 150.534 178.489 148.428C178.489 146.304 179.515 144.612 181.675 144.612C183.817 144.612 184.861 146.304 184.861 148.428C184.861 150.534 183.817 152.226 181.675 152.226ZM188.059 140.13V153H189.229V140.13H188.059ZM199.13 139.41C197.816 141.228 196.664 143.928 196.664 147.294C196.664 150.552 197.816 153.288 199.13 155.106H200.192C198.95 152.928 197.978 150.552 197.978 147.294C197.978 143.964 198.95 141.588 200.192 139.41H199.13ZM202.327 153H203.641V141.984H203.677L207.907 153H209.095L213.343 141.984H213.379V153H214.675V140.13H212.875L208.519 151.236H208.483L204.127 140.13H202.327V153ZM216.984 147.834V148.986H221.808V147.834H216.984ZM224.106 153H225.42V147.654H229.344C232.782 147.654 231.594 152.46 232.206 153H233.592V152.892C232.908 152.676 233.916 147.636 230.964 147.042V147.006C232.368 146.646 233.376 145.476 233.376 143.766C233.376 141.408 231.882 140.13 229.128 140.13H224.106V153ZM225.42 141.282H228.912C231.126 141.282 232.062 142.146 232.062 143.784C232.062 145.584 230.874 146.502 228.822 146.502H225.42V141.282ZM236.411 155.106C237.725 153.288 238.877 150.588 238.877 147.222C238.877 143.964 237.725 141.228 236.411 139.41H235.349C236.591 141.588 237.563 143.964 237.563 147.222C237.563 150.552 236.591 152.928 235.349 155.106H236.411Z" fill="#F0F0F0"/>
<path d="M157.026 107H158.196V101.204C158.196 99.872 159.15 98.63 160.752 98.63C162.282 98.63 162.552 99.656 162.552 100.808V107H163.722V101.204C163.722 99.872 164.694 98.63 166.296 98.63C167.808 98.63 168.096 99.656 168.096 100.808V107H169.266V100.556C169.266 98.648 168.312 97.604 166.548 97.604C165.108 97.604 164.118 98.378 163.524 99.296H163.488C163.128 98.198 162.3 97.604 161.004 97.604C159.564 97.604 158.7 98.378 158.232 99.116H158.196V97.82H157.026V107ZM171.479 94.472V95.984H172.991V94.472H171.479ZM171.659 97.82V107H172.829V97.82H171.659ZM174.535 97.82V98.846H175.885V104.624C175.885 106.622 176.713 107.072 178.063 107.072C178.351 107.072 178.567 107.054 178.927 107V106.01C178.657 106.028 178.513 106.046 178.225 106.046C177.325 106.046 177.055 105.776 177.055 104.642V98.846H178.927V97.82H177.055V94.76H175.885V97.82H174.535ZM180.795 94.472V95.984H182.307V94.472H180.795ZM180.975 97.82V107H182.145V97.82H180.975ZM191.266 106.586C191.266 108.458 190.168 109.268 188.314 109.268C186.55 109.268 185.758 108.458 185.578 107.486H184.354C184.498 109.088 185.812 110.294 188.296 110.294C190.816 110.294 192.436 109.016 192.436 106.424V97.82H191.266V99.26H191.23C190.69 98.342 189.682 97.604 188.134 97.604C185.956 97.604 184.102 99.044 184.102 102.068C184.102 105.128 185.956 106.568 188.134 106.568C189.682 106.568 190.69 105.83 191.23 104.876H191.266V106.586ZM188.296 98.63C189.988 98.63 191.266 99.746 191.266 102.068C191.266 104.426 189.988 105.542 188.296 105.542C186.406 105.542 185.326 104.174 185.326 102.068C185.326 99.998 186.406 98.63 188.296 98.63ZM197.382 107.234C198.894 107.234 199.974 106.658 200.622 105.614H200.658C200.712 106.766 201.18 107.072 201.936 107.072C202.152 107.072 202.35 107.036 202.548 107V106.154C202.44 106.172 202.386 106.172 202.296 106.172C201.9 106.172 201.792 105.83 201.792 105.092V100.502C201.792 98.306 200.298 97.586 198.606 97.586C195.924 97.586 194.916 98.972 194.826 100.592H196.05C196.14 99.242 196.788 98.612 198.552 98.612C200.046 98.612 200.64 99.242 200.64 100.178C200.64 101.276 199.668 101.384 198.156 101.654C195.78 102.086 194.376 102.698 194.376 104.678C194.376 106.208 195.564 107.234 197.382 107.234ZM197.526 106.208C196.194 106.208 195.6 105.632 195.6 104.57C195.6 103.4 196.518 102.95 198.3 102.626C199.398 102.446 200.37 102.23 200.64 101.852V103.562C200.64 105.218 199.416 106.208 197.526 106.208ZM203.238 97.82V98.846H204.588V104.624C204.588 106.622 205.416 107.072 206.766 107.072C207.054 107.072 207.27 107.054 207.63 107V106.01C207.36 106.028 207.216 106.046 206.928 106.046C206.028 106.046 205.758 105.776 205.758 104.642V98.846H207.63V97.82H205.758V94.76H204.588V97.82H203.238ZM209.499 94.472V95.984H211.011V94.472H209.499ZM209.679 97.82V107H210.849V97.82H209.679ZM217.216 107.252C219.952 107.252 221.626 105.272 221.626 102.428C221.626 99.566 219.952 97.586 217.216 97.586C214.462 97.586 212.806 99.566 212.806 102.428C212.806 105.272 214.462 107.252 217.216 107.252ZM217.216 106.226C215.056 106.226 214.03 104.534 214.03 102.428C214.03 100.304 215.056 98.612 217.216 98.612C219.358 98.612 220.402 100.304 220.402 102.428C220.402 104.534 219.358 106.226 217.216 106.226ZM223.6 107H224.77V101.204C224.77 99.854 225.904 98.63 227.65 98.63C229.234 98.63 229.774 99.638 229.774 100.808V107H230.944V100.556C230.944 98.522 229.576 97.604 227.938 97.604C226.3 97.604 225.31 98.378 224.806 99.134H224.77V97.82H223.6V107ZM157.026 120.82V130H158.196V124.87C158.196 123.088 159.402 121.756 161.076 121.756C161.238 121.756 161.436 121.774 161.634 121.81V120.658C161.4 120.622 161.166 120.604 160.842 120.604C159.528 120.604 158.682 121.486 158.232 122.692H158.196V120.82H157.026ZM166.742 130.252C169.046 130.252 170.306 128.866 170.756 127.192H169.568C169.388 127.948 168.668 129.244 166.76 129.244C164.6 129.244 163.61 127.516 163.592 125.644H170.864C170.882 125.5 170.882 125.248 170.882 124.996C170.882 122.44 169.388 120.586 166.742 120.586C164.096 120.586 162.368 122.476 162.368 125.41C162.368 128.2 163.934 130.252 166.742 130.252ZM166.688 121.594C168.578 121.594 169.64 122.98 169.64 124.618H163.592C163.682 122.908 164.906 121.594 166.688 121.594ZM179.577 122.368C179.037 121.396 178.065 120.604 176.481 120.604C174.231 120.604 172.431 122.404 172.431 125.41C172.431 128.434 174.231 130.234 176.463 130.234C178.065 130.234 179.037 129.406 179.577 128.506H179.613V130H180.783V117.13H179.613V122.368H179.577ZM176.607 129.208C174.699 129.208 173.655 127.48 173.655 125.41C173.655 123.358 174.699 121.63 176.607 121.63C178.371 121.63 179.613 123.106 179.613 125.41C179.613 127.732 178.371 129.208 176.607 129.208ZM184.34 127.012V120.82H183.17V127.264C183.17 129.298 184.52 130.216 186.176 130.216C187.814 130.216 188.804 129.46 189.308 128.704H189.344V130H190.514V120.82H189.344V126.616C189.344 127.966 188.192 129.19 186.464 129.19C184.862 129.19 184.34 128.182 184.34 127.012ZM199.597 124.042H200.821C200.605 122.098 199.111 120.604 196.879 120.604C194.251 120.604 192.487 122.548 192.487 125.41C192.487 128.29 194.251 130.234 196.879 130.234C199.111 130.234 200.695 128.704 200.821 126.724H199.597C199.525 127.84 198.805 129.226 196.879 129.226C194.629 129.226 193.711 127.3 193.711 125.41C193.711 123.538 194.629 121.63 196.879 121.63C198.787 121.63 199.525 123.016 199.597 124.042ZM201.859 120.82V121.846H203.209V127.624C203.209 129.622 204.037 130.072 205.387 130.072C205.675 130.072 205.891 130.054 206.251 130V129.01C205.981 129.028 205.837 129.046 205.549 129.046C204.649 129.046 204.379 128.776 204.379 127.642V121.846H206.251V120.82H204.379V117.76H203.209V120.82H201.859ZM208.119 117.472V118.984H209.631V117.472H208.119ZM208.299 120.82V130H209.469V120.82H208.299ZM215.837 130.252C218.573 130.252 220.247 128.272 220.247 125.428C220.247 122.566 218.573 120.586 215.837 120.586C213.083 120.586 211.427 122.566 211.427 125.428C211.427 128.272 213.083 130.252 215.837 130.252ZM215.837 129.226C213.677 129.226 212.651 127.534 212.651 125.428C212.651 123.304 213.677 121.612 215.837 121.612C217.979 121.612 219.023 123.304 219.023 125.428C219.023 127.534 217.979 129.226 215.837 129.226ZM222.22 130H223.39V124.204C223.39 122.854 224.524 121.63 226.27 121.63C227.854 121.63 228.394 122.638 228.394 123.808V130H229.564V123.556C229.564 121.522 228.196 120.604 226.558 120.604C224.92 120.604 223.93 121.378 223.426 122.134H223.39V120.82H222.22V130ZM235.551 124.654C234.147 124.294 232.923 124.15 232.923 122.998C232.923 122.134 233.643 121.63 234.957 121.63C236.757 121.63 237.225 122.584 237.387 123.394H238.629C238.467 121.882 237.333 120.604 234.957 120.604C232.887 120.604 231.699 121.576 231.699 123.07C231.699 124.852 233.409 125.284 235.101 125.698C236.379 126.004 237.747 126.148 237.747 127.498C237.747 128.398 237.153 129.208 235.389 129.208C233.463 129.208 232.653 128.254 232.581 126.994H231.339C231.393 128.83 232.815 130.234 235.371 130.234C237.639 130.234 238.971 129.136 238.971 127.462C238.971 125.554 237.279 125.068 235.551 124.654Z" fill="#46DC78"/>
<path d="M66.224 269H67.538V263.654H71.462C74.9 263.654 73.712 268.46 74.324 269H75.71V268.892C75.026 268.676 76.034 263.636 73.082 263.042V263.006C74.486 262.646 75.494 261.476 75.494 259.766C75.494 257.408 74 256.13 71.246 256.13H66.224V269ZM67.538 257.282H71.03C73.244 257.282 74.18 258.146 74.18 259.784C74.18 261.584 72.992 262.502 70.94 262.502H67.538V257.282ZM81.6835 269.252C83.9875 269.252 85.2475 267.866 85.6975 266.192H84.5095C84.3295 266.948 83.6095 268.244 81.7015 268.244C79.5415 268.244 78.5515 266.516 78.5335 264.644H85.8055C85.8235 264.5 85.8235 264.248 85.8235 263.996C85.8235 261.44 84.3295 259.586 81.6835 259.586C79.0375 259.586 77.3095 261.476 77.3095 264.41C77.3095 267.2 78.8755 269.252 81.6835 269.252ZM81.6295 260.594C83.5195 260.594 84.5815 261.98 84.5815 263.618H78.5335C78.6235 261.908 79.8475 260.594 81.6295 260.594ZM87.8046 269H88.9746V263.204C88.9746 261.854 90.1086 260.63 91.8546 260.63C93.4386 260.63 93.9786 261.638 93.9786 262.808V269H95.1486V262.556C95.1486 260.522 93.7806 259.604 92.1426 259.604C90.5046 259.604 89.5146 260.378 89.0106 261.134H88.9746V259.82H87.8046V269ZM101.405 269.252C103.709 269.252 104.969 267.866 105.419 266.192H104.231C104.051 266.948 103.331 268.244 101.423 268.244C99.2634 268.244 98.2734 266.516 98.2554 264.644H105.527C105.545 264.5 105.545 264.248 105.545 263.996C105.545 261.44 104.051 259.586 101.405 259.586C98.7594 259.586 97.0314 261.476 97.0314 264.41C97.0314 267.2 98.5974 269.252 101.405 269.252ZM101.351 260.594C103.241 260.594 104.303 261.98 104.303 263.618H98.2554C98.3454 261.908 99.5694 260.594 101.351 260.594ZM106.419 259.82L109.335 269H110.649L112.791 261.242H112.827L115.005 269H116.301L119.235 259.82H117.975L115.671 267.668H115.635L113.493 259.82H112.179L110.037 267.668H110.001L107.715 259.82H106.419ZM122.923 269.234C124.435 269.234 125.515 268.658 126.163 267.614H126.199C126.253 268.766 126.721 269.072 127.477 269.072C127.693 269.072 127.891 269.036 128.089 269V268.154C127.981 268.172 127.927 268.172 127.837 268.172C127.441 268.172 127.333 267.83 127.333 267.092V262.502C127.333 260.306 125.839 259.586 124.147 259.586C121.465 259.586 120.457 260.972 120.367 262.592H121.591C121.681 261.242 122.329 260.612 124.093 260.612C125.587 260.612 126.181 261.242 126.181 262.178C126.181 263.276 125.209 263.384 123.697 263.654C121.321 264.086 119.917 264.698 119.917 266.678C119.917 268.208 121.105 269.234 122.923 269.234ZM123.067 268.208C121.735 268.208 121.141 267.632 121.141 266.57C121.141 265.4 122.059 264.95 123.841 264.626C124.939 264.446 125.911 264.23 126.181 263.852V265.562C126.181 267.218 124.957 268.208 123.067 268.208ZM131.126 267.434C131.666 268.424 132.62 269.216 134.222 269.216C136.454 269.216 138.254 267.416 138.254 264.41C138.254 261.386 136.454 259.586 134.222 259.586C132.62 259.586 131.648 260.414 131.126 261.296H131.09V256.13H129.92V269H131.09V267.434H131.126ZM134.078 260.594C135.986 260.594 137.03 262.34 137.03 264.41C137.03 266.462 135.986 268.19 134.078 268.19C132.314 268.19 131.09 266.714 131.09 264.41C131.09 262.088 132.314 260.594 134.078 260.594ZM140.23 256.13V269H141.4V256.13H140.23ZM147.731 269.252C150.035 269.252 151.295 267.866 151.745 266.192H150.557C150.377 266.948 149.657 268.244 147.749 268.244C145.589 268.244 144.599 266.516 144.581 264.644H151.853C151.871 264.5 151.871 264.248 151.871 263.996C151.871 261.44 150.377 259.586 147.731 259.586C145.085 259.586 143.357 261.476 143.357 264.41C143.357 267.2 144.923 269.252 147.731 269.252ZM147.677 260.594C149.567 260.594 150.629 261.98 150.629 263.618H144.581C144.671 261.908 145.895 260.594 147.677 260.594ZM69.968 292.252C72.272 292.252 73.532 290.866 73.982 289.192H72.794C72.614 289.948 71.894 291.244 69.986 291.244C67.826 291.244 66.836 289.516 66.818 287.644H74.09C74.108 287.5 74.108 287.248 74.108 286.996C74.108 284.44 72.614 282.586 69.968 282.586C67.322 282.586 65.594 284.476 65.594 287.41C65.594 290.2 67.16 292.252 69.968 292.252ZM69.914 283.594C71.804 283.594 72.866 284.98 72.866 286.618H66.818C66.908 284.908 68.132 283.594 69.914 283.594ZM76.0891 292H77.2591V286.204C77.2591 284.854 78.3931 283.63 80.1391 283.63C81.7231 283.63 82.2631 284.638 82.2631 285.808V292H83.4331V285.556C83.4331 283.522 82.0651 282.604 80.4271 282.604C78.7891 282.604 77.7991 283.378 77.2951 284.134H77.2591V282.82H76.0891V292ZM89.69 292.252C91.994 292.252 93.254 290.866 93.704 289.192H92.516C92.336 289.948 91.616 291.244 89.708 291.244C87.548 291.244 86.558 289.516 86.54 287.644H93.812C93.83 287.5 93.83 287.248 93.83 286.996C93.83 284.44 92.336 282.586 89.69 282.586C87.044 282.586 85.316 284.476 85.316 287.41C85.316 290.2 86.882 292.252 89.69 292.252ZM89.636 283.594C91.526 283.594 92.588 284.98 92.588 286.618H86.54C86.63 284.908 87.854 283.594 89.636 283.594ZM95.8111 282.82V292H96.9811V286.87C96.9811 285.088 98.1871 283.756 99.8611 283.756C100.023 283.756 100.221 283.774 100.419 283.81V282.658C100.185 282.622 99.9511 282.604 99.6271 282.604C98.3131 282.604 97.4671 283.486 97.0171 284.692H96.9811V282.82H95.8111ZM108.317 291.586C108.317 293.458 107.219 294.268 105.365 294.268C103.601 294.268 102.809 293.458 102.629 292.486H101.405C101.549 294.088 102.863 295.294 105.347 295.294C107.867 295.294 109.487 294.016 109.487 291.424V282.82H108.317V284.26H108.281C107.741 283.342 106.733 282.604 105.185 282.604C103.007 282.604 101.153 284.044 101.153 287.068C101.153 290.128 103.007 291.568 105.185 291.568C106.733 291.568 107.741 290.83 108.281 289.876H108.317V291.586ZM105.347 283.63C107.039 283.63 108.317 284.746 108.317 287.068C108.317 289.426 107.039 290.542 105.347 290.542C103.457 290.542 102.377 289.174 102.377 287.068C102.377 284.998 103.457 283.63 105.347 283.63ZM114.721 291.946C114.235 293.638 113.515 294.196 112.669 294.196C112.363 294.196 112.219 294.178 111.949 294.142V295.15C112.327 295.204 112.543 295.222 112.831 295.222C114.073 295.222 114.865 294.556 115.765 292.27L119.455 282.82H118.195L115.333 290.47H115.297L112.327 282.82H111.013L114.721 291.946Z" fill="#46DC78"/>
<path d="M126.793 290.452C127.333 291.424 128.287 292.216 129.889 292.216C132.121 292.216 133.921 290.416 133.921 287.41C133.921 284.386 132.121 282.586 129.889 282.586C128.287 282.586 127.315 283.414 126.793 284.296H126.757V282.82H125.587V295.186H126.757V290.452H126.793ZM129.745 283.612C131.653 283.612 132.697 285.34 132.697 287.41C132.697 289.462 131.653 291.19 129.745 291.19C127.981 291.19 126.757 289.714 126.757 287.41C126.757 285.088 127.981 283.612 129.745 283.612ZM139.874 292.252C142.61 292.252 144.284 290.272 144.284 287.428C144.284 284.566 142.61 282.586 139.874 282.586C137.12 282.586 135.464 284.566 135.464 287.428C135.464 290.272 137.12 292.252 139.874 292.252ZM139.874 291.226C137.714 291.226 136.688 289.534 136.688 287.428C136.688 285.304 137.714 283.612 139.874 283.612C142.016 283.612 143.06 285.304 143.06 287.428C143.06 289.534 142.016 291.226 139.874 291.226ZM150.236 292.252C152.972 292.252 154.646 290.272 154.646 287.428C154.646 284.566 152.972 282.586 150.236 282.586C147.482 282.586 145.826 284.566 145.826 287.428C145.826 290.272 147.482 292.252 150.236 292.252ZM150.236 291.226C148.076 291.226 147.05 289.534 147.05 287.428C147.05 285.304 148.076 283.612 150.236 283.612C152.378 283.612 153.422 285.304 153.422 287.428C153.422 289.534 152.378 291.226 150.236 291.226ZM156.62 279.13V292H157.79V279.13H156.62ZM68.924 301.41C67.61 303.228 66.458 305.928 66.458 309.294C66.458 312.552 67.61 315.288 68.924 317.106H69.986C68.744 314.928 67.772 312.552 67.772 309.294C67.772 305.964 68.744 303.588 69.986 301.41H68.924ZM72.1211 302.13V315H73.4351V302.13H72.1211ZM76.2428 315H77.5568V309.654H81.4808C84.9188 309.654 83.7308 314.46 84.3428 315H85.7288V314.892C85.0448 314.676 86.0528 309.636 83.1008 309.042V309.006C84.5048 308.646 85.5128 307.476 85.5128 305.766C85.5128 303.408 84.0188 302.13 81.2648 302.13H76.2428V315ZM77.5568 303.282H81.0488C83.2628 303.282 84.1988 304.146 84.1988 305.784C84.1988 307.584 83.0108 308.502 80.9588 308.502H77.5568V303.282ZM89.4657 307.71V303.282H96.8817V302.13H88.1517V315H97.0797V313.848H89.4657V308.862H96.0717V307.71H89.4657ZM107.823 306.234H109.191C108.849 303.822 106.887 301.896 103.881 301.896C100.371 301.896 97.977 304.686 97.977 308.574C97.977 312.48 100.371 315.234 103.863 315.234C106.941 315.234 108.921 313.236 109.245 310.428H107.877C107.733 312.21 106.599 314.082 103.863 314.082C100.785 314.082 99.327 311.454 99.327 308.574C99.327 305.694 100.767 303.048 103.881 303.048C106.509 303.048 107.553 304.794 107.823 306.234ZM111.961 317.106C113.275 315.288 114.427 312.588 114.427 309.222C114.427 305.964 113.275 303.228 111.961 301.41H110.899C112.141 303.588 113.113 305.964 113.113 309.222C113.113 312.552 112.141 314.928 110.899 317.106H111.961Z" fill="#F0F0F0"/>
<path d="M267.674 260.234H269.042C268.7 257.822 266.738 255.896 263.732 255.896C260.222 255.896 257.828 258.686 257.828 262.574C257.828 266.48 260.222 269.234 263.714 269.234C266.792 269.234 268.772 267.236 269.096 264.428H267.728C267.584 266.21 266.45 268.082 263.714 268.082C260.636 268.082 259.178 265.454 259.178 262.574C259.178 259.694 260.618 257.048 263.732 257.048C266.36 257.048 267.404 258.794 267.674 260.234ZM273.651 269.234C275.163 269.234 276.243 268.658 276.891 267.614H276.927C276.981 268.766 277.449 269.072 278.205 269.072C278.421 269.072 278.619 269.036 278.817 269V268.154C278.709 268.172 278.655 268.172 278.565 268.172C278.169 268.172 278.061 267.83 278.061 267.092V262.502C278.061 260.306 276.567 259.586 274.875 259.586C272.193 259.586 271.185 260.972 271.095 262.592H272.319C272.409 261.242 273.057 260.612 274.821 260.612C276.315 260.612 276.909 261.242 276.909 262.178C276.909 263.276 275.937 263.384 274.425 263.654C272.049 264.086 270.645 264.698 270.645 266.678C270.645 268.208 271.833 269.234 273.651 269.234ZM273.795 268.208C272.463 268.208 271.869 267.632 271.869 266.57C271.869 265.4 272.787 264.95 274.569 264.626C275.667 264.446 276.639 264.23 276.909 263.852V265.562C276.909 267.218 275.685 268.208 273.795 268.208ZM280.648 259.82V269H281.818V263.87C281.818 262.088 283.024 260.756 284.698 260.756C284.86 260.756 285.058 260.774 285.256 260.81V259.658C285.022 259.622 284.788 259.604 284.464 259.604C283.15 259.604 282.304 260.486 281.854 261.692H281.818V259.82H280.648ZM288.121 267.434C288.661 268.424 289.615 269.216 291.217 269.216C293.449 269.216 295.249 267.416 295.249 264.41C295.249 261.386 293.449 259.586 291.217 259.586C289.615 259.586 288.643 260.414 288.121 261.296H288.085V256.13H286.915V269H288.085V267.434H288.121ZM291.073 260.594C292.981 260.594 294.025 262.34 294.025 264.41C294.025 266.462 292.981 268.19 291.073 268.19C289.309 268.19 288.085 266.714 288.085 264.41C288.085 262.088 289.309 260.594 291.073 260.594ZM301.202 269.252C303.938 269.252 305.612 267.272 305.612 264.428C305.612 261.566 303.938 259.586 301.202 259.586C298.448 259.586 296.792 261.566 296.792 264.428C296.792 267.272 298.448 269.252 301.202 269.252ZM301.202 268.226C299.042 268.226 298.016 266.534 298.016 264.428C298.016 262.304 299.042 260.612 301.202 260.612C303.344 260.612 304.388 262.304 304.388 264.428C304.388 266.534 303.344 268.226 301.202 268.226ZM307.586 269H308.756V263.204C308.756 261.854 309.89 260.63 311.636 260.63C313.22 260.63 313.76 261.638 313.76 262.808V269H314.93V262.556C314.93 260.522 313.562 259.604 311.924 259.604C310.286 259.604 309.296 260.378 308.792 261.134H308.756V259.82H307.586V269ZM334.542 290.452C335.082 291.424 336.036 292.216 337.638 292.216C339.87 292.216 341.67 290.416 341.67 287.41C341.67 284.386 339.87 282.586 337.638 282.586C336.036 282.586 335.064 283.414 334.542 284.296H334.506V282.82H333.336V295.186H334.506V290.452H334.542ZM337.494 283.612C339.402 283.612 340.446 285.34 340.446 287.41C340.446 289.462 339.402 291.19 337.494 291.19C335.73 291.19 334.506 289.714 334.506 287.41C334.506 285.088 335.73 283.612 337.494 283.612ZM347.624 292.252C350.36 292.252 352.034 290.272 352.034 287.428C352.034 284.566 350.36 282.586 347.624 282.586C344.87 282.586 343.214 284.566 343.214 287.428C343.214 290.272 344.87 292.252 347.624 292.252ZM347.624 291.226C345.464 291.226 344.438 289.534 344.438 287.428C344.438 285.304 345.464 283.612 347.624 283.612C349.766 283.612 350.81 285.304 350.81 287.428C350.81 289.534 349.766 291.226 347.624 291.226ZM357.985 292.252C360.721 292.252 362.395 290.272 362.395 287.428C362.395 284.566 360.721 282.586 357.985 282.586C355.231 282.586 353.575 284.566 353.575 287.428C353.575 290.272 355.231 292.252 357.985 292.252ZM357.985 291.226C355.825 291.226 354.799 289.534 354.799 287.428C354.799 285.304 355.825 283.612 357.985 283.612C360.127 283.612 361.171 285.304 361.171 287.428C361.171 289.534 360.127 291.226 357.985 291.226ZM364.369 279.13V292H365.539V279.13H364.369ZM260.924 301.41C259.61 303.228 258.458 305.928 258.458 309.294C258.458 312.552 259.61 315.288 260.924 317.106H261.986C260.744 314.928 259.772 312.552 259.772 309.294C259.772 305.964 260.744 303.588 261.986 301.41H260.924ZM264.121 315H265.435V309.654H269.359C272.797 309.654 271.609 314.46 272.221 315H273.607V314.892C272.923 314.676 273.931 309.636 270.979 309.042V309.006C272.383 308.646 273.391 307.476 273.391 305.766C273.391 303.408 271.897 302.13 269.143 302.13H264.121V315ZM265.435 303.282H268.927C271.141 303.282 272.077 304.146 272.077 305.784C272.077 307.584 270.889 308.502 268.837 308.502H265.435V303.282ZM277.344 307.71V303.282H284.76V302.13H276.03V315H284.958V313.848H277.344V308.862H283.95V307.71H277.344ZM287.042 315H288.356V303.984H288.392L292.622 315H293.81L298.058 303.984H298.094V315H299.39V302.13H297.59L293.234 313.236H293.198L288.842 302.13H287.042V315ZM302.599 317.106C303.913 315.288 305.065 312.588 305.065 309.222C305.065 305.964 303.913 303.228 302.599 301.41H301.537C302.779 303.588 303.751 305.964 303.751 309.222C303.751 312.552 302.779 314.928 301.537 317.106H302.599Z" fill="#F0F0F0"/>
<path d="M258.026 282.82V292H259.196V286.87C259.196 285.088 260.402 283.756 262.076 283.756C262.238 283.756 262.436 283.774 262.634 283.81V282.658C262.4 282.622 262.166 282.604 261.842 282.604C260.528 282.604 259.682 283.486 259.232 284.692H259.196V282.82H258.026ZM267.742 292.252C270.046 292.252 271.306 290.866 271.756 289.192H270.568C270.388 289.948 269.668 291.244 267.76 291.244C265.6 291.244 264.61 289.516 264.592 287.644H271.864C271.882 287.5 271.882 287.248 271.882 286.996C271.882 284.44 270.388 282.586 267.742 282.586C265.096 282.586 263.368 284.476 263.368 287.41C263.368 290.2 264.934 292.252 267.742 292.252ZM267.688 283.594C269.578 283.594 270.64 284.98 270.64 286.618H264.592C264.682 284.908 265.906 283.594 267.688 283.594ZM273.863 292H275.033V286.204C275.033 284.872 275.987 283.63 277.589 283.63C279.119 283.63 279.389 284.656 279.389 285.808V292H280.559V286.204C280.559 284.872 281.531 283.63 283.133 283.63C284.645 283.63 284.933 284.656 284.933 285.808V292H286.103V285.556C286.103 283.648 285.149 282.604 283.385 282.604C281.945 282.604 280.955 283.378 280.361 284.296H280.325C279.965 283.198 279.137 282.604 277.841 282.604C276.401 282.604 275.537 283.378 275.069 284.116H275.033V282.82H273.863V292ZM292.387 292.252C295.123 292.252 296.797 290.272 296.797 287.428C296.797 284.566 295.123 282.586 292.387 282.586C289.633 282.586 287.977 284.566 287.977 287.428C287.977 290.272 289.633 292.252 292.387 292.252ZM292.387 291.226C290.227 291.226 289.201 289.534 289.201 287.428C289.201 285.304 290.227 283.612 292.387 283.612C294.529 283.612 295.573 285.304 295.573 287.428C295.573 289.534 294.529 291.226 292.387 291.226ZM297.555 282.82L300.921 292H302.253L305.619 282.82H304.359L301.623 290.812H301.605L298.851 282.82H297.555ZM309.21 292.234C310.722 292.234 311.802 291.658 312.45 290.614H312.486C312.54 291.766 313.008 292.072 313.764 292.072C313.98 292.072 314.178 292.036 314.376 292V291.154C314.268 291.172 314.214 291.172 314.124 291.172C313.728 291.172 313.62 290.83 313.62 290.092V285.502C313.62 283.306 312.126 282.586 310.434 282.586C307.752 282.586 306.744 283.972 306.654 285.592H307.878C307.968 284.242 308.616 283.612 310.38 283.612C311.874 283.612 312.468 284.242 312.468 285.178C312.468 286.276 311.496 286.384 309.984 286.654C307.608 287.086 306.204 287.698 306.204 289.678C306.204 291.208 307.392 292.234 309.21 292.234ZM309.354 291.208C308.022 291.208 307.428 290.632 307.428 289.57C307.428 288.4 308.346 287.95 310.128 287.626C311.226 287.446 312.198 287.23 312.468 286.852V288.562C312.468 290.218 311.244 291.208 309.354 291.208ZM316.207 279.13V292H317.377V279.13H316.207ZM323.439 286.654C322.035 286.294 320.811 286.15 320.811 284.998C320.811 284.134 321.531 283.63 322.845 283.63C324.645 283.63 325.113 284.584 325.275 285.394H326.517C326.355 283.882 325.221 282.604 322.845 282.604C320.775 282.604 319.587 283.576 319.587 285.07C319.587 286.852 321.297 287.284 322.989 287.698C324.267 288.004 325.635 288.148 325.635 289.498C325.635 290.398 325.041 291.208 323.277 291.208C321.351 291.208 320.541 290.254 320.469 288.994H319.227C319.281 290.83 320.703 292.234 323.259 292.234C325.527 292.234 326.859 291.136 326.859 289.462C326.859 287.554 325.167 287.068 323.439 286.654Z" fill="#46DC78"/>
<path d="M48.952 443H53.208C55.196 443 56.512 442.02 56.512 440.13C56.512 438.688 55.63 437.862 54.524 437.652V437.624C55.42 437.316 56.106 436.7 56.106 435.51C56.106 433.942 54.916 432.99 52.942 432.99H48.952V443ZM49.974 437.288V433.886H53.138C54.426 433.886 55.042 434.586 55.042 435.608C55.042 436.602 54.51 437.288 53.138 437.288H49.974ZM49.974 442.104V438.184H53.488C54.678 438.184 55.448 438.954 55.448 440.13C55.448 441.292 54.832 442.104 53.236 442.104H49.974ZM59.5959 442.958C59.2179 444.274 58.6579 444.708 57.9999 444.708C57.7619 444.708 57.6499 444.694 57.4399 444.666V445.45C57.7339 445.492 57.9019 445.506 58.1259 445.506C59.0919 445.506 59.7079 444.988 60.4079 443.21L63.2779 435.86H62.2979L60.0719 441.81H60.0439L57.7339 435.86H56.7119L59.5959 442.958ZM66.9555 435.86V436.658H68.0055V441.152C68.0055 442.706 68.6495 443.056 69.6995 443.056C69.9235 443.056 70.0915 443.042 70.3715 443V442.23C70.1615 442.244 70.0495 442.258 69.8255 442.258C69.1255 442.258 68.9155 442.048 68.9155 441.166V436.658H70.3715V435.86H68.9155V433.48H68.0055V435.86H66.9555ZM74.4096 443.196C76.5376 443.196 77.8396 441.656 77.8396 439.444C77.8396 437.218 76.5376 435.678 74.4096 435.678C72.2676 435.678 70.9796 437.218 70.9796 439.444C70.9796 441.656 72.2676 443.196 74.4096 443.196ZM74.4096 442.398C72.7296 442.398 71.9316 441.082 71.9316 439.444C71.9316 437.792 72.7296 436.476 74.4096 436.476C76.0756 436.476 76.8876 437.792 76.8876 439.444C76.8876 441.082 76.0756 442.398 74.4096 442.398ZM79.0949 443H80.0049V440.2L81.2369 439.052L83.9249 443H85.0169L81.8529 438.478L84.6669 435.86H83.5469L80.0049 439.206V432.99H79.0949V443ZM88.4226 443.196C90.2146 443.196 91.1946 442.118 91.5446 440.816H90.6206C90.4806 441.404 89.9206 442.412 88.4366 442.412C86.7566 442.412 85.9866 441.068 85.9726 439.612H91.6286C91.6426 439.5 91.6426 439.304 91.6426 439.108C91.6426 437.12 90.4806 435.678 88.4226 435.678C86.3646 435.678 85.0206 437.148 85.0206 439.43C85.0206 441.6 86.2386 443.196 88.4226 443.196ZM88.3806 436.462C89.8506 436.462 90.6766 437.54 90.6766 438.814H85.9726C86.0426 437.484 86.9946 436.462 88.3806 436.462ZM92.9035 443H93.8135V438.492C93.8135 437.442 94.6955 436.49 96.0535 436.49C97.2855 436.49 97.7055 437.274 97.7055 438.184V443H98.6155V437.988C98.6155 436.406 97.5515 435.692 96.2775 435.692C95.0035 435.692 94.2335 436.294 93.8415 436.882H93.8135V435.86H92.9035V443ZM100.064 433.256V434.432H101.24V433.256H100.064ZM100.204 435.86V443H101.114V435.86H100.204ZM102.287 442.3V443H107.943V442.202H103.463V442.174L107.803 436.434V435.86H102.525V436.658H106.529V436.686L102.287 442.3ZM108.992 433.256V434.432H110.168V433.256H108.992ZM109.132 435.86V443H110.042V435.86H109.132ZM111.689 443H112.599V438.492C112.599 437.442 113.481 436.49 114.839 436.49C116.071 436.49 116.491 437.274 116.491 438.184V443H117.401V437.988C117.401 436.406 116.337 435.692 115.063 435.692C113.789 435.692 113.019 436.294 112.627 436.882H112.599V435.86H111.689V443ZM124.157 442.678C124.157 444.134 123.303 444.764 121.861 444.764C120.489 444.764 119.873 444.134 119.733 443.378H118.781C118.893 444.624 119.915 445.562 121.847 445.562C123.807 445.562 125.067 444.568 125.067 442.552V435.86H124.157V436.98H124.129C123.709 436.266 122.925 435.692 121.721 435.692C120.027 435.692 118.585 436.812 118.585 439.164C118.585 441.544 120.027 442.664 121.721 442.664C122.925 442.664 123.709 442.09 124.129 441.348H124.157V442.678ZM121.847 436.49C123.163 436.49 124.157 437.358 124.157 439.164C124.157 440.998 123.163 441.866 121.847 441.866C120.377 441.866 119.537 440.802 119.537 439.164C119.537 437.554 120.377 436.49 121.847 436.49ZM135.148 438.366H136.1C135.932 436.854 134.77 435.692 133.034 435.692C130.99 435.692 129.618 437.204 129.618 439.43C129.618 441.67 130.99 443.182 133.034 443.182C134.77 443.182 136.002 441.992 136.1 440.452H135.148C135.092 441.32 134.532 442.398 133.034 442.398C131.284 442.398 130.57 440.9 130.57 439.43C130.57 437.974 131.284 436.49 133.034 436.49C134.518 436.49 135.092 437.568 135.148 438.366ZM139.311 443.182C140.487 443.182 141.327 442.734 141.831 441.922H141.859C141.901 442.818 142.265 443.056 142.853 443.056C143.021 443.056 143.175 443.028 143.329 443V442.342C143.245 442.356 143.203 442.356 143.133 442.356C142.825 442.356 142.741 442.09 142.741 441.516V437.946C142.741 436.238 141.579 435.678 140.263 435.678C138.177 435.678 137.393 436.756 137.323 438.016H138.275C138.345 436.966 138.849 436.476 140.221 436.476C141.383 436.476 141.845 436.966 141.845 437.694C141.845 438.548 141.089 438.632 139.913 438.842C138.065 439.178 136.973 439.654 136.973 441.194C136.973 442.384 137.897 443.182 139.311 443.182ZM139.423 442.384C138.387 442.384 137.925 441.936 137.925 441.11C137.925 440.2 138.639 439.85 140.025 439.598C140.879 439.458 141.635 439.29 141.845 438.996V440.326C141.845 441.614 140.893 442.384 139.423 442.384ZM144.474 435.86V443H145.384V439.01C145.384 437.624 146.322 436.588 147.624 436.588C147.75 436.588 147.904 436.602 148.058 436.63V435.734C147.876 435.706 147.694 435.692 147.442 435.692C146.42 435.692 145.762 436.378 145.412 437.316H145.384V435.86H144.474ZM150.006 441.782C150.426 442.552 151.168 443.168 152.414 443.168C154.15 443.168 155.55 441.768 155.55 439.43C155.55 437.078 154.15 435.678 152.414 435.678C151.168 435.678 150.412 436.322 150.006 437.008H149.978V432.99H149.068V443H149.978V441.782H150.006ZM152.302 436.462C153.786 436.462 154.598 437.82 154.598 439.43C154.598 441.026 153.786 442.37 152.302 442.37C150.93 442.37 149.978 441.222 149.978 439.43C149.978 437.624 150.93 436.462 152.302 436.462ZM159.9 443.196C162.028 443.196 163.33 441.656 163.33 439.444C163.33 437.218 162.028 435.678 159.9 435.678C157.758 435.678 156.47 437.218 156.47 439.444C156.47 441.656 157.758 443.196 159.9 443.196ZM159.9 442.398C158.22 442.398 157.422 441.082 157.422 439.444C157.422 437.792 158.22 436.476 159.9 436.476C161.566 436.476 162.378 437.792 162.378 439.444C162.378 441.082 161.566 442.398 159.9 442.398ZM164.585 443H165.495V438.492C165.495 437.442 166.377 436.49 167.735 436.49C168.967 436.49 169.387 437.274 169.387 438.184V443H170.297V437.988C170.297 436.406 169.233 435.692 167.959 435.692C166.685 435.692 165.915 436.294 165.523 436.882H165.495V435.86H164.585V443ZM180.32 438.366H181.272C181.104 436.854 179.942 435.692 178.206 435.692C176.162 435.692 174.79 437.204 174.79 439.43C174.79 441.67 176.162 443.182 178.206 443.182C179.942 443.182 181.174 441.992 181.272 440.452H180.32C180.264 441.32 179.704 442.398 178.206 442.398C176.456 442.398 175.742 440.9 175.742 439.43C175.742 437.974 176.456 436.49 178.206 436.49C179.69 436.49 180.264 437.568 180.32 438.366ZM182.495 435.86V443H183.405V439.01C183.405 437.624 184.343 436.588 185.645 436.588C185.771 436.588 185.925 436.602 186.079 436.63V435.734C185.897 435.706 185.715 435.692 185.463 435.692C184.441 435.692 183.783 436.378 183.433 437.316H183.405V435.86H182.495ZM189.772 443.196C191.564 443.196 192.544 442.118 192.894 440.816H191.97C191.83 441.404 191.27 442.412 189.786 442.412C188.106 442.412 187.336 441.068 187.322 439.612H192.978C192.992 439.5 192.992 439.304 192.992 439.108C192.992 437.12 191.83 435.678 189.772 435.678C187.714 435.678 186.37 437.148 186.37 439.43C186.37 441.6 187.588 443.196 189.772 443.196ZM189.73 436.462C191.2 436.462 192.026 437.54 192.026 438.814H187.322C187.392 437.484 188.344 436.462 189.73 436.462ZM199.475 437.064C199.055 436.308 198.299 435.692 197.067 435.692C195.317 435.692 193.917 437.092 193.917 439.43C193.917 441.782 195.317 443.182 197.053 443.182C198.299 443.182 199.055 442.538 199.475 441.838H199.503V443H200.413V432.99H199.503V437.064H199.475ZM197.165 442.384C195.681 442.384 194.869 441.04 194.869 439.43C194.869 437.834 195.681 436.49 197.165 436.49C198.537 436.49 199.503 437.638 199.503 439.43C199.503 441.236 198.537 442.384 197.165 442.384ZM201.92 433.256V434.432H203.096V433.256H201.92ZM202.06 435.86V443H202.97V435.86H202.06ZM204.016 435.86V436.658H205.066V441.152C205.066 442.706 205.71 443.056 206.76 443.056C206.984 443.056 207.152 443.042 207.432 443V442.23C207.222 442.244 207.11 442.258 206.886 442.258C206.186 442.258 205.976 442.048 205.976 441.166V436.658H207.432V435.86H205.976V433.48H205.066V435.86H204.016ZM211.383 438.842C210.291 438.562 209.339 438.45 209.339 437.554C209.339 436.882 209.899 436.49 210.921 436.49C212.321 436.49 212.685 437.232 212.811 437.862H213.777C213.651 436.686 212.769 435.692 210.921 435.692C209.311 435.692 208.387 436.448 208.387 437.61C208.387 438.996 209.717 439.332 211.033 439.654C212.027 439.892 213.091 440.004 213.091 441.054C213.091 441.754 212.629 442.384 211.257 442.384C209.759 442.384 209.129 441.642 209.073 440.662H208.107C208.149 442.09 209.255 443.182 211.243 443.182C213.007 443.182 214.043 442.328 214.043 441.026C214.043 439.542 212.727 439.164 211.383 438.842ZM219.949 443V436.658H221.363V435.86H219.949V434.796C219.949 433.914 220.117 433.704 220.803 433.704C220.999 433.704 221.111 433.718 221.363 433.732V432.962C221.055 432.92 220.887 432.906 220.677 432.906C219.655 432.906 219.039 433.256 219.039 434.81V435.86H218.031V436.658H219.039V443H219.949ZM222.499 435.86V443H223.409V439.01C223.409 437.624 224.347 436.588 225.649 436.588C225.775 436.588 225.929 436.602 226.083 436.63V435.734C225.901 435.706 225.719 435.692 225.467 435.692C224.445 435.692 223.787 436.378 223.437 437.316H223.409V435.86H222.499ZM229.804 443.196C231.932 443.196 233.234 441.656 233.234 439.444C233.234 437.218 231.932 435.678 229.804 435.678C227.662 435.678 226.374 437.218 226.374 439.444C226.374 441.656 227.662 443.196 229.804 443.196ZM229.804 442.398C228.124 442.398 227.326 441.082 227.326 439.444C227.326 437.792 228.124 436.476 229.804 436.476C231.47 436.476 232.282 437.792 232.282 439.444C232.282 441.082 231.47 442.398 229.804 442.398ZM234.489 443H235.399V438.492C235.399 437.456 236.141 436.49 237.387 436.49C238.577 436.49 238.787 437.288 238.787 438.184V443H239.697V438.492C239.697 437.456 240.453 436.49 241.699 436.49C242.875 436.49 243.099 437.288 243.099 438.184V443H244.009V437.988C244.009 436.504 243.267 435.692 241.895 435.692C240.775 435.692 240.005 436.294 239.543 437.008H239.515C239.235 436.154 238.591 435.692 237.583 435.692C236.463 435.692 235.791 436.294 235.427 436.868H235.399V435.86H234.489V443ZM251.925 443.196C254.053 443.196 255.355 441.656 255.355 439.444C255.355 437.218 254.053 435.678 251.925 435.678C249.783 435.678 248.495 437.218 248.495 439.444C248.495 441.656 249.783 443.196 251.925 443.196ZM251.925 442.398C250.245 442.398 249.447 441.082 249.447 439.444C249.447 437.792 250.245 436.476 251.925 436.476C253.591 436.476 254.403 437.792 254.403 439.444C254.403 441.082 253.591 442.398 251.925 442.398ZM255.806 436.658H256.814V443H257.724V436.658H260.146V443H261.056V436.658H262.47V435.86H261.056V434.796C261.056 433.914 261.224 433.704 261.91 433.704C262.106 433.704 262.218 433.718 262.47 433.732V432.962C262.148 432.92 261.98 432.906 261.784 432.906C260.762 432.906 260.146 433.256 260.146 434.81V435.86H257.724V434.796C257.724 433.914 257.892 433.704 258.578 433.704C258.774 433.704 258.886 433.718 259.138 433.732V432.962C258.83 432.92 258.662 432.906 258.452 432.906C257.43 432.906 256.814 433.256 256.814 434.81V435.86H255.806V436.658ZM263.044 438.982V439.878H266.796V438.982H263.044ZM273.344 438.366H274.296C274.128 436.854 272.966 435.692 271.23 435.692C269.186 435.692 267.814 437.204 267.814 439.43C267.814 441.67 269.186 443.182 271.23 443.182C272.966 443.182 274.198 441.992 274.296 440.452H273.344C273.288 441.32 272.728 442.398 271.23 442.398C269.48 442.398 268.766 440.9 268.766 439.43C268.766 437.974 269.48 436.49 271.23 436.49C272.714 436.49 273.288 437.568 273.344 438.366ZM280.321 438.184V443H281.231V437.988C281.231 436.406 280.167 435.692 278.893 435.692C277.619 435.692 276.849 436.294 276.457 436.882H276.429V432.99H275.519V443H276.429V438.492C276.429 437.442 277.311 436.49 278.669 436.49C279.901 436.49 280.321 437.274 280.321 438.184ZM284.739 443.182C285.915 443.182 286.755 442.734 287.259 441.922H287.287C287.329 442.818 287.693 443.056 288.281 443.056C288.449 443.056 288.603 443.028 288.757 443V442.342C288.673 442.356 288.631 442.356 288.561 442.356C288.253 442.356 288.169 442.09 288.169 441.516V437.946C288.169 436.238 287.007 435.678 285.691 435.678C283.605 435.678 282.821 436.756 282.751 438.016H283.703C283.773 436.966 284.277 436.476 285.649 436.476C286.811 436.476 287.273 436.966 287.273 437.694C287.273 438.548 286.517 438.632 285.341 438.842C283.493 439.178 282.401 439.654 282.401 441.194C282.401 442.384 283.325 443.182 284.739 443.182ZM284.851 442.384C283.815 442.384 283.353 441.936 283.353 441.11C283.353 440.2 284.067 439.85 285.453 439.598C286.307 439.458 287.063 439.29 287.273 438.996V440.326C287.273 441.614 286.321 442.384 284.851 442.384ZM289.762 433.256V434.432H290.938V433.256H289.762ZM289.902 435.86V443H290.812V435.86H289.902ZM292.458 443H293.368V438.492C293.368 437.442 294.25 436.49 295.608 436.49C296.84 436.49 297.26 437.274 297.26 438.184V443H298.17V437.988C298.17 436.406 297.106 435.692 295.832 435.692C294.558 435.692 293.788 436.294 293.396 436.882H293.368V435.86H292.458V443ZM51.892 461.196C54.02 461.196 55.322 459.656 55.322 457.444C55.322 455.218 54.02 453.678 51.892 453.678C49.75 453.678 48.462 455.218 48.462 457.444C48.462 459.656 49.75 461.196 51.892 461.196ZM51.892 460.398C50.212 460.398 49.414 459.082 49.414 457.444C49.414 455.792 50.212 454.476 51.892 454.476C53.558 454.476 54.37 455.792 54.37 457.444C54.37 459.082 53.558 460.398 51.892 460.398ZM55.7728 454.658H56.7808V461H57.6908V454.658H60.1128V461H61.0228V454.658H62.4368V453.86H61.0228V452.796C61.0228 451.914 61.1908 451.704 61.8768 451.704C62.0728 451.704 62.1848 451.718 62.4368 451.732V450.962C62.1148 450.92 61.9468 450.906 61.7508 450.906C60.7288 450.906 60.1128 451.256 60.1128 452.81V453.86H57.6908V452.796C57.6908 451.914 57.8588 451.704 58.5448 451.704C58.7408 451.704 58.8528 451.718 59.1048 451.732V450.962C58.7968 450.92 58.6288 450.906 58.4188 450.906C57.3968 450.906 56.7808 451.256 56.7808 452.81V453.86H55.7728V454.658ZM63.2348 451.256V452.432H64.4108V451.256H63.2348ZM63.3888 453.86V461H64.2988V453.86H63.3888ZM71.0682 456.366H72.0202C71.8522 454.854 70.6902 453.692 68.9542 453.692C66.9102 453.692 65.5382 455.204 65.5382 457.43C65.5382 459.67 66.9102 461.182 68.9542 461.182C70.6902 461.182 71.9222 459.992 72.0202 458.452H71.0682C71.0122 459.32 70.4522 460.398 68.9542 460.398C67.2042 460.398 66.4902 458.9 66.4902 457.43C66.4902 455.974 67.2042 454.49 68.9542 454.49C70.4382 454.49 71.0122 455.568 71.0682 456.366ZM73.1033 451.256V452.432H74.2793V451.256H73.1033ZM73.2433 453.86V461H74.1533V453.86H73.2433ZM77.7196 461.182C78.8956 461.182 79.7356 460.734 80.2396 459.922H80.2676C80.3096 460.818 80.6736 461.056 81.2616 461.056C81.4296 461.056 81.5836 461.028 81.7376 461V460.342C81.6536 460.356 81.6116 460.356 81.5416 460.356C81.2336 460.356 81.1496 460.09 81.1496 459.516V455.946C81.1496 454.238 79.9876 453.678 78.6716 453.678C76.5856 453.678 75.8016 454.756 75.7316 456.016H76.6836C76.7536 454.966 77.2576 454.476 78.6296 454.476C79.7916 454.476 80.2536 454.966 80.2536 455.694C80.2536 456.548 79.4976 456.632 78.3216 456.842C76.4736 457.178 75.3816 457.654 75.3816 459.194C75.3816 460.384 76.3056 461.182 77.7196 461.182ZM77.8316 460.384C76.7956 460.384 76.3336 459.936 76.3336 459.11C76.3336 458.2 77.0476 457.85 78.4336 457.598C79.2876 457.458 80.0436 457.29 80.2536 456.996V458.326C80.2536 459.614 79.3016 460.384 77.8316 460.384ZM82.882 450.99V461H83.792V450.99H82.882ZM88.6789 453.86V461H89.5889V457.01C89.5889 455.624 90.5269 454.588 91.8289 454.588C91.9549 454.588 92.1089 454.602 92.2629 454.63V453.734C92.0809 453.706 91.8989 453.692 91.6469 453.692C90.6249 453.692 89.9669 454.378 89.6169 455.316H89.5889V453.86H88.6789ZM95.9558 461.196C97.7478 461.196 98.7278 460.118 99.0778 458.816H98.1538C98.0138 459.404 97.4538 460.412 95.9698 460.412C94.2898 460.412 93.5198 459.068 93.5058 457.612H99.1618C99.1758 457.5 99.1758 457.304 99.1758 457.108C99.1758 455.12 98.0138 453.678 95.9558 453.678C93.8978 453.678 92.5538 455.148 92.5538 457.43C92.5538 459.6 93.7718 461.196 95.9558 461.196ZM95.9138 454.462C97.3838 454.462 98.2098 455.54 98.2098 456.814H93.5058C93.5758 455.484 94.5278 454.462 95.9138 454.462ZM105.673 460.678C105.673 462.134 104.819 462.764 103.377 462.764C102.005 462.764 101.389 462.134 101.249 461.378H100.297C100.409 462.624 101.431 463.562 103.363 463.562C105.323 463.562 106.583 462.568 106.583 460.552V453.86H105.673V454.98H105.645C105.225 454.266 104.441 453.692 103.237 453.692C101.543 453.692 100.101 454.812 100.101 457.164C100.101 459.544 101.543 460.664 103.237 460.664C104.441 460.664 105.225 460.09 105.645 459.348H105.673V460.678ZM103.363 454.49C104.679 454.49 105.673 455.358 105.673 457.164C105.673 458.998 104.679 459.866 103.363 459.866C101.893 459.866 101.053 458.802 101.053 457.164C101.053 455.554 101.893 454.49 103.363 454.49ZM108.09 451.256V452.432H109.266V451.256H108.09ZM108.23 453.86V461H109.14V453.86H108.23ZM113.574 456.842C112.482 456.562 111.53 456.45 111.53 455.554C111.53 454.882 112.09 454.49 113.112 454.49C114.512 454.49 114.876 455.232 115.002 455.862H115.968C115.842 454.686 114.96 453.692 113.112 453.692C111.502 453.692 110.578 454.448 110.578 455.61C110.578 456.996 111.908 457.332 113.224 457.654C114.218 457.892 115.282 458.004 115.282 459.054C115.282 459.754 114.82 460.384 113.448 460.384C111.95 460.384 111.32 459.642 111.264 458.662H110.298C110.34 460.09 111.446 461.182 113.434 461.182C115.198 461.182 116.234 460.328 116.234 459.026C116.234 457.542 114.918 457.164 113.574 456.842ZM116.707 453.86V454.658H117.757V459.152C117.757 460.706 118.401 461.056 119.451 461.056C119.675 461.056 119.843 461.042 120.123 461V460.23C119.913 460.244 119.801 460.258 119.577 460.258C118.877 460.258 118.667 460.048 118.667 459.166V454.658H120.123V453.86H118.667V451.48H117.757V453.86H116.707ZM121.382 453.86V461H122.292V457.01C122.292 455.624 123.23 454.588 124.532 454.588C124.658 454.588 124.812 454.602 124.966 454.63V453.734C124.784 453.706 124.602 453.692 124.35 453.692C123.328 453.692 122.67 454.378 122.32 455.316H122.292V453.86H121.382ZM125.836 451.256V452.432H127.012V451.256H125.836ZM125.976 453.86V461H126.886V453.86H125.976ZM131.53 461.196C133.322 461.196 134.302 460.118 134.652 458.816H133.728C133.588 459.404 133.028 460.412 131.544 460.412C129.864 460.412 129.094 459.068 129.08 457.612H134.736C134.75 457.5 134.75 457.304 134.75 457.108C134.75 455.12 133.588 453.678 131.53 453.678C129.472 453.678 128.128 455.148 128.128 457.43C128.128 459.6 129.346 461.196 131.53 461.196ZM131.488 454.462C132.958 454.462 133.784 455.54 133.784 456.814H129.08C129.15 455.484 130.102 454.462 131.488 454.462ZM138.758 456.842C137.666 456.562 136.714 456.45 136.714 455.554C136.714 454.882 137.274 454.49 138.296 454.49C139.696 454.49 140.06 455.232 140.186 455.862H141.152C141.026 454.686 140.144 453.692 138.296 453.692C136.686 453.692 135.762 454.448 135.762 455.61C135.762 456.996 137.092 457.332 138.408 457.654C139.402 457.892 140.466 458.004 140.466 459.054C140.466 459.754 140.004 460.384 138.632 460.384C137.134 460.384 136.504 459.642 136.448 458.662H135.482C135.524 460.09 136.63 461.182 138.618 461.182C140.382 461.182 141.418 460.328 141.418 459.026C141.418 457.542 140.102 457.164 138.758 456.842ZM142.489 462.694C143.441 462.4 143.665 461.784 143.665 461V459.824H142.489V461H143.063C143.077 461.672 142.937 461.924 142.489 462.092V462.694ZM153.742 456.366H154.694C154.526 454.854 153.364 453.692 151.628 453.692C149.584 453.692 148.212 455.204 148.212 457.43C148.212 459.67 149.584 461.182 151.628 461.182C153.364 461.182 154.596 459.992 154.694 458.452H153.742C153.686 459.32 153.126 460.398 151.628 460.398C149.878 460.398 149.164 458.9 149.164 457.43C149.164 455.974 149.878 454.49 151.628 454.49C153.112 454.49 153.686 455.568 153.742 456.366ZM155.917 453.86V461H156.827V457.01C156.827 455.624 157.765 454.588 159.067 454.588C159.193 454.588 159.347 454.602 159.501 454.63V453.734C159.319 453.706 159.137 453.692 158.885 453.692C157.863 453.692 157.205 454.378 156.855 455.316H156.827V453.86H155.917ZM163.194 461.196C164.986 461.196 165.966 460.118 166.316 458.816H165.392C165.252 459.404 164.692 460.412 163.208 460.412C161.528 460.412 160.758 459.068 160.744 457.612H166.4C166.414 457.5 166.414 457.304 166.414 457.108C166.414 455.12 165.252 453.678 163.194 453.678C161.136 453.678 159.792 455.148 159.792 457.43C159.792 459.6 161.01 461.196 163.194 461.196ZM163.152 454.462C164.622 454.462 165.448 455.54 165.448 456.814H160.744C160.814 455.484 161.766 454.462 163.152 454.462ZM172.897 455.064C172.477 454.308 171.721 453.692 170.489 453.692C168.739 453.692 167.339 455.092 167.339 457.43C167.339 459.782 168.739 461.182 170.475 461.182C171.721 461.182 172.477 460.538 172.897 459.838H172.925V461H173.835V450.99H172.925V455.064H172.897ZM170.587 460.384C169.103 460.384 168.291 459.04 168.291 457.43C168.291 455.834 169.103 454.49 170.587 454.49C171.959 454.49 172.925 455.638 172.925 457.43C172.925 459.236 171.959 460.384 170.587 460.384ZM175.342 451.256V452.432H176.518V451.256H175.342ZM175.482 453.86V461H176.392V453.86H175.482ZM177.438 453.86V454.658H178.488V459.152C178.488 460.706 179.132 461.056 180.182 461.056C180.406 461.056 180.574 461.042 180.854 461V460.23C180.644 460.244 180.532 460.258 180.308 460.258C179.608 460.258 179.398 460.048 179.398 459.166V454.658H180.854V453.86H179.398V451.48H178.488V453.86H177.438ZM188.515 461.196C190.643 461.196 191.945 459.656 191.945 457.444C191.945 455.218 190.643 453.678 188.515 453.678C186.373 453.678 185.085 455.218 185.085 457.444C185.085 459.656 186.373 461.196 188.515 461.196ZM188.515 460.398C186.835 460.398 186.037 459.082 186.037 457.444C186.037 455.792 186.835 454.476 188.515 454.476C190.181 454.476 190.993 455.792 190.993 457.444C190.993 459.082 190.181 460.398 188.515 460.398ZM192.339 453.86L194.607 461H195.629L197.295 454.966H197.323L199.017 461H200.025L202.307 453.86H201.327L199.535 459.964H199.507L197.841 453.86H196.819L195.153 459.964H195.125L193.347 453.86H192.339ZM203.318 461H204.228V456.492C204.228 455.442 205.11 454.49 206.468 454.49C207.7 454.49 208.12 455.274 208.12 456.184V461H209.03V455.988C209.03 454.406 207.966 453.692 206.692 453.692C205.418 453.692 204.648 454.294 204.256 454.882H204.228V453.86H203.318V461ZM213.616 461.196C215.408 461.196 216.388 460.118 216.738 458.816H215.814C215.674 459.404 215.114 460.412 213.63 460.412C211.95 460.412 211.18 459.068 211.166 457.612H216.822C216.836 457.5 216.836 457.304 216.836 457.108C216.836 455.12 215.674 453.678 213.616 453.678C211.558 453.678 210.214 455.148 210.214 457.43C210.214 459.6 211.432 461.196 213.616 461.196ZM213.574 454.462C215.044 454.462 215.87 455.54 215.87 456.814H211.166C211.236 455.484 212.188 454.462 213.574 454.462ZM218.097 453.86V461H219.007V457.01C219.007 455.624 219.945 454.588 221.247 454.588C221.373 454.588 221.527 454.602 221.681 454.63V453.734C221.499 453.706 221.317 453.692 221.065 453.692C220.043 453.692 219.385 454.378 219.035 455.316H219.007V453.86H218.097ZM225.465 456.842C224.373 456.562 223.421 456.45 223.421 455.554C223.421 454.882 223.981 454.49 225.003 454.49C226.403 454.49 226.767 455.232 226.893 455.862H227.859C227.733 454.686 226.851 453.692 225.003 453.692C223.393 453.692 222.469 454.448 222.469 455.61C222.469 456.996 223.799 457.332 225.115 457.654C226.109 457.892 227.173 458.004 227.173 459.054C227.173 459.754 226.711 460.384 225.339 460.384C223.841 460.384 223.211 459.642 223.155 458.662H222.189C222.231 460.09 223.337 461.182 225.325 461.182C227.089 461.182 228.125 460.328 228.125 459.026C228.125 457.542 226.809 457.164 225.465 456.842ZM237.839 460.678C237.839 462.134 236.985 462.764 235.543 462.764C234.171 462.764 233.555 462.134 233.415 461.378H232.463C232.575 462.624 233.597 463.562 235.529 463.562C237.489 463.562 238.749 462.568 238.749 460.552V453.86H237.839V454.98H237.811C237.391 454.266 236.607 453.692 235.403 453.692C233.709 453.692 232.267 454.812 232.267 457.164C232.267 459.544 233.709 460.664 235.403 460.664C236.607 460.664 237.391 460.09 237.811 459.348H237.839V460.678ZM235.529 454.49C236.845 454.49 237.839 455.358 237.839 457.164C237.839 458.998 236.845 459.866 235.529 459.866C234.059 459.866 233.219 458.802 233.219 457.164C233.219 455.554 234.059 454.49 235.529 454.49ZM243.393 461.196C245.185 461.196 246.165 460.118 246.515 458.816H245.591C245.451 459.404 244.891 460.412 243.407 460.412C241.727 460.412 240.957 459.068 240.943 457.612H246.599C246.613 457.5 246.613 457.304 246.613 457.108C246.613 455.12 245.451 453.678 243.393 453.678C241.335 453.678 239.991 455.148 239.991 457.43C239.991 459.6 241.209 461.196 243.393 461.196ZM243.351 454.462C244.821 454.462 245.647 455.54 245.647 456.814H240.943C241.013 455.484 241.965 454.462 243.351 454.462ZM247.178 453.86V454.658H248.228V459.152C248.228 460.706 248.872 461.056 249.922 461.056C250.146 461.056 250.314 461.042 250.594 461V460.23C250.384 460.244 250.272 460.258 250.048 460.258C249.348 460.258 249.138 460.048 249.138 459.166V454.658H250.594V453.86H249.138V451.48H248.228V453.86H247.178ZM254.629 453.86V454.658H255.679V459.152C255.679 460.706 256.323 461.056 257.373 461.056C257.597 461.056 257.765 461.042 258.045 461V460.23C257.835 460.244 257.723 460.258 257.499 460.258C256.799 460.258 256.589 460.048 256.589 459.166V454.658H258.045V453.86H256.589V451.48H255.679V453.86H254.629ZM264.161 456.184V461H265.071V455.988C265.071 454.406 264.007 453.692 262.733 453.692C261.459 453.692 260.689 454.294 260.297 454.882H260.269V450.99H259.359V461H260.269V456.492C260.269 455.442 261.151 454.49 262.509 454.49C263.741 454.49 264.161 455.274 264.161 456.184ZM269.657 461.196C271.449 461.196 272.429 460.118 272.779 458.816H271.855C271.715 459.404 271.155 460.412 269.671 460.412C267.991 460.412 267.221 459.068 267.207 457.612H272.863C272.877 457.5 272.877 457.304 272.877 457.108C272.877 455.12 271.715 453.678 269.657 453.678C267.599 453.678 266.255 455.148 266.255 457.43C266.255 459.6 267.473 461.196 269.657 461.196ZM269.615 454.462C271.085 454.462 271.911 455.54 271.911 456.814H267.207C267.277 455.484 268.229 454.462 269.615 454.462ZM277.446 453.86V461H278.356V457.01C278.356 455.624 279.294 454.588 280.596 454.588C280.722 454.588 280.876 454.602 281.03 454.63V453.734C280.848 453.706 280.666 453.692 280.414 453.692C279.392 453.692 278.734 454.378 278.384 455.316H278.356V453.86H277.446ZM281.9 451.256V452.432H283.076V451.256H281.9ZM282.04 453.86V461H282.95V453.86H282.04ZM289.764 460.678C289.764 462.134 288.91 462.764 287.468 462.764C286.096 462.764 285.48 462.134 285.34 461.378H284.388C284.5 462.624 285.522 463.562 287.454 463.562C289.414 463.562 290.674 462.568 290.674 460.552V453.86H289.764V454.98H289.736C289.316 454.266 288.532 453.692 287.328 453.692C285.634 453.692 284.192 454.812 284.192 457.164C284.192 459.544 285.634 460.664 287.328 460.664C288.532 460.664 289.316 460.09 289.736 459.348H289.764V460.678ZM287.454 454.49C288.77 454.49 289.764 455.358 289.764 457.164C289.764 458.998 288.77 459.866 287.454 459.866C285.984 459.866 285.144 458.802 285.144 457.164C285.144 455.554 285.984 454.49 287.454 454.49ZM297.123 456.184V461H298.033V455.988C298.033 454.406 296.969 453.692 295.695 453.692C294.421 453.692 293.651 454.294 293.259 454.882H293.231V450.99H292.321V461H293.231V456.492C293.231 455.442 294.113 454.49 295.471 454.49C296.703 454.49 297.123 455.274 297.123 456.184ZM298.885 453.86V454.658H299.935V459.152C299.935 460.706 300.579 461.056 301.629 461.056C301.853 461.056 302.021 461.042 302.301 461V460.23C302.091 460.244 301.979 460.258 301.755 460.258C301.055 460.258 300.845 460.048 300.845 459.166V454.658H302.301V453.86H300.845V451.48H299.935V453.86H298.885ZM306.336 453.86V454.658H307.386V459.152C307.386 460.706 308.03 461.056 309.08 461.056C309.304 461.056 309.472 461.042 309.752 461V460.23C309.542 460.244 309.43 460.258 309.206 460.258C308.506 460.258 308.296 460.048 308.296 459.166V454.658H309.752V453.86H308.296V451.48H307.386V453.86H306.336ZM313.79 461.196C315.918 461.196 317.22 459.656 317.22 457.444C317.22 455.218 315.918 453.678 313.79 453.678C311.648 453.678 310.36 455.218 310.36 457.444C310.36 459.656 311.648 461.196 313.79 461.196ZM313.79 460.398C312.11 460.398 311.312 459.082 311.312 457.444C311.312 455.792 312.11 454.476 313.79 454.476C315.456 454.476 316.268 455.792 316.268 457.444C316.268 459.082 315.456 460.398 313.79 460.398ZM53.992 474.366H54.944C54.776 472.854 53.614 471.692 51.878 471.692C49.834 471.692 48.462 473.204 48.462 475.43C48.462 477.67 49.834 479.182 51.878 479.182C53.614 479.182 54.846 477.992 54.944 476.452H53.992C53.936 477.32 53.376 478.398 51.878 478.398C50.128 478.398 49.414 476.9 49.414 475.43C49.414 473.974 50.128 472.49 51.878 472.49C53.362 472.49 53.936 473.568 53.992 474.366ZM56.1671 468.99V479H57.0771V468.99H56.1671ZM60.6434 479.182C61.8194 479.182 62.6594 478.734 63.1634 477.922H63.1914C63.2334 478.818 63.5974 479.056 64.1854 479.056C64.3534 479.056 64.5074 479.028 64.6614 479V478.342C64.5774 478.356 64.5354 478.356 64.4654 478.356C64.1574 478.356 64.0734 478.09 64.0734 477.516V473.946C64.0734 472.238 62.9114 471.678 61.5954 471.678C59.5094 471.678 58.7254 472.756 58.6554 474.016H59.6074C59.6774 472.966 60.1814 472.476 61.5534 472.476C62.7154 472.476 63.1774 472.966 63.1774 473.694C63.1774 474.548 62.4214 474.632 61.2454 474.842C59.3974 475.178 58.3054 475.654 58.3054 477.194C58.3054 478.384 59.2294 479.182 60.6434 479.182ZM60.7554 478.384C59.7194 478.384 59.2574 477.936 59.2574 477.11C59.2574 476.2 59.9714 475.85 61.3574 475.598C62.2114 475.458 62.9674 475.29 63.1774 474.996V476.326C63.1774 477.614 62.2254 478.384 60.7554 478.384ZM65.6658 469.256V470.432H66.8418V469.256H65.6658ZM65.8058 471.86V479H66.7158V471.86H65.8058ZM68.3625 479H69.2725V474.492C69.2725 473.456 70.0145 472.49 71.2605 472.49C72.4505 472.49 72.6605 473.288 72.6605 474.184V479H73.5705V474.492C73.5705 473.456 74.3265 472.49 75.5725 472.49C76.7485 472.49 76.9725 473.288 76.9725 474.184V479H77.8825V473.988C77.8825 472.504 77.1405 471.692 75.7685 471.692C74.6485 471.692 73.8785 472.294 73.4165 473.008H73.3885C73.1085 472.154 72.4645 471.692 71.4565 471.692C70.3365 471.692 69.6645 472.294 69.3005 472.868H69.2725V471.86H68.3625V479Z" fill="#F0F0F0"/>
<path d="M84.6923 479.182C85.8683 479.182 86.7083 478.734 87.2123 477.922H87.2403C87.2823 478.818 87.6463 479.056 88.2343 479.056C88.4023 479.056 88.5563 479.028 88.7103 479V478.342C88.6263 478.356 88.5843 478.356 88.5143 478.356C88.2063 478.356 88.1223 478.09 88.1223 477.516V473.946C88.1223 472.238 86.9603 471.678 85.6443 471.678C83.5583 471.678 82.7743 472.756 82.7043 474.016H83.6562C83.7263 472.966 84.2303 472.476 85.6022 472.476C86.7643 472.476 87.2263 472.966 87.2263 473.694C87.2263 474.548 86.4703 474.632 85.2943 474.842C83.4463 475.178 82.3543 475.654 82.3543 477.194C82.3543 478.384 83.2783 479.182 84.6923 479.182ZM84.8043 478.384C83.7683 478.384 83.3063 477.936 83.3063 477.11C83.3063 476.2 84.0203 475.85 85.4062 475.598C86.2603 475.458 87.0163 475.29 87.2263 474.996V476.326C87.2263 477.614 86.2743 478.384 84.8043 478.384ZM94.1012 477.796C94.5212 478.552 95.2632 479.168 96.5092 479.168C98.2452 479.168 99.6452 477.768 99.6452 475.43C99.6452 473.078 98.2452 471.678 96.5092 471.678C95.2632 471.678 94.5072 472.322 94.1012 473.008H94.0732V471.86H93.1632V481.478H94.0732V477.796H94.1012ZM96.3972 472.476C97.8812 472.476 98.6932 473.82 98.6932 475.43C98.6932 477.026 97.8812 478.37 96.3972 478.37C95.0252 478.37 94.0732 477.222 94.0732 475.43C94.0732 473.624 95.0252 472.476 96.3972 472.476ZM100.902 471.86V479H101.812V475.01C101.812 473.624 102.75 472.588 104.052 472.588C104.178 472.588 104.332 472.602 104.486 472.63V471.734C104.304 471.706 104.122 471.692 103.87 471.692C102.848 471.692 102.19 472.378 101.84 473.316H101.812V471.86H100.902ZM108.206 479.196C110.334 479.196 111.636 477.656 111.636 475.444C111.636 473.218 110.334 471.678 108.206 471.678C106.064 471.678 104.776 473.218 104.776 475.444C104.776 477.656 106.064 479.196 108.206 479.196ZM108.206 478.398C106.526 478.398 105.728 477.082 105.728 475.444C105.728 473.792 106.526 472.476 108.206 472.476C109.872 472.476 110.684 473.792 110.684 475.444C110.684 477.082 109.872 478.398 108.206 478.398ZM113.83 477.796C114.25 478.552 114.992 479.168 116.238 479.168C117.974 479.168 119.374 477.768 119.374 475.43C119.374 473.078 117.974 471.678 116.238 471.678C114.992 471.678 114.236 472.322 113.83 473.008H113.802V471.86H112.892V481.478H113.802V477.796H113.83ZM116.126 472.476C117.61 472.476 118.422 473.82 118.422 475.43C118.422 477.026 117.61 478.37 116.126 478.37C114.754 478.37 113.802 477.222 113.802 475.43C113.802 473.624 114.754 472.476 116.126 472.476ZM123.724 479.196C125.852 479.196 127.154 477.656 127.154 475.444C127.154 473.218 125.852 471.678 123.724 471.678C121.582 471.678 120.294 473.218 120.294 475.444C120.294 477.656 121.582 479.196 123.724 479.196ZM123.724 478.398C122.044 478.398 121.246 477.082 121.246 475.444C121.246 473.792 122.044 472.476 123.724 472.476C125.39 472.476 126.202 473.792 126.202 475.444C126.202 477.082 125.39 478.398 123.724 478.398ZM128.409 471.86V479H129.319V475.01C129.319 473.624 130.257 472.588 131.559 472.588C131.685 472.588 131.839 472.602 131.993 472.63V471.734C131.811 471.706 131.629 471.692 131.377 471.692C130.355 471.692 129.697 472.378 129.347 473.316H129.319V471.86H128.409ZM132.635 471.86V472.658H133.685V477.152C133.685 478.706 134.329 479.056 135.379 479.056C135.603 479.056 135.771 479.042 136.051 479V478.23C135.841 478.244 135.729 478.258 135.505 478.258C134.805 478.258 134.595 478.048 134.595 477.166V472.658H136.051V471.86H134.595V469.48H133.685V471.86H132.635ZM137.224 469.256V470.432H138.4V469.256H137.224ZM137.364 471.86V479H138.274V471.86H137.364ZM142.947 479.196C145.075 479.196 146.377 477.656 146.377 475.444C146.377 473.218 145.075 471.678 142.947 471.678C140.805 471.678 139.517 473.218 139.517 475.444C139.517 477.656 140.805 479.196 142.947 479.196ZM142.947 478.398C141.267 478.398 140.469 477.082 140.469 475.444C140.469 473.792 141.267 472.476 142.947 472.476C144.613 472.476 145.425 473.792 145.425 475.444C145.425 477.082 144.613 478.398 142.947 478.398ZM147.632 479H148.542V474.492C148.542 473.442 149.424 472.49 150.782 472.49C152.014 472.49 152.434 473.274 152.434 474.184V479H153.344V473.988C153.344 472.406 152.28 471.692 151.006 471.692C149.732 471.692 148.962 472.294 148.57 472.882H148.542V471.86H147.632V479ZM156.852 479.182C158.028 479.182 158.868 478.734 159.372 477.922H159.4C159.442 478.818 159.806 479.056 160.394 479.056C160.562 479.056 160.716 479.028 160.87 479V478.342C160.786 478.356 160.744 478.356 160.674 478.356C160.366 478.356 160.282 478.09 160.282 477.516V473.946C160.282 472.238 159.12 471.678 157.804 471.678C155.718 471.678 154.934 472.756 154.864 474.016H155.816C155.886 472.966 156.39 472.476 157.762 472.476C158.924 472.476 159.386 472.966 159.386 473.694C159.386 474.548 158.63 474.632 157.454 474.842C155.606 475.178 154.514 475.654 154.514 477.194C154.514 478.384 155.438 479.182 156.852 479.182ZM156.964 478.384C155.928 478.384 155.466 477.936 155.466 477.11C155.466 476.2 156.18 475.85 157.566 475.598C158.42 475.458 159.176 475.29 159.386 474.996V476.326C159.386 477.614 158.434 478.384 156.964 478.384ZM162.015 468.99V479H162.925V468.99H162.015ZM168.75 477.796C169.17 478.552 169.912 479.168 171.158 479.168C172.894 479.168 174.294 477.768 174.294 475.43C174.294 473.078 172.894 471.678 171.158 471.678C169.912 471.678 169.156 472.322 168.75 473.008H168.722V471.86H167.812V481.478H168.722V477.796H168.75ZM171.046 472.476C172.53 472.476 173.342 473.82 173.342 475.43C173.342 477.026 172.53 478.37 171.046 478.37C169.674 478.37 168.722 477.222 168.722 475.43C168.722 473.624 169.674 472.476 171.046 472.476ZM177.538 479.182C178.714 479.182 179.554 478.734 180.058 477.922H180.086C180.128 478.818 180.492 479.056 181.08 479.056C181.248 479.056 181.402 479.028 181.556 479V478.342C181.472 478.356 181.43 478.356 181.36 478.356C181.052 478.356 180.968 478.09 180.968 477.516V473.946C180.968 472.238 179.806 471.678 178.49 471.678C176.404 471.678 175.62 472.756 175.55 474.016H176.502C176.572 472.966 177.076 472.476 178.448 472.476C179.61 472.476 180.072 472.966 180.072 473.694C180.072 474.548 179.316 474.632 178.14 474.842C176.292 475.178 175.2 475.654 175.2 477.194C175.2 478.384 176.124 479.182 177.538 479.182ZM177.65 478.384C176.614 478.384 176.152 477.936 176.152 477.11C176.152 476.2 176.866 475.85 178.252 475.598C179.106 475.458 179.862 475.29 180.072 474.996V476.326C180.072 477.614 179.12 478.384 177.65 478.384ZM182.7 471.86V479H183.61V475.01C183.61 473.624 184.548 472.588 185.85 472.588C185.976 472.588 186.13 472.602 186.284 472.63V471.734C186.102 471.706 185.92 471.692 185.668 471.692C184.646 471.692 183.988 472.378 183.638 473.316H183.61V471.86H182.7ZM186.926 471.86V472.658H187.976V477.152C187.976 478.706 188.62 479.056 189.67 479.056C189.894 479.056 190.062 479.042 190.342 479V478.23C190.132 478.244 190.02 478.258 189.796 478.258C189.096 478.258 188.886 478.048 188.886 477.166V472.658H190.342V471.86H188.886V469.48H187.976V471.86H186.926ZM198.003 479.196C200.131 479.196 201.433 477.656 201.433 475.444C201.433 473.218 200.131 471.678 198.003 471.678C195.861 471.678 194.573 473.218 194.573 475.444C194.573 477.656 195.861 479.196 198.003 479.196ZM198.003 478.398C196.323 478.398 195.525 477.082 195.525 475.444C195.525 473.792 196.323 472.476 198.003 472.476C199.669 472.476 200.481 473.792 200.481 475.444C200.481 477.082 199.669 478.398 198.003 478.398ZM203.802 479V472.658H205.216V471.86H203.802V470.796C203.802 469.914 203.97 469.704 204.656 469.704C204.852 469.704 204.964 469.718 205.216 469.732V468.962C204.908 468.92 204.74 468.906 204.53 468.906C203.508 468.906 202.892 469.256 202.892 470.81V471.86H201.884V472.658H202.892V479H203.802ZM209.129 471.86V472.658H210.179V477.152C210.179 478.706 210.823 479.056 211.873 479.056C212.097 479.056 212.265 479.042 212.545 479V478.23C212.335 478.244 212.223 478.258 211.999 478.258C211.299 478.258 211.089 478.048 211.089 477.166V472.658H212.545V471.86H211.089V469.48H210.179V471.86H209.129ZM218.661 474.184V479H219.571V473.988C219.571 472.406 218.507 471.692 217.233 471.692C215.959 471.692 215.189 472.294 214.797 472.882H214.769V468.99H213.859V479H214.769V474.492C214.769 473.442 215.651 472.49 217.009 472.49C218.241 472.49 218.661 473.274 218.661 474.184ZM224.157 479.196C225.949 479.196 226.929 478.118 227.279 476.816H226.355C226.215 477.404 225.655 478.412 224.171 478.412C222.491 478.412 221.721 477.068 221.707 475.612H227.363C227.377 475.5 227.377 475.304 227.377 475.108C227.377 473.12 226.215 471.678 224.157 471.678C222.099 471.678 220.755 473.148 220.755 475.43C220.755 477.6 221.973 479.196 224.157 479.196ZM224.115 472.462C225.585 472.462 226.411 473.54 226.411 474.814H221.707C221.777 473.484 222.729 472.462 224.115 472.462ZM239.45 472.182H240.514C240.248 470.306 238.722 468.808 236.384 468.808C233.654 468.808 231.792 470.978 231.792 474.002C231.792 477.04 233.654 479.182 236.37 479.182C238.764 479.182 240.304 477.628 240.556 475.444H239.492C239.38 476.83 238.498 478.286 236.37 478.286C233.976 478.286 232.842 476.242 232.842 474.002C232.842 471.762 233.962 469.704 236.384 469.704C238.428 469.704 239.24 471.062 239.45 472.182ZM246.575 479.182C249.459 479.182 251.391 476.998 251.391 473.988C251.391 470.978 249.459 468.808 246.575 468.808C243.691 468.808 241.773 470.978 241.773 473.988C241.773 476.998 243.691 479.182 246.575 479.182ZM246.575 478.286C244.111 478.286 242.837 476.354 242.837 473.988C242.837 471.622 244.111 469.704 246.575 469.704C249.053 469.704 250.327 471.622 250.327 473.988C250.327 476.354 249.053 478.286 246.575 478.286ZM253.803 472.588C253.803 471.216 254.433 470.04 256.113 470.04C257.597 470.04 258.059 471.048 258.059 472C258.059 473.47 257.079 473.89 255.329 474.898C253.579 475.878 252.473 477.208 252.473 479H259.025V478.104H253.691V478.076C253.929 476.788 255.091 476.13 256.267 475.458C257.667 474.66 259.123 473.82 259.123 471.986C259.123 470.18 257.779 469.144 256.127 469.144C253.845 469.144 252.739 470.712 252.739 472.588H253.803ZM265.019 473.428V469.886H270.689V468.99H263.997V479H265.019V474.324H269.681V473.428H265.019ZM272.079 476.676V471.86H271.169V476.872C271.169 478.454 272.219 479.168 273.507 479.168C274.781 479.168 275.551 478.58 275.943 477.992H275.971V479H276.881V471.86H275.971V476.368C275.971 477.418 275.075 478.37 273.731 478.37C272.485 478.37 272.079 477.586 272.079 476.676ZM278.54 479H279.45V474.492C279.45 473.442 280.332 472.49 281.69 472.49C282.922 472.49 283.342 473.274 283.342 474.184V479H284.252V473.988C284.252 472.406 283.188 471.692 281.914 471.692C280.64 471.692 279.87 472.294 279.478 472.882H279.45V471.86H278.54V479ZM290.995 473.064C290.575 472.308 289.819 471.692 288.587 471.692C286.837 471.692 285.437 473.092 285.437 475.43C285.437 477.782 286.837 479.182 288.573 479.182C289.819 479.182 290.575 478.538 290.995 477.838H291.023V479H291.933V468.99H291.023V473.064H290.995ZM288.685 478.384C287.201 478.384 286.389 477.04 286.389 475.43C286.389 473.834 287.201 472.49 288.685 472.49C290.057 472.49 291.023 473.638 291.023 475.43C291.023 477.236 290.057 478.384 288.685 478.384ZM293.413 477.824V479H294.589V477.824H293.413Z" fill="#46DC78"/>
</svg>
