<svg width="1420" height="566" viewBox="0 0 1420 566" fill="none" xmlns="http://www.w3.org/2000/svg">
<path d="M953.792 434.123C927.723 439.08 900.16 438.387 872.811 431.059C827.004 418.785 789.983 390.088 766.386 353" stroke="#F0F0F0" stroke-dasharray="4 4"/>
<circle cx="1172" cy="318" r="248" fill="#374236"/>
<path d="M12.96 150.56C20.68 150.56 23.96 144.12 23.96 136.2C23.96 128.28 20.68 121.8 12.96 121.8C5.24 121.8 1.96 128.28 1.96 136.2C1.96 144.12 5.24 150.56 12.96 150.56ZM12.96 146.84C8 146.84 6.48 141.88 6.48 136.2C6.48 130.52 8 125.52 12.96 125.52C17.96 125.52 19.44 130.52 19.44 136.2C19.44 141.88 17.96 146.84 12.96 146.84ZM33.4697 122.36C33.1497 125.68 31.6697 127.16 26.7897 127.28V130.8C29.2697 130.8 31.4297 130.6 32.5897 129.48V150H36.9097V122.36H33.4697ZM2.72 198H5.64V173.52H5.72L21.16 198H24.72V169.4H21.84V193.88H21.76L6.28 169.4H2.72V198ZM33.0619 182.08V171.96H49.2619V169.4H30.1419V198H33.0619V184.64H46.3819V182.08H33.0619ZM60.9916 198H63.8716V171.96H73.5916V169.4H51.2316V171.96H60.9916V198ZM86.6653 169.4V198H89.5853V169.4H86.6653ZM102.628 186.12C99.5075 185.32 96.7875 185 96.7875 182.44C96.7875 180.52 98.3875 179.4 101.308 179.4C105.308 179.4 106.348 181.52 106.708 183.32H109.468C109.108 179.96 106.588 177.12 101.308 177.12C96.7075 177.12 94.0675 179.28 94.0675 182.6C94.0675 186.56 97.8675 187.52 101.628 188.44C104.468 189.12 107.508 189.44 107.508 192.44C107.508 194.44 106.188 196.24 102.268 196.24C97.9875 196.24 96.1875 194.12 96.0275 191.32H93.2675C93.3875 195.4 96.5475 198.52 102.228 198.52C107.268 198.52 110.228 196.08 110.228 192.36C110.228 188.12 106.468 187.04 102.628 186.12ZM121.729 186.12C118.609 185.32 115.889 185 115.889 182.44C115.889 180.52 117.489 179.4 120.409 179.4C124.409 179.4 125.449 181.52 125.809 183.32H128.569C128.209 179.96 125.689 177.12 120.409 177.12C115.809 177.12 113.169 179.28 113.169 182.6C113.169 186.56 116.969 187.52 120.729 188.44C123.569 189.12 126.609 189.44 126.609 192.44C126.609 194.44 125.289 196.24 121.369 196.24C117.089 196.24 115.289 194.12 115.129 191.32H112.369C112.489 195.4 115.649 198.52 121.329 198.52C126.369 198.52 129.329 196.08 129.329 192.36C129.329 188.12 125.569 187.04 121.729 186.12ZM135.071 191.36V177.6H132.471V191.92C132.471 196.44 135.471 198.48 139.151 198.48C142.791 198.48 144.991 196.8 146.111 195.12H146.191V198H148.791V177.6H146.191V190.48C146.191 193.48 143.631 196.2 139.791 196.2C136.231 196.2 135.071 193.96 135.071 191.36ZM159.015 198.52C162.375 198.52 164.775 197.24 166.215 194.92H166.295C166.415 197.48 167.455 198.16 169.135 198.16C169.615 198.16 170.055 198.08 170.495 198V196.12C170.255 196.16 170.135 196.16 169.935 196.16C169.055 196.16 168.815 195.4 168.815 193.76V183.56C168.815 178.68 165.495 177.08 161.735 177.08C155.775 177.08 153.535 180.16 153.335 183.76H156.055C156.255 180.76 157.695 179.36 161.615 179.36C164.935 179.36 166.255 180.76 166.255 182.84C166.255 185.28 164.095 185.52 160.735 186.12C155.455 187.08 152.335 188.44 152.335 192.84C152.335 196.24 154.975 198.52 159.015 198.52ZM159.335 196.24C156.375 196.24 155.055 194.96 155.055 192.6C155.055 190 157.095 189 161.055 188.28C163.495 187.88 165.655 187.4 166.255 186.56V190.36C166.255 194.04 163.535 196.24 159.335 196.24ZM173.764 198H176.364V185.12C176.364 182.12 178.884 179.4 182.764 179.4C186.284 179.4 187.484 181.64 187.484 184.24V198H190.084V183.68C190.084 179.16 187.044 177.12 183.404 177.12C179.764 177.12 177.564 178.84 176.444 180.52H176.364V177.6H173.764V198ZM209.268 184.76H211.988C211.508 180.44 208.188 177.12 203.228 177.12C197.388 177.12 193.468 181.44 193.468 187.8C193.468 194.2 197.388 198.52 203.228 198.52C208.188 198.52 211.708 195.12 211.988 190.72H209.268C209.108 193.2 207.508 196.28 203.228 196.28C198.228 196.28 196.188 192 196.188 187.8C196.188 183.64 198.228 179.4 203.228 179.4C207.468 179.4 209.108 182.48 209.268 184.76ZM224.243 198.56C229.363 198.56 232.163 195.48 233.163 191.76H230.523C230.123 193.44 228.523 196.32 224.283 196.32C219.483 196.32 217.283 192.48 217.243 188.32H233.403C233.443 188 233.443 187.44 233.443 186.88C233.443 181.2 230.123 177.08 224.243 177.08C218.363 177.08 214.523 181.28 214.523 187.8C214.523 194 218.003 198.56 224.243 198.56ZM224.123 179.32C228.323 179.32 230.683 182.4 230.683 186.04H217.243C217.443 182.24 220.163 179.32 224.123 179.32Z" fill="#F0F0F0"/>
<path d="M1033.6 224.364H1035.73C1035.2 220.612 1032.15 217.616 1027.47 217.616C1022.01 217.616 1018.29 221.956 1018.29 228.004C1018.29 234.08 1022.01 238.364 1027.44 238.364C1032.23 238.364 1035.31 235.256 1035.82 230.888H1033.69C1033.46 233.66 1031.7 236.572 1027.44 236.572C1022.66 236.572 1020.39 232.484 1020.39 228.004C1020.39 223.524 1022.63 219.408 1027.47 219.408C1031.56 219.408 1033.18 222.124 1033.6 224.364ZM1042.34 238.364C1044.69 238.364 1046.37 237.468 1047.38 235.844H1047.44C1047.52 237.636 1048.25 238.112 1049.43 238.112C1049.76 238.112 1050.07 238.056 1050.38 238V236.684C1050.21 236.712 1050.13 236.712 1049.99 236.712C1049.37 236.712 1049.2 236.18 1049.2 235.032V227.892C1049.2 224.476 1046.88 223.356 1044.25 223.356C1040.07 223.356 1038.51 225.512 1038.37 228.032H1040.27C1040.41 225.932 1041.42 224.952 1044.16 224.952C1046.49 224.952 1047.41 225.932 1047.41 227.388C1047.41 229.096 1045.9 229.264 1043.55 229.684C1039.85 230.356 1037.67 231.308 1037.67 234.388C1037.67 236.768 1039.51 238.364 1042.34 238.364ZM1042.57 236.768C1040.49 236.768 1039.57 235.872 1039.57 234.22C1039.57 232.4 1041 231.7 1043.77 231.196C1045.48 230.916 1046.99 230.58 1047.41 229.992V232.652C1047.41 235.228 1045.51 236.768 1042.57 236.768ZM1052.67 223.72V238H1054.49V230.02C1054.49 227.248 1056.36 225.176 1058.97 225.176C1059.22 225.176 1059.53 225.204 1059.83 225.26V223.468C1059.47 223.412 1059.11 223.384 1058.6 223.384C1056.56 223.384 1055.24 224.756 1054.54 226.632H1054.49V223.72H1052.67ZM1063.73 235.564C1064.57 237.104 1066.05 238.336 1068.55 238.336C1072.02 238.336 1074.82 235.536 1074.82 230.86C1074.82 226.156 1072.02 223.356 1068.55 223.356C1066.05 223.356 1064.54 224.644 1063.73 226.016H1063.67V217.98H1061.85V238H1063.67V235.564H1063.73ZM1068.32 224.924C1071.29 224.924 1072.91 227.64 1072.91 230.86C1072.91 234.052 1071.29 236.74 1068.32 236.74C1065.58 236.74 1063.67 234.444 1063.67 230.86C1063.67 227.248 1065.58 224.924 1068.32 224.924ZM1083.52 238.392C1087.77 238.392 1090.38 235.312 1090.38 230.888C1090.38 226.436 1087.77 223.356 1083.52 223.356C1079.23 223.356 1076.66 226.436 1076.66 230.888C1076.66 235.312 1079.23 238.392 1083.52 238.392ZM1083.52 236.796C1080.16 236.796 1078.56 234.164 1078.56 230.888C1078.56 227.584 1080.16 224.952 1083.52 224.952C1086.85 224.952 1088.47 227.584 1088.47 230.888C1088.47 234.164 1086.85 236.796 1083.52 236.796ZM1092.89 238H1094.71V228.984C1094.71 226.884 1096.47 224.98 1099.19 224.98C1101.65 224.98 1102.49 226.548 1102.49 228.368V238H1104.31V227.976C1104.31 224.812 1102.18 223.384 1099.64 223.384C1097.09 223.384 1095.55 224.588 1094.76 225.764H1094.71V223.72H1092.89V238ZM1124.36 228.732H1126.26C1125.93 225.708 1123.6 223.384 1120.13 223.384C1116.04 223.384 1113.3 226.408 1113.3 230.86C1113.3 235.34 1116.04 238.364 1120.13 238.364C1123.6 238.364 1126.07 235.984 1126.26 232.904H1124.36C1124.25 234.64 1123.13 236.796 1120.13 236.796C1116.63 236.796 1115.2 233.8 1115.2 230.86C1115.2 227.948 1116.63 224.98 1120.13 224.98C1123.1 224.98 1124.25 227.136 1124.36 228.732ZM1128.71 223.72V238H1130.53V230.02C1130.53 227.248 1132.41 225.176 1135.01 225.176C1135.26 225.176 1135.57 225.204 1135.88 225.26V223.468C1135.51 223.412 1135.15 223.384 1134.65 223.384C1132.6 223.384 1131.29 224.756 1130.59 226.632H1130.53V223.72H1128.71ZM1143.26 238.392C1146.85 238.392 1148.81 236.236 1149.51 233.632H1147.66C1147.38 234.808 1146.26 236.824 1143.29 236.824C1139.93 236.824 1138.39 234.136 1138.36 231.224H1149.68C1149.7 231 1149.7 230.608 1149.7 230.216C1149.7 226.24 1147.38 223.356 1143.26 223.356C1139.15 223.356 1136.46 226.296 1136.46 230.86C1136.46 235.2 1138.9 238.392 1143.26 238.392ZM1143.18 224.924C1146.12 224.924 1147.77 227.08 1147.77 229.628H1138.36C1138.5 226.968 1140.41 224.924 1143.18 224.924ZM1162.67 226.128C1161.83 224.616 1160.32 223.384 1157.85 223.384C1154.35 223.384 1151.55 226.184 1151.55 230.86C1151.55 235.564 1154.35 238.364 1157.82 238.364C1160.32 238.364 1161.83 237.076 1162.67 235.676H1162.72V238H1164.54V217.98H1162.72V226.128H1162.67ZM1158.05 236.768C1155.08 236.768 1153.46 234.08 1153.46 230.86C1153.46 227.668 1155.08 224.98 1158.05 224.98C1160.79 224.98 1162.72 227.276 1162.72 230.86C1162.72 234.472 1160.79 236.768 1158.05 236.768ZM1167.56 218.512V220.864H1169.91V218.512H1167.56ZM1167.84 223.72V238H1169.66V223.72H1167.84ZM1171.75 223.72V225.316H1173.85V234.304C1173.85 237.412 1175.14 238.112 1177.24 238.112C1177.69 238.112 1178.02 238.084 1178.58 238V236.46C1178.16 236.488 1177.94 236.516 1177.49 236.516C1176.09 236.516 1175.67 236.096 1175.67 234.332V225.316H1178.58V223.72H1175.67V218.96H1173.85V223.72H1171.75ZM1186.48 229.684C1184.3 229.124 1182.4 228.9 1182.4 227.108C1182.4 225.764 1183.52 224.98 1185.56 224.98C1188.36 224.98 1189.09 226.464 1189.34 227.724H1191.27C1191.02 225.372 1189.26 223.384 1185.56 223.384C1182.34 223.384 1180.49 224.896 1180.49 227.22C1180.49 229.992 1183.15 230.664 1185.78 231.308C1187.77 231.784 1189.9 232.008 1189.9 234.108C1189.9 235.508 1188.98 236.768 1186.23 236.768C1183.24 236.768 1181.98 235.284 1181.86 233.324H1179.93C1180.02 236.18 1182.23 238.364 1186.2 238.364C1189.73 238.364 1191.8 236.656 1191.8 234.052C1191.8 231.084 1189.17 230.328 1186.48 229.684ZM1199.42 223.72L1204.65 238H1206.72L1211.96 223.72H1210L1205.74 236.152H1205.72L1201.43 223.72H1199.42ZM1219.39 238.392C1222.97 238.392 1224.93 236.236 1225.63 233.632H1223.78C1223.5 234.808 1222.38 236.824 1219.42 236.824C1216.06 236.824 1214.52 234.136 1214.49 231.224H1225.8C1225.83 231 1225.83 230.608 1225.83 230.216C1225.83 226.24 1223.5 223.356 1219.39 223.356C1215.27 223.356 1212.58 226.296 1212.58 230.86C1212.58 235.2 1215.02 238.392 1219.39 238.392ZM1219.3 224.924C1222.24 224.924 1223.9 227.08 1223.9 229.628H1214.49C1214.63 226.968 1216.53 224.924 1219.3 224.924ZM1228.35 223.72V238H1230.17V230.02C1230.17 227.248 1232.05 225.176 1234.65 225.176C1234.9 225.176 1235.21 225.204 1235.52 225.26V223.468C1235.15 223.412 1234.79 223.384 1234.29 223.384C1232.24 223.384 1230.93 224.756 1230.23 226.632H1230.17V223.72H1228.35ZM1237.26 218.512V220.864H1239.61V218.512H1237.26ZM1237.54 223.72V238H1239.36V223.72H1237.54ZM1245.29 238V225.316H1248.12V223.72H1245.29V221.592C1245.29 219.828 1245.62 219.408 1247 219.408C1247.39 219.408 1247.61 219.436 1248.12 219.464V217.924C1247.5 217.84 1247.16 217.812 1246.74 217.812C1244.7 217.812 1243.47 218.512 1243.47 221.62V223.72H1241.45V225.316H1243.47V238H1245.29ZM1249.77 218.512V220.864H1252.12V218.512H1249.77ZM1250.08 223.72V238H1251.9V223.72H1250.08ZM1261.2 238.392C1264.78 238.392 1266.74 236.236 1267.44 233.632H1265.59C1265.31 234.808 1264.19 236.824 1261.22 236.824C1257.86 236.824 1256.32 234.136 1256.3 231.224H1267.61C1267.64 231 1267.64 230.608 1267.64 230.216C1267.64 226.24 1265.31 223.356 1261.2 223.356C1257.08 223.356 1254.39 226.296 1254.39 230.86C1254.39 235.2 1256.83 238.392 1261.2 238.392ZM1261.11 224.924C1264.05 224.924 1265.7 227.08 1265.7 229.628H1256.3C1256.44 226.968 1258.34 224.924 1261.11 224.924ZM1280.6 226.128C1279.76 224.616 1278.25 223.384 1275.79 223.384C1272.29 223.384 1269.49 226.184 1269.49 230.86C1269.49 235.564 1272.29 238.364 1275.76 238.364C1278.25 238.364 1279.76 237.076 1280.6 235.676H1280.66V238H1282.48V217.98H1280.66V226.128H1280.6ZM1275.98 236.768C1273.01 236.768 1271.39 234.08 1271.39 230.86C1271.39 227.668 1273.01 224.98 1275.98 224.98C1278.73 224.98 1280.66 227.276 1280.66 230.86C1280.66 234.472 1278.73 236.768 1275.98 236.768ZM1017.53 259.72V261.316H1019.63V270.304C1019.63 273.412 1020.92 274.112 1023.02 274.112C1023.47 274.112 1023.8 274.084 1024.36 274V272.46C1023.94 272.488 1023.72 272.516 1023.27 272.516C1021.87 272.516 1021.45 272.096 1021.45 270.332V261.316H1024.36V259.72H1021.45V254.96H1019.63V259.72H1017.53ZM1036.59 264.368V274H1038.41V263.976C1038.41 260.812 1036.29 259.384 1033.74 259.384C1031.19 259.384 1029.65 260.588 1028.87 261.764H1028.81V253.98H1026.99V274H1028.81V264.984C1028.81 262.884 1030.57 260.98 1033.29 260.98C1035.75 260.98 1036.59 262.548 1036.59 264.368ZM1041.59 259.72V274H1043.41V266.02C1043.41 263.248 1045.29 261.176 1047.89 261.176C1048.14 261.176 1048.45 261.204 1048.76 261.26V259.468C1048.4 259.412 1048.03 259.384 1047.53 259.384C1045.48 259.384 1044.17 260.756 1043.47 262.632H1043.41V259.72H1041.59ZM1056.2 274.392C1060.46 274.392 1063.06 271.312 1063.06 266.888C1063.06 262.436 1060.46 259.356 1056.2 259.356C1051.92 259.356 1049.34 262.436 1049.34 266.888C1049.34 271.312 1051.92 274.392 1056.2 274.392ZM1056.2 272.796C1052.84 272.796 1051.25 270.164 1051.25 266.888C1051.25 263.584 1052.84 260.952 1056.2 260.952C1059.53 260.952 1061.16 263.584 1061.16 266.888C1061.16 270.164 1059.53 272.796 1056.2 272.796ZM1067.23 269.352V259.72H1065.41V269.744C1065.41 272.908 1067.51 274.336 1070.08 274.336C1072.63 274.336 1074.17 273.16 1074.95 271.984H1075.01V274H1076.83V259.72H1075.01V268.736C1075.01 270.836 1073.22 272.74 1070.53 272.74C1068.04 272.74 1067.23 271.172 1067.23 269.352ZM1090.48 273.356C1090.48 276.268 1088.77 277.528 1085.89 277.528C1083.15 277.528 1081.91 276.268 1081.63 274.756H1079.73C1079.95 277.248 1082 279.124 1085.86 279.124C1089.78 279.124 1092.3 277.136 1092.3 273.104V259.72H1090.48V261.96H1090.43C1089.59 260.532 1088.02 259.384 1085.61 259.384C1082.22 259.384 1079.34 261.624 1079.34 266.328C1079.34 271.088 1082.22 273.328 1085.61 273.328C1088.02 273.328 1089.59 272.18 1090.43 270.696H1090.48V273.356ZM1085.86 260.98C1088.49 260.98 1090.48 262.716 1090.48 266.328C1090.48 269.996 1088.49 271.732 1085.86 271.732C1082.92 271.732 1081.24 269.604 1081.24 266.328C1081.24 263.108 1082.92 260.98 1085.86 260.98ZM1105.2 264.368V274H1107.02V263.976C1107.02 260.812 1104.89 259.384 1102.34 259.384C1099.8 259.384 1098.26 260.588 1097.47 261.764H1097.42V253.98H1095.6V274H1097.42V264.984C1097.42 262.884 1099.18 260.98 1101.9 260.98C1104.36 260.98 1105.2 262.548 1105.2 264.368ZM1115.61 259.72V261.316H1117.71V270.304C1117.71 273.412 1119 274.112 1121.1 274.112C1121.55 274.112 1121.89 274.084 1122.45 274V272.46C1122.03 272.488 1121.8 272.516 1121.35 272.516C1119.95 272.516 1119.53 272.096 1119.53 270.332V261.316H1122.45V259.72H1119.53V254.96H1117.71V259.72H1115.61ZM1134.68 264.368V274H1136.5V263.976C1136.5 260.812 1134.37 259.384 1131.82 259.384C1129.27 259.384 1127.73 260.588 1126.95 261.764H1126.89V253.98H1125.07V274H1126.89V264.984C1126.89 262.884 1128.66 260.98 1131.37 260.98C1133.84 260.98 1134.68 262.548 1134.68 264.368ZM1145.67 274.392C1149.25 274.392 1151.21 272.236 1151.91 269.632H1150.07C1149.79 270.808 1148.67 272.824 1145.7 272.824C1142.34 272.824 1140.8 270.136 1140.77 267.224H1152.08C1152.11 267 1152.11 266.608 1152.11 266.216C1152.11 262.24 1149.79 259.356 1145.67 259.356C1141.55 259.356 1138.87 262.296 1138.87 266.86C1138.87 271.2 1141.3 274.392 1145.67 274.392ZM1145.59 260.924C1148.53 260.924 1150.18 263.08 1150.18 265.628H1140.77C1140.91 262.968 1142.81 260.924 1145.59 260.924ZM1161.56 274H1168.72C1174.32 274 1177.49 270.22 1177.49 264.032C1177.49 257.844 1174.38 253.98 1168.78 253.98H1161.56V274ZM1163.6 255.772H1168.78C1173.79 255.772 1175.36 259.58 1175.36 264.032C1175.36 268.456 1173.74 272.208 1168.72 272.208H1163.6V255.772ZM1180.05 254.512V256.864H1182.41V254.512H1180.05ZM1180.33 259.72V274H1182.15V259.72H1180.33ZM1195.78 273.356C1195.78 276.268 1194.07 277.528 1191.19 277.528C1188.45 277.528 1187.21 276.268 1186.93 274.756H1185.03C1185.25 277.248 1187.3 279.124 1191.16 279.124C1195.08 279.124 1197.6 277.136 1197.6 273.104V259.72H1195.78V261.96H1195.73C1194.89 260.532 1193.32 259.384 1190.91 259.384C1187.52 259.384 1184.64 261.624 1184.64 266.328C1184.64 271.088 1187.52 273.328 1190.91 273.328C1193.32 273.328 1194.89 272.18 1195.73 270.696H1195.78V273.356ZM1191.16 260.98C1193.79 260.98 1195.78 262.716 1195.78 266.328C1195.78 269.996 1193.79 271.732 1191.16 271.732C1188.22 271.732 1186.54 269.604 1186.54 266.328C1186.54 263.108 1188.22 260.98 1191.16 260.98ZM1200.62 254.512V256.864H1202.97V254.512H1200.62ZM1200.9 259.72V274H1202.72V259.72H1200.9ZM1204.81 259.72V261.316H1206.91V270.304C1206.91 273.412 1208.2 274.112 1210.3 274.112C1210.75 274.112 1211.08 274.084 1211.64 274V272.46C1211.22 272.488 1211 272.516 1210.55 272.516C1209.15 272.516 1208.73 272.096 1208.73 270.332V261.316H1211.64V259.72H1208.73V254.96H1206.91V259.72H1204.81ZM1217.7 274.364C1220.05 274.364 1221.73 273.468 1222.74 271.844H1222.79C1222.88 273.636 1223.61 274.112 1224.78 274.112C1225.12 274.112 1225.43 274.056 1225.73 274V272.684C1225.57 272.712 1225.48 272.712 1225.34 272.712C1224.73 272.712 1224.56 272.18 1224.56 271.032V263.892C1224.56 260.476 1222.23 259.356 1219.6 259.356C1215.43 259.356 1213.86 261.512 1213.72 264.032H1215.62C1215.77 261.932 1216.77 260.952 1219.52 260.952C1221.84 260.952 1222.77 261.932 1222.77 263.388C1222.77 265.096 1221.25 265.264 1218.9 265.684C1215.21 266.356 1213.02 267.308 1213.02 270.388C1213.02 272.768 1214.87 274.364 1217.7 274.364ZM1217.92 272.768C1215.85 272.768 1214.93 271.872 1214.93 270.22C1214.93 268.4 1216.35 267.7 1219.12 267.196C1220.83 266.916 1222.35 266.58 1222.77 265.992V268.652C1222.77 271.228 1220.86 272.768 1217.92 272.768ZM1228.02 253.98V274H1229.84V253.98H1228.02ZM1018.9 310H1020.95V292.864H1021L1027.58 310H1029.43L1036.04 292.864H1036.1V310H1038.11V289.98H1035.31L1028.54 307.256H1028.48L1021.7 289.98H1018.9V310ZM1047.56 310.392C1051.14 310.392 1053.1 308.236 1053.8 305.632H1051.96C1051.68 306.808 1050.56 308.824 1047.59 308.824C1044.23 308.824 1042.69 306.136 1042.66 303.224H1053.97C1054 303 1054 302.608 1054 302.216C1054 298.24 1051.68 295.356 1047.56 295.356C1043.44 295.356 1040.76 298.296 1040.76 302.86C1040.76 307.2 1043.19 310.392 1047.56 310.392ZM1047.48 296.924C1050.42 296.924 1052.07 299.08 1052.07 301.628H1042.66C1042.8 298.968 1044.7 296.924 1047.48 296.924ZM1060.5 310.364C1062.85 310.364 1064.53 309.468 1065.54 307.844H1065.59C1065.68 309.636 1066.41 310.112 1067.58 310.112C1067.92 310.112 1068.23 310.056 1068.53 310V308.684C1068.37 308.712 1068.28 308.712 1068.14 308.712C1067.53 308.712 1067.36 308.18 1067.36 307.032V299.892C1067.36 296.476 1065.03 295.356 1062.4 295.356C1058.23 295.356 1056.66 297.512 1056.52 300.032H1058.43C1058.57 297.932 1059.57 296.952 1062.32 296.952C1064.64 296.952 1065.57 297.932 1065.57 299.388C1065.57 301.096 1064.05 301.264 1061.7 301.684C1058.01 302.356 1055.82 303.308 1055.82 306.388C1055.82 308.768 1057.67 310.364 1060.5 310.364ZM1060.72 308.768C1058.65 308.768 1057.73 307.872 1057.73 306.22C1057.73 304.4 1059.15 303.7 1061.93 303.196C1063.63 302.916 1065.15 302.58 1065.57 301.992V304.652C1065.57 307.228 1063.66 308.768 1060.72 308.768ZM1076.18 301.684C1074 301.124 1072.09 300.9 1072.09 299.108C1072.09 297.764 1073.21 296.98 1075.26 296.98C1078.06 296.98 1078.78 298.464 1079.04 299.724H1080.97C1080.72 297.372 1078.95 295.384 1075.26 295.384C1072.04 295.384 1070.19 296.896 1070.19 299.22C1070.19 301.992 1072.85 302.664 1075.48 303.308C1077.47 303.784 1079.6 304.008 1079.6 306.108C1079.6 307.508 1078.67 308.768 1075.93 308.768C1072.93 308.768 1071.67 307.284 1071.56 305.324H1069.63C1069.71 308.18 1071.92 310.364 1075.9 310.364C1079.43 310.364 1081.5 308.656 1081.5 306.052C1081.5 303.084 1078.87 302.328 1076.18 301.684ZM1085.52 305.352V295.72H1083.7V305.744C1083.7 308.908 1085.8 310.336 1088.37 310.336C1090.92 310.336 1092.46 309.16 1093.25 307.984H1093.3V310H1095.12V295.72H1093.3V304.736C1093.3 306.836 1091.51 308.74 1088.82 308.74C1086.33 308.74 1085.52 307.172 1085.52 305.352ZM1098.44 295.72V310H1100.26V302.02C1100.26 299.248 1102.14 297.176 1104.74 297.176C1104.99 297.176 1105.3 297.204 1105.61 297.26V295.468C1105.24 295.412 1104.88 295.384 1104.38 295.384C1102.33 295.384 1101.02 296.756 1100.32 298.632H1100.26V295.72H1098.44ZM1112.99 310.392C1116.58 310.392 1118.54 308.236 1119.24 305.632H1117.39C1117.11 306.808 1115.99 308.824 1113.02 308.824C1109.66 308.824 1108.12 306.136 1108.09 303.224H1119.41C1119.43 303 1119.43 302.608 1119.43 302.216C1119.43 298.24 1117.11 295.356 1112.99 295.356C1108.88 295.356 1106.19 298.296 1106.19 302.86C1106.19 307.2 1108.63 310.392 1112.99 310.392ZM1112.91 296.924C1115.85 296.924 1117.5 299.08 1117.5 301.628H1108.09C1108.23 298.968 1110.14 296.924 1112.91 296.924ZM1121.96 310H1123.78V300.984C1123.78 298.912 1125.26 296.98 1127.75 296.98C1130.13 296.98 1130.55 298.576 1130.55 300.368V310H1132.37V300.984C1132.37 298.912 1133.88 296.98 1136.38 296.98C1138.73 296.98 1139.18 298.576 1139.18 300.368V310H1141V299.976C1141 297.008 1139.51 295.384 1136.77 295.384C1134.53 295.384 1132.99 296.588 1132.06 298.016H1132.01C1131.45 296.308 1130.16 295.384 1128.14 295.384C1125.9 295.384 1124.56 296.588 1123.83 297.736H1123.78V295.72H1121.96V310ZM1150.15 310.392C1153.74 310.392 1155.7 308.236 1156.4 305.632H1154.55C1154.27 306.808 1153.15 308.824 1150.18 308.824C1146.82 308.824 1145.28 306.136 1145.25 303.224H1156.57C1156.59 303 1156.59 302.608 1156.59 302.216C1156.59 298.24 1154.27 295.356 1150.15 295.356C1146.04 295.356 1143.35 298.296 1143.35 302.86C1143.35 307.2 1145.79 310.392 1150.15 310.392ZM1150.07 296.924C1153.01 296.924 1154.66 299.08 1154.66 301.628H1145.25C1145.39 298.968 1147.3 296.924 1150.07 296.924ZM1159.12 310H1160.94V300.984C1160.94 298.884 1162.7 296.98 1165.42 296.98C1167.88 296.98 1168.72 298.548 1168.72 300.368V310H1170.54V299.976C1170.54 296.812 1168.41 295.384 1165.86 295.384C1163.32 295.384 1161.78 296.588 1160.99 297.764H1160.94V295.72H1159.12V310ZM1172.24 295.72V297.316H1174.34V306.304C1174.34 309.412 1175.63 310.112 1177.73 310.112C1178.18 310.112 1178.51 310.084 1179.07 310V308.46C1178.65 308.488 1178.43 308.516 1177.98 308.516C1176.58 308.516 1176.16 308.096 1176.16 306.332V297.316H1179.07V295.72H1176.16V290.96H1174.34V295.72H1172.24ZM1181.59 313.388C1183.49 312.8 1183.94 311.568 1183.94 310V307.648H1181.59V310H1182.74C1182.76 311.344 1182.48 311.848 1181.59 312.184V313.388ZM1194.01 310H1196.06V301.684H1202.16C1207.51 301.684 1205.66 309.16 1206.61 310H1208.77V309.832C1207.71 309.496 1209.27 301.656 1204.68 300.732V300.676C1206.87 300.116 1208.43 298.296 1208.43 295.636C1208.43 291.968 1206.11 289.98 1201.83 289.98H1194.01V310ZM1196.06 291.772H1201.49C1204.93 291.772 1206.39 293.116 1206.39 295.664C1206.39 298.464 1204.54 299.892 1201.35 299.892H1196.06V291.772ZM1217.5 310.392C1221.09 310.392 1223.05 308.236 1223.75 305.632H1221.9C1221.62 306.808 1220.5 308.824 1217.53 308.824C1214.17 308.824 1212.63 306.136 1212.6 303.224H1223.91C1223.94 303 1223.94 302.608 1223.94 302.216C1223.94 298.24 1221.62 295.356 1217.5 295.356C1213.39 295.356 1210.7 298.296 1210.7 302.86C1210.7 307.2 1213.13 310.392 1217.5 310.392ZM1217.42 296.924C1220.36 296.924 1222.01 299.08 1222.01 301.628H1212.6C1212.74 298.968 1214.65 296.924 1217.42 296.924ZM1228.34 307.592C1229.18 309.104 1230.66 310.336 1233.16 310.336C1236.63 310.336 1239.43 307.536 1239.43 302.86C1239.43 298.156 1236.63 295.356 1233.16 295.356C1230.66 295.356 1229.15 296.644 1228.34 298.016H1228.28V295.72H1226.46V314.956H1228.28V307.592H1228.34ZM1232.93 296.952C1235.9 296.952 1237.52 299.64 1237.52 302.86C1237.52 306.052 1235.9 308.74 1232.93 308.74C1230.19 308.74 1228.28 306.444 1228.28 302.86C1228.28 299.248 1230.19 296.952 1232.93 296.952ZM1248.13 310.392C1252.38 310.392 1254.99 307.312 1254.99 302.888C1254.99 298.436 1252.38 295.356 1248.13 295.356C1243.84 295.356 1241.27 298.436 1241.27 302.888C1241.27 307.312 1243.84 310.392 1248.13 310.392ZM1248.13 308.796C1244.77 308.796 1243.17 306.164 1243.17 302.888C1243.17 299.584 1244.77 296.952 1248.13 296.952C1251.46 296.952 1253.08 299.584 1253.08 302.888C1253.08 306.164 1251.46 308.796 1248.13 308.796ZM1257.5 295.72V310H1259.32V302.02C1259.32 299.248 1261.19 297.176 1263.8 297.176C1264.05 297.176 1264.36 297.204 1264.67 297.26V295.468C1264.3 295.412 1263.94 295.384 1263.43 295.384C1261.39 295.384 1260.07 296.756 1259.37 298.632H1259.32V295.72H1257.5ZM1265.95 295.72V297.316H1268.05V306.304C1268.05 309.412 1269.34 310.112 1271.44 310.112C1271.89 310.112 1272.22 310.084 1272.78 310V308.46C1272.36 308.488 1272.14 308.516 1271.69 308.516C1270.29 308.516 1269.87 308.096 1269.87 306.332V297.316H1272.78V295.72H1269.87V290.96H1268.05V295.72H1265.95ZM1275.13 290.512V292.864H1277.48V290.512H1275.13ZM1275.41 295.72V310H1277.23V295.72H1275.41ZM1280.52 310H1282.34V300.984C1282.34 298.884 1284.11 296.98 1286.82 296.98C1289.29 296.98 1290.13 298.548 1290.13 300.368V310H1291.95V299.976C1291.95 296.812 1289.82 295.384 1287.27 295.384C1284.72 295.384 1283.18 296.588 1282.4 297.764H1282.34V295.72H1280.52V310ZM1305.46 309.356C1305.46 312.268 1303.75 313.528 1300.87 313.528C1298.12 313.528 1296.89 312.268 1296.61 310.756H1294.71C1294.93 313.248 1296.97 315.124 1300.84 315.124C1304.76 315.124 1307.28 313.136 1307.28 309.104V295.72H1305.46V297.96H1305.4C1304.56 296.532 1302.99 295.384 1300.59 295.384C1297.2 295.384 1294.31 297.624 1294.31 302.328C1294.31 307.088 1297.2 309.328 1300.59 309.328C1302.99 309.328 1304.56 308.18 1305.4 306.696H1305.46V309.356ZM1300.84 296.98C1303.47 296.98 1305.46 298.716 1305.46 302.328C1305.46 305.996 1303.47 307.732 1300.84 307.732C1297.9 307.732 1296.22 305.604 1296.22 302.328C1296.22 299.108 1297.9 296.98 1300.84 296.98ZM1022.57 346.364C1024.92 346.364 1026.6 345.468 1027.61 343.844H1027.67C1027.75 345.636 1028.48 346.112 1029.66 346.112C1029.99 346.112 1030.3 346.056 1030.61 346V344.684C1030.44 344.712 1030.36 344.712 1030.22 344.712C1029.6 344.712 1029.43 344.18 1029.43 343.032V335.892C1029.43 332.476 1027.11 331.356 1024.48 331.356C1020.3 331.356 1018.74 333.512 1018.6 336.032H1020.5C1020.64 333.932 1021.65 332.952 1024.39 332.952C1026.72 332.952 1027.64 333.932 1027.64 335.388C1027.64 337.096 1026.13 337.264 1023.78 337.684C1020.08 338.356 1017.9 339.308 1017.9 342.388C1017.9 344.768 1019.74 346.364 1022.57 346.364ZM1022.8 344.768C1020.72 344.768 1019.8 343.872 1019.8 342.22C1019.8 340.4 1021.23 339.7 1024 339.196C1025.71 338.916 1027.22 338.58 1027.64 337.992V340.652C1027.64 343.228 1025.74 344.768 1022.8 344.768ZM1032.9 346H1034.72V336.984C1034.72 334.884 1036.48 332.98 1039.2 332.98C1041.66 332.98 1042.5 334.548 1042.5 336.368V346H1044.32V335.976C1044.32 332.812 1042.19 331.384 1039.64 331.384C1037.1 331.384 1035.56 332.588 1034.77 333.764H1034.72V331.72H1032.9V346ZM1057.81 334.128C1056.97 332.616 1055.45 331.384 1052.99 331.384C1049.49 331.384 1046.69 334.184 1046.69 338.86C1046.69 343.564 1049.49 346.364 1052.96 346.364C1055.45 346.364 1056.97 345.076 1057.81 343.676H1057.86V346H1059.68V325.98H1057.86V334.128H1057.81ZM1053.19 344.768C1050.22 344.768 1048.59 342.08 1048.59 338.86C1048.59 335.668 1050.22 332.98 1053.19 332.98C1055.93 332.98 1057.86 335.276 1057.86 338.86C1057.86 342.472 1055.93 344.768 1053.19 344.768ZM1068.31 325.98L1075.62 346H1077.74L1084.94 325.98H1082.81L1076.71 343.928H1076.68L1070.52 325.98H1068.31ZM1090.52 346.392C1094.1 346.392 1096.06 344.236 1096.76 341.632H1094.91C1094.63 342.808 1093.51 344.824 1090.55 344.824C1087.19 344.824 1085.65 342.136 1085.62 339.224H1096.93C1096.96 339 1096.96 338.608 1096.96 338.216C1096.96 334.24 1094.63 331.356 1090.52 331.356C1086.4 331.356 1083.71 334.296 1083.71 338.86C1083.71 343.2 1086.15 346.392 1090.52 346.392ZM1090.43 332.924C1093.37 332.924 1095.03 335.08 1095.03 337.628H1085.62C1085.76 334.968 1087.66 332.924 1090.43 332.924ZM1099.48 331.72V346H1101.3V338.02C1101.3 335.248 1103.17 333.176 1105.78 333.176C1106.03 333.176 1106.34 333.204 1106.65 333.26V331.468C1106.28 331.412 1105.92 331.384 1105.41 331.384C1103.37 331.384 1102.05 332.756 1101.35 334.632H1101.3V331.72H1099.48ZM1108.39 326.512V328.864H1110.74V326.512H1108.39ZM1108.67 331.72V346H1110.49V331.72H1108.67ZM1116.42 346V333.316H1119.24V331.72H1116.42V329.592C1116.42 327.828 1116.75 327.408 1118.12 327.408C1118.52 327.408 1118.74 327.436 1119.24 327.464V325.924C1118.63 325.84 1118.29 325.812 1117.87 325.812C1115.83 325.812 1114.6 326.512 1114.6 329.62V331.72H1112.58V333.316H1114.6V346H1116.42ZM1120.9 326.512V328.864H1123.25V326.512H1120.9ZM1121.2 331.72V346H1123.02V331.72H1121.2ZM1136.58 336.732H1138.49C1138.15 333.708 1135.83 331.384 1132.35 331.384C1128.27 331.384 1125.52 334.408 1125.52 338.86C1125.52 343.34 1128.27 346.364 1132.35 346.364C1135.83 346.364 1138.29 343.984 1138.49 340.904H1136.58C1136.47 342.64 1135.35 344.796 1132.35 344.796C1128.85 344.796 1127.43 341.8 1127.43 338.86C1127.43 335.948 1128.85 332.98 1132.35 332.98C1135.32 332.98 1136.47 335.136 1136.58 336.732ZM1144.91 346.364C1147.26 346.364 1148.94 345.468 1149.95 343.844H1150C1150.09 345.636 1150.82 346.112 1151.99 346.112C1152.33 346.112 1152.64 346.056 1152.94 346V344.684C1152.78 344.712 1152.69 344.712 1152.55 344.712C1151.94 344.712 1151.77 344.18 1151.77 343.032V335.892C1151.77 332.476 1149.44 331.356 1146.81 331.356C1142.64 331.356 1141.07 333.512 1140.93 336.032H1142.84C1142.98 333.932 1143.98 332.952 1146.73 332.952C1149.05 332.952 1149.98 333.932 1149.98 335.388C1149.98 337.096 1148.46 337.264 1146.11 337.684C1142.42 338.356 1140.23 339.308 1140.23 342.388C1140.23 344.768 1142.08 346.364 1144.91 346.364ZM1145.13 344.768C1143.06 344.768 1142.14 343.872 1142.14 342.22C1142.14 340.4 1143.56 339.7 1146.34 339.196C1148.04 338.916 1149.56 338.58 1149.98 337.992V340.652C1149.98 343.228 1148.07 344.768 1145.13 344.768ZM1153.46 331.72V333.316H1155.56V342.304C1155.56 345.412 1156.85 346.112 1158.95 346.112C1159.39 346.112 1159.73 346.084 1160.29 346V344.46C1159.87 344.488 1159.65 344.516 1159.2 344.516C1157.8 344.516 1157.38 344.096 1157.38 342.332V333.316H1160.29V331.72H1157.38V326.96H1155.56V331.72H1153.46ZM1162.64 326.512V328.864H1164.99V326.512H1162.64ZM1162.92 331.72V346H1164.74V331.72H1162.92ZM1174.08 346.392C1178.34 346.392 1180.94 343.312 1180.94 338.888C1180.94 334.436 1178.34 331.356 1174.08 331.356C1169.8 331.356 1167.22 334.436 1167.22 338.888C1167.22 343.312 1169.8 346.392 1174.08 346.392ZM1174.08 344.796C1170.72 344.796 1169.12 342.164 1169.12 338.888C1169.12 335.584 1170.72 332.952 1174.08 332.952C1177.41 332.952 1179.04 335.584 1179.04 338.888C1179.04 342.164 1177.41 344.796 1174.08 344.796ZM1183.45 346H1185.27V336.984C1185.27 334.884 1187.04 332.98 1189.75 332.98C1192.22 332.98 1193.06 334.548 1193.06 336.368V346H1194.88V335.976C1194.88 332.812 1192.75 331.384 1190.2 331.384C1187.65 331.384 1186.11 332.588 1185.33 333.764H1185.27V331.72H1183.45V346ZM1018.6 382H1020.42V372.984C1020.42 370.912 1021.9 368.98 1024.39 368.98C1026.77 368.98 1027.19 370.576 1027.19 372.368V382H1029.01V372.984C1029.01 370.912 1030.52 368.98 1033.02 368.98C1035.37 368.98 1035.82 370.576 1035.82 372.368V382H1037.64V371.976C1037.64 369.008 1036.15 367.384 1033.41 367.384C1031.17 367.384 1029.63 368.588 1028.7 370.016H1028.65C1028.09 368.308 1026.8 367.384 1024.78 367.384C1022.54 367.384 1021.2 368.588 1020.47 369.736H1020.42V367.72H1018.6V382ZM1046.79 382.392C1050.38 382.392 1052.34 380.236 1053.04 377.632H1051.19C1050.91 378.808 1049.79 380.824 1046.82 380.824C1043.46 380.824 1041.92 378.136 1041.89 375.224H1053.21C1053.23 375 1053.23 374.608 1053.23 374.216C1053.23 370.24 1050.91 367.356 1046.79 367.356C1042.68 367.356 1039.99 370.296 1039.99 374.86C1039.99 379.2 1042.43 382.392 1046.79 382.392ZM1046.71 368.924C1049.65 368.924 1051.3 371.08 1051.3 373.628H1041.89C1042.03 370.968 1043.94 368.924 1046.71 368.924ZM1054.36 367.72V369.316H1056.46V378.304C1056.46 381.412 1057.75 382.112 1059.85 382.112C1060.3 382.112 1060.64 382.084 1061.2 382V380.46C1060.78 380.488 1060.55 380.516 1060.1 380.516C1058.7 380.516 1058.28 380.096 1058.28 378.332V369.316H1061.2V367.72H1058.28V362.96H1056.46V367.72H1054.36ZM1073.43 372.368V382H1075.25V371.976C1075.25 368.812 1073.12 367.384 1070.57 367.384C1068.02 367.384 1066.48 368.588 1065.7 369.764H1065.64V361.98H1063.82V382H1065.64V372.984C1065.64 370.884 1067.41 368.98 1070.12 368.98C1072.59 368.98 1073.43 370.548 1073.43 372.368ZM1084.48 382.392C1088.73 382.392 1091.34 379.312 1091.34 374.888C1091.34 370.436 1088.73 367.356 1084.48 367.356C1080.19 367.356 1077.62 370.436 1077.62 374.888C1077.62 379.312 1080.19 382.392 1084.48 382.392ZM1084.48 380.796C1081.12 380.796 1079.52 378.164 1079.52 374.888C1079.52 371.584 1081.12 368.952 1084.48 368.952C1087.81 368.952 1089.43 371.584 1089.43 374.888C1089.43 378.164 1087.81 380.796 1084.48 380.796ZM1104.29 370.128C1103.45 368.616 1101.94 367.384 1099.47 367.384C1095.97 367.384 1093.17 370.184 1093.17 374.86C1093.17 379.564 1095.97 382.364 1099.45 382.364C1101.94 382.364 1103.45 381.076 1104.29 379.676H1104.35V382H1106.17V361.98H1104.35V370.128H1104.29ZM1099.67 380.768C1096.7 380.768 1095.08 378.08 1095.08 374.86C1095.08 371.668 1096.7 368.98 1099.67 368.98C1102.41 368.98 1104.35 371.276 1104.35 374.86C1104.35 378.472 1102.41 380.768 1099.67 380.768ZM1115.51 382.392C1119.77 382.392 1122.37 379.312 1122.37 374.888C1122.37 370.436 1119.77 367.356 1115.51 367.356C1111.23 367.356 1108.65 370.436 1108.65 374.888C1108.65 379.312 1111.23 382.392 1115.51 382.392ZM1115.51 380.796C1112.15 380.796 1110.55 378.164 1110.55 374.888C1110.55 371.584 1112.15 368.952 1115.51 368.952C1118.84 368.952 1120.47 371.584 1120.47 374.888C1120.47 378.164 1118.84 380.796 1115.51 380.796ZM1124.88 361.98V382H1126.7V361.98H1124.88ZM1136.05 382.392C1140.3 382.392 1142.91 379.312 1142.91 374.888C1142.91 370.436 1140.3 367.356 1136.05 367.356C1131.76 367.356 1129.19 370.436 1129.19 374.888C1129.19 379.312 1131.76 382.392 1136.05 382.392ZM1136.05 380.796C1132.69 380.796 1131.09 378.164 1131.09 374.888C1131.09 371.584 1132.69 368.952 1136.05 368.952C1139.38 368.952 1141 371.584 1141 374.888C1141 378.164 1139.38 380.796 1136.05 380.796ZM1155.89 381.356C1155.89 384.268 1154.18 385.528 1151.3 385.528C1148.55 385.528 1147.32 384.268 1147.04 382.756H1145.14C1145.36 385.248 1147.4 387.124 1151.27 387.124C1155.19 387.124 1157.71 385.136 1157.71 381.104V367.72H1155.89V369.96H1155.83C1154.99 368.532 1153.42 367.384 1151.02 367.384C1147.63 367.384 1144.74 369.624 1144.74 374.328C1144.74 379.088 1147.63 381.328 1151.02 381.328C1153.42 381.328 1154.99 380.18 1155.83 378.696H1155.89V381.356ZM1151.27 368.98C1153.9 368.98 1155.89 370.716 1155.89 374.328C1155.89 377.996 1153.9 379.732 1151.27 379.732C1148.33 379.732 1146.65 377.604 1146.65 374.328C1146.65 371.108 1148.33 368.98 1151.27 368.98ZM1165.29 381.916C1164.53 384.548 1163.41 385.416 1162.1 385.416C1161.62 385.416 1161.4 385.388 1160.98 385.332V386.9C1161.57 386.984 1161.9 387.012 1162.35 387.012C1164.28 387.012 1165.51 385.976 1166.91 382.42L1172.65 367.72H1170.69L1166.24 379.62H1166.19L1161.57 367.72H1159.52L1165.29 381.916ZM1295.68 382.364C1298.03 382.364 1299.71 381.468 1300.72 379.844H1300.78C1300.86 381.636 1301.59 382.112 1302.77 382.112C1303.1 382.112 1303.41 382.056 1303.72 382V380.684C1303.55 380.712 1303.47 380.712 1303.33 380.712C1302.71 380.712 1302.54 380.18 1302.54 379.032V371.892C1302.54 368.476 1300.22 367.356 1297.59 367.356C1293.41 367.356 1291.85 369.512 1291.71 372.032H1293.61C1293.75 369.932 1294.76 368.952 1297.5 368.952C1299.83 368.952 1300.75 369.932 1300.75 371.388C1300.75 373.096 1299.24 373.264 1296.89 373.684C1293.19 374.356 1291.01 375.308 1291.01 378.388C1291.01 380.768 1292.85 382.364 1295.68 382.364ZM1295.91 380.768C1293.83 380.768 1292.91 379.872 1292.91 378.22C1292.91 376.4 1294.34 375.7 1297.11 375.196C1298.82 374.916 1300.33 374.58 1300.75 373.992V376.652C1300.75 379.228 1298.85 380.768 1295.91 380.768ZM1306.01 367.72V382H1307.83V374.02C1307.83 371.248 1309.7 369.176 1312.31 369.176C1312.56 369.176 1312.87 369.204 1313.17 369.26V367.468C1312.81 367.412 1312.45 367.384 1311.94 367.384C1309.9 367.384 1308.58 368.756 1307.88 370.632H1307.83V367.72H1306.01ZM1320.56 382.392C1324.14 382.392 1326.1 380.236 1326.8 377.632H1324.96C1324.68 378.808 1323.56 380.824 1320.59 380.824C1317.23 380.824 1315.69 378.136 1315.66 375.224H1326.97C1327 375 1327 374.608 1327 374.216C1327 370.24 1324.68 367.356 1320.56 367.356C1316.44 367.356 1313.76 370.296 1313.76 374.86C1313.76 379.2 1316.19 382.392 1320.56 382.392ZM1320.48 368.924C1323.42 368.924 1325.07 371.08 1325.07 373.628H1315.66C1315.8 370.968 1317.7 368.924 1320.48 368.924ZM1022.57 418.364C1024.92 418.364 1026.6 417.468 1027.61 415.844H1027.67C1027.75 417.636 1028.48 418.112 1029.66 418.112C1029.99 418.112 1030.3 418.056 1030.61 418V416.684C1030.44 416.712 1030.36 416.712 1030.22 416.712C1029.6 416.712 1029.43 416.18 1029.43 415.032V407.892C1029.43 404.476 1027.11 403.356 1024.48 403.356C1020.3 403.356 1018.74 405.512 1018.6 408.032H1020.5C1020.64 405.932 1021.65 404.952 1024.39 404.952C1026.72 404.952 1027.64 405.932 1027.64 407.388C1027.64 409.096 1026.13 409.264 1023.78 409.684C1020.08 410.356 1017.9 411.308 1017.9 414.388C1017.9 416.768 1019.74 418.364 1022.57 418.364ZM1022.8 416.768C1020.72 416.768 1019.8 415.872 1019.8 414.22C1019.8 412.4 1021.23 411.7 1024 411.196C1025.71 410.916 1027.22 410.58 1027.64 409.992V412.652C1027.64 415.228 1025.74 416.768 1022.8 416.768ZM1034.22 413.352V403.72H1032.4V413.744C1032.4 416.908 1034.5 418.336 1037.08 418.336C1039.63 418.336 1041.17 417.16 1041.95 415.984H1042.01V418H1043.83V403.72H1042.01V412.736C1042.01 414.836 1040.21 416.74 1037.53 416.74C1035.03 416.74 1034.22 415.172 1034.22 413.352ZM1045.94 403.72V405.316H1048.04V414.304C1048.04 417.412 1049.33 418.112 1051.43 418.112C1051.88 418.112 1052.21 418.084 1052.77 418V416.46C1052.35 416.488 1052.13 416.516 1051.68 416.516C1050.28 416.516 1049.86 416.096 1049.86 414.332V405.316H1052.77V403.72H1049.86V398.96H1048.04V403.72H1045.94ZM1060.85 418.392C1065.11 418.392 1067.71 415.312 1067.71 410.888C1067.71 406.436 1065.11 403.356 1060.85 403.356C1056.57 403.356 1053.99 406.436 1053.99 410.888C1053.99 415.312 1056.57 418.392 1060.85 418.392ZM1060.85 416.796C1057.49 416.796 1055.89 414.164 1055.89 410.888C1055.89 407.584 1057.49 404.952 1060.85 404.952C1064.18 404.952 1065.81 407.584 1065.81 410.888C1065.81 414.164 1064.18 416.796 1060.85 416.796ZM1070.22 418H1072.04V408.984C1072.04 406.912 1073.53 404.98 1076.02 404.98C1078.4 404.98 1078.82 406.576 1078.82 408.368V418H1080.64V408.984C1080.64 406.912 1082.15 404.98 1084.64 404.98C1086.99 404.98 1087.44 406.576 1087.44 408.368V418H1089.26V407.976C1089.26 405.008 1087.78 403.384 1085.03 403.384C1082.79 403.384 1081.25 404.588 1080.33 406.016H1080.27C1079.71 404.308 1078.43 403.384 1076.41 403.384C1074.17 403.384 1072.83 404.588 1072.1 405.736H1072.04V403.72H1070.22V418ZM1096.26 418.364C1098.62 418.364 1100.3 417.468 1101.3 415.844H1101.36C1101.44 417.636 1102.17 418.112 1103.35 418.112C1103.68 418.112 1103.99 418.056 1104.3 418V416.684C1104.13 416.712 1104.05 416.712 1103.91 416.712C1103.29 416.712 1103.12 416.18 1103.12 415.032V407.892C1103.12 404.476 1100.8 403.356 1098.17 403.356C1094 403.356 1092.43 405.512 1092.29 408.032H1094.19C1094.33 405.932 1095.34 404.952 1098.08 404.952C1100.41 404.952 1101.33 405.932 1101.33 407.388C1101.33 409.096 1099.82 409.264 1097.47 409.684C1093.77 410.356 1091.59 411.308 1091.59 414.388C1091.59 416.768 1093.44 418.364 1096.26 418.364ZM1096.49 416.768C1094.42 416.768 1093.49 415.872 1093.49 414.22C1093.49 412.4 1094.92 411.7 1097.69 411.196C1099.4 410.916 1100.91 410.58 1101.33 409.992V412.652C1101.33 415.228 1099.43 416.768 1096.49 416.768ZM1104.81 403.72V405.316H1106.91V414.304C1106.91 417.412 1108.2 418.112 1110.3 418.112C1110.75 418.112 1111.09 418.084 1111.65 418V416.46C1111.23 416.488 1111 416.516 1110.55 416.516C1109.15 416.516 1108.73 416.096 1108.73 414.332V405.316H1111.65V403.72H1108.73V398.96H1106.91V403.72H1104.81ZM1113.99 398.512V400.864H1116.34V398.512H1113.99ZM1114.27 403.72V418H1116.09V403.72H1114.27ZM1129.64 408.732H1131.54C1131.2 405.708 1128.88 403.384 1125.41 403.384C1121.32 403.384 1118.58 406.408 1118.58 410.86C1118.58 415.34 1121.32 418.364 1125.41 418.364C1128.88 418.364 1131.34 415.984 1131.54 412.904H1129.64C1129.52 414.64 1128.4 416.796 1125.41 416.796C1121.91 416.796 1120.48 413.8 1120.48 410.86C1120.48 407.948 1121.91 404.98 1125.41 404.98C1128.38 404.98 1129.52 407.136 1129.64 408.732ZM1137.96 418.364C1140.31 418.364 1141.99 417.468 1143 415.844H1143.06C1143.14 417.636 1143.87 418.112 1145.05 418.112C1145.38 418.112 1145.69 418.056 1146 418V416.684C1145.83 416.712 1145.75 416.712 1145.61 416.712C1144.99 416.712 1144.82 416.18 1144.82 415.032V407.892C1144.82 404.476 1142.5 403.356 1139.87 403.356C1135.69 403.356 1134.13 405.512 1133.99 408.032H1135.89C1136.03 405.932 1137.04 404.952 1139.78 404.952C1142.11 404.952 1143.03 405.932 1143.03 407.388C1143.03 409.096 1141.52 409.264 1139.17 409.684C1135.47 410.356 1133.29 411.308 1133.29 414.388C1133.29 416.768 1135.13 418.364 1137.96 418.364ZM1138.19 416.768C1136.11 416.768 1135.19 415.872 1135.19 414.22C1135.19 412.4 1136.62 411.7 1139.39 411.196C1141.1 410.916 1142.61 410.58 1143.03 409.992V412.652C1143.03 415.228 1141.13 416.768 1138.19 416.768ZM1148.29 397.98V418H1150.11V397.98H1148.29ZM1153.4 397.98V418H1155.22V397.98H1153.4ZM1162.8 417.916C1162.05 420.548 1160.93 421.416 1159.61 421.416C1159.13 421.416 1158.91 421.388 1158.49 421.332V422.9C1159.08 422.984 1159.41 423.012 1159.86 423.012C1161.79 423.012 1163.03 421.976 1164.43 418.42L1170.17 403.72H1168.21L1163.75 415.62H1163.7L1159.08 403.72H1157.03L1162.8 417.916ZM1177.52 403.72V405.316H1179.62V414.304C1179.62 417.412 1180.91 418.112 1183.01 418.112C1183.46 418.112 1183.79 418.084 1184.35 418V416.46C1183.93 416.488 1183.71 416.516 1183.26 416.516C1181.86 416.516 1181.44 416.096 1181.44 414.332V405.316H1184.35V403.72H1181.44V398.96H1179.62V403.72H1177.52ZM1192.43 418.392C1196.68 418.392 1199.29 415.312 1199.29 410.888C1199.29 406.436 1196.68 403.356 1192.43 403.356C1188.14 403.356 1185.57 406.436 1185.57 410.888C1185.57 415.312 1188.14 418.392 1192.43 418.392ZM1192.43 416.796C1189.07 416.796 1187.47 414.164 1187.47 410.888C1187.47 407.584 1189.07 404.952 1192.43 404.952C1195.76 404.952 1197.38 407.584 1197.38 410.888C1197.38 414.164 1195.76 416.796 1192.43 416.796ZM1201.8 418H1203.62V412.4L1206.08 410.104L1211.46 418H1213.64L1207.32 408.956L1212.94 403.72H1210.7L1203.62 410.412V397.98H1201.8V418ZM1220.45 418.392C1224.04 418.392 1226 416.236 1226.7 413.632H1224.85C1224.57 414.808 1223.45 416.824 1220.48 416.824C1217.12 416.824 1215.58 414.136 1215.55 411.224H1226.87C1226.89 411 1226.89 410.608 1226.89 410.216C1226.89 406.24 1224.57 403.356 1220.45 403.356C1216.34 403.356 1213.65 406.296 1213.65 410.86C1213.65 415.2 1216.09 418.392 1220.45 418.392ZM1220.37 404.924C1223.31 404.924 1224.96 407.08 1224.96 409.628H1215.55C1215.69 406.968 1217.6 404.924 1220.37 404.924ZM1229.42 418H1231.24V408.984C1231.24 406.884 1233 404.98 1235.72 404.98C1238.18 404.98 1239.02 406.548 1239.02 408.368V418H1240.84V407.976C1240.84 404.812 1238.71 403.384 1236.16 403.384C1233.62 403.384 1232.08 404.588 1231.29 405.764H1231.24V403.72H1229.42V418ZM1243.74 398.512V400.864H1246.09V398.512H1243.74ZM1244.02 403.72V418H1245.84V403.72H1244.02ZM1248.18 416.6V418H1259.5V416.404H1250.54V416.348L1259.22 404.868V403.72H1248.66V405.316H1256.67V405.372L1248.18 416.6ZM1267.24 418.392C1270.82 418.392 1272.78 416.236 1273.48 413.632H1271.64C1271.36 414.808 1270.24 416.824 1267.27 416.824C1263.91 416.824 1262.37 414.136 1262.34 411.224H1273.65C1273.68 411 1273.68 410.608 1273.68 410.216C1273.68 406.24 1271.36 403.356 1267.24 403.356C1263.12 403.356 1260.44 406.296 1260.44 410.86C1260.44 415.2 1262.87 418.392 1267.24 418.392ZM1267.16 404.924C1270.1 404.924 1271.75 407.08 1271.75 409.628H1262.34C1262.48 406.968 1264.38 404.924 1267.16 404.924ZM1286.65 406.128C1285.81 404.616 1284.29 403.384 1281.83 403.384C1278.33 403.384 1275.53 406.184 1275.53 410.86C1275.53 415.564 1278.33 418.364 1281.8 418.364C1284.29 418.364 1285.81 417.076 1286.65 415.676H1286.7V418H1288.52V397.98H1286.7V406.128H1286.65ZM1282.03 416.768C1279.06 416.768 1277.43 414.08 1277.43 410.86C1277.43 407.668 1279.06 404.98 1282.03 404.98C1284.77 404.98 1286.7 407.276 1286.7 410.86C1286.7 414.472 1284.77 416.768 1282.03 416.768Z" fill="#F0F0F0"/>
<path d="M1185.58 360.86C1183.54 363.688 1181.74 367.888 1181.74 373.124C1181.74 378.192 1183.54 382.448 1185.58 385.276H1187.23C1185.3 381.888 1183.79 378.192 1183.79 373.124C1183.79 367.944 1185.3 364.248 1187.23 360.86H1185.58ZM1189.99 382H1197.16C1202.76 382 1205.93 378.22 1205.93 372.032C1205.93 365.844 1202.82 361.98 1197.22 361.98H1189.99V382ZM1192.04 363.772H1197.22C1202.23 363.772 1203.8 367.58 1203.8 372.032C1203.8 376.456 1202.17 380.208 1197.16 380.208H1192.04V363.772ZM1208.32 373.964V375.756H1215.83V373.964H1208.32ZM1218.84 382H1220.89V364.864H1220.94L1227.52 382H1229.37L1235.98 364.864H1236.03V382H1238.05V361.98H1235.25L1228.47 379.256H1228.42L1221.64 361.98H1218.84V382ZM1241.86 382H1243.91V373.684H1250.01C1255.36 373.684 1253.51 381.16 1254.46 382H1256.62V381.832C1255.56 381.496 1257.12 373.656 1252.53 372.732V372.676C1254.72 372.116 1256.28 370.296 1256.28 367.636C1256.28 363.968 1253.96 361.98 1249.68 361.98H1241.86V382ZM1243.91 363.772H1249.34C1252.78 363.772 1254.24 365.116 1254.24 367.664C1254.24 370.464 1252.39 371.892 1249.2 371.892H1243.91V363.772ZM1257.61 361.98L1264.92 382H1267.04L1274.24 361.98H1272.11L1266.01 379.928H1265.98L1259.82 361.98H1257.61ZM1277.4 385.276C1279.44 382.448 1281.23 378.248 1281.23 373.012C1281.23 367.944 1279.44 363.688 1277.4 360.86H1275.75C1277.68 364.248 1279.19 367.944 1279.19 373.012C1279.19 378.192 1277.68 381.888 1275.75 385.276H1277.4Z" fill="#46DC78"/>
<path d="M337 232L4 232" stroke="#F0F0F0" stroke-dasharray="4 4"/>
<circle cx="569" cy="232" r="200" fill="#374236"/>
<circle cx="569" cy="232" r="231.5" stroke="#F0F0F0"/>
<path d="M465.604 156.364H467.732C467.2 152.612 464.148 149.616 459.472 149.616C454.012 149.616 450.288 153.956 450.288 160.004C450.288 166.08 454.012 170.364 459.444 170.364C464.232 170.364 467.312 167.256 467.816 162.888H465.688C465.464 165.66 463.7 168.572 459.444 168.572C454.656 168.572 452.388 164.484 452.388 160.004C452.388 155.524 454.628 151.408 459.472 151.408C463.56 151.408 465.184 154.124 465.604 156.364ZM476.689 170.392C480.273 170.392 482.233 168.236 482.933 165.632H481.085C480.805 166.808 479.685 168.824 476.717 168.824C473.357 168.824 471.817 166.136 471.789 163.224H483.101C483.129 163 483.129 162.608 483.129 162.216C483.129 158.24 480.805 155.356 476.689 155.356C472.573 155.356 469.885 158.296 469.885 162.86C469.885 167.2 472.321 170.392 476.689 170.392ZM476.605 156.924C479.545 156.924 481.197 159.08 481.197 161.628H471.789C471.929 158.968 473.833 156.924 476.605 156.924ZM485.651 155.72V170H487.471V162.02C487.471 159.248 489.347 157.176 491.951 157.176C492.203 157.176 492.511 157.204 492.819 157.26V155.468C492.455 155.412 492.091 155.384 491.587 155.384C489.543 155.384 488.227 156.756 487.527 158.632H487.471V155.72H485.651ZM494.102 155.72V157.316H496.202V166.304C496.202 169.412 497.49 170.112 499.59 170.112C500.038 170.112 500.374 170.084 500.934 170V168.46C500.514 168.488 500.29 168.516 499.842 168.516C498.442 168.516 498.022 168.096 498.022 166.332V157.316H500.934V155.72H498.022V150.96H496.202V155.72H494.102ZM503.281 150.512V152.864H505.633V150.512H503.281ZM503.561 155.72V170H505.381V155.72H503.561ZM511.311 170V157.316H514.139V155.72H511.311V153.592C511.311 151.828 511.647 151.408 513.019 151.408C513.411 151.408 513.635 151.436 514.139 151.464V149.924C513.523 149.84 513.187 149.812 512.767 149.812C510.723 149.812 509.491 150.512 509.491 153.62V155.72H507.475V157.316H509.491V170H511.311ZM515.791 150.512V152.864H518.143V150.512H515.791ZM516.099 155.72V170H517.919V155.72H516.099ZM531.476 160.732H533.38C533.044 157.708 530.72 155.384 527.248 155.384C523.16 155.384 520.416 158.408 520.416 162.86C520.416 167.34 523.16 170.364 527.248 170.364C530.72 170.364 533.184 167.984 533.38 164.904H531.476C531.364 166.64 530.244 168.796 527.248 168.796C523.748 168.796 522.32 165.8 522.32 162.86C522.32 159.948 523.748 156.98 527.248 156.98C530.216 156.98 531.364 159.136 531.476 160.732ZM539.802 170.364C542.154 170.364 543.834 169.468 544.842 167.844H544.898C544.982 169.636 545.71 170.112 546.886 170.112C547.222 170.112 547.53 170.056 547.838 170V168.684C547.67 168.712 547.586 168.712 547.446 168.712C546.83 168.712 546.662 168.18 546.662 167.032V159.892C546.662 156.476 544.338 155.356 541.706 155.356C537.534 155.356 535.966 157.512 535.826 160.032H537.73C537.87 157.932 538.878 156.952 541.622 156.952C543.946 156.952 544.87 157.932 544.87 159.388C544.87 161.096 543.358 161.264 541.006 161.684C537.31 162.356 535.126 163.308 535.126 166.388C535.126 168.768 536.974 170.364 539.802 170.364ZM540.026 168.768C537.954 168.768 537.03 167.872 537.03 166.22C537.03 164.4 538.458 163.7 541.23 163.196C542.938 162.916 544.45 162.58 544.87 161.992V164.652C544.87 167.228 542.966 168.768 540.026 168.768ZM548.352 155.72V157.316H550.452V166.304C550.452 169.412 551.74 170.112 553.84 170.112C554.288 170.112 554.624 170.084 555.184 170V168.46C554.764 168.488 554.54 168.516 554.092 168.516C552.692 168.516 552.272 168.096 552.272 166.332V157.316H555.184V155.72H552.272V150.96H550.452V155.72H548.352ZM563.205 170.392C566.789 170.392 568.749 168.236 569.449 165.632H567.601C567.321 166.808 566.201 168.824 563.233 168.824C559.873 168.824 558.333 166.136 558.305 163.224H569.617C569.645 163 569.645 162.608 569.645 162.216C569.645 158.24 567.321 155.356 563.205 155.356C559.089 155.356 556.401 158.296 556.401 162.86C556.401 167.2 558.837 170.392 563.205 170.392ZM563.121 156.924C566.061 156.924 567.713 159.08 567.713 161.628H558.305C558.445 158.968 560.349 156.924 563.121 156.924ZM589.228 158.128C588.388 156.616 586.876 155.384 584.412 155.384C580.912 155.384 578.111 158.184 578.111 162.86C578.111 167.564 580.912 170.364 584.383 170.364C586.876 170.364 588.388 169.076 589.228 167.676H589.284V170H591.104V149.98H589.284V158.128H589.228ZM584.608 168.768C581.64 168.768 580.016 166.08 580.016 162.86C580.016 159.668 581.64 156.98 584.608 156.98C587.352 156.98 589.284 159.276 589.284 162.86C589.284 166.472 587.352 168.768 584.608 168.768ZM598.236 170.364C600.588 170.364 602.268 169.468 603.276 167.844H603.332C603.416 169.636 604.144 170.112 605.32 170.112C605.656 170.112 605.964 170.056 606.272 170V168.684C606.104 168.712 606.02 168.712 605.88 168.712C605.264 168.712 605.096 168.18 605.096 167.032V159.892C605.096 156.476 602.772 155.356 600.14 155.356C595.968 155.356 594.4 157.512 594.26 160.032H596.164C596.304 157.932 597.312 156.952 600.056 156.952C602.38 156.952 603.304 157.932 603.304 159.388C603.304 161.096 601.792 161.264 599.44 161.684C595.744 162.356 593.56 163.308 593.56 166.388C593.56 168.768 595.408 170.364 598.236 170.364ZM598.46 168.768C596.388 168.768 595.464 167.872 595.464 166.22C595.464 164.4 596.892 163.7 599.664 163.196C601.372 162.916 602.884 162.58 603.304 161.992V164.652C603.304 167.228 601.4 168.768 598.46 168.768ZM606.786 155.72V157.316H608.886V166.304C608.886 169.412 610.174 170.112 612.274 170.112C612.722 170.112 613.058 170.084 613.618 170V168.46C613.198 168.488 612.974 168.516 612.526 168.516C611.126 168.516 610.706 168.096 610.706 166.332V157.316H613.618V155.72H610.706V150.96H608.886V155.72H606.786ZM619.674 170.364C622.026 170.364 623.706 169.468 624.714 167.844H624.77C624.854 169.636 625.582 170.112 626.758 170.112C627.094 170.112 627.402 170.056 627.71 170V168.684C627.542 168.712 627.458 168.712 627.318 168.712C626.702 168.712 626.534 168.18 626.534 167.032V159.892C626.534 156.476 624.21 155.356 621.578 155.356C617.406 155.356 615.838 157.512 615.698 160.032H617.602C617.742 157.932 618.75 156.952 621.494 156.952C623.818 156.952 624.742 157.932 624.742 159.388C624.742 161.096 623.23 161.264 620.878 161.684C617.182 162.356 614.998 163.308 614.998 166.388C614.998 168.768 616.846 170.364 619.674 170.364ZM619.898 168.768C617.826 168.768 616.902 167.872 616.902 166.22C616.902 164.4 618.33 163.7 621.102 163.196C622.81 162.916 624.322 162.58 624.742 161.992V164.652C624.742 167.228 622.838 168.768 619.898 168.768ZM639.472 170V157.316H642.3V155.72H639.472V153.592C639.472 151.828 639.808 151.408 641.18 151.408C641.572 151.408 641.796 151.436 642.3 151.464V149.924C641.684 149.84 641.348 149.812 640.928 149.812C638.884 149.812 637.652 150.512 637.652 153.62V155.72H635.636V157.316H637.652V170H639.472ZM644.573 155.72V170H646.393V162.02C646.393 159.248 648.269 157.176 650.873 157.176C651.125 157.176 651.433 157.204 651.741 157.26V155.468C651.377 155.412 651.013 155.384 650.509 155.384C648.465 155.384 647.149 156.756 646.449 158.632H646.393V155.72H644.573ZM659.182 170.392C663.438 170.392 666.042 167.312 666.042 162.888C666.042 158.436 663.438 155.356 659.182 155.356C654.898 155.356 652.322 158.436 652.322 162.888C652.322 167.312 654.898 170.392 659.182 170.392ZM659.182 168.796C655.822 168.796 654.226 166.164 654.226 162.888C654.226 159.584 655.822 156.952 659.182 156.952C662.514 156.952 664.138 159.584 664.138 162.888C664.138 166.164 662.514 168.796 659.182 168.796ZM668.553 170H670.373V160.984C670.373 158.912 671.857 156.98 674.349 156.98C676.729 156.98 677.149 158.576 677.149 160.368V170H678.969V160.984C678.969 158.912 680.481 156.98 682.973 156.98C685.325 156.98 685.773 158.576 685.773 160.368V170H687.593V159.976C687.593 157.008 686.109 155.384 683.365 155.384C681.125 155.384 679.585 156.588 678.661 158.016H678.605C678.045 156.308 676.757 155.384 674.741 155.384C672.501 155.384 671.157 156.588 670.429 157.736H670.373V155.72H668.553V170ZM564.75 222.512V224.864H567.102V222.512H564.75ZM565.03 227.72V242H566.85V227.72H565.03ZM575.718 233.684C573.534 233.124 571.63 232.9 571.63 231.108C571.63 229.764 572.75 228.98 574.794 228.98C577.594 228.98 578.322 230.464 578.574 231.724H580.506C580.254 229.372 578.49 227.384 574.794 227.384C571.574 227.384 569.726 228.896 569.726 231.22C569.726 233.992 572.386 234.664 575.018 235.308C577.006 235.784 579.134 236.008 579.134 238.108C579.134 239.508 578.21 240.768 575.466 240.768C572.47 240.768 571.21 239.284 571.098 237.324H569.166C569.25 240.18 571.462 242.364 575.438 242.364C578.966 242.364 581.038 240.656 581.038 238.052C581.038 235.084 578.406 234.328 575.718 233.684ZM600.438 230.128C599.598 228.616 598.086 227.384 595.622 227.384C592.122 227.384 589.322 230.184 589.322 234.86C589.322 239.564 592.122 242.364 595.594 242.364C598.086 242.364 599.598 241.076 600.438 239.676H600.494V242H602.314V221.98H600.494V230.128H600.438ZM595.818 240.768C592.85 240.768 591.226 238.08 591.226 234.86C591.226 231.668 592.85 228.98 595.818 228.98C598.562 228.98 600.494 231.276 600.494 234.86C600.494 238.472 598.562 240.768 595.818 240.768ZM605.328 222.512V224.864H607.68V222.512H605.328ZM605.608 227.72V242H607.428V227.72H605.608ZM621.056 241.356C621.056 244.268 619.348 245.528 616.464 245.528C613.72 245.528 612.488 244.268 612.208 242.756H610.304C610.528 245.248 612.572 247.124 616.436 247.124C620.356 247.124 622.876 245.136 622.876 241.104V227.72H621.056V229.96H621C620.16 228.532 618.592 227.384 616.184 227.384C612.796 227.384 609.912 229.624 609.912 234.328C609.912 239.088 612.796 241.328 616.184 241.328C618.592 241.328 620.16 240.18 621 238.696H621.056V241.356ZM616.436 228.98C619.068 228.98 621.056 230.716 621.056 234.328C621.056 237.996 619.068 239.732 616.436 239.732C613.496 239.732 611.816 237.604 611.816 234.328C611.816 231.108 613.496 228.98 616.436 228.98ZM625.89 222.512V224.864H628.242V222.512H625.89ZM626.17 227.72V242H627.99V227.72H626.17ZM630.083 227.72V229.316H632.183V238.304C632.183 241.412 633.471 242.112 635.571 242.112C636.019 242.112 636.355 242.084 636.915 242V240.46C636.495 240.488 636.271 240.516 635.823 240.516C634.423 240.516 634.003 240.096 634.003 238.332V229.316H636.915V227.72H634.003V222.96H632.183V227.72H630.083ZM639.261 222.512V224.864H641.613V222.512H639.261ZM639.541 227.72V242H641.361V227.72H639.541ZM643.707 240.6V242H655.019V240.404H646.059V240.348L654.739 228.868V227.72H644.183V229.316H652.191V229.372L643.707 240.6ZM662.763 242.392C666.347 242.392 668.307 240.236 669.007 237.632H667.159C666.879 238.808 665.759 240.824 662.791 240.824C659.431 240.824 657.891 238.136 657.863 235.224H669.175C669.203 235 669.203 234.608 669.203 234.216C669.203 230.24 666.879 227.356 662.763 227.356C658.647 227.356 655.959 230.296 655.959 234.86C655.959 239.2 658.395 242.392 662.763 242.392ZM662.679 228.924C665.619 228.924 667.271 231.08 667.271 233.628H657.863C658.003 230.968 659.907 228.924 662.679 228.924ZM682.169 230.128C681.329 228.616 679.817 227.384 677.353 227.384C673.853 227.384 671.053 230.184 671.053 234.86C671.053 239.564 673.853 242.364 677.325 242.364C679.817 242.364 681.329 241.076 682.169 239.676H682.225V242H684.045V221.98H682.225V230.128H682.169ZM677.549 240.768C674.581 240.768 672.957 238.08 672.957 234.86C672.957 231.668 674.581 228.98 677.549 228.98C680.293 228.98 682.225 231.276 682.225 234.86C682.225 238.472 680.293 240.768 677.549 240.768ZM450.316 258.512V260.864H452.668V258.512H450.316ZM450.596 263.72V278H452.416V263.72H450.596ZM455.709 278H457.529V268.984C457.529 266.884 459.293 264.98 462.009 264.98C464.473 264.98 465.313 266.548 465.313 268.368V278H467.133V267.976C467.133 264.812 465.005 263.384 462.457 263.384C459.909 263.384 458.369 264.588 457.585 265.764H457.529V263.72H455.709V278ZM468.837 263.72V265.316H470.937V274.304C470.937 277.412 472.225 278.112 474.325 278.112C474.773 278.112 475.109 278.084 475.669 278V276.46C475.249 276.488 475.025 276.516 474.577 276.516C473.177 276.516 472.757 276.096 472.757 274.332V265.316H475.669V263.72H472.757V258.96H470.937V263.72H468.837ZM483.745 278.392C488.001 278.392 490.605 275.312 490.605 270.888C490.605 266.436 488.001 263.356 483.745 263.356C479.461 263.356 476.885 266.436 476.885 270.888C476.885 275.312 479.461 278.392 483.745 278.392ZM483.745 276.796C480.385 276.796 478.789 274.164 478.789 270.888C478.789 267.584 480.385 264.952 483.745 264.952C487.077 264.952 488.701 267.584 488.701 270.888C488.701 274.164 487.077 276.796 483.745 276.796ZM499.733 278H501.553V268.984C501.553 266.884 503.317 264.98 506.033 264.98C508.497 264.98 509.337 266.548 509.337 268.368V278H511.157V267.976C511.157 264.812 509.029 263.384 506.481 263.384C503.933 263.384 502.393 264.588 501.609 265.764H501.553V263.72H499.733V278ZM520.386 278.392C524.642 278.392 527.246 275.312 527.246 270.888C527.246 266.436 524.642 263.356 520.386 263.356C516.102 263.356 513.526 266.436 513.526 270.888C513.526 275.312 516.102 278.392 520.386 278.392ZM520.386 276.796C517.026 276.796 515.43 274.164 515.43 270.888C515.43 267.584 517.026 264.952 520.386 264.952C523.718 264.952 525.342 267.584 525.342 270.888C525.342 274.164 523.718 276.796 520.386 276.796ZM529.756 278H531.576V268.984C531.576 266.884 533.34 264.98 536.056 264.98C538.52 264.98 539.36 266.548 539.36 268.368V278H541.18V267.976C541.18 264.812 539.052 263.384 536.504 263.384C533.956 263.384 532.416 264.588 531.632 265.764H531.576V263.72H529.756V278ZM543.745 269.964V271.756H551.249V269.964H543.745ZM556.729 278V265.316H559.557V263.72H556.729V261.592C556.729 259.828 557.065 259.408 558.437 259.408C558.829 259.408 559.053 259.436 559.557 259.464V257.924C558.941 257.84 558.605 257.812 558.185 257.812C556.141 257.812 554.909 258.512 554.909 261.62V263.72H552.893V265.316H554.909V278H556.729ZM563.51 273.352V263.72H561.69V273.744C561.69 276.908 563.79 278.336 566.366 278.336C568.914 278.336 570.454 277.16 571.238 275.984H571.294V278H573.114V263.72H571.294V272.736C571.294 274.836 569.502 276.74 566.814 276.74C564.322 276.74 563.51 275.172 563.51 273.352ZM576.432 278H578.252V268.984C578.252 266.884 580.016 264.98 582.732 264.98C585.196 264.98 586.036 266.548 586.036 268.368V278H587.856V267.976C587.856 264.812 585.728 263.384 583.18 263.384C580.632 263.384 579.092 264.588 578.308 265.764H578.252V263.72H576.432V278ZM601.369 277.356C601.369 280.268 599.661 281.528 596.777 281.528C594.033 281.528 592.801 280.268 592.521 278.756H590.617C590.841 281.248 592.885 283.124 596.749 283.124C600.669 283.124 603.189 281.136 603.189 277.104V263.72H601.369V265.96H601.313C600.473 264.532 598.905 263.384 596.497 263.384C593.109 263.384 590.225 265.624 590.225 270.328C590.225 275.088 593.109 277.328 596.497 277.328C598.905 277.328 600.473 276.18 601.313 274.696H601.369V277.356ZM596.749 264.98C599.381 264.98 601.369 266.716 601.369 270.328C601.369 273.996 599.381 275.732 596.749 275.732C593.809 275.732 592.129 273.604 592.129 270.328C592.129 267.108 593.809 264.98 596.749 264.98ZM606.203 258.512V260.864H608.555V258.512H606.203ZM606.483 263.72V278H608.303V263.72H606.483ZM613.472 275.564C614.312 277.104 615.796 278.336 618.288 278.336C621.76 278.336 624.56 275.536 624.56 270.86C624.56 266.156 621.76 263.356 618.288 263.356C615.796 263.356 614.284 264.644 613.472 266.016H613.416V257.98H611.596V278H613.416V275.564H613.472ZM618.064 264.924C621.032 264.924 622.656 267.64 622.656 270.86C622.656 274.052 621.032 276.74 618.064 276.74C615.32 276.74 613.416 274.444 613.416 270.86C613.416 267.248 615.32 264.924 618.064 264.924ZM627.073 257.98V278H628.893V257.98H627.073ZM638.181 278.392C641.765 278.392 643.725 276.236 644.425 273.632H642.577C642.297 274.808 641.177 276.824 638.209 276.824C634.849 276.824 633.309 274.136 633.281 271.224H644.593C644.621 271 644.621 270.608 644.621 270.216C644.621 266.24 642.297 263.356 638.181 263.356C634.065 263.356 631.377 266.296 631.377 270.86C631.377 275.2 633.813 278.392 638.181 278.392ZM638.097 264.924C641.037 264.924 642.689 267.08 642.689 269.628H633.281C633.421 266.968 635.325 264.924 638.097 264.924ZM449.532 299.72V301.316H451.632V310.304C451.632 313.412 452.92 314.112 455.02 314.112C455.468 314.112 455.804 314.084 456.364 314V312.46C455.944 312.488 455.72 312.516 455.272 312.516C453.872 312.516 453.452 312.096 453.452 310.332V301.316H456.364V299.72H453.452V294.96H451.632V299.72H449.532ZM464.44 314.392C468.696 314.392 471.3 311.312 471.3 306.888C471.3 302.436 468.696 299.356 464.44 299.356C460.156 299.356 457.58 302.436 457.58 306.888C457.58 311.312 460.156 314.392 464.44 314.392ZM464.44 312.796C461.08 312.796 459.484 310.164 459.484 306.888C459.484 303.584 461.08 300.952 464.44 300.952C467.772 300.952 469.396 303.584 469.396 306.888C469.396 310.164 467.772 312.796 464.44 312.796ZM473.811 314H475.631V308.4L478.095 306.104L483.471 314H485.655L479.327 304.956L484.955 299.72H482.715L475.631 306.412V293.98H473.811V314ZM492.466 314.392C496.05 314.392 498.01 312.236 498.71 309.632H496.862C496.582 310.808 495.462 312.824 492.494 312.824C489.134 312.824 487.594 310.136 487.566 307.224H498.878C498.906 307 498.906 306.608 498.906 306.216C498.906 302.24 496.582 299.356 492.466 299.356C488.35 299.356 485.662 302.296 485.662 306.86C485.662 311.2 488.098 314.392 492.466 314.392ZM492.382 300.924C495.322 300.924 496.974 303.08 496.974 305.628H487.566C487.706 302.968 489.61 300.924 492.382 300.924ZM501.428 314H503.248V304.984C503.248 302.884 505.012 300.98 507.728 300.98C510.192 300.98 511.032 302.548 511.032 304.368V314H512.852V303.976C512.852 300.812 510.724 299.384 508.176 299.384C505.628 299.384 504.088 300.588 503.304 301.764H503.248V299.72H501.428V314ZM521.605 305.684C519.421 305.124 517.517 304.9 517.517 303.108C517.517 301.764 518.637 300.98 520.681 300.98C523.481 300.98 524.209 302.464 524.461 303.724H526.393C526.141 301.372 524.377 299.384 520.681 299.384C517.461 299.384 515.613 300.896 515.613 303.22C515.613 305.992 518.273 306.664 520.905 307.308C522.893 307.784 525.021 308.008 525.021 310.108C525.021 311.508 524.097 312.768 521.353 312.768C518.357 312.768 517.097 311.284 516.985 309.324H515.053C515.137 312.18 517.349 314.364 521.325 314.364C524.853 314.364 526.925 312.656 526.925 310.052C526.925 307.084 524.293 306.328 521.605 305.684ZM540.389 292.86C538.345 295.688 536.553 299.888 536.553 305.124C536.553 310.192 538.345 314.448 540.389 317.276H542.041C540.109 313.888 538.597 310.192 538.597 305.124C538.597 299.944 540.109 296.248 542.041 292.86H540.389ZM544.802 314H546.846V296.864H546.902L557.71 314H560.202V293.98H558.186V311.116H558.13L547.294 293.98H544.802V314ZM566.042 302.856V295.772H577.382V293.98H563.998V314H566.042V304.648H575.366V302.856H566.042ZM585.593 314H587.609V295.772H594.413V293.98H578.761V295.772H585.593V314ZM597.785 305.684C595.601 305.124 593.697 304.9 593.697 303.108C593.697 301.764 594.817 300.98 596.861 300.98C599.661 300.98 600.389 302.464 600.641 303.724H602.573C602.321 301.372 600.557 299.384 596.861 299.384C593.641 299.384 591.793 300.896 591.793 303.22C591.793 305.992 594.453 306.664 597.085 307.308C599.073 307.784 601.201 308.008 601.201 310.108C601.201 311.508 600.277 312.768 597.533 312.768C594.537 312.768 593.277 311.284 593.165 309.324H591.233C591.317 312.18 593.529 314.364 597.505 314.364C601.033 314.364 603.105 312.656 603.105 310.052C603.105 307.084 600.473 306.328 597.785 305.684ZM606.286 317.276C608.33 314.448 610.122 310.248 610.122 305.012C610.122 299.944 608.33 295.688 606.286 292.86H604.634C606.566 296.248 608.078 299.944 608.078 305.012C608.078 310.192 606.566 313.888 604.634 317.276H606.286Z" fill="#F0F0F0"/>
<path d="M456.784 206.392C461.04 206.392 463.644 203.312 463.644 198.888C463.644 194.436 461.04 191.356 456.784 191.356C452.5 191.356 449.924 194.436 449.924 198.888C449.924 203.312 452.5 206.392 456.784 206.392ZM456.784 204.796C453.424 204.796 451.828 202.164 451.828 198.888C451.828 195.584 453.424 192.952 456.784 192.952C460.116 192.952 461.74 195.584 461.74 198.888C461.74 202.164 460.116 204.796 456.784 204.796ZM464.546 193.316H466.562V206H468.382V193.316H473.226V206H475.046V193.316H477.874V191.72H475.046V189.592C475.046 187.828 475.382 187.408 476.754 187.408C477.146 187.408 477.37 187.436 477.874 187.464V185.924C477.23 185.84 476.894 185.812 476.502 185.812C474.458 185.812 473.226 186.512 473.226 189.62V191.72H468.382V189.592C468.382 187.828 468.718 187.408 470.09 187.408C470.482 187.408 470.706 187.436 471.21 187.464V185.924C470.594 185.84 470.258 185.812 469.838 185.812C467.794 185.812 466.562 186.512 466.562 189.62V191.72H464.546V193.316ZM479.47 186.512V188.864H481.822V186.512H479.47ZM479.778 191.72V206H481.598V191.72H479.778ZM495.136 196.732H497.04C496.704 193.708 494.38 191.384 490.908 191.384C486.82 191.384 484.076 194.408 484.076 198.86C484.076 203.34 486.82 206.364 490.908 206.364C494.38 206.364 496.844 203.984 497.04 200.904H495.136C495.024 202.64 493.904 204.796 490.908 204.796C487.408 204.796 485.98 201.8 485.98 198.86C485.98 195.948 487.408 192.98 490.908 192.98C493.876 192.98 495.024 195.136 495.136 196.732ZM499.207 186.512V188.864H501.559V186.512H499.207ZM499.487 191.72V206H501.307V191.72H499.487ZM508.439 206.364C510.791 206.364 512.471 205.468 513.479 203.844H513.535C513.619 205.636 514.347 206.112 515.523 206.112C515.859 206.112 516.167 206.056 516.475 206V204.684C516.307 204.712 516.223 204.712 516.083 204.712C515.467 204.712 515.299 204.18 515.299 203.032V195.892C515.299 192.476 512.975 191.356 510.343 191.356C506.171 191.356 504.603 193.512 504.463 196.032H506.367C506.507 193.932 507.515 192.952 510.259 192.952C512.583 192.952 513.507 193.932 513.507 195.388C513.507 197.096 511.995 197.264 509.643 197.684C505.947 198.356 503.763 199.308 503.763 202.388C503.763 204.768 505.611 206.364 508.439 206.364ZM508.663 204.768C506.591 204.768 505.667 203.872 505.667 202.22C505.667 200.4 507.095 199.7 509.867 199.196C511.575 198.916 513.087 198.58 513.507 197.992V200.652C513.507 203.228 511.603 204.768 508.663 204.768ZM518.764 185.98V206H520.584V185.98H518.764ZM540.746 196.732H542.65C542.314 193.708 539.99 191.384 536.518 191.384C532.43 191.384 529.686 194.408 529.686 198.86C529.686 203.34 532.43 206.364 536.518 206.364C539.99 206.364 542.454 203.984 542.65 200.904H540.746C540.634 202.64 539.514 204.796 536.518 204.796C533.018 204.796 531.59 201.8 531.59 198.86C531.59 195.948 533.018 192.98 536.518 192.98C539.486 192.98 540.634 195.136 540.746 196.732ZM549.072 206.364C551.424 206.364 553.104 205.468 554.112 203.844H554.168C554.252 205.636 554.98 206.112 556.156 206.112C556.492 206.112 556.8 206.056 557.108 206V204.684C556.94 204.712 556.856 204.712 556.716 204.712C556.1 204.712 555.932 204.18 555.932 203.032V195.892C555.932 192.476 553.608 191.356 550.976 191.356C546.804 191.356 545.236 193.512 545.096 196.032H547C547.14 193.932 548.148 192.952 550.892 192.952C553.216 192.952 554.14 193.932 554.14 195.388C554.14 197.096 552.628 197.264 550.276 197.684C546.58 198.356 544.396 199.308 544.396 202.388C544.396 204.768 546.244 206.364 549.072 206.364ZM549.296 204.768C547.224 204.768 546.3 203.872 546.3 202.22C546.3 200.4 547.728 199.7 550.5 199.196C552.208 198.916 553.72 198.58 554.14 197.992V200.652C554.14 203.228 552.236 204.768 549.296 204.768ZM559.397 191.72V206H561.217V198.02C561.217 195.248 563.093 193.176 565.697 193.176C565.949 193.176 566.257 193.204 566.565 193.26V191.468C566.201 191.412 565.837 191.384 565.333 191.384C563.289 191.384 561.973 192.756 561.273 194.632H561.217V191.72H559.397ZM570.46 203.564C571.3 205.104 572.784 206.336 575.276 206.336C578.748 206.336 581.548 203.536 581.548 198.86C581.548 194.156 578.748 191.356 575.276 191.356C572.784 191.356 571.272 192.644 570.46 194.016H570.404V185.98H568.584V206H570.404V203.564H570.46ZM575.052 192.924C578.02 192.924 579.644 195.64 579.644 198.86C579.644 202.052 578.02 204.74 575.052 204.74C572.308 204.74 570.404 202.444 570.404 198.86C570.404 195.248 572.308 192.924 575.052 192.924ZM590.249 206.392C594.505 206.392 597.109 203.312 597.109 198.888C597.109 194.436 594.505 191.356 590.249 191.356C585.965 191.356 583.389 194.436 583.389 198.888C583.389 203.312 585.965 206.392 590.249 206.392ZM590.249 204.796C586.889 204.796 585.293 202.164 585.293 198.888C585.293 195.584 586.889 192.952 590.249 192.952C593.581 192.952 595.205 195.584 595.205 198.888C595.205 202.164 593.581 204.796 590.249 204.796ZM599.619 206H601.439V196.984C601.439 194.884 603.203 192.98 605.919 192.98C608.383 192.98 609.223 194.548 609.223 196.368V206H611.043V195.976C611.043 192.812 608.915 191.384 606.367 191.384C603.819 191.384 602.279 192.588 601.495 193.764H601.439V191.72H599.619V206ZM631.089 196.732H632.993C632.657 193.708 630.333 191.384 626.861 191.384C622.773 191.384 620.029 194.408 620.029 198.86C620.029 203.34 622.773 206.364 626.861 206.364C630.333 206.364 632.797 203.984 632.993 200.904H631.089C630.977 202.64 629.857 204.796 626.861 204.796C623.361 204.796 621.933 201.8 621.933 198.86C621.933 195.948 623.361 192.98 626.861 192.98C629.829 192.98 630.977 195.136 631.089 196.732ZM635.44 191.72V206H637.26V198.02C637.26 195.248 639.136 193.176 641.74 193.176C641.992 193.176 642.3 193.204 642.608 193.26V191.468C642.244 191.412 641.88 191.384 641.376 191.384C639.332 191.384 638.016 192.756 637.316 194.632H637.26V191.72H635.44ZM649.994 206.392C653.578 206.392 655.538 204.236 656.238 201.632H654.39C654.11 202.808 652.99 204.824 650.022 204.824C646.662 204.824 645.122 202.136 645.094 199.224H656.406C656.434 199 656.434 198.608 656.434 198.216C656.434 194.24 654.11 191.356 649.994 191.356C645.878 191.356 643.19 194.296 643.19 198.86C643.19 203.2 645.626 206.392 649.994 206.392ZM649.91 192.924C652.85 192.924 654.502 195.08 654.502 197.628H645.094C645.234 194.968 647.138 192.924 649.91 192.924ZM669.399 194.128C668.559 192.616 667.047 191.384 664.583 191.384C661.083 191.384 658.283 194.184 658.283 198.86C658.283 203.564 661.083 206.364 664.555 206.364C667.047 206.364 668.559 205.076 669.399 203.676H669.455V206H671.275V185.98H669.455V194.128H669.399ZM664.779 204.768C661.811 204.768 660.187 202.08 660.187 198.86C660.187 195.668 661.811 192.98 664.779 192.98C667.523 192.98 669.455 195.276 669.455 198.86C669.455 202.472 667.523 204.768 664.779 204.768ZM674.289 186.512V188.864H676.641V186.512H674.289ZM674.569 191.72V206H676.389V191.72H674.569ZM678.481 191.72V193.316H680.581V202.304C680.581 205.412 681.869 206.112 683.969 206.112C684.417 206.112 684.753 206.084 685.313 206V204.46C684.893 204.488 684.669 204.516 684.221 204.516C682.821 204.516 682.401 204.096 682.401 202.332V193.316H685.313V191.72H682.401V186.96H680.581V191.72H678.481ZM450.596 227.72V242H452.416V234.02C452.416 231.248 454.292 229.176 456.896 229.176C457.148 229.176 457.456 229.204 457.764 229.26V227.468C457.4 227.412 457.036 227.384 456.532 227.384C454.488 227.384 453.172 228.756 452.472 230.632H452.416V227.72H450.596ZM465.15 242.392C468.734 242.392 470.694 240.236 471.394 237.632H469.546C469.266 238.808 468.146 240.824 465.178 240.824C461.818 240.824 460.278 238.136 460.25 235.224H471.562C471.59 235 471.59 234.608 471.59 234.216C471.59 230.24 469.266 227.356 465.15 227.356C461.034 227.356 458.346 230.296 458.346 234.86C458.346 239.2 460.782 242.392 465.15 242.392ZM465.066 228.924C468.006 228.924 469.658 231.08 469.658 233.628H460.25C460.39 230.968 462.294 228.924 465.066 228.924ZM484.584 241.356C484.584 244.268 482.876 245.528 479.992 245.528C477.248 245.528 476.016 244.268 475.736 242.756H473.832C474.056 245.248 476.1 247.124 479.964 247.124C483.884 247.124 486.404 245.136 486.404 241.104V227.72H484.584V229.96H484.528C483.688 228.532 482.12 227.384 479.712 227.384C476.324 227.384 473.44 229.624 473.44 234.328C473.44 239.088 476.324 241.328 479.712 241.328C482.12 241.328 483.688 240.18 484.528 238.696H484.584V241.356ZM479.964 228.98C482.596 228.98 484.584 230.716 484.584 234.328C484.584 237.996 482.596 239.732 479.964 239.732C477.024 239.732 475.344 237.604 475.344 234.328C475.344 231.108 477.024 228.98 479.964 228.98ZM489.418 222.512V224.864H491.77V222.512H489.418ZM489.698 227.72V242H491.518V227.72H489.698ZM500.386 233.684C498.202 233.124 496.298 232.9 496.298 231.108C496.298 229.764 497.418 228.98 499.462 228.98C502.262 228.98 502.99 230.464 503.242 231.724H505.174C504.922 229.372 503.158 227.384 499.462 227.384C496.242 227.384 494.394 228.896 494.394 231.22C494.394 233.992 497.054 234.664 499.686 235.308C501.674 235.784 503.802 236.008 503.802 238.108C503.802 239.508 502.878 240.768 500.134 240.768C497.138 240.768 495.878 239.284 495.766 237.324H493.834C493.918 240.18 496.13 242.364 500.106 242.364C503.634 242.364 505.706 240.656 505.706 238.052C505.706 235.084 503.074 234.328 500.386 233.684ZM506.653 227.72V229.316H508.753V238.304C508.753 241.412 510.041 242.112 512.141 242.112C512.589 242.112 512.925 242.084 513.485 242V240.46C513.065 240.488 512.841 240.516 512.393 240.516C510.993 240.516 510.573 240.096 510.573 238.332V229.316H513.485V227.72H510.573V222.96H508.753V227.72H506.653ZM516.002 227.72V242H517.822V234.02C517.822 231.248 519.698 229.176 522.302 229.176C522.554 229.176 522.862 229.204 523.17 229.26V227.468C522.806 227.412 522.442 227.384 521.938 227.384C519.894 227.384 518.578 228.756 517.878 230.632H517.822V227.72H516.002ZM524.91 222.512V224.864H527.262V222.512H524.91ZM525.19 227.72V242H527.01V227.72H525.19ZM536.298 242.392C539.882 242.392 541.842 240.236 542.542 237.632H540.694C540.414 238.808 539.294 240.824 536.326 240.824C532.966 240.824 531.426 238.136 531.398 235.224H542.71C542.738 235 542.738 234.608 542.738 234.216C542.738 230.24 540.414 227.356 536.298 227.356C532.182 227.356 529.494 230.296 529.494 234.86C529.494 239.2 531.93 242.392 536.298 242.392ZM536.214 228.924C539.154 228.924 540.806 231.08 540.806 233.628H531.398C531.538 230.968 533.442 228.924 536.214 228.924ZM550.753 233.684C548.569 233.124 546.665 232.9 546.665 231.108C546.665 229.764 547.785 228.98 549.829 228.98C552.629 228.98 553.357 230.464 553.609 231.724H555.541C555.289 229.372 553.525 227.384 549.829 227.384C546.609 227.384 544.761 228.896 544.761 231.22C544.761 233.992 547.421 234.664 550.053 235.308C552.041 235.784 554.169 236.008 554.169 238.108C554.169 239.508 553.245 240.768 550.501 240.768C547.505 240.768 546.245 239.284 546.133 237.324H544.201C544.285 240.18 546.497 242.364 550.473 242.364C554.001 242.364 556.073 240.656 556.073 238.052C556.073 235.084 553.441 234.328 550.753 233.684Z" fill="#46DC78"/>
</svg>
