<svg width="220" height="33" viewBox="0 0 220 33" fill="none" xmlns="http://www.w3.org/2000/svg">
<g clip-path="url(#clip0_503_228)">
<path d="M107.597 17.7797H113.071V32.6293H116.114V17.7797H121.713V14.9892H107.597V17.7797ZM97.999 14.9892L91.6766 32.6293H94.9558L96.4914 28.0927H102.89L104.373 32.6293H107.641L101.454 14.9932L97.999 14.9892ZM97.3792 25.354L99.7186 18.4933L101.97 25.3739L97.3792 25.354ZM63.0839 32.6054H66.1271V14.9932H63.0839V32.6054ZM51.135 14.9692H48.0877V32.6054H59.9167V29.8149H51.119L51.135 14.9692ZM79.7117 27.7738L74.737 14.9692H70.8419V32.6054H73.8852V20.2394L78.488 32.6293H80.9594L85.5582 20.2394V32.6293H88.6054V14.9932H84.6944L79.7117 27.7738ZM32.6757 23.7873C32.6757 19.7411 35.5189 17.4488 39.074 17.4488C40.9045 17.4852 42.691 18.0141 44.2447 18.9796V15.9698C42.571 15.0979 40.7145 14.6321 38.8261 14.6105C33.8514 14.6105 29.6484 18.0667 29.6484 23.7794C29.6484 29.3604 33.8794 32.9482 39.0261 32.9482C40.8879 32.9352 42.7197 32.4787 44.3687 31.6167V28.6309C42.8681 29.5746 41.1431 30.1042 39.37 30.1657C35.7709 30.1657 32.6877 27.7698 32.6877 23.8232L32.6757 23.7873ZM127.907 25.0231H136.221V22.2326H127.919V17.7797H137.745V14.9892H124.876V32.6253H137.941V29.8348H127.919L127.907 25.0231ZM199.045 27.2914L190.531 14.9932H187.388V32.6293H190.435L190.459 20.1716L199.045 32.6293H202.129V14.9932H199.085L199.045 27.2914ZM179.622 32.5934H182.665V14.9932H179.622V32.5934ZM143.419 23.7873C143.419 19.7411 146.267 17.4488 149.818 17.4488C151.648 17.4858 153.435 18.0147 154.989 18.9796V15.9698C153.314 15.0993 151.458 14.6336 149.57 14.6105C144.595 14.6105 140.372 18.0667 140.372 23.7794C140.372 29.3604 144.603 32.9482 149.754 32.9482C151.616 32.9352 153.448 32.4787 155.096 31.6167V28.6309C153.584 29.5604 151.85 30.0722 150.074 30.1139C146.503 30.1657 143.431 27.7698 143.431 23.8232L143.419 23.7873ZM166.877 14.6185C161.559 14.6185 157.724 18.4694 157.724 23.7873C157.724 29.1053 161.559 32.9562 166.877 32.9562C172.196 32.9562 176.035 29.1093 176.035 23.7873C176.035 18.4654 172.212 14.6463 166.889 14.6463L166.877 14.6185ZM166.877 30.1378C163.314 30.1378 160.743 27.4708 160.743 23.7953C160.743 20.1198 163.314 17.4568 166.877 17.4568C170.441 17.4568 173.016 20.1198 173.016 23.7953C173.016 27.4708 170.453 30.1657 166.889 30.1657L166.877 30.1378ZM217.932 14.9653L216.333 20.4825H216.305L214.733 14.9653H212.702V22.2047H213.997V16.6874H214.045C214.045 16.6874 214.349 17.8834 214.605 18.7405L215.645 22.2326H216.993L218.032 18.7405C218.312 17.8275 218.616 16.6874 218.616 16.6874H218.668V22.2326H219.988V14.9932L217.932 14.9653ZM205.536 16.1612H207.823V22.2127H209.243V16.1811H211.526V14.9852H205.528L205.536 16.1612Z" fill="#374236"/>
<path d="M3.74324 12.4297C3.60783 11.8696 3.53937 11.2956 3.53928 10.7195C3.53928 8.81164 4.29956 6.98191 5.65285 5.63285C7.00615 4.28379 8.84161 3.5259 10.7555 3.5259C12.6693 3.5259 14.5048 4.28379 15.8581 5.63285C17.2113 6.98191 17.9716 8.81164 17.9716 10.7195C17.9722 11.2959 17.9024 11.8701 17.7637 12.4297H21.3628C21.456 11.8644 21.5028 11.2924 21.5027 10.7195C21.4484 7.91175 20.2914 5.23728 18.2803 3.27076C16.2692 1.30425 13.5645 0.202637 10.7475 0.202637C7.93037 0.202637 5.2257 1.30425 3.2146 3.27076C1.20351 5.23728 0.0465006 7.91175 -0.00781239 10.7195C-0.00789504 11.2924 0.0389175 11.8644 0.132154 12.4297H3.74324Z" fill="#374236"/>
<path d="M12.5231 24.5167V21.2837C14.4336 20.9598 16.2214 20.1294 17.699 18.8795C19.1766 17.6295 20.2895 16.0062 20.9209 14.1798H17.0659C16.5895 15.0439 15.9407 15.8017 15.1594 16.4064C14.3781 17.0111 13.4809 17.4499 12.5231 17.6959V14.1918H8.97599V17.6959C8.01772 17.4523 7.11961 17.0157 6.33696 16.4131C5.55431 15.8105 4.90368 15.0545 4.42514 14.1918H0.578125C1.21137 16.0159 2.32506 17.6368 3.80254 18.8845C5.28001 20.1322 7.06689 20.9609 8.97599 21.2837V24.5048C7.1256 24.9103 5.46928 25.9327 4.28053 27.4033C3.09178 28.8739 2.4417 30.7047 2.43765 32.5933H5.97675C6.01269 31.3563 6.53087 30.182 7.42127 29.3198C8.31167 28.4575 9.50416 27.9751 10.7455 27.9751C11.9869 27.9751 13.1794 28.4575 14.0698 29.3198C14.9602 30.182 15.4784 31.3563 15.5143 32.5933H19.0494C19.044 30.7082 18.3946 28.8811 17.2084 27.4131C16.0221 25.945 14.3696 24.9235 12.5231 24.5167Z" fill="#374236"/>
</g>
<defs>
<clipPath id="clip0_503_228">
<rect width="220" height="33" fill="white"/>
</clipPath>
</defs>
</svg>
