<svg width="208" height="40" viewBox="0 0 208 40" fill="none" xmlns="http://www.w3.org/2000/svg">
<rect width="208" height="40" rx="20" fill="white"/>
<path d="M118.734 27.0521C117.874 28.0212 116.772 28.7435 115.54 29.1446C114.069 29.6588 112.52 29.9123 110.962 29.8938C109.352 29.9249 107.764 29.5277 106.358 28.7429C105.019 27.9635 103.948 26.796 103.286 25.3948C102.524 23.7881 102.136 22.0295 102.152 20.2513V18.8702C102.108 17.0602 102.457 15.2622 103.178 13.6011C103.796 12.1966 104.826 11.013 106.132 10.207C107.502 9.39745 109.07 8.9872 110.661 9.02262C113.071 9.02262 114.956 9.59598 116.315 10.7427C117.673 11.8894 118.478 13.5635 118.729 15.7648H114.653C114.557 14.7902 114.111 13.8833 113.398 13.2119C112.645 12.637 111.711 12.3505 110.765 12.4042C110.131 12.371 109.5 12.5015 108.931 12.7829C108.362 13.0644 107.876 13.4874 107.518 14.0113C106.773 15.0827 106.396 16.6744 106.388 18.7865V20.0839C106.388 22.2155 106.794 23.824 107.605 24.9093C108.417 25.9946 109.603 26.5387 111.163 26.5415C112.736 26.5415 113.852 26.2067 114.511 25.5371V22.0341H110.702V18.9497H118.7L118.734 27.0521Z" fill="#029DDA"/>
<path d="M153.321 25.4161H145.976L144.583 29.6012H140.117L147.671 9.27832H151.551L159.168 29.5929H154.732L153.321 25.4161ZM147.111 22.0304H152.187L149.63 14.426L147.111 22.0304Z" fill="#029DDA"/>
<path d="M164.639 26.2364L173.528 26.2322V29.597L160.454 29.6012L160.445 9.2825L164.63 9.27832L164.639 26.2364Z" fill="#029DDA"/>
<path d="M185.834 24.2564C185.852 23.9078 185.785 23.5601 185.639 23.243C185.494 22.9258 185.273 22.6489 184.997 22.4359C184.06 21.8368 183.039 21.3825 181.967 21.0883C180.779 20.7263 179.625 20.2614 178.518 19.6988C176.213 18.4572 175.06 16.7832 175.057 14.6767C175.044 13.6264 175.369 12.5998 175.982 11.7471C176.662 10.8367 177.587 10.1374 178.648 9.72987C179.886 9.22898 181.212 8.98137 182.548 9.00166C183.884 8.97615 185.208 9.24477 186.428 9.78846C187.504 10.2616 188.421 11.0327 189.073 12.0108C189.704 12.9827 190.034 14.1202 190.019 15.2793H185.834C185.856 14.8755 185.789 14.4716 185.637 14.0968C185.485 13.7219 185.252 13.3854 184.955 13.1114C184.256 12.5562 183.376 12.2802 182.485 12.3372C181.639 12.2866 180.8 12.5144 180.096 12.9859C179.828 13.1824 179.613 13.4408 179.467 13.7389C179.321 14.037 179.25 14.3659 179.259 14.6976C179.264 15.0398 179.36 15.3745 179.535 15.6683C179.711 15.9621 179.96 16.2046 180.259 16.3716C181.171 16.9278 182.157 17.3506 183.189 17.6272C185.571 18.3414 187.307 19.2287 188.395 20.2889C188.927 20.8003 189.347 21.4166 189.629 22.0988C189.911 22.781 190.048 23.5143 190.031 24.2522C190.063 25.0528 189.897 25.849 189.549 26.5707C189.201 27.2924 188.681 27.9176 188.035 28.3913C186.707 29.3818 184.917 29.877 182.665 29.877C181.199 29.9013 179.745 29.6161 178.397 29.04C177.217 28.5488 176.201 27.7332 175.467 26.6879C174.784 25.6647 174.431 24.4569 174.454 23.2268H178.639C178.639 25.4589 179.979 26.5749 182.657 26.5749C183.478 26.6217 184.294 26.4094 184.988 25.9681C185.258 25.7771 185.476 25.5216 185.623 25.2249C185.769 24.9281 185.838 24.5995 185.825 24.2689" fill="#029DDA"/>
<path d="M125.569 16.7064C125.827 16.2734 126.138 15.8741 126.494 15.5178L123.464 12.1948C122.697 12.9281 122.048 13.775 121.539 14.7059L125.569 16.7064Z" fill="#61B234"/>
<path d="M133.008 14.3585C133.459 14.5691 133.881 14.8378 134.263 15.1579L137.302 11.8391C136.497 11.1431 135.587 10.5781 134.607 10.165L133.008 14.3585Z" fill="#DDA939"/>
<path d="M139.968 15.3589L135.938 17.3677C136.139 17.8214 136.28 18.2999 136.356 18.7907L140.838 18.3722C140.715 17.3323 140.432 16.3174 140.001 15.3631" fill="#C51B2E"/>
<path d="M135.646 16.786L139.672 14.7772C139.177 13.8492 138.543 13.0023 137.793 12.2661L134.75 15.5849C135.098 15.9409 135.399 16.3404 135.646 16.7735" fill="#4C9F37"/>
<path d="M124.765 19.6485C124.765 19.5565 124.765 19.4686 124.765 19.3765L120.283 18.958C120.283 19.1798 120.258 19.4058 120.258 19.6318C120.257 20.4781 120.36 21.3213 120.563 22.1429L124.895 20.8873C124.802 20.4754 124.755 20.0542 124.757 19.6318" fill="#3F7E45"/>
<path d="M135.1 23.3315C134.782 23.7207 134.415 24.0668 134.008 24.3611L136.356 28.203C137.235 27.6081 138.017 26.8811 138.674 26.0477L135.1 23.3315Z" fill="#FBC30A"/>
<path d="M136.4 19.6485C136.4 20.0637 136.355 20.4776 136.266 20.8831L140.597 22.1386C140.798 21.3266 140.899 20.4932 140.899 19.6568C140.899 19.4434 140.899 19.2383 140.878 19.0249L136.395 19.4434C136.395 19.5146 136.395 19.5815 136.395 19.6527" fill="#E8412E"/>
<path d="M126.161 23.4194L122.578 26.1439C123.245 26.9653 124.034 27.6795 124.918 28.2616L127.282 24.4322C126.865 24.1455 126.488 23.805 126.161 23.4194Z" fill="#F59B2C"/>
<path d="M124.843 18.732C124.921 18.235 125.061 17.7498 125.261 17.2882L121.235 15.2793C120.78 16.2417 120.479 17.2699 120.344 18.3261L124.843 18.732Z" fill="#1796D4"/>
<path d="M135.801 28.5418L133.42 24.7124C132.986 24.9574 132.521 25.1458 132.039 25.2732L132.876 29.701C133.906 29.4661 134.894 29.0752 135.806 28.5418" fill="#A21A43"/>
<path d="M136.097 21.5068C135.942 21.9637 135.731 22.3995 135.469 22.8042L139.064 25.5162C139.651 24.6663 140.11 23.734 140.424 22.7498L136.097 21.5068Z" fill="#2CBBE1"/>
<path d="M131.422 25.4033C131.145 25.4434 130.865 25.4644 130.585 25.4661C130.359 25.4649 130.132 25.4509 129.907 25.4242L129.07 29.8521C129.571 29.9245 130.076 29.9608 130.581 29.9609C131.142 29.9612 131.702 29.9164 132.255 29.827L131.422 25.4033Z" fill="#ED692E"/>
<path d="M130.953 13.844C131.443 13.8743 131.927 13.9685 132.393 14.1244L134.012 9.91837C133.028 9.57157 131.996 9.37682 130.953 9.34082V13.844Z" fill="#E5263C"/>
<path d="M129.265 25.3109C128.766 25.1971 128.286 25.0154 127.838 24.771L125.469 28.6213C126.392 29.148 127.392 29.5291 128.432 29.7513L129.265 25.3109Z" fill="#DD1568"/>
<path d="M128.816 14.1033C129.291 13.9513 129.785 13.8626 130.284 13.8396V9.33643C129.229 9.36415 128.185 9.55471 127.188 9.90141L128.816 14.1033Z" fill="#19486A"/>
<path d="M125.767 22.9005C125.481 22.4748 125.252 22.0133 125.085 21.5278L120.758 22.7834C121.081 23.8051 121.562 24.7697 122.185 25.6418L125.767 22.9005Z" fill="#BF8B2F"/>
<path d="M126.987 15.0869C127.371 14.783 127.793 14.5298 128.242 14.3335L126.614 10.1484C125.653 10.5521 124.758 11.0997 123.961 11.7723L126.987 15.0869Z" fill="#00699F"/>
<path d="M22.7181 15.9447C22.7242 15.8085 22.6982 15.6728 22.6422 15.5485C22.5862 15.4242 22.5018 15.3148 22.3958 15.229C22.0454 14.9938 21.6597 14.8158 21.2533 14.7017C20.7987 14.5535 20.3541 14.3759 19.9224 14.1702C18.8064 13.6122 18.2484 12.8547 18.2484 11.8977C18.2443 11.4443 18.3916 11.0025 18.6669 10.6422C18.9792 10.2617 19.3884 9.97257 19.8513 9.80513C20.4025 9.59339 20.9893 9.48966 21.5797 9.49962C22.1549 9.48934 22.7257 9.60206 23.2538 9.83024C23.7206 10.0299 24.1202 10.3597 24.4047 10.7803C24.6825 11.1962 24.8283 11.6863 24.8232 12.1865H22.7306C22.7421 12.0314 22.7187 11.8758 22.6623 11.731C22.6058 11.5861 22.5176 11.4558 22.4042 11.3494C22.1593 11.1433 21.8449 11.0385 21.5253 11.0565C21.2119 11.04 20.9017 11.1268 20.6423 11.3034C20.5403 11.3724 20.4574 11.4659 20.4011 11.5754C20.3449 11.6849 20.3172 11.8068 20.3205 11.9299C20.3238 12.0529 20.3581 12.1732 20.4202 12.2794C20.4823 12.3857 20.5702 12.4747 20.6758 12.538C21.0637 12.786 21.487 12.9737 21.9313 13.0946C22.444 13.2509 22.9391 13.4599 23.4086 13.7182C23.8282 13.9209 24.1821 14.2377 24.4301 14.6321C24.678 15.0266 24.8099 15.4829 24.8106 15.9489C24.8258 16.2938 24.7554 16.637 24.6057 16.9481C24.456 17.2592 24.2317 17.5284 23.9527 17.7317C23.2635 18.202 22.4377 18.4302 21.6048 18.3804C20.9493 18.3899 20.2992 18.2616 19.6964 18.0038C19.1769 17.7912 18.7305 17.432 18.4116 16.97C18.1249 16.5177 17.9792 15.9904 17.9931 15.455H20.0856C20.0657 15.6409 20.0856 15.8288 20.1441 16.0064C20.2025 16.1839 20.2982 16.3469 20.4246 16.4846C20.7588 16.7369 21.1754 16.8549 21.5923 16.8152C21.881 16.8301 22.167 16.7524 22.4084 16.5934C22.5062 16.5215 22.5849 16.4266 22.6374 16.3171C22.69 16.2076 22.7148 16.0869 22.7097 15.9656" fill="#029DDA"/>
<path d="M32.7982 9.58301V15.2538C32.81 15.8391 32.6655 16.417 32.3797 16.9279C32.1035 17.396 31.6921 17.7695 31.1995 17.9993C30.6311 18.2574 30.0115 18.3833 29.3874 18.3676C28.4741 18.4198 27.5756 18.1202 26.8763 17.5305C26.5695 17.2443 26.3278 16.8955 26.1675 16.5078C26.0072 16.1201 25.9321 15.7024 25.9472 15.2831V9.58301H28.0398V15.3375C28.0649 16.2834 28.5057 16.7563 29.3623 16.7563C29.5414 16.7705 29.7216 16.7462 29.8906 16.6848C30.0595 16.6234 30.2133 16.5265 30.3416 16.4005C30.5934 16.0692 30.7128 15.6559 30.6764 15.2413V9.58301H32.7982Z" fill="#029DDA"/>
<path d="M38.6946 15.9447C38.7009 15.8081 38.6746 15.6719 38.6178 15.5475C38.561 15.423 38.4755 15.3139 38.3682 15.229C38.0198 14.9928 37.6354 14.8147 37.2299 14.7017C36.775 14.5542 36.3303 14.3766 35.899 14.1702C34.783 13.6122 34.2249 12.8547 34.2249 11.8977C34.2212 11.4443 34.3685 11.0026 34.6435 10.6422C34.9551 10.261 35.3645 9.97163 35.8278 9.80513C36.3778 9.59391 36.9631 9.49019 37.5521 9.49961C38.1272 9.48997 38.6979 9.60267 39.2262 9.83024C39.6924 10.0309 40.0917 10.3605 40.3771 10.7803C40.6549 11.1962 40.8007 11.6863 40.7956 12.1865H38.703C38.7141 12.0318 38.691 11.8767 38.6353 11.732C38.5796 11.5873 38.4927 11.4567 38.3808 11.3494C38.1346 11.1455 37.8211 11.041 37.5019 11.0565C37.1885 11.04 36.8783 11.1268 36.6188 11.3034C36.5182 11.374 36.4363 11.4681 36.3801 11.5775C36.324 11.6868 36.2953 11.8082 36.2966 11.9312C36.3034 12.0533 36.3392 12.172 36.4011 12.2776C36.463 12.3831 36.5491 12.4724 36.6523 12.538C37.0402 12.786 37.4636 12.9737 37.9078 13.0946C38.4192 13.2508 38.9129 13.4598 39.381 13.7182C39.8016 13.9199 40.1567 14.2363 40.4055 14.6309C40.6543 15.0255 40.7866 15.4824 40.7872 15.9489C40.8024 16.2938 40.7319 16.637 40.5823 16.9481C40.4326 17.2592 40.2082 17.5284 39.9292 17.7317C39.2401 18.202 38.4143 18.4302 37.5814 18.3804C36.9259 18.3899 36.2757 18.2616 35.673 18.0038C35.1535 17.7912 34.707 17.432 34.3882 16.97C34.1015 16.5177 33.9558 15.9904 33.9697 15.455H36.0622C36.0464 15.6417 36.0703 15.8295 36.1324 16.0062C36.1944 16.183 36.2932 16.3446 36.4221 16.4804C36.7587 16.7312 37.176 16.8489 37.594 16.811C37.8827 16.826 38.1686 16.7482 38.4101 16.5892C38.5079 16.5173 38.5865 16.4224 38.6391 16.3129C38.6916 16.2035 38.7165 16.0827 38.7114 15.9614" fill="#029DDA"/>
<path d="M48.7715 11.1943H46.1725V18.2462H44.0842V11.1943H41.5312V9.58301H48.7715V11.1943Z" fill="#029DDA"/>
<path d="M53.9783 16.6265H51.1157L50.6135 18.2462H48.3828L51.5593 9.58301H53.5263L56.7237 18.2462H54.4847L53.9783 16.6265ZM51.6137 15.0153H53.4845L52.5512 12.0104L51.6137 15.0153Z" fill="#029DDA"/>
<path d="M59.7092 9.58301H57.625V18.2462H59.7092V9.58301Z" fill="#029DDA"/>
<path d="M68.5173 18.2462H66.4373L63.3696 12.8558V18.2462H61.2812V9.58301H63.3696L66.4331 14.9734V9.58301H68.5173V18.2462Z" fill="#029DDA"/>
<path d="M74.9861 16.6265H72.1235L71.6255 18.2462H69.3906L72.5713 9.58301H74.5341L77.7357 18.2462H75.4925L74.9861 16.6265ZM72.6215 15.0153H74.4839L73.5506 12.0104L72.6215 15.0153Z" fill="#029DDA"/>
<path d="M78.4844 18.2464V9.58323H81.5981C82.4884 9.52641 83.3752 9.73935 84.1426 10.1942C84.4267 10.3926 84.6556 10.6599 84.8079 10.971C84.9602 11.2822 85.0308 11.627 85.0131 11.9729C85.0236 12.3785 84.9161 12.7783 84.7034 13.1238C84.4854 13.4509 84.1665 13.6978 83.7953 13.8269C84.2091 13.9189 84.5769 14.1547 84.8332 14.4924C85.0824 14.8375 85.2104 15.2554 85.1973 15.6809C85.2232 16.0409 85.1636 16.4018 85.0232 16.7343C84.8828 17.0667 84.6657 17.3611 84.3896 17.5935C83.6888 18.0696 82.8496 18.2993 82.0041 18.2464H78.4844ZM80.5769 13.195H81.6692C82.0132 13.2222 82.3564 13.1339 82.6444 12.9439C82.7437 12.8526 82.8212 12.7401 82.8712 12.6147C82.9212 12.4894 82.9424 12.3545 82.9331 12.2198C82.9466 12.0726 82.9252 11.9243 82.8707 11.7869C82.8161 11.6495 82.73 11.5268 82.6193 11.4289C82.3137 11.2445 81.9579 11.1611 81.6023 11.1903H80.5769V13.195ZM80.5769 14.5635V16.6561H81.9455C82.2573 16.6762 82.566 16.5841 82.816 16.3966C82.9179 16.3058 82.998 16.1932 83.0502 16.067C83.1023 15.9409 83.1253 15.8046 83.1173 15.6684C83.1387 15.5216 83.1257 15.3719 83.0794 15.231C83.0331 15.0901 82.9548 14.9619 82.8505 14.8564C82.7463 14.7509 82.619 14.6711 82.4786 14.6232C82.3383 14.5753 82.1887 14.5606 82.0417 14.5802L80.5769 14.5635Z" fill="#029DDA"/>
<path d="M88.5571 16.6391H92.1898V18.2462H86.4688V9.58301H88.5571V16.6391Z" fill="#029DDA"/>
<path d="M98.569 14.5675H95.2837V16.6391H99.1633V18.2462H93.1953V9.58301H99.1758V11.1943H95.2837V13.0232H98.569V14.5675Z" fill="#029DDA"/>
<path d="M18.2422 29.9646V21.4731H20.9793C21.6862 21.463 22.3833 21.6391 23.0007 21.9836C23.5952 22.3207 24.0815 22.82 24.4027 23.4233C24.745 24.0672 24.9205 24.7867 24.9133 25.5159V25.9093C24.9264 26.6371 24.7566 27.3566 24.4194 28.0018C24.1026 28.6048 23.6225 29.1066 23.0341 29.4499C22.4272 29.7995 21.7383 29.9815 21.0378 29.9772L18.2422 29.9646ZM20.2887 23.055V28.3869H21.0002C21.2576 28.4042 21.5153 28.3584 21.7509 28.2534C21.9865 28.1483 22.1929 27.9873 22.352 27.7842C22.7058 27.2304 22.8716 26.5773 22.8249 25.9218V25.5535C22.8722 24.9006 22.7063 24.25 22.352 23.6995C22.1911 23.4918 21.982 23.3264 21.7428 23.2178C21.5036 23.1091 21.2415 23.0604 20.9793 23.076L20.2887 23.055Z" fill="#029DDA"/>
<path d="M30.778 26.3614H27.7731V28.3911H31.3639V29.9647H25.7266V21.4731H31.3723V23.0551H27.7731V24.8463H30.778V26.3614Z" fill="#029DDA"/>
<path d="M35.8456 27.6546L37.5363 21.4731H39.8214L36.963 29.9605H34.7239L31.8906 21.4731H34.159L35.8456 27.6546Z" fill="#029DDA"/>
<path d="M45.4596 26.3614H42.484V28.3911H46.0455V29.9647H40.4375V21.4731H46.0539V23.0551H42.484V24.8463H45.4596V26.3614Z" fill="#029DDA"/>
<path d="M48.7887 28.3869H52.0238V29.9605H46.7422V21.4731H48.7887V28.3869Z" fill="#029DDA"/>
<path d="M59.6515 25.8927C59.6667 26.6509 59.5078 27.4026 59.187 28.0898C58.9079 28.6998 58.4533 29.2127 57.8812 29.563C57.2924 29.8948 56.6279 30.0692 55.9519 30.0692C55.276 30.0692 54.6114 29.8948 54.0226 29.563C53.4586 29.2253 53.0049 28.7309 52.7168 28.1401C52.3997 27.4806 52.2352 26.7583 52.2355 26.0266V25.5495C52.2193 24.7906 52.3752 24.038 52.6917 23.3481C52.9739 22.7387 53.4315 22.2272 54.0058 21.8791C54.5944 21.5418 55.261 21.3643 55.9394 21.3643C56.6177 21.3643 57.2843 21.5418 57.8729 21.8791C58.443 22.2287 58.8994 22.736 59.187 23.3397C59.5112 24.0173 59.6745 24.7607 59.6641 25.5118L59.6515 25.8927ZM57.559 25.5369C57.6029 24.87 57.4579 24.2042 57.1405 23.616C57.0157 23.4089 56.8376 23.2391 56.6249 23.1243C56.4122 23.0095 56.1725 22.9538 55.931 22.9631C54.9056 22.9631 54.3658 23.7289 54.3072 25.2691V25.8927C54.2698 26.5591 54.4145 27.2231 54.7257 27.8136C54.8507 28.0263 55.0313 28.201 55.248 28.319C55.4648 28.437 55.7096 28.4937 55.9561 28.4832C56.1966 28.4907 56.4347 28.4332 56.6453 28.3169C56.8559 28.2005 57.0313 28.0296 57.153 27.822C57.4628 27.2415 57.6076 26.5873 57.5715 25.9303L57.559 25.5369Z" fill="#029DDA"/>
<path d="M62.5075 27.0813V29.9607H60.4609V21.4733H63.8467C64.4412 21.4626 65.0304 21.5856 65.571 21.8332C66.0485 22.0536 66.4514 22.4085 66.7302 22.8544C67.0087 23.3042 67.1538 23.8237 67.1487 24.3526C67.1626 24.7298 67.0898 25.1051 66.936 25.4497C66.7822 25.7943 66.5515 26.0991 66.2615 26.3406C65.5617 26.8688 64.697 27.1314 63.8216 27.0813H62.5075ZM62.5075 25.5036H63.8467C64.1767 25.5281 64.5031 25.4213 64.7549 25.2064C64.8612 25.0957 64.9436 24.9642 64.9969 24.8202C65.0502 24.6762 65.0732 24.5227 65.0646 24.3694C65.082 24.024 64.9684 23.6847 64.7465 23.4194C64.6347 23.3006 64.4988 23.2071 64.348 23.145C64.1971 23.083 64.0348 23.0538 63.8718 23.0595H62.5075V25.5036Z" fill="#029DDA"/>
<path d="M70.5817 21.4731L72.4733 27.3783L74.365 21.4731H77.056V29.9647H75.0053V27.981L75.202 23.9214L73.1513 29.9647H71.7995L69.7404 23.9172L69.9371 27.981V29.9647H67.8906V21.4731H70.5817Z" fill="#029DDA"/>
<path d="M83.0285 26.3614H80.0153V28.3911H83.6103V29.9647H77.9688V21.4731H83.6228V23.0551H80.0153V24.8463H83.0285V26.3614Z" fill="#029DDA"/>
<path d="M91.3865 29.9605H89.3483L86.3434 24.6831V29.9605H84.2969V21.4731H86.3434L89.3441 26.7548V21.4731H91.3865V29.9605Z" fill="#029DDA"/>
<path d="M99.1761 23.0551H96.6273V29.9605H94.5808V23.0551H92.0781V21.4731H99.1761V23.0551Z" fill="#029DDA"/>
</svg>
