<svg width="220" height="33" viewBox="0 0 220 33" fill="none" xmlns="http://www.w3.org/2000/svg">
<g clip-path="url(#clip0_508_111)">
<path d="M107.597 17.7796H113.071V32.6292H116.114V17.7796H121.713V14.9891H107.597V17.7796ZM97.999 14.9891L91.6766 32.6292H94.9558L96.4914 28.0926H102.89L104.373 32.6292H107.641L101.454 14.993L97.999 14.9891ZM97.3792 25.3539L99.7186 18.4932L101.97 25.3738L97.3792 25.3539ZM63.0839 32.6053H66.1271V14.993H63.0839V32.6053ZM51.135 14.9691H48.0877V32.6053H59.9167V29.8148H51.119L51.135 14.9691ZM79.7117 27.7737L74.737 14.9691H70.8419V32.6053H73.8852V20.2392L78.488 32.6292H80.9594L85.5582 20.2392V32.6292H88.6054V14.993H84.6944L79.7117 27.7737ZM32.6757 23.7872C32.6757 19.7409 35.5189 17.4487 39.074 17.4487C40.9045 17.4851 42.691 18.014 44.2447 18.9795V15.9697C42.571 15.0978 40.7145 14.632 38.8261 14.6104C33.8514 14.6104 29.6484 18.0666 29.6484 23.7792C29.6484 29.3603 33.8794 32.9481 39.0261 32.9481C40.8879 32.9351 42.7197 32.4786 44.3687 31.6166V28.6308C42.8681 29.5744 41.1431 30.1041 39.37 30.1656C35.7709 30.1656 32.6877 27.7697 32.6877 23.8231L32.6757 23.7872ZM127.907 25.023H136.221V22.2325H127.919V17.7796H137.745V14.9891H124.876V32.6252H137.941V29.8347H127.919L127.907 25.023ZM199.045 27.2913L190.531 14.993H187.388V32.6292H190.435L190.459 20.1715L199.045 32.6292H202.129V14.993H199.085L199.045 27.2913ZM179.622 32.5933H182.665V14.993H179.622V32.5933ZM143.419 23.7872C143.419 19.7409 146.267 17.4487 149.818 17.4487C151.648 17.4857 153.435 18.0146 154.989 18.9795V15.9697C153.314 15.0992 151.458 14.6335 149.57 14.6104C144.595 14.6104 140.372 18.0666 140.372 23.7792C140.372 29.3603 144.603 32.9481 149.754 32.9481C151.616 32.9351 153.448 32.4786 155.096 31.6166V28.6308C153.584 29.5603 151.85 30.0721 150.074 30.1137C146.503 30.1656 143.431 27.7697 143.431 23.8231L143.419 23.7872ZM166.877 14.6183C161.559 14.6183 157.724 18.4693 157.724 23.7872C157.724 29.1052 161.559 32.9561 166.877 32.9561C172.196 32.9561 176.035 29.1092 176.035 23.7872C176.035 18.4653 172.212 14.6462 166.889 14.6462L166.877 14.6183ZM166.877 30.1377C163.314 30.1377 160.743 27.4707 160.743 23.7952C160.743 20.1196 163.314 17.4567 166.877 17.4567C170.441 17.4567 173.016 20.1196 173.016 23.7952C173.016 27.4707 170.453 30.1656 166.889 30.1656L166.877 30.1377ZM217.932 14.9652L216.333 20.4824H216.305L214.733 14.9652H212.702V22.2046H213.997V16.6873H214.045C214.045 16.6873 214.349 17.8832 214.605 18.7403L215.645 22.2325H216.993L218.032 18.7403C218.312 17.8274 218.616 16.6873 218.616 16.6873H218.668V22.2325H219.988V14.993L217.932 14.9652ZM205.536 16.1611H207.823V22.2126H209.243V16.181H211.526V14.9851H205.528L205.536 16.1611Z" fill="#F0F0F0"/>
<path d="M3.74324 12.4302C3.60783 11.8701 3.53937 11.2961 3.53928 10.72C3.53928 8.81213 4.29956 6.9824 5.65285 5.63334C7.00615 4.28428 8.84161 3.52639 10.7555 3.52639C12.6693 3.52639 14.5048 4.28428 15.8581 5.63334C17.2113 6.9824 17.9716 8.81213 17.9716 10.72C17.9722 11.2963 17.9024 11.8706 17.7637 12.4302H21.3628C21.456 11.8648 21.5028 11.2929 21.5027 10.72C21.4484 7.91224 20.2914 5.23776 18.2803 3.27125C16.2692 1.30474 13.5645 0.203125 10.7475 0.203125C7.93037 0.203125 5.2257 1.30474 3.2146 3.27125C1.20351 5.23776 0.0465006 7.91224 -0.00781239 10.72C-0.00789504 11.2929 0.0389175 11.8648 0.132154 12.4302H3.74324Z" fill="#F0F0F0"/>
<path d="M12.5231 24.5166V21.2836C14.4336 20.9597 16.2214 20.1293 17.699 18.8793C19.1766 17.6294 20.2895 16.0061 20.9209 14.1797H17.0659C16.5895 15.0438 15.9407 15.8016 15.1594 16.4063C14.3781 17.011 13.4809 17.4498 12.5231 17.6958V14.1917H8.97599V17.6958C8.01772 17.4522 7.11961 17.0156 6.33696 16.413C5.55431 15.8103 4.90368 15.0544 4.42514 14.1917H0.578125C1.21137 16.0158 2.32506 17.6367 3.80254 18.8844C5.28001 20.1321 7.06689 20.9608 8.97599 21.2836V24.5047C7.1256 24.9101 5.46928 25.9326 4.28053 27.4032C3.09178 28.8738 2.4417 30.7046 2.43765 32.5932H5.97675C6.01269 31.3562 6.53087 30.1819 7.42127 29.3196C8.31167 28.4574 9.50416 27.975 10.7455 27.975C11.9869 27.975 13.1794 28.4574 14.0698 29.3196C14.9602 30.1819 15.4784 31.3562 15.5143 32.5932H19.0494C19.044 30.7081 18.3946 28.881 17.2084 27.413C16.0221 25.9449 14.3696 24.9233 12.5231 24.5166Z" fill="#F0F0F0"/>
</g>
<defs>
<clipPath id="clip0_508_111">
<rect width="220" height="33" fill="white"/>
</clipPath>
</defs>
</svg>
